<?xml version="1.0" encoding="UTF-8" standalone="no"?>
<!-- Created with Inkscape (http://www.inkscape.org/) -->

<svg
   xmlns:dc="http://purl.org/dc/elements/1.1/"
   xmlns:cc="http://creativecommons.org/ns#"
   xmlns:rdf="http://www.w3.org/1999/02/22-rdf-syntax-ns#"
   xmlns:svg="http://www.w3.org/2000/svg"
   xmlns="http://www.w3.org/2000/svg"
   xmlns:sodipodi="http://sodipodi.sourceforge.net/DTD/sodipodi-0.dtd"
   xmlns:inkscape="http://www.inkscape.org/namespaces/inkscape"
   width="294.28079mm"
   height="179.33272mm"
   viewBox="0 0 294.28079 179.33271"
   version="1.1"
   id="svg5296"
   inkscape:version="0.92.2 5c3e80d, 2017-08-06"
   sodipodi:docname="detail-final.svg">
  <defs
     id="defs5290" />
  <sodipodi:namedview
     id="base"
     pagecolor="#ffffff"
     bordercolor="#666666"
     borderopacity="1.0"
     inkscape:pageopacity="0.0"
     inkscape:pageshadow="2"
     inkscape:zoom="0.98994949"
     inkscape:cx="606.6487"
     inkscape:cy="343.71375"
     inkscape:document-units="mm"
     inkscape:current-layer="layer1"
     showgrid="false"
     inkscape:window-width="1920"
     inkscape:window-height="1016"
     inkscape:window-x="0"
     inkscape:window-y="27"
     inkscape:window-maximized="1"
     fit-margin-top="10"
     fit-margin-left="10"
     fit-margin-right="10"
     fit-margin-bottom="10" />
  <metadata
     id="metadata5293">
    <rdf:RDF>
      <cc:Work
         rdf:about="">
        <dc:format>image/svg+xml</dc:format>
        <dc:type
           rdf:resource="http://purl.org/dc/dcmitype/StillImage" />
        <dc:title />
      </cc:Work>
    </rdf:RDF>
  </metadata>
  <g
     inkscape:label="Layer 1"
     inkscape:groupmode="layer"
     id="layer1"
     transform="translate(1.4158805,-15.702994)">
    <rect
       style="fill:#011627;fill-opacity:1;stroke:#2ec4b6;stroke-width:1.32291663;stroke-miterlimit:4;stroke-dasharray:none;stroke-opacity:1"
       id="rect5178"
       width="272.95789"
       height="135.11745"
       x="9.2455778"
       y="26.364452"
       rx="0"
       ry="0" />
    <rect
       y="35.933308"
       x="18.032413"
       height="40.678707"
       width="72.775909"
       id="rect5942"
       style="fill:#011627;fill-opacity:1;stroke:#2ec4b6;stroke-width:1.32291663;stroke-miterlimit:4;stroke-dasharray:none;stroke-opacity:1" />
    <g
       aria-label="Container"
       style="font-style:normal;font-weight:normal;font-size:4.23333311px;line-height:125%;font-family:sans-serif;letter-spacing:0px;word-spacing:0px;fill:#2ec4b6;fill-opacity:1;stroke:none;stroke-width:0.26458332px;stroke-linecap:butt;stroke-linejoin:miter;stroke-opacity:1"
       id="text5182">
      <path
         d="m 33.7746,42.648318 v 1.174088 q -0.56224,-0.523654 -1.201649,-0.782725 -0.633898,-0.259072 -1.350478,-0.259072 -1.411111,0 -2.160764,0.865408 -0.749653,0.859896 -0.749653,2.491493 0,1.626086 0.749653,2.491494 0.749653,0.859895 2.160764,0.859895 0.71658,0 1.350478,-0.259071 0.639409,-0.259071 1.201649,-0.782725 v 1.163064 q -0.584288,0.396875 -1.240235,0.595312 -0.650434,0.198438 -1.378038,0.198438 -1.86862,0 -2.943489,-1.141016 -1.07487,-1.146528 -1.07487,-3.125391 0,-1.984375 1.07487,-3.12539 1.074869,-1.146528 2.943489,-1.146528 0.738629,0 1.389063,0.198438 0.655946,0.192925 1.22921,0.584288 z"
         style="font-style:normal;font-size:11.28888893px;fill:#2ec4b6;fill-opacity:1;stroke-width:0.26458332px"
         id="path2884" />
      <path
         d="m 37.853593,44.781521 q -0.815799,0 -1.289844,0.63941 -0.474045,0.633897 -0.474045,1.74184 0,1.107943 0.468533,1.747352 0.474045,0.633898 1.295356,0.633898 0.810286,0 1.284331,-0.63941 0.474045,-0.63941 0.474045,-1.74184 0,-1.096918 -0.474045,-1.736328 -0.474045,-0.644922 -1.284331,-0.644922 z m 0,-0.859896 q 1.322916,0 2.078081,0.859896 0.755165,0.859896 0.755165,2.38125 0,1.515842 -0.755165,2.38125 -0.755165,0.859896 -2.078081,0.859896 -1.328429,0 -2.083594,-0.859896 -0.749653,-0.865408 -0.749653,-2.38125 0,-1.521354 0.749653,-2.38125 0.755165,-0.859896 2.083594,-0.859896 z"
         style="font-style:normal;font-size:11.28888893px;fill:#2ec4b6;fill-opacity:1;stroke-width:0.26458332px"
         id="path2886" />
      <path
         d="m 47.494348,46.517849 v 3.726215 h -1.014236 v -3.693142 q 0,-0.876432 -0.341754,-1.311892 -0.341753,-0.43546 -1.02526,-0.43546 -0.821311,0 -1.295356,0.523654 -0.474045,0.523655 -0.474045,1.427648 v 3.489192 h -1.019749 v -6.173611 h 1.019749 v 0.959115 q 0.363802,-0.556728 0.854383,-0.832335 0.496094,-0.275608 1.141016,-0.275608 1.063845,0 1.609549,0.661458 0.545703,0.655947 0.545703,1.934766 z"
         style="font-style:normal;font-size:11.28888893px;fill:#2ec4b6;fill-opacity:1;stroke-width:0.26458332px"
         id="path2888" />
      <path
         d="m 50.531544,42.317589 v 1.752864 h 2.089106 v 0.788238 h -2.089106 v 3.351389 q 0,0.755165 0.20395,0.970139 0.209462,0.214974 0.843359,0.214974 h 1.041797 v 0.848871 h -1.041797 q -1.174088,0 -1.620573,-0.43546 -0.446484,-0.440972 -0.446484,-1.598524 v -3.351389 h -0.744141 v -0.788238 h 0.744141 v -1.752864 z"
         style="font-style:normal;font-size:11.28888893px;fill:#2ec4b6;fill-opacity:1;stroke-width:0.26458332px"
         id="path2890" />
      <path
         d="m 56.765789,47.140722 q -1.22921,0 -1.703256,0.28112 -0.474045,0.28112 -0.474045,0.959115 0,0.540191 0.352778,0.859896 0.35829,0.314192 0.970139,0.314192 0.843359,0 1.350477,-0.595312 0.512631,-0.600825 0.512631,-1.593012 v -0.225999 z m 2.02296,-0.418923 v 3.522265 h -1.014236 v -0.937066 q -0.347266,0.56224 -0.865408,0.832335 -0.518143,0.264584 -1.267796,0.264584 -0.94809,0 -1.510329,-0.529167 -0.556728,-0.534679 -0.556728,-1.427647 0,-1.041797 0.694531,-1.570964 0.700044,-0.529167 2.083594,-0.529167 h 1.422136 v -0.09922 q 0,-0.700044 -0.463021,-1.080382 -0.457509,-0.385851 -1.289844,-0.385851 -0.529167,0 -1.030773,0.126779 -0.501605,0.12678 -0.964626,0.380339 v -0.937066 q 0.556727,-0.214974 1.080382,-0.319705 0.523654,-0.110243 1.019748,-0.110243 1.339453,0 2.000911,0.694531 0.661459,0.694532 0.661459,2.105643 z"
         style="font-style:normal;font-size:11.28888893px;fill:#2ec4b6;fill-opacity:1;stroke-width:0.26458332px"
         id="path2892" />
      <path
         d="m 60.883368,44.070453 h 1.014236 v 6.173611 h -1.014236 z m 0,-2.403298 h 1.014236 v 1.284331 h -1.014236 z"
         style="font-style:normal;font-size:11.28888893px;fill:#2ec4b6;fill-opacity:1;stroke-width:0.26458332px"
         id="path2894" />
      <path
         d="m 69.146084,46.517849 v 3.726215 h -1.014236 v -3.693142 q 0,-0.876432 -0.341754,-1.311892 -0.341753,-0.43546 -1.02526,-0.43546 -0.821311,0 -1.295356,0.523654 -0.474045,0.523655 -0.474045,1.427648 v 3.489192 h -1.019748 v -6.173611 h 1.019748 v 0.959115 q 0.363802,-0.556728 0.854384,-0.832335 0.496093,-0.275608 1.141015,-0.275608 1.063846,0 1.609549,0.661458 0.545703,0.655947 0.545703,1.934766 z"
         style="font-style:normal;font-size:11.28888893px;fill:#2ec4b6;fill-opacity:1;stroke-width:0.26458332px"
         id="path2896" />
      <path
         d="m 76.46071,46.9037 v 0.496093 h -4.663281 q 0.06615,1.04731 0.628385,1.598525 0.567752,0.545703 1.576476,0.545703 0.584288,0 1.129991,-0.143316 0.551216,-0.143316 1.091407,-0.429948 v 0.959115 q -0.545703,0.23151 -1.118967,0.352777 -0.573264,0.121268 -1.163065,0.121268 -1.477257,0 -2.342665,-0.859896 -0.859895,-0.859896 -0.859895,-2.326129 0,-1.515842 0.815798,-2.403298 0.821311,-0.892969 2.210374,-0.892969 1.245746,0 1.967838,0.804774 0.727604,0.799263 0.727604,2.177301 z m -1.014236,-0.297657 q -0.01102,-0.832335 -0.468533,-1.328428 -0.451996,-0.496094 -1.201649,-0.496094 -0.848872,0 -1.361502,0.479557 -0.507118,0.479557 -0.584288,1.350478 z"
         style="font-style:normal;font-size:11.28888893px;fill:#2ec4b6;fill-opacity:1;stroke-width:0.26458332px"
         id="path2898" />
      <path
         d="m 81.702768,45.018543 q -0.170877,-0.09922 -0.374827,-0.143315 -0.198437,-0.04961 -0.440972,-0.04961 -0.859896,0 -1.322917,0.56224 -0.457508,0.556727 -0.457508,1.604036 v 3.25217 h -1.019749 v -6.173611 h 1.019749 v 0.959115 q 0.319704,-0.56224 0.832335,-0.832335 0.51263,-0.275608 1.245746,-0.275608 0.104731,0 0.231511,0.01654 0.126779,0.01102 0.281119,0.03859 z"
         style="font-style:normal;font-size:11.28888893px;fill:#2ec4b6;fill-opacity:1;stroke-width:0.26458332px"
         id="path2900" />
    </g>
    <g
       aria-label="172.19.35.2/24"
       style="font-style:normal;font-weight:normal;font-size:4.23333311px;line-height:125%;font-family:sans-serif;letter-spacing:0px;word-spacing:0px;fill:#ff1654;fill-opacity:1;stroke:none;stroke-width:0.26458332px;stroke-linecap:butt;stroke-linejoin:miter;stroke-opacity:1"
       id="text5176">
      <path
         d="m 22.81713,64.90199 h 1.364258 v -4.708756 l -1.484147,0.297656 v -0.760677 l 1.475879,-0.297656 h 0.835091 v 5.469433 h 1.364257 v 0.7028 H 22.81713 Z"
         style="font-style:normal;font-size:8.46666622px;fill:#ff1654;fill-opacity:1;stroke-width:0.26458332px"
         id="path2855" />
      <path
         d="m 27.852482,59.432557 h 3.968749 v 0.355534 l -2.24069,5.816699 h -0.872298 l 2.108399,-5.469434 h -2.96416 z"
         style="font-style:normal;font-size:8.46666622px;fill:#ff1654;fill-opacity:1;stroke-width:0.26458332px"
         id="path2857" />
      <path
         d="m 34.173543,64.90199 h 2.91455 v 0.7028 h -3.91914 v -0.7028 q 0.475423,-0.491959 1.293978,-1.318782 0.822688,-0.830957 1.033528,-1.070736 0.401009,-0.450618 0.558106,-0.760677 0.16123,-0.314193 0.16123,-0.615983 0,-0.49196 -0.347265,-0.802018 -0.343132,-0.310059 -0.897103,-0.310059 -0.392741,0 -0.830957,0.136426 -0.434082,0.136426 -0.930176,0.413412 v -0.84336 q 0.504362,-0.202571 0.942578,-0.305924 0.438216,-0.103353 0.802018,-0.103353 0.959115,0 1.529623,0.479557 0.570507,0.479557 0.570507,1.281576 0,0.380338 -0.144694,0.72347 -0.140559,0.338997 -0.516764,0.802018 -0.103353,0.119889 -0.657324,0.694531 -0.553971,0.570508 -1.562695,1.599902 z"
         style="font-style:normal;font-size:8.46666622px;fill:#ff1654;fill-opacity:1;stroke-width:0.26458332px"
         id="path2859" />
      <path
         d="m 38.845093,64.554725 h 0.872298 v 1.050065 h -0.872298 z"
         style="font-style:normal;font-size:8.46666622px;fill:#ff1654;fill-opacity:1;stroke-width:0.26458332px"
         id="path2861" />
      <path
         d="m 41.685229,64.90199 h 1.364258 V 60.193234 L 41.56534,60.49089 v -0.760677 l 1.475879,-0.297656 h 0.835091 v 5.469433 h 1.364258 v 0.7028 h -3.555339 z"
         style="font-style:normal;font-size:8.46666622px;fill:#ff1654;fill-opacity:1;stroke-width:0.26458332px"
         id="path2863" />
      <path
         d="m 46.956224,65.476632 v -0.760677 q 0.314193,0.148828 0.636654,0.227376 0.322461,0.07855 0.63252,0.07855 0.826822,0 1.260904,-0.553972 0.438217,-0.558105 0.500228,-1.690852 -0.239778,0.355533 -0.607715,0.545703 -0.367936,0.190169 -0.81442,0.190169 -0.926042,0 -1.467611,-0.558106 -0.537435,-0.562239 -0.537435,-1.533756 0,-0.950846 0.56224,-1.525488 0.56224,-0.574642 1.496549,-0.574642 1.070736,0 1.632976,0.822689 0.566373,0.818554 0.566373,2.38125 0,1.459342 -0.694531,2.33164 -0.690397,0.868164 -1.860351,0.868164 -0.314193,0 -0.636654,-0.06201 -0.322461,-0.06201 -0.669727,-0.186035 z m 1.661914,-2.616894 q 0.56224,0 0.888835,-0.384473 0.330729,-0.384472 0.330729,-1.054199 0,-0.665592 -0.330729,-1.050065 -0.326595,-0.388607 -0.888835,-0.388607 -0.562239,0 -0.892968,0.388607 -0.326595,0.384473 -0.326595,1.050065 0,0.669727 0.326595,1.054199 0.330729,0.384473 0.892968,0.384473 z"
         style="font-style:normal;font-size:8.46666622px;fill:#ff1654;fill-opacity:1;stroke-width:0.26458332px"
         id="path2865" />
      <path
         d="m 52.322306,64.554725 h 0.872298 v 1.050065 h -0.872298 z"
         style="font-style:normal;font-size:8.46666622px;fill:#ff1654;fill-opacity:1;stroke-width:0.26458332px"
         id="path2867" />
      <path
         d="m 57.547828,62.276828 q 0.599447,0.128157 0.93431,0.5333 0.338997,0.405144 0.338997,1.000456 0,0.913639 -0.628385,1.413867 -0.628385,0.500228 -1.785937,0.500228 -0.388607,0 -0.802019,-0.07855 -0.409277,-0.07441 -0.847493,-0.227376 v -0.806153 q 0.347266,0.202572 0.760677,0.305925 0.413411,0.103353 0.86403,0.103353 0.785482,0 1.194759,-0.310059 0.413411,-0.310059 0.413411,-0.901237 0,-0.545703 -0.384472,-0.851627 -0.380339,-0.310059 -1.062468,-0.310059 h -0.719336 v -0.686263 h 0.752409 q 0.615983,0 0.942578,-0.243913 0.326595,-0.248047 0.326595,-0.711067 0,-0.475424 -0.338997,-0.727605 -0.334863,-0.256315 -0.963249,-0.256315 -0.343131,0 -0.735872,0.07441 -0.392741,0.07441 -0.86403,0.231511 v -0.744141 q 0.475423,-0.132291 0.888835,-0.198437 0.417545,-0.06615 0.785481,-0.06615 0.950847,0 1.504818,0.434082 0.553971,0.429948 0.553971,1.16582 0,0.51263 -0.293522,0.868164 -0.293522,0.3514 -0.835091,0.487826 z"
         style="font-style:normal;font-size:8.46666622px;fill:#ff1654;fill-opacity:1;stroke-width:0.26458332px"
         id="path2869" />
      <path
         d="m 60.416903,59.432557 h 3.278352 v 0.702799 h -2.513541 v 1.513086 q 0.181901,-0.06201 0.363802,-0.09095 0.181901,-0.03307 0.363802,-0.03307 1.033529,0 1.637109,0.566374 0.603581,0.566373 0.603581,1.533756 0,0.996322 -0.620117,1.550293 -0.620117,0.549837 -1.748731,0.549837 -0.388606,0 -0.793749,-0.06615 -0.40101,-0.06615 -0.830957,-0.198437 v -0.839225 q 0.37207,0.202571 0.768945,0.30179 0.396875,0.09922 0.839225,0.09922 0.715202,0 1.132747,-0.376205 0.417546,-0.376204 0.417546,-1.021126 0,-0.644922 -0.417546,-1.021126 -0.417545,-0.376205 -1.132747,-0.376205 -0.334863,0 -0.669726,0.07441 -0.33073,0.07441 -0.677995,0.231511 z"
         style="font-style:normal;font-size:8.46666622px;fill:#ff1654;fill-opacity:1;stroke-width:0.26458332px"
         id="path2871" />
      <path
         d="m 65.799519,64.554725 h 0.872298 v 1.050065 h -0.872298 z"
         style="font-style:normal;font-size:8.46666622px;fill:#ff1654;fill-opacity:1;stroke-width:0.26458332px"
         id="path2873" />
      <path
         d="m 69.214297,64.90199 h 2.914551 v 0.7028 h -3.919141 v -0.7028 q 0.475423,-0.491959 1.293978,-1.318782 0.822689,-0.830957 1.033529,-1.070736 0.401009,-0.450618 0.558105,-0.760677 0.161231,-0.314193 0.161231,-0.615983 0,-0.49196 -0.347266,-0.802018 -0.343132,-0.310059 -0.897103,-0.310059 -0.392741,0 -0.830957,0.136426 -0.434082,0.136426 -0.930176,0.413412 v -0.84336 q 0.504362,-0.202571 0.942578,-0.305924 0.438217,-0.103353 0.802019,-0.103353 0.959114,0 1.529622,0.479557 0.570508,0.479557 0.570508,1.281576 0,0.380338 -0.144694,0.72347 -0.14056,0.338997 -0.516765,0.802018 -0.103352,0.119889 -0.657324,0.694531 -0.553971,0.570508 -1.562695,1.599902 z"
         style="font-style:normal;font-size:8.46666622px;fill:#ff1654;fill-opacity:1;stroke-width:0.26458332px"
         id="path2875" />
      <path
         d="m 75.130214,59.432557 h 0.702799 l -2.149739,6.957714 h -0.7028 z"
         style="font-style:normal;font-size:8.46666622px;fill:#ff1654;fill-opacity:1;stroke-width:0.26458332px"
         id="path2877" />
      <path
         d="m 77.465991,64.90199 h 2.91455 v 0.7028 h -3.91914 v -0.7028 q 0.475423,-0.491959 1.293978,-1.318782 0.822689,-0.830957 1.033528,-1.070736 0.401009,-0.450618 0.558106,-0.760677 0.16123,-0.314193 0.16123,-0.615983 0,-0.49196 -0.347265,-0.802018 -0.343132,-0.310059 -0.897103,-0.310059 -0.392741,0 -0.830957,0.136426 -0.434082,0.136426 -0.930176,0.413412 v -0.84336 q 0.504362,-0.202571 0.942578,-0.305924 0.438216,-0.103353 0.802018,-0.103353 0.959115,0 1.529623,0.479557 0.570507,0.479557 0.570507,1.281576 0,0.380338 -0.144694,0.72347 -0.140559,0.338997 -0.516764,0.802018 -0.103353,0.119889 -0.657324,0.694531 -0.553971,0.570508 -1.562695,1.599902 z"
         style="font-style:normal;font-size:8.46666622px;fill:#ff1654;fill-opacity:1;stroke-width:0.26458332px"
         id="path2879" />
      <path
         d="m 84.431973,60.160161 -2.108399,3.294889 h 2.108399 z m -0.219108,-0.727604 h 1.050065 v 4.022493 h 0.880566 v 0.694531 H 85.26293 V 65.60479 H 84.431973 V 64.149581 H 81.64558 v -0.806152 z"
         style="font-style:normal;font-size:8.46666622px;fill:#ff1654;fill-opacity:1;stroke-width:0.26458332px"
         id="path2881" />
    </g>
    <rect
       style="fill:#ff9f1c;fill-opacity:1;stroke:#27a89f;stroke-width:1.32291663;stroke-miterlimit:4;stroke-dasharray:none;stroke-dashoffset:0;stroke-opacity:1"
       id="rect5898"
       width="30.735994"
       height="16.036171"
       x="40.079632"
       y="70.911125" />
    <g
       aria-label="veth1"
       style="font-style:normal;font-weight:normal;font-size:8.46666622px;line-height:125%;font-family:sans-serif;letter-spacing:0px;word-spacing:0px;fill:#ff1654;fill-opacity:1;stroke:none;stroke-width:2.64599991;stroke-linecap:butt;stroke-linejoin:miter;stroke-miterlimit:4;stroke-dasharray:none;stroke-opacity:1"
       id="text5902">
      <path
         d="m 43.702617,77.455401 h 0.806152 l 1.44694,3.886068 1.44694,-3.886068 h 0.806152 l -1.736328,4.630208 h -1.033528 z"
         style="font-style:normal;font-size:8.46666622px;fill:#ff1654;fill-opacity:1;stroke-width:2.64599991;stroke-miterlimit:4;stroke-dasharray:none"
         id="path2844" />
      <path
         d="m 53.219348,79.580336 v 0.37207 h -3.497461 q 0.04961,0.785482 0.471289,1.198894 0.425814,0.409277 1.182357,0.409277 0.438216,0 0.847493,-0.107487 0.413412,-0.107487 0.818555,-0.322461 v 0.719336 q -0.409277,0.173633 -0.839225,0.264583 -0.429948,0.09095 -0.872298,0.09095 -1.107943,0 -1.756999,-0.644922 -0.644922,-0.644922 -0.644922,-1.744596 0,-1.136882 0.611849,-1.802474 0.615983,-0.669727 1.65778,-0.669727 0.93431,0 1.475879,0.603581 0.545703,0.599447 0.545703,1.632975 z m -0.760677,-0.223242 q -0.0083,-0.624251 -0.3514,-0.996322 -0.338997,-0.37207 -0.901237,-0.37207 -0.636653,0 -1.021126,0.359668 -0.380339,0.359668 -0.438216,1.012858 z"
         style="font-style:normal;font-size:8.46666622px;fill:#ff1654;fill-opacity:1;stroke-width:2.64599991;stroke-miterlimit:4;stroke-dasharray:none"
         id="path2846" />
      <path
         d="m 55.220259,76.140753 v 1.314648 h 1.566829 v 0.591179 h -1.566829 v 2.513541 q 0,0.566374 0.152962,0.727604 0.157096,0.161231 0.632519,0.161231 h 0.781348 v 0.636653 H 56.00574 q -0.880566,0 -1.215429,-0.326595 -0.334864,-0.330729 -0.334864,-1.198893 V 78.04658 h -0.558105 v -0.591179 h 0.558105 v -1.314648 z"
         style="font-style:normal;font-size:8.46666622px;fill:#ff1654;fill-opacity:1;stroke-width:2.64599991;stroke-miterlimit:4;stroke-dasharray:none"
         id="path2848" />
      <path
         d="m 61.640539,79.290948 v 2.794661 h -0.760677 v -2.769856 q 0,-0.657324 -0.256315,-0.983919 -0.256315,-0.326595 -0.768945,-0.326595 -0.615983,0 -0.971517,0.39274 -0.355534,0.392741 -0.355534,1.070736 v 2.616894 H 57.76274 v -6.432682 h 0.764811 v 2.52181 q 0.272851,-0.417545 0.640788,-0.624251 0.37207,-0.206706 0.855761,-0.206706 0.797884,0 1.207162,0.496094 0.409277,0.49196 0.409277,1.451074 z"
         style="font-style:normal;font-size:8.46666622px;fill:#ff1654;fill-opacity:1;stroke-width:2.64599991;stroke-miterlimit:4;stroke-dasharray:none"
         id="path2850" />
      <path
         d="m 63.418208,81.38281 h 1.364258 v -4.708756 l -1.484147,0.297656 v -0.760677 l 1.475879,-0.297656 h 0.835091 v 5.469433 h 1.364257 v 0.702799 h -3.555338 z"
         style="font-style:normal;font-size:8.46666622px;fill:#ff1654;fill-opacity:1;stroke-width:2.64599991;stroke-miterlimit:4;stroke-dasharray:none"
         id="path2852" />
    </g>
    <rect
       style="fill:#ff9f1c;fill-opacity:1;stroke:#27a89f;stroke-width:1.32291663;stroke-miterlimit:4;stroke-dasharray:none;stroke-dashoffset:0;stroke-opacity:1"
       id="rect5973"
       width="88.852058"
       height="26.726952"
       x="100.45819"
       y="65.050186" />
    <rect
       y="70.911125"
       x="109.83698"
       height="16.036171"
       width="30.735994"
       id="rect5904"
       style="fill:#ff9f1c;fill-opacity:1;stroke:#27a89f;stroke-width:1.32291663;stroke-miterlimit:4;stroke-dasharray:none;stroke-dashoffset:0;stroke-opacity:1" />
    <g
       aria-label="veth0"
       style="font-style:normal;font-weight:normal;font-size:8.46666622px;line-height:125%;font-family:sans-serif;letter-spacing:0px;word-spacing:0px;fill:#ff1654;fill-opacity:1;stroke:none;stroke-width:2.64599991;stroke-linecap:butt;stroke-linejoin:miter;stroke-miterlimit:4;stroke-dasharray:none;stroke-opacity:1"
       id="text5908">
      <path
         d="m 113.45996,77.455401 h 0.80615 l 1.44694,3.886068 1.44694,-3.886068 h 0.80615 l -1.73632,4.630208 h -1.03353 z"
         style="font-style:normal;font-size:8.46666622px;fill:#ff1654;fill-opacity:1;stroke-width:2.64599991;stroke-miterlimit:4;stroke-dasharray:none"
         id="path2816" />
      <path
         d="m 122.97669,79.580336 v 0.37207 h -3.49746 q 0.0496,0.785482 0.47129,1.198894 0.42581,0.409277 1.18236,0.409277 0.43821,0 0.84749,-0.107487 0.41341,-0.107487 0.81855,-0.322461 v 0.719336 q -0.40927,0.173633 -0.83922,0.264583 -0.42995,0.09095 -0.8723,0.09095 -1.10794,0 -1.757,-0.644922 -0.64492,-0.644922 -0.64492,-1.744596 0,-1.136882 0.61185,-1.802474 0.61598,-0.669727 1.65778,-0.669727 0.93431,0 1.47588,0.603581 0.5457,0.599447 0.5457,1.632975 z m -0.76068,-0.223242 q -0.008,-0.624251 -0.3514,-0.996322 -0.33899,-0.37207 -0.90123,-0.37207 -0.63666,0 -1.02113,0.359668 -0.38034,0.359668 -0.43821,1.012858 z"
         style="font-style:normal;font-size:8.46666622px;fill:#ff1654;fill-opacity:1;stroke-width:2.64599991;stroke-miterlimit:4;stroke-dasharray:none"
         id="path2818" />
      <path
         d="m 124.9776,76.140753 v 1.314648 h 1.56683 v 0.591179 h -1.56683 v 2.513541 q 0,0.566374 0.15296,0.727604 0.1571,0.161231 0.63252,0.161231 h 0.78135 v 0.636653 h -0.78135 q -0.88056,0 -1.21543,-0.326595 -0.33486,-0.330729 -0.33486,-1.198893 V 78.04658 h -0.5581 v -0.591179 h 0.5581 v -1.314648 z"
         style="font-style:normal;font-size:8.46666622px;fill:#ff1654;fill-opacity:1;stroke-width:2.64599991;stroke-miterlimit:4;stroke-dasharray:none"
         id="path2820" />
      <path
         d="m 131.39788,79.290948 v 2.794661 h -0.76067 v -2.769856 q 0,-0.657324 -0.25632,-0.983919 -0.25631,-0.326595 -0.76895,-0.326595 -0.61598,0 -0.97151,0.39274 -0.35554,0.392741 -0.35554,1.070736 v 2.616894 h -0.76481 v -6.432682 h 0.76481 v 2.52181 q 0.27286,-0.417545 0.64079,-0.624251 0.37207,-0.206706 0.85576,-0.206706 0.79789,0 1.20716,0.496094 0.40928,0.49196 0.40928,1.451074 z"
         style="font-style:normal;font-size:8.46666622px;fill:#ff1654;fill-opacity:1;stroke-width:2.64599991;stroke-miterlimit:4;stroke-dasharray:none"
         id="path2822" />
      <path
         d="m 134.81679,76.463214 q -0.64492,0 -0.97151,0.636654 -0.32246,0.632519 -0.32246,1.905826 0,1.269173 0.32246,1.905827 0.32659,0.632519 0.97151,0.632519 0.64906,0 0.97152,-0.632519 0.3266,-0.636654 0.3266,-1.905827 0,-1.273307 -0.3266,-1.905826 -0.32246,-0.636654 -0.97152,-0.636654 z m 0,-0.661458 q 1.03767,0 1.58337,0.822688 0.54984,0.818555 0.54984,2.38125 0,1.558561 -0.54984,2.38125 -0.5457,0.818555 -1.58337,0.818555 -1.03766,0 -1.5875,-0.818555 -0.5457,-0.822689 -0.5457,-2.38125 0,-1.562695 0.5457,-2.38125 0.54984,-0.822688 1.5875,-0.822688 z"
         style="font-style:normal;font-size:8.46666622px;fill:#ff1654;fill-opacity:1;stroke-width:2.64599991;stroke-miterlimit:4;stroke-dasharray:none"
         id="path2824" />
    </g>
    <path
       style="fill:none;fill-rule:evenodd;stroke:#ff9f1c;stroke-width:2.64583325;stroke-linecap:butt;stroke-linejoin:miter;stroke-miterlimit:4;stroke-dasharray:none;stroke-opacity:1"
       d="m 54.243217,84.059988 v 8.77893 c 0,0 0,6.89806 6.89807,6.89806 21.46079,0 37.06295,0 58.523743,0 6.89806,0 6.89806,-6.89806 6.89806,-6.89806 v -8.77893"
       id="path5256"
       inkscape:connector-curvature="0"
       sodipodi:nodetypes="cccccc" />
    <g
       aria-label="veth pair"
       style="font-style:normal;font-weight:normal;font-size:4.23333311px;line-height:125%;font-family:sans-serif;letter-spacing:0px;word-spacing:0px;fill:#2ec4b6;fill-opacity:1;stroke:none;stroke-width:0.26458332px;stroke-linecap:butt;stroke-linejoin:miter;stroke-opacity:1"
       id="text5965">
      <path
         d="m 64.478468,105.04551 h 1.07487 l 1.929254,5.18142 1.929253,-5.18142 h 1.07487 l -2.315104,6.17361 h -1.378038 z"
         style="font-style:normal;font-size:11.28888893px;fill:#2ec4b6;fill-opacity:1;stroke-width:0.26458332px"
         id="path2827" />
      <path
         d="m 77.167444,107.87875 v 0.4961 h -4.663281 q 0.06615,1.0473 0.628386,1.59852 0.567751,0.5457 1.576475,0.5457 0.584288,0 1.129992,-0.14331 0.551215,-0.14332 1.091406,-0.42995 v 0.95911 q -0.545703,0.23151 -1.118967,0.35278 -0.573264,0.12127 -1.163064,0.12127 -1.477257,0 -2.342665,-0.8599 -0.859896,-0.85989 -0.859896,-2.32613 0,-1.51584 0.815798,-2.40329 0.821311,-0.89297 2.210374,-0.89297 1.245746,0 1.967838,0.80477 0.727604,0.79926 0.727604,2.1773 z m -1.014236,-0.29765 q -0.01102,-0.83234 -0.468533,-1.32843 -0.451996,-0.4961 -1.201649,-0.4961 -0.848872,0 -1.361502,0.47956 -0.507118,0.47956 -0.584288,1.35048 z"
         style="font-style:normal;font-size:11.28888893px;fill:#2ec4b6;fill-opacity:1;stroke-width:0.26458332px"
         id="path2829" />
      <path
         d="m 79.835326,103.29264 v 1.75287 h 2.089106 v 0.78823 h -2.089106 v 3.35139 q 0,0.75517 0.20395,0.97014 0.209461,0.21497 0.843359,0.21497 h 1.041797 v 0.84888 h -1.041797 q -1.174089,0 -1.620573,-0.43546 -0.446484,-0.44098 -0.446484,-1.59853 v -3.35139 h -0.744141 v -0.78823 h 0.744141 v -1.75287 z"
         style="font-style:normal;font-size:11.28888893px;fill:#2ec4b6;fill-opacity:1;stroke-width:0.26458332px"
         id="path2831" />
      <path
         d="m 88.395699,107.4929 v 3.72622 h -1.014236 v -3.69315 q 0,-0.87643 -0.341754,-1.31189 -0.341753,-0.43546 -1.02526,-0.43546 -0.821311,0 -1.295356,0.52366 -0.474045,0.52365 -0.474045,1.42764 v 3.4892 h -1.019749 v -8.57691 h 1.019749 v 3.36241 q 0.363802,-0.55673 0.854383,-0.83234 0.496094,-0.2756 1.141016,-0.2756 1.063845,0 1.609549,0.66146 0.545703,0.65594 0.545703,1.93476 z"
         style="font-style:normal;font-size:11.28888893px;fill:#2ec4b6;fill-opacity:1;stroke-width:0.26458332px"
         id="path2833" />
      <path
         d="m 95.004771,110.29307 v 3.27422 h -1.019748 v -8.52178 h 1.019748 v 0.93706 q 0.319705,-0.55121 0.804775,-0.8158 0.490581,-0.27009 1.168576,-0.27009 1.124479,0 1.824523,0.89297 0.705555,0.89296 0.705555,2.34817 0,1.45521 -0.705555,2.34818 -0.700044,0.89297 -1.824523,0.89297 -0.677995,0 -1.168576,-0.26458 -0.48507,-0.2701 -0.804775,-0.82132 z m 3.450608,-2.15525 q 0,-1.11896 -0.463021,-1.75286 -0.457509,-0.63941 -1.262283,-0.63941 -0.804774,0 -1.267795,0.63941 -0.457509,0.6339 -0.457509,1.75286 0,1.11897 0.457509,1.75838 0.463021,0.6339 1.267795,0.6339 0.804774,0 1.262283,-0.6339 0.463021,-0.63941 0.463021,-1.75838 z"
         style="font-style:normal;font-size:11.28888893px;fill:#2ec4b6;fill-opacity:1;stroke-width:0.26458332px"
         id="path2835" />
      <path
         d="m 103.99509,108.11577 q -1.22921,0 -1.70325,0.28112 -0.47405,0.28112 -0.47405,0.95912 0,0.54019 0.35278,0.85989 0.35829,0.3142 0.97014,0.3142 0.84336,0 1.35048,-0.59532 0.51263,-0.60082 0.51263,-1.59301 v -0.226 z m 2.02296,-0.41892 v 3.52227 h -1.01423 v -0.93707 q -0.34727,0.56224 -0.86541,0.83234 -0.51814,0.26458 -1.2678,0.26458 -0.94809,0 -1.51033,-0.52917 -0.55672,-0.53468 -0.55672,-1.42765 0,-1.04179 0.69453,-1.57096 0.70004,-0.52917 2.08359,-0.52917 h 1.42214 v -0.0992 q 0,-0.70005 -0.46302,-1.08039 -0.45751,-0.38585 -1.28985,-0.38585 -0.52917,0 -1.03077,0.12678 -0.50161,0.12678 -0.96463,0.38034 v -0.93707 q 0.55673,-0.21497 1.08038,-0.3197 0.52366,-0.11024 1.01975,-0.11024 1.33946,0 2.00091,0.69453 0.66146,0.69453 0.66146,2.10564 z"
         style="font-style:normal;font-size:11.28888893px;fill:#2ec4b6;fill-opacity:1;stroke-width:0.26458332px"
         id="path2837" />
      <path
         d="m 108.11267,105.04551 h 1.01424 v 6.17361 h -1.01424 z m 0,-2.4033 h 1.01424 v 1.28433 h -1.01424 z"
         style="font-style:normal;font-size:11.28888893px;fill:#2ec4b6;fill-opacity:1;stroke-width:0.26458332px"
         id="path2839" />
      <path
         d="m 114.82096,105.9936 q -0.17088,-0.0992 -0.37483,-0.14332 -0.19844,-0.0496 -0.44097,-0.0496 -0.8599,0 -1.32292,0.56224 -0.45751,0.55673 -0.45751,1.60404 v 3.25217 h -1.01974 v -6.17361 h 1.01974 v 0.95911 q 0.31971,-0.56224 0.83234,-0.83234 0.51263,-0.2756 1.24575,-0.2756 0.10473,0 0.23151,0.0165 0.12678,0.011 0.28112,0.0386 z"
         style="font-style:normal;font-size:11.28888893px;fill:#2ec4b6;fill-opacity:1;stroke-width:0.26458332px"
         id="path2841" />
    </g>
    <rect
       style="fill:#ff9f1c;fill-opacity:1;stroke:#27a89f;stroke-width:1.32291663;stroke-miterlimit:4;stroke-dasharray:none;stroke-dashoffset:0;stroke-opacity:1"
       id="rect5967"
       width="30.735994"
       height="16.036171"
       x="149.76236"
       y="70.911125" />
    <g
       aria-label="veth2"
       style="font-style:normal;font-weight:normal;font-size:8.46666622px;line-height:125%;font-family:sans-serif;letter-spacing:0px;word-spacing:0px;fill:#ff1654;fill-opacity:1;stroke:none;stroke-width:2.64599991;stroke-linecap:butt;stroke-linejoin:miter;stroke-miterlimit:4;stroke-dasharray:none;stroke-opacity:1"
       id="text5971">
      <path
         d="m 153.52797,77.455401 h 0.80615 l 1.44694,3.886068 1.44694,-3.886068 h 0.80615 l -1.73633,4.630208 h -1.03352 z"
         style="font-style:normal;font-size:8.46666622px;fill:#ff1654;fill-opacity:1;stroke-width:2.64599991;stroke-miterlimit:4;stroke-dasharray:none"
         id="path2979" />
      <path
         d="m 163.0447,79.580336 v 0.37207 h -3.49746 q 0.0496,0.785482 0.47129,1.198894 0.42581,0.409277 1.18235,0.409277 0.43822,0 0.8475,-0.107487 0.41341,-0.107487 0.81855,-0.322461 v 0.719336 q -0.40927,0.173633 -0.83922,0.264583 -0.42995,0.09095 -0.8723,0.09095 -1.10794,0 -1.757,-0.644922 -0.64492,-0.644922 -0.64492,-1.744596 0,-1.136882 0.61185,-1.802474 0.61598,-0.669727 1.65778,-0.669727 0.93431,0 1.47588,0.603581 0.5457,0.599447 0.5457,1.632975 z m -0.76068,-0.223242 q -0.008,-0.624251 -0.3514,-0.996322 -0.33899,-0.37207 -0.90123,-0.37207 -0.63666,0 -1.02113,0.359668 -0.38034,0.359668 -0.43822,1.012858 z"
         style="font-style:normal;font-size:8.46666622px;fill:#ff1654;fill-opacity:1;stroke-width:2.64599991;stroke-miterlimit:4;stroke-dasharray:none"
         id="path2981" />
      <path
         d="m 165.04561,76.140753 v 1.314648 h 1.56683 v 0.591179 h -1.56683 v 2.513541 q 0,0.566374 0.15296,0.727604 0.1571,0.161231 0.63252,0.161231 h 0.78135 v 0.636653 h -0.78135 q -0.88056,0 -1.21543,-0.326595 -0.33486,-0.330729 -0.33486,-1.198893 V 78.04658 h -0.55811 v -0.591179 h 0.55811 v -1.314648 z"
         style="font-style:normal;font-size:8.46666622px;fill:#ff1654;fill-opacity:1;stroke-width:2.64599991;stroke-miterlimit:4;stroke-dasharray:none"
         id="path2983" />
      <path
         d="m 171.46589,79.290948 v 2.794661 h -0.76068 v -2.769856 q 0,-0.657324 -0.25631,-0.983919 -0.25632,-0.326595 -0.76895,-0.326595 -0.61598,0 -0.97151,0.39274 -0.35554,0.392741 -0.35554,1.070736 v 2.616894 h -0.76481 v -6.432682 h 0.76481 v 2.52181 q 0.27285,-0.417545 0.64079,-0.624251 0.37207,-0.206706 0.85576,-0.206706 0.79789,0 1.20716,0.496094 0.40928,0.49196 0.40928,1.451074 z"
         style="font-style:normal;font-size:8.46666622px;fill:#ff1654;fill-opacity:1;stroke-width:2.64599991;stroke-miterlimit:4;stroke-dasharray:none"
         id="path2985" />
      <path
         d="m 173.8182,81.38281 h 2.91455 v 0.702799 h -3.91914 V 81.38281 q 0.47543,-0.49196 1.29398,-1.318782 0.82269,-0.830957 1.03353,-1.070736 0.40101,-0.450619 0.5581,-0.760677 0.16123,-0.314193 0.16123,-0.615983 0,-0.49196 -0.34726,-0.802018 -0.34313,-0.310059 -0.8971,-0.310059 -0.39275,0 -0.83096,0.136426 -0.43408,0.136426 -0.93018,0.413411 v -0.843359 q 0.50437,-0.202572 0.94258,-0.305925 0.43822,-0.103352 0.80202,-0.103352 0.95911,0 1.52962,0.479557 0.57051,0.479557 0.57051,1.281575 0,0.380339 -0.14469,0.72347 -0.14056,0.338998 -0.51677,0.802019 -0.10335,0.119889 -0.65732,0.694531 -0.55397,0.570508 -1.5627,1.599902 z"
         style="font-style:normal;font-size:8.46666622px;fill:#ff1654;fill-opacity:1;stroke-width:2.64599991;stroke-miterlimit:4;stroke-dasharray:none"
         id="path2987" />
    </g>
    <g
       aria-label="bridge"
       style="font-style:normal;font-weight:normal;font-size:4.23333311px;line-height:125%;font-family:sans-serif;letter-spacing:0px;word-spacing:0px;fill:#2ec4b6;fill-opacity:1;stroke:none;stroke-width:0.26458332px;stroke-linecap:butt;stroke-linejoin:miter;stroke-opacity:1"
       id="text5977">
      <path
         d="m 159.99726,48.006994 q 0,-1.118967 -0.46302,-1.752865 -0.45751,-0.639409 -1.26228,-0.639409 -0.80477,0 -1.26779,0.639409 -0.45751,0.633898 -0.45751,1.752865 0,1.118967 0.45751,1.758377 0.46302,0.633897 1.26779,0.633897 0.80477,0 1.26228,-0.633897 0.46302,-0.63941 0.46302,-1.758377 z m -3.4506,-2.155252 q 0.3197,-0.551215 0.80477,-0.815798 0.49058,-0.270096 1.16858,-0.270096 1.12448,0 1.82452,0.892969 0.70556,0.892969 0.70556,2.348177 0,1.455208 -0.70556,2.348177 -0.70004,0.892969 -1.82452,0.892969 -0.678,0 -1.16858,-0.264584 -0.48507,-0.270095 -0.80477,-0.82131 v 0.926041 h -1.01975 v -8.576909 h 1.01975 z"
         style="font-style:normal;font-size:11.28888893px;fill:#2ec4b6;fill-opacity:1;stroke-width:0.26458332px"
         id="path2773" />
      <path
         d="m 166.30868,45.862767 q -0.17088,-0.09922 -0.37483,-0.143316 -0.19843,-0.04961 -0.44097,-0.04961 -0.8599,0 -1.32292,0.56224 -0.4575,0.556727 -0.4575,1.604036 v 3.25217 h -1.01975 v -6.173611 h 1.01975 v 0.959115 q 0.3197,-0.56224 0.83233,-0.832335 0.51263,-0.275608 1.24575,-0.275608 0.10473,0 0.23151,0.01654 0.12678,0.01102 0.28112,0.03859 z"
         style="font-style:normal;font-size:11.28888893px;fill:#2ec4b6;fill-opacity:1;stroke-width:0.26458332px"
         id="path2775" />
      <path
         d="m 167.38355,44.914676 h 1.01424 v 6.173611 h -1.01424 z m 0,-2.403298 h 1.01424 v 1.284331 h -1.01424 z"
         style="font-style:normal;font-size:11.28888893px;fill:#2ec4b6;fill-opacity:1;stroke-width:0.26458332px"
         id="path2777" />
      <path
         d="m 174.57691,45.851742 v -3.340364 h 1.01423 v 8.576909 h -1.01423 v -0.926041 q -0.31971,0.551215 -0.81029,0.82131 -0.48507,0.264584 -1.16857,0.264584 -1.11897,0 -1.82453,-0.892969 -0.70004,-0.892969 -0.70004,-2.348177 0,-1.455208 0.70004,-2.348177 0.70556,-0.892969 1.82453,-0.892969 0.6835,0 1.16857,0.270096 0.49058,0.264583 0.81029,0.815798 z m -3.45612,2.155252 q 0,1.118967 0.45751,1.758377 0.46302,0.633897 1.26779,0.633897 0.80478,0 1.2678,-0.633897 0.46302,-0.63941 0.46302,-1.758377 0,-1.118967 -0.46302,-1.752865 -0.46302,-0.639409 -1.2678,-0.639409 -0.80477,0 -1.26779,0.639409 -0.45751,0.633898 -0.45751,1.752865 z"
         style="font-style:normal;font-size:11.28888893px;fill:#2ec4b6;fill-opacity:1;stroke-width:0.26458332px"
         id="path2779" />
      <path
         d="m 181.74271,47.929824 q 0,-1.102431 -0.45751,-1.708768 -0.452,-0.606336 -1.27331,-0.606336 -0.8158,0 -1.27331,0.606336 -0.45199,0.606337 -0.45199,1.708768 0,1.096918 0.45199,1.703255 0.45751,0.606337 1.27331,0.606337 0.82131,0 1.27331,-0.606337 0.45751,-0.606337 0.45751,-1.703255 z m 1.01423,2.392274 q 0,1.576476 -0.70004,2.342665 -0.70004,0.771701 -2.14423,0.771701 -0.53468,0 -1.00872,-0.08268 -0.47405,-0.07717 -0.92053,-0.242535 v -0.986675 q 0.44648,0.242535 0.88194,0.35829 0.43546,0.115755 0.88746,0.115755 0.9977,0 1.49379,-0.523654 0.4961,-0.518143 0.4961,-1.570964 v -0.501606 q -0.3142,0.545703 -0.80478,0.815799 -0.49058,0.270095 -1.17409,0.270095 -1.1355,0 -1.83003,-0.865408 -0.69453,-0.865408 -0.69453,-2.293055 0,-1.43316 0.69453,-2.298568 0.69453,-0.865408 1.83003,-0.865408 0.68351,0 1.17409,0.270096 0.49058,0.270095 0.80478,0.815798 v -0.937066 h 1.01423 z"
         style="font-style:normal;font-size:11.28888893px;fill:#2ec4b6;fill-opacity:1;stroke-width:0.26458332px"
         id="path2781" />
      <path
         d="m 190.12669,47.747923 v 0.496094 h -4.66328 q 0.0661,1.047309 0.62839,1.598524 0.56775,0.545703 1.57647,0.545703 0.58429,0 1.12999,-0.143316 0.55122,-0.143316 1.09141,-0.429948 v 0.959115 q -0.5457,0.23151 -1.11897,0.352777 -0.57326,0.121268 -1.16306,0.121268 -1.47726,0 -2.34267,-0.859896 -0.85989,-0.859896 -0.85989,-2.326129 0,-1.515842 0.8158,-2.403298 0.82131,-0.892969 2.21037,-0.892969 1.24575,0 1.96784,0.804774 0.7276,0.799263 0.7276,2.177301 z m -1.01423,-0.297656 q -0.011,-0.832336 -0.46854,-1.328429 -0.45199,-0.496094 -1.20165,-0.496094 -0.84887,0 -1.3615,0.479557 -0.50712,0.479558 -0.58429,1.350478 z"
         style="font-style:normal;font-size:11.28888893px;fill:#2ec4b6;fill-opacity:1;stroke-width:0.26458332px"
         id="path2783" />
    </g>
    <rect
       y="133.7325"
       x="130.08678"
       height="21.519121"
       width="41.244984"
       id="rect5979"
       style="fill:#ff9f1c;fill-opacity:1;stroke:#27a89f;stroke-width:1.32291663;stroke-miterlimit:4;stroke-dasharray:none;stroke-dashoffset:0;stroke-opacity:1" />
    <g
       aria-label="eth0"
       style="font-style:normal;font-weight:normal;font-size:8.46666622px;line-height:125%;font-family:sans-serif;letter-spacing:0px;word-spacing:0px;fill:#ff1654;fill-opacity:1;stroke:none;stroke-width:2.64599991;stroke-linecap:butt;stroke-linejoin:miter;stroke-miterlimit:4;stroke-dasharray:none;stroke-opacity:1"
       id="text5983">
      <path
         d="m 145.86821,145.14318 v 0.37207 h -3.49746 q 0.0496,0.78548 0.47129,1.19889 0.42582,0.40928 1.18236,0.40928 0.43821,0 0.84749,-0.10749 0.41341,-0.10748 0.81856,-0.32246 v 0.71934 q -0.40928,0.17363 -0.83923,0.26458 -0.42995,0.0909 -0.8723,0.0909 -1.10794,0 -1.757,-0.64492 -0.64492,-0.64492 -0.64492,-1.7446 0,-1.13688 0.61185,-1.80247 0.61598,-0.66973 1.65778,-0.66973 0.93431,0 1.47588,0.60358 0.5457,0.59945 0.5457,1.63298 z m -0.76067,-0.22324 q -0.008,-0.62425 -0.3514,-0.99632 -0.339,-0.37207 -0.90124,-0.37207 -0.63665,0 -1.02113,0.35966 -0.38033,0.35967 -0.43821,1.01286 z"
         style="font-style:normal;font-size:8.46666622px;fill:#ff1654;fill-opacity:1;stroke-width:2.64599991;stroke-miterlimit:4;stroke-dasharray:none"
         id="path3034" />
      <path
         d="m 147.86912,141.7036 v 1.31464 h 1.56683 v 0.59118 h -1.56683 v 2.51354 q 0,0.56638 0.15297,0.72761 0.15709,0.16123 0.63252,0.16123 h 0.78134 v 0.63665 h -0.78134 q -0.88057,0 -1.21543,-0.32659 -0.33487,-0.33073 -0.33487,-1.1989 v -2.51354 h -0.5581 v -0.59118 h 0.5581 v -1.31464 z"
         style="font-style:normal;font-size:8.46666622px;fill:#ff1654;fill-opacity:1;stroke-width:2.64599991;stroke-miterlimit:4;stroke-dasharray:none"
         id="path3036" />
      <path
         d="m 154.2894,144.85379 v 2.79466 h -0.76067 v -2.76985 q 0,-0.65733 -0.25632,-0.98392 -0.25631,-0.3266 -0.76894,-0.3266 -0.61599,0 -0.97152,0.39274 -0.35553,0.39274 -0.35553,1.07074 v 2.61689 h -0.76481 v -6.43268 h 0.76481 v 2.52181 q 0.27285,-0.41754 0.64078,-0.62425 0.37207,-0.20671 0.85577,-0.20671 0.79788,0 1.20716,0.4961 0.40927,0.49196 0.40927,1.45107 z"
         style="font-style:normal;font-size:8.46666622px;fill:#ff1654;fill-opacity:1;stroke-width:2.64599991;stroke-miterlimit:4;stroke-dasharray:none"
         id="path3038" />
      <path
         d="m 157.70832,142.02606 q -0.64492,0 -0.97152,0.63665 -0.32246,0.63252 -0.32246,1.90583 0,1.26917 0.32246,1.90582 0.3266,0.63252 0.97152,0.63252 0.64905,0 0.97151,-0.63252 0.3266,-0.63665 0.3266,-1.90582 0,-1.27331 -0.3266,-1.90583 -0.32246,-0.63665 -0.97151,-0.63665 z m 0,-0.66146 q 1.03766,0 1.58336,0.82269 0.54984,0.81855 0.54984,2.38125 0,1.55856 -0.54984,2.38125 -0.5457,0.81855 -1.58336,0.81855 -1.03767,0 -1.5875,-0.81855 -0.54571,-0.82269 -0.54571,-2.38125 0,-1.5627 0.54571,-2.38125 0.54983,-0.82269 1.5875,-0.82269 z"
         style="font-style:normal;font-size:8.46666622px;fill:#ff1654;fill-opacity:1;stroke-width:2.64599991;stroke-miterlimit:4;stroke-dasharray:none"
         id="path3040" />
    </g>
    <g
       aria-label="172.19.35.1/24"
       style="font-style:normal;font-weight:normal;font-size:4.23333311px;line-height:125%;font-family:sans-serif;letter-spacing:0px;word-spacing:0px;fill:#ff1654;fill-opacity:1;stroke:none;stroke-width:0.26458332px;stroke-linecap:butt;stroke-linejoin:miter;stroke-opacity:1"
       id="text5987">
      <path
         d="m 126.63137,60.997899 h 1.36426 v -4.708756 l -1.48415,0.297656 v -0.760677 l 1.47588,-0.297656 h 0.83509 v 5.469433 h 1.36426 v 0.7028 h -3.55534 z"
         style="font-style:normal;font-size:8.46666622px;fill:#ff1654;fill-opacity:1;stroke-width:0.26458332px"
         id="path2787" />
      <path
         d="m 131.66672,55.528466 h 3.96875 V 55.884 l -2.24069,5.816699 h -0.8723 l 2.1084,-5.469433 h -2.96416 z"
         style="font-style:normal;font-size:8.46666622px;fill:#ff1654;fill-opacity:1;stroke-width:0.26458332px"
         id="path2789" />
      <path
         d="m 137.98778,60.997899 h 2.91455 v 0.7028 h -3.91914 v -0.7028 q 0.47543,-0.491959 1.29398,-1.318782 0.82269,-0.830957 1.03353,-1.070736 0.40101,-0.450618 0.55811,-0.760677 0.16123,-0.314192 0.16123,-0.615983 0,-0.491959 -0.34727,-0.802018 -0.34313,-0.310059 -0.8971,-0.310059 -0.39274,0 -0.83096,0.136426 -0.43408,0.136426 -0.93017,0.413412 v -0.84336 q 0.50436,-0.202571 0.94257,-0.305924 0.43822,-0.103353 0.80202,-0.103353 0.95912,0 1.52962,0.479557 0.57051,0.479558 0.57051,1.281576 0,0.380338 -0.14469,0.72347 -0.14056,0.338997 -0.51677,0.802018 -0.10335,0.119889 -0.65732,0.694531 -0.55397,0.570508 -1.5627,1.599902 z"
         style="font-style:normal;font-size:8.46666622px;fill:#ff1654;fill-opacity:1;stroke-width:0.26458332px"
         id="path2791" />
      <path
         d="m 142.65933,60.650634 h 0.8723 v 1.050065 h -0.8723 z"
         style="font-style:normal;font-size:8.46666622px;fill:#ff1654;fill-opacity:1;stroke-width:0.26458332px"
         id="path2793" />
      <path
         d="m 145.49947,60.997899 h 1.36426 v -4.708756 l -1.48415,0.297656 v -0.760677 l 1.47588,-0.297656 h 0.83509 v 5.469433 h 1.36426 v 0.7028 h -3.55534 z"
         style="font-style:normal;font-size:8.46666622px;fill:#ff1654;fill-opacity:1;stroke-width:0.26458332px"
         id="path2795" />
      <path
         d="m 150.77047,61.572541 v -0.760677 q 0.31419,0.148828 0.63665,0.227377 0.32246,0.07855 0.63252,0.07855 0.82682,0 1.2609,-0.553972 0.43822,-0.558105 0.50023,-1.690852 -0.23978,0.355533 -0.60771,0.545703 -0.36794,0.190169 -0.81442,0.190169 -0.92605,0 -1.46761,-0.558105 -0.53744,-0.56224 -0.53744,-1.533757 0,-0.950846 0.56224,-1.525488 0.56224,-0.574642 1.49655,-0.574642 1.07074,0 1.63297,0.822689 0.56638,0.818554 0.56638,2.38125 0,1.459342 -0.69453,2.33164 -0.6904,0.868164 -1.86035,0.868164 -0.3142,0 -0.63666,-0.06201 -0.32246,-0.06201 -0.66972,-0.186035 z m 1.66191,-2.616894 q 0.56224,0 0.88883,-0.384473 0.33073,-0.384472 0.33073,-1.054199 0,-0.665592 -0.33073,-1.050065 -0.32659,-0.388607 -0.88883,-0.388607 -0.56224,0 -0.89297,0.388607 -0.32659,0.384473 -0.32659,1.050065 0,0.669727 0.32659,1.054199 0.33073,0.384473 0.89297,0.384473 z"
         style="font-style:normal;font-size:8.46666622px;fill:#ff1654;fill-opacity:1;stroke-width:0.26458332px"
         id="path2797" />
      <path
         d="m 156.13655,60.650634 h 0.8723 v 1.050065 h -0.8723 z"
         style="font-style:normal;font-size:8.46666622px;fill:#ff1654;fill-opacity:1;stroke-width:0.26458332px"
         id="path2799" />
      <path
         d="m 161.36207,58.372737 q 0.59945,0.128157 0.93431,0.533301 0.339,0.405143 0.339,1.000455 0,0.913639 -0.62839,1.413867 -0.62838,0.500228 -1.78594,0.500228 -0.3886,0 -0.80201,-0.07855 -0.40928,-0.07441 -0.8475,-0.227376 v -0.806153 q 0.34727,0.202572 0.76068,0.305925 0.41341,0.103353 0.86403,0.103353 0.78548,0 1.19476,-0.310059 0.41341,-0.310058 0.41341,-0.901237 0,-0.545703 -0.38447,-0.851627 -0.38034,-0.310059 -1.06247,-0.310059 h -0.71934 v -0.686263 h 0.75241 q 0.61599,0 0.94258,-0.243913 0.3266,-0.248047 0.3266,-0.711067 0,-0.475423 -0.339,-0.727604 -0.33486,-0.256316 -0.96325,-0.256316 -0.34313,0 -0.73587,0.07442 -0.39274,0.07441 -0.86403,0.23151 v -0.744141 q 0.47542,-0.132291 0.88883,-0.198437 0.41755,-0.06615 0.78548,-0.06615 0.95085,0 1.50482,0.434082 0.55397,0.429948 0.55397,1.16582 0,0.51263 -0.29352,0.868164 -0.29352,0.3514 -0.83509,0.487826 z"
         style="font-style:normal;font-size:8.46666622px;fill:#ff1654;fill-opacity:1;stroke-width:0.26458332px"
         id="path2801" />
      <path
         d="m 164.23114,55.528466 h 3.27836 v 0.7028 h -2.51354 v 1.513085 q 0.1819,-0.06201 0.3638,-0.09095 0.1819,-0.03307 0.3638,-0.03307 1.03353,0 1.63711,0.566374 0.60358,0.566373 0.60358,1.533756 0,0.996322 -0.62012,1.550293 -0.62011,0.549837 -1.74873,0.549837 -0.3886,0 -0.79375,-0.06615 -0.40101,-0.06614 -0.83096,-0.198437 V 60.71678 q 0.37208,0.202571 0.76895,0.30179 0.39688,0.09922 0.83923,0.09922 0.7152,0 1.13274,-0.376205 0.41755,-0.376204 0.41755,-1.021126 0,-0.644922 -0.41755,-1.021126 -0.41754,-0.376205 -1.13274,-0.376205 -0.33487,0 -0.66973,0.07441 -0.33073,0.07442 -0.678,0.231511 z"
         style="font-style:normal;font-size:8.46666622px;fill:#ff1654;fill-opacity:1;stroke-width:0.26458332px"
         id="path2803" />
      <path
         d="m 169.61376,60.650634 h 0.8723 v 1.050065 h -0.8723 z"
         style="font-style:normal;font-size:8.46666622px;fill:#ff1654;fill-opacity:1;stroke-width:0.26458332px"
         id="path2805" />
      <path
         d="m 172.4539,60.997899 h 1.36425 v -4.708756 l -1.48414,0.297656 v -0.760677 l 1.47588,-0.297656 h 0.83509 v 5.469433 h 1.36425 v 0.7028 h -3.55533 z"
         style="font-style:normal;font-size:8.46666622px;fill:#ff1654;fill-opacity:1;stroke-width:0.26458332px"
         id="path2807" />
      <path
         d="m 178.94446,55.528466 h 0.70279 l -2.14973,6.957715 h -0.7028 z"
         style="font-style:normal;font-size:8.46666622px;fill:#ff1654;fill-opacity:1;stroke-width:0.26458332px"
         id="path2809" />
      <path
         d="m 181.28023,60.997899 h 2.91455 v 0.7028 h -3.91914 v -0.7028 q 0.47543,-0.491959 1.29398,-1.318782 0.82269,-0.830957 1.03353,-1.070736 0.40101,-0.450618 0.5581,-0.760677 0.16123,-0.314192 0.16123,-0.615983 0,-0.491959 -0.34726,-0.802018 -0.34313,-0.310059 -0.8971,-0.310059 -0.39274,0 -0.83096,0.136426 -0.43408,0.136426 -0.93018,0.413412 v -0.84336 q 0.50437,-0.202571 0.94258,-0.305924 0.43822,-0.103353 0.80202,-0.103353 0.95911,0 1.52962,0.479557 0.57051,0.479558 0.57051,1.281576 0,0.380338 -0.14469,0.72347 -0.14056,0.338997 -0.51677,0.802018 -0.10335,0.119889 -0.65732,0.694531 -0.55397,0.570508 -1.5627,1.599902 z"
         style="font-style:normal;font-size:8.46666622px;fill:#ff1654;fill-opacity:1;stroke-width:0.26458332px"
         id="path2811" />
      <path
         d="m 188.24621,56.25607 -2.10839,3.294889 h 2.10839 z m -0.2191,-0.727604 h 1.05006 v 4.022493 h 0.88057 v 0.694532 h -0.88057 v 1.455208 h -0.83096 v -1.455208 h -2.78639 v -0.806153 z"
         style="font-style:normal;font-size:8.46666622px;fill:#ff1654;fill-opacity:1;stroke-width:0.26458332px"
         id="path2813" />
    </g>
    <path
       style="fill:none;fill-rule:evenodd;stroke:#ff9f1c;stroke-width:2.64583325;stroke-linecap:butt;stroke-linejoin:miter;stroke-miterlimit:4;stroke-dasharray:7.93750009, 2.64583336;stroke-dashoffset:0;stroke-opacity:1"
       d="M 150.28318,95.160715 V 129.93452"
       id="path5276"
       inkscape:connector-curvature="0"
       sodipodi:nodetypes="cc" />
    <g
       aria-label="NAT"
       style="font-style:normal;font-weight:normal;font-size:4.23333311px;line-height:125%;font-family:sans-serif;letter-spacing:0px;word-spacing:0px;fill:#2ec4b6;fill-opacity:1;stroke:none;stroke-width:0.26458332px;stroke-linecap:butt;stroke-linejoin:miter;stroke-opacity:1"
       id="text6006">
      <path
         d="m 155.09958,118.37541 h 1.49931 l 3.64904,6.88467 v -6.88467 h 1.08038 v 8.22964 h -1.4993 l -3.64905,-6.88468 v 6.88468 h -1.08038 z"
         style="font-style:normal;font-size:11.28888893px;fill:#2ec4b6;fill-opacity:1;stroke-width:0.26458332px"
         id="path3043" />
      <path
         d="m 166.29476,119.47232 -1.51033,4.09553 h 3.02618 z m -0.62838,-1.09691 h 1.26228 l 3.13642,8.22964 h -1.15756 l -0.74965,-2.11116 h -3.70968 l -0.74965,2.11116 h -1.17409 z"
         style="font-style:normal;font-size:11.28888893px;fill:#2ec4b6;fill-opacity:1;stroke-width:0.26458332px"
         id="path3045" />
      <path
         d="m 169.23825,118.37541 h 6.96185 v 0.93706 h -2.92144 v 7.29258 h -1.11897 v -7.29258 h -2.92144 z"
         style="font-style:normal;font-size:11.28888893px;fill:#2ec4b6;fill-opacity:1;stroke-width:0.26458332px"
         id="path3047" />
    </g>
    <g
       aria-label="10.141.0.1/16"
       style="font-style:normal;font-weight:normal;font-size:4.23333311px;line-height:125%;font-family:sans-serif;letter-spacing:0px;word-spacing:0px;fill:#ff1654;fill-opacity:1;stroke:none;stroke-width:0.26458332px;stroke-linecap:butt;stroke-linejoin:miter;stroke-opacity:1"
       id="text5987-7">
      <path
         d="m 178.80725,154.28142 h 1.36426 v -4.70875 l -1.48415,0.29765 v -0.76067 l 1.47588,-0.29766 h 0.83509 v 5.46943 h 1.36426 v 0.7028 h -3.55534 z"
         style="font-style:normal;font-size:8.46666622px;fill:#ff1654;fill-opacity:1;stroke-width:0.26458332px"
         id="path2990" />
      <path
         d="m 185.83938,149.36183 q -0.64492,0 -0.97152,0.63665 -0.32246,0.63252 -0.32246,1.90583 0,1.26917 0.32246,1.90582 0.3266,0.63252 0.97152,0.63252 0.64906,0 0.97152,-0.63252 0.32659,-0.63665 0.32659,-1.90582 0,-1.27331 -0.32659,-1.90583 -0.32246,-0.63665 -0.97152,-0.63665 z m 0,-0.66146 q 1.03766,0 1.58337,0.82269 0.54983,0.81855 0.54983,2.38125 0,1.55856 -0.54983,2.38125 -0.54571,0.81855 -1.58337,0.81855 -1.03766,0 -1.5875,-0.81855 -0.5457,-0.82269 -0.5457,-2.38125 0,-1.5627 0.5457,-2.38125 0.54984,-0.82269 1.5875,-0.82269 z"
         style="font-style:normal;font-size:8.46666622px;fill:#ff1654;fill-opacity:1;stroke-width:0.26458332px"
         id="path2992" />
      <path
         d="m 189.44433,153.93416 h 0.8723 v 1.05006 h -0.8723 z"
         style="font-style:normal;font-size:8.46666622px;fill:#ff1654;fill-opacity:1;stroke-width:0.26458332px"
         id="path2994" />
      <path
         d="m 192.28446,154.28142 h 1.36426 v -4.70875 l -1.48414,0.29765 v -0.76067 l 1.47587,-0.29766 h 0.8351 v 5.46943 h 1.36425 v 0.7028 h -3.55534 z"
         style="font-style:normal;font-size:8.46666622px;fill:#ff1654;fill-opacity:1;stroke-width:0.26458332px"
         id="path2996" />
      <path
         d="m 199.82509,149.53959 -2.1084,3.29489 h 2.1084 z m -0.21911,-0.7276 h 1.05007 v 4.02249 h 0.88056 v 0.69453 h -0.88056 v 1.45521 h -0.83096 v -1.45521 h -2.78639 v -0.80615 z"
         style="font-style:normal;font-size:8.46666622px;fill:#ff1654;fill-opacity:1;stroke-width:0.26458332px"
         id="path2998" />
      <path
         d="m 203.06624,154.28142 h 1.36425 v -4.70875 l -1.48414,0.29765 v -0.76067 l 1.47588,-0.29766 h 0.83509 v 5.46943 h 1.36425 v 0.7028 h -3.55533 z"
         style="font-style:normal;font-size:8.46666622px;fill:#ff1654;fill-opacity:1;stroke-width:0.26458332px"
         id="path3000" />
      <path
         d="m 208.31243,153.93416 h 0.8723 v 1.05006 h -0.8723 z"
         style="font-style:normal;font-size:8.46666622px;fill:#ff1654;fill-opacity:1;stroke-width:0.26458332px"
         id="path3002" />
      <path
         d="m 212.79381,149.36183 q -0.64492,0 -0.97152,0.63665 -0.32246,0.63252 -0.32246,1.90583 0,1.26917 0.32246,1.90582 0.3266,0.63252 0.97152,0.63252 0.64906,0 0.97152,-0.63252 0.32659,-0.63665 0.32659,-1.90582 0,-1.27331 -0.32659,-1.90583 -0.32246,-0.63665 -0.97152,-0.63665 z m 0,-0.66146 q 1.03766,0 1.58337,0.82269 0.54983,0.81855 0.54983,2.38125 0,1.55856 -0.54983,2.38125 -0.54571,0.81855 -1.58337,0.81855 -1.03766,0 -1.5875,-0.81855 -0.5457,-0.82269 -0.5457,-2.38125 0,-1.5627 0.5457,-2.38125 0.54984,-0.82269 1.5875,-0.82269 z"
         style="font-style:normal;font-size:8.46666622px;fill:#ff1654;fill-opacity:1;stroke-width:0.26458332px"
         id="path3004" />
      <path
         d="m 216.39876,153.93416 h 0.87229 v 1.05006 h -0.87229 z"
         style="font-style:normal;font-size:8.46666622px;fill:#ff1654;fill-opacity:1;stroke-width:0.26458332px"
         id="path3006" />
      <path
         d="m 219.23889,154.28142 h 1.36426 v -4.70875 l -1.48415,0.29765 v -0.76067 l 1.47588,-0.29766 h 0.83509 v 5.46943 h 1.36426 v 0.7028 h -3.55534 z"
         style="font-style:normal;font-size:8.46666622px;fill:#ff1654;fill-opacity:1;stroke-width:0.26458332px"
         id="path3008" />
      <path
         d="m 225.72945,148.81199 h 0.7028 l -2.14974,6.95771 h -0.7028 z"
         style="font-style:normal;font-size:8.46666622px;fill:#ff1654;fill-opacity:1;stroke-width:0.26458332px"
         id="path3010" />
      <path
         d="m 227.49059,154.28142 h 1.36425 v -4.70875 l -1.48414,0.29765 v -0.76067 l 1.47588,-0.29766 h 0.83509 v 5.46943 h 1.36425 v 0.7028 h -3.55533 z"
         style="font-style:normal;font-size:8.46666622px;fill:#ff1654;fill-opacity:1;stroke-width:0.26458332px"
         id="path3012" />
      <path
         d="m 234.62607,151.56531 q -0.56224,0 -0.89297,0.38447 -0.3266,0.38448 -0.3266,1.0542 0,0.66559 0.3266,1.0542 0.33073,0.38447 0.89297,0.38447 0.56224,0 0.88883,-0.38447 0.33073,-0.38861 0.33073,-1.0542 0,-0.66972 -0.33073,-1.0542 -0.32659,-0.38447 -0.88883,-0.38447 z m 1.65778,-2.61689 v 0.76067 q -0.3142,-0.14883 -0.63666,-0.22737 -0.31832,-0.0786 -0.63252,-0.0786 -0.82682,0 -1.26504,0.5581 -0.43408,0.55811 -0.49609,1.68672 0.24391,-0.35967 0.61185,-0.54984 0.36794,-0.1943 0.81029,-0.1943 0.93017,0 1.46761,0.56638 0.54157,0.56223 0.54157,1.53375 0,0.95085 -0.56224,1.52549 -0.56224,0.57464 -1.49655,0.57464 -1.07074,0 -1.63711,-0.81855 -0.56638,-0.82269 -0.56638,-2.38125 0,-1.46348 0.69454,-2.33164 0.69453,-0.8723 1.86448,-0.8723 0.31419,0 0.63252,0.062 0.32246,0.062 0.66973,0.18604 z"
         style="font-style:normal;font-size:8.46666622px;fill:#ff1654;fill-opacity:1;stroke-width:0.26458332px"
         id="path3014" />
    </g>
    <g
       aria-label="ethernet"
       style="font-style:normal;font-weight:normal;font-size:4.23333311px;line-height:125%;font-family:sans-serif;letter-spacing:0px;word-spacing:0px;fill:#2ec4b6;fill-opacity:1;stroke:none;stroke-width:0.26458332px;stroke-linecap:butt;stroke-linejoin:miter;stroke-opacity:1"
       id="text5965-3">
      <path
         d="m 184.94428,143.3156 v 0.49609 H 180.281 q 0.0661,1.04731 0.62838,1.59852 0.56776,0.54571 1.57648,0.54571 0.58429,0 1.12999,-0.14332 0.55122,-0.14332 1.09141,-0.42995 v 0.95912 q -0.54571,0.23151 -1.11897,0.35278 -0.57326,0.12126 -1.16306,0.12126 -1.47726,0 -2.34267,-0.85989 -0.85989,-0.8599 -0.85989,-2.32613 0,-1.51584 0.81579,-2.4033 0.82132,-0.89297 2.21038,-0.89297 1.24574,0 1.96784,0.80478 0.7276,0.79926 0.7276,2.1773 z m -1.01424,-0.29766 q -0.011,-0.83234 -0.46853,-1.32843 -0.452,-0.49609 -1.20165,-0.49609 -0.84887,0 -1.3615,0.47955 -0.50712,0.47956 -0.58429,1.35048 z"
         style="font-style:normal;font-size:11.28888893px;fill:#2ec4b6;fill-opacity:1;stroke-width:0.26458332px"
         id="path3017" />
      <path
         d="m 187.61216,138.72948 v 1.75287 h 2.08911 v 0.78824 h -2.08911 v 3.35139 q 0,0.75516 0.20395,0.97013 0.20946,0.21498 0.84336,0.21498 h 1.0418 v 0.84887 h -1.0418 q -1.17409,0 -1.62057,-0.43546 -0.44649,-0.44097 -0.44649,-1.59852 v -3.35139 h -0.74414 v -0.78824 h 0.74414 v -1.75287 z"
         style="font-style:normal;font-size:11.28888893px;fill:#2ec4b6;fill-opacity:1;stroke-width:0.26458332px"
         id="path3019" />
      <path
         d="m 196.17254,142.92974 v 3.72622 h -1.01424 v -3.69314 q 0,-0.87643 -0.34175,-1.31189 -0.34176,-0.43546 -1.02526,-0.43546 -0.82132,0 -1.29536,0.52365 -0.47405,0.52365 -0.47405,1.42765 v 3.48919 h -1.01974 v -8.57691 h 1.01974 v 3.36241 q 0.36381,-0.55672 0.85439,-0.83233 0.49609,-0.27561 1.14101,-0.27561 1.06385,0 1.60955,0.66146 0.54571,0.65595 0.54571,1.93476 z"
         style="font-style:normal;font-size:11.28888893px;fill:#2ec4b6;fill-opacity:1;stroke-width:0.26458332px"
         id="path3021" />
      <path
         d="m 203.48716,143.3156 v 0.49609 h -4.66328 q 0.0661,1.04731 0.62839,1.59852 0.56775,0.54571 1.57647,0.54571 0.58429,0 1.12999,-0.14332 0.55122,-0.14332 1.09141,-0.42995 v 0.95912 q -0.5457,0.23151 -1.11897,0.35278 -0.57326,0.12126 -1.16306,0.12126 -1.47726,0 -2.34267,-0.85989 -0.85989,-0.8599 -0.85989,-2.32613 0,-1.51584 0.8158,-2.4033 0.82131,-0.89297 2.21037,-0.89297 1.24575,0 1.96784,0.80478 0.7276,0.79926 0.7276,2.1773 z m -1.01423,-0.29766 q -0.011,-0.83234 -0.46854,-1.32843 -0.45199,-0.49609 -1.20165,-0.49609 -0.84887,0 -1.3615,0.47955 -0.50712,0.47956 -0.58429,1.35048 z"
         style="font-style:normal;font-size:11.28888893px;fill:#2ec4b6;fill-opacity:1;stroke-width:0.26458332px"
         id="path3023" />
      <path
         d="m 208.72922,141.43044 q -0.17088,-0.0992 -0.37483,-0.14332 -0.19844,-0.0496 -0.44097,-0.0496 -0.8599,0 -1.32292,0.56224 -0.45751,0.55673 -0.45751,1.60404 v 3.25217 h -1.01974 v -6.17361 h 1.01974 v 0.95911 q 0.31971,-0.56224 0.83234,-0.83233 0.51263,-0.27561 1.24575,-0.27561 0.10473,0 0.23151,0.0165 0.12678,0.011 0.28112,0.0386 z"
         style="font-style:normal;font-size:11.28888893px;fill:#2ec4b6;fill-opacity:1;stroke-width:0.26458332px"
         id="path3025" />
      <path
         d="m 214.73747,142.92974 v 3.72622 h -1.01424 v -3.69314 q 0,-0.87643 -0.34175,-1.31189 -0.34176,-0.43546 -1.02526,-0.43546 -0.82132,0 -1.29536,0.52365 -0.47405,0.52365 -0.47405,1.42765 v 3.48919 h -1.01974 v -6.17361 h 1.01974 v 0.95911 q 0.36381,-0.55672 0.85439,-0.83233 0.49609,-0.27561 1.14101,-0.27561 1.06385,0 1.60955,0.66146 0.54571,0.65595 0.54571,1.93476 z"
         style="font-style:normal;font-size:11.28888893px;fill:#2ec4b6;fill-opacity:1;stroke-width:0.26458332px"
         id="path3027" />
      <path
         d="m 222.05209,143.3156 v 0.49609 h -4.66328 q 0.0661,1.04731 0.62839,1.59852 0.56775,0.54571 1.57647,0.54571 0.58429,0 1.12999,-0.14332 0.55122,-0.14332 1.09141,-0.42995 v 0.95912 q -0.5457,0.23151 -1.11897,0.35278 -0.57326,0.12126 -1.16306,0.12126 -1.47726,0 -2.34267,-0.85989 -0.85989,-0.8599 -0.85989,-2.32613 0,-1.51584 0.8158,-2.4033 0.82131,-0.89297 2.21037,-0.89297 1.24575,0 1.96784,0.80478 0.7276,0.79926 0.7276,2.1773 z m -1.01423,-0.29766 q -0.011,-0.83234 -0.46854,-1.32843 -0.45199,-0.49609 -1.20165,-0.49609 -0.84887,0 -1.3615,0.47955 -0.50712,0.47956 -0.58429,1.35048 z"
         style="font-style:normal;font-size:11.28888893px;fill:#2ec4b6;fill-opacity:1;stroke-width:0.26458332px"
         id="path3029" />
      <path
         d="m 224.71997,138.72948 v 1.75287 h 2.08911 v 0.78824 h -2.08911 v 3.35139 q 0,0.75516 0.20395,0.97013 0.20946,0.21498 0.84336,0.21498 h 1.0418 v 0.84887 h -1.0418 q -1.17409,0 -1.62057,-0.43546 -0.44649,-0.44097 -0.44649,-1.59852 v -3.35139 h -0.74414 v -0.78824 h 0.74414 v -1.75287 z"
         style="font-style:normal;font-size:11.28888893px;fill:#2ec4b6;fill-opacity:1;stroke-width:0.26458332px"
         id="path3031" />
    </g>
    <path
       style="fill:none;fill-rule:evenodd;stroke:#ff9f1c;stroke-width:2.64583325;stroke-linecap:butt;stroke-linejoin:miter;stroke-miterlimit:4;stroke-dasharray:none;stroke-opacity:1"
       d="m 87.003535,169.61753 h 58.523655 c 6.89807,0 6.89807,-6.89806 6.89807,-6.89806 v -8.77893"
       id="path5256-6"
       inkscape:connector-curvature="0"
       sodipodi:nodetypes="cccc" />
    <path
       style="fill:none;fill-rule:evenodd;stroke:#ff9f1c;stroke-width:2.64583325;stroke-linecap:butt;stroke-linejoin:miter;stroke-miterlimit:4;stroke-dasharray:7.93750018, 2.64583339;stroke-dashoffset:0;stroke-opacity:1"
       d="m 43.467248,169.62204 44.065454,-0.005"
       id="path5276-2"
       inkscape:connector-curvature="0"
       sodipodi:nodetypes="cc" />
    <g
       aria-label="routing"
       style="font-style:normal;font-weight:normal;font-size:4.23333311px;line-height:125%;font-family:sans-serif;letter-spacing:0px;word-spacing:0px;fill:#2ec4b6;fill-opacity:1;stroke:none;stroke-width:0.26458332px;stroke-linecap:butt;stroke-linejoin:miter;stroke-opacity:1"
       id="text6006-9">
      <path
         d="m 47.485845,177.46201 q -0.170877,-0.0992 -0.374827,-0.14332 -0.198437,-0.0496 -0.440972,-0.0496 -0.859896,0 -1.322917,0.56224 -0.457508,0.55673 -0.457508,1.60404 v 3.25217 h -1.019748 v -6.17361 h 1.019748 v 0.95911 q 0.319705,-0.56224 0.832335,-0.83233 0.51263,-0.27561 1.245746,-0.27561 0.104731,0 0.231511,0.0165 0.126779,0.011 0.28112,0.0386 z"
         style="font-style:normal;font-size:11.28888893px;fill:#2ec4b6;fill-opacity:1;stroke-width:0.26458332px"
         id="path3061" />
      <path
         d="m 50.710454,177.22499 q -0.815798,0 -1.289844,0.63941 -0.474045,0.63389 -0.474045,1.74184 0,1.10794 0.468533,1.74735 0.474045,0.6339 1.295356,0.6339 0.810287,0 1.284332,-0.63941 0.474045,-0.63941 0.474045,-1.74184 0,-1.09692 -0.474045,-1.73633 -0.474045,-0.64492 -1.284332,-0.64492 z m 0,-0.8599 q 1.322917,0 2.078082,0.8599 0.755165,0.85989 0.755165,2.38125 0,1.51584 -0.755165,2.38125 -0.755165,0.85989 -2.078082,0.85989 -1.328429,0 -2.083594,-0.85989 -0.749652,-0.86541 -0.749652,-2.38125 0,-1.52136 0.749652,-2.38125 0.755165,-0.8599 2.083594,-0.8599 z"
         style="font-style:normal;font-size:11.28888893px;fill:#2ec4b6;fill-opacity:1;stroke-width:0.26458332px"
         id="path3063" />
      <path
         d="m 55.114665,180.25116 v -3.73724 h 1.014236 v 3.69865 q 0,0.87644 0.341753,1.31741 0.341754,0.43546 1.025261,0.43546 0.82131,0 1.295356,-0.52366 0.479557,-0.52365 0.479557,-1.42764 v -3.50022 h 1.014236 v 6.17361 h -1.014236 v -0.94809 q -0.369314,0.56224 -0.859896,0.83785 -0.485069,0.27009 -1.129991,0.27009 -1.063846,0 -1.615061,-0.66146 -0.551215,-0.66145 -0.551215,-1.93476 z m 2.552126,-3.88607 z"
         style="font-style:normal;font-size:11.28888893px;fill:#2ec4b6;fill-opacity:1;stroke-width:0.26458332px"
         id="path3065" />
      <path
         d="m 63.388405,174.76105 v 1.75287 h 2.089106 v 0.78824 h -2.089106 v 3.35139 q 0,0.75516 0.20395,0.97014 0.209462,0.21497 0.84336,0.21497 h 1.041796 v 0.84887 h -1.041796 q -1.174089,0 -1.620573,-0.43546 -0.446485,-0.44097 -0.446485,-1.59852 v -3.35139 h -0.74414 v -0.78824 h 0.74414 v -1.75287 z"
         style="font-style:normal;font-size:11.28888893px;fill:#2ec4b6;fill-opacity:1;stroke-width:0.26458332px"
         id="path3067" />
      <path
         d="M 66.816964,176.51392 H 67.8312 v 6.17361 h -1.014236 z m 0,-2.4033 H 67.8312 v 1.28433 h -1.014236 z"
         style="font-style:normal;font-size:11.28888893px;fill:#2ec4b6;fill-opacity:1;stroke-width:0.26458332px"
         id="path3069" />
      <path
         d="m 75.079682,178.96132 v 3.72621 h -1.014237 v -3.69314 q 0,-0.87643 -0.341753,-1.31189 -0.341754,-0.43546 -1.025261,-0.43546 -0.82131,0 -1.295355,0.52365 -0.474046,0.52365 -0.474046,1.42765 v 3.48919 h -1.019748 v -6.17361 h 1.019748 v 0.95911 q 0.363803,-0.55672 0.854384,-0.83233 0.496094,-0.27561 1.141016,-0.27561 1.063845,0 1.609548,0.66146 0.545704,0.65595 0.545704,1.93477 z"
         style="font-style:normal;font-size:11.28888893px;fill:#2ec4b6;fill-opacity:1;stroke-width:0.26458332px"
         id="path3071" />
      <path
         d="m 81.176122,179.52907 q 0,-1.10243 -0.457509,-1.70877 -0.451996,-0.60634 -1.273307,-0.60634 -0.815799,0 -1.273307,0.60634 -0.451997,0.60634 -0.451997,1.70877 0,1.09692 0.451997,1.70325 0.457508,0.60634 1.273307,0.60634 0.821311,0 1.273307,-0.60634 0.457509,-0.60633 0.457509,-1.70325 z m 1.014236,2.39227 q 0,1.57648 -0.700043,2.34267 -0.700044,0.7717 -2.144228,0.7717 -0.534679,0 -1.008724,-0.0827 -0.474045,-0.0772 -0.920529,-0.24254 v -0.98667 q 0.446484,0.24253 0.881944,0.35829 0.43546,0.11575 0.887457,0.11575 0.9977,0 1.493793,-0.52365 0.496094,-0.51815 0.496094,-1.57097 v -0.5016 q -0.314193,0.5457 -0.804774,0.8158 -0.490582,0.27009 -1.174089,0.27009 -1.135503,0 -1.830035,-0.86541 -0.694531,-0.86541 -0.694531,-2.29305 0,-1.43316 0.694531,-2.29857 0.694532,-0.86541 1.830035,-0.86541 0.683507,0 1.174089,0.2701 0.490581,0.27009 0.804774,0.8158 v -0.93707 h 1.014236 z"
         style="font-style:normal;font-size:11.28888893px;fill:#2ec4b6;fill-opacity:1;stroke-width:0.26458332px"
         id="path3073" />
    </g>
    <g
       aria-label="Host 1"
       style="font-style:normal;font-weight:normal;font-size:4.23333311px;line-height:125%;font-family:sans-serif;letter-spacing:0px;word-spacing:0px;fill:#2ec4b6;fill-opacity:1;stroke:none;stroke-width:0.26458332px;stroke-linecap:butt;stroke-linejoin:miter;stroke-opacity:1"
       id="text5182-2">
      <path
         d="m 17.057312,145.50632 h 1.113455 v 3.37344 h 4.04592 v -3.37344 h 1.113455 v 8.22964 h -1.113455 v -3.91914 h -4.04592 v 3.91914 h -1.113455 z"
         style="font-style:normal;font-size:11.28888893px;fill:#2ec4b6;fill-opacity:1;stroke-width:0.26458332px"
         id="path3050" />
      <path
         d="m 27.894204,148.27342 q -0.815798,0 -1.289843,0.63941 -0.474045,0.6339 -0.474045,1.74184 0,1.10794 0.468532,1.74735 0.474046,0.6339 1.295356,0.6339 0.810287,0 1.284332,-0.63941 0.474045,-0.63941 0.474045,-1.74184 0,-1.09692 -0.474045,-1.73633 -0.474045,-0.64492 -1.284332,-0.64492 z m 0,-0.8599 q 1.322917,0 2.078082,0.8599 0.755165,0.85989 0.755165,2.38125 0,1.51584 -0.755165,2.38125 -0.755165,0.85989 -2.078082,0.85989 -1.328428,0 -2.083593,-0.85989 -0.749653,-0.86541 -0.749653,-2.38125 0,-1.52136 0.749653,-2.38125 0.755165,-0.8599 2.083593,-0.8599 z"
         style="font-style:normal;font-size:11.28888893px;fill:#2ec4b6;fill-opacity:1;stroke-width:0.26458332px"
         id="path3052" />
      <path
         d="m 36.338823,147.74425 v 0.95912 q -0.429948,-0.22049 -0.892969,-0.33073 -0.463021,-0.11025 -0.959115,-0.11025 -0.755165,0 -1.135503,0.23151 -0.374826,0.23152 -0.374826,0.69454 0,0.35277 0.270095,0.55672 0.270096,0.19844 1.085894,0.38034 l 0.347266,0.0772 q 1.080382,0.23151 1.532378,0.65595 0.457509,0.41892 0.457509,1.17409 0,0.85989 -0.683507,1.3615 -0.677995,0.5016 -1.86862,0.5016 -0.496094,0 -1.036285,-0.0992 -0.534678,-0.0937 -1.129991,-0.28664 v -1.04731 q 0.56224,0.29215 1.107943,0.44098 0.545703,0.14331 1.080382,0.14331 0.71658,0 1.10243,-0.24253 0.385851,-0.24805 0.385851,-0.69453 0,-0.41341 -0.28112,-0.6339 -0.275607,-0.22049 -1.218186,-0.42444 l -0.352777,-0.0827 q -0.942578,-0.19844 -1.361502,-0.60634 -0.418924,-0.41341 -0.418924,-1.12999 0,-0.87092 0.617361,-1.34496 0.617362,-0.47405 1.752865,-0.47405 0.56224,0 1.058333,0.0827 0.496094,0.0827 0.915018,0.24805 z"
         style="font-style:normal;font-size:11.28888893px;fill:#2ec4b6;fill-opacity:1;stroke-width:0.26458332px"
         id="path3054" />
      <path
         d="m 39.293336,145.80949 v 1.75286 h 2.089106 v 0.78824 h -2.089106 v 3.35139 q 0,0.75516 0.203949,0.97014 0.209462,0.21497 0.84336,0.21497 h 1.041797 v 0.84887 h -1.041797 q -1.174089,0 -1.620573,-0.43546 -0.446485,-0.44097 -0.446485,-1.59852 v -3.35139 h -0.74414 v -0.78824 h 0.74414 v -1.75286 z"
         style="font-style:normal;font-size:11.28888893px;fill:#2ec4b6;fill-opacity:1;stroke-width:0.26458332px"
         id="path3056" />
      <path
         d="m 46.652061,152.7989 h 1.81901 v -6.27835 l -1.978863,0.39688 v -1.01424 l 1.967839,-0.39687 h 1.113455 v 7.29258 h 1.81901 v 0.93706 h -4.740451 z"
         style="font-style:normal;font-size:11.28888893px;fill:#2ec4b6;fill-opacity:1;stroke-width:0.26458332px"
         id="path3058" />
    </g>
    <path
       style="fill:#011627;fill-opacity:1;stroke:#2ec4b6;stroke-width:1.32291663;stroke-miterlimit:4;stroke-dasharray:none;stroke-opacity:1"
       d="m 199.50842,35.933308 h 72.77591 v 40.678707 h -72.77591 z"
       id="rect4646" />
    <g
       aria-label="Container"
       style="font-style:normal;font-weight:normal;font-size:4.23333311px;line-height:125%;font-family:sans-serif;letter-spacing:0px;word-spacing:0px;fill:#2ec4b6;fill-opacity:1;stroke:none;stroke-width:0.26458332px;stroke-linecap:butt;stroke-linejoin:miter;stroke-opacity:1"
       id="text4650">
      <path
         d="m 215.25062,42.648318 v 1.174088 q -0.56224,-0.523654 -1.20165,-0.782725 -0.6339,-0.259072 -1.35048,-0.259072 -1.41111,0 -2.16076,0.865408 -0.74966,0.859896 -0.74966,2.491493 0,1.626086 0.74966,2.491494 0.74965,0.859895 2.16076,0.859895 0.71658,0 1.35048,-0.259071 0.63941,-0.259071 1.20165,-0.782725 v 1.163064 q -0.58429,0.396875 -1.24024,0.595312 -0.65043,0.198438 -1.37804,0.198438 -1.86862,0 -2.94349,-1.141016 -1.07487,-1.146528 -1.07487,-3.125391 0,-1.984375 1.07487,-3.12539 1.07487,-1.146528 2.94349,-1.146528 0.73863,0 1.38907,0.198438 0.65594,0.192925 1.22921,0.584288 z"
         style="font-style:normal;font-size:11.28888893px;fill:#2ec4b6;fill-opacity:1;stroke-width:0.26458332px"
         id="path2903" />
      <path
         d="m 219.32961,44.781521 q -0.8158,0 -1.28984,0.63941 -0.47405,0.633897 -0.47405,1.74184 0,1.107943 0.46853,1.747352 0.47405,0.633898 1.29536,0.633898 0.81029,0 1.28433,-0.63941 0.47405,-0.63941 0.47405,-1.74184 0,-1.096918 -0.47405,-1.736328 -0.47404,-0.644922 -1.28433,-0.644922 z m 0,-0.859896 q 1.32292,0 2.07808,0.859896 0.75517,0.859896 0.75517,2.38125 0,1.515842 -0.75517,2.38125 -0.75516,0.859896 -2.07808,0.859896 -1.32843,0 -2.08359,-0.859896 -0.74966,-0.865408 -0.74966,-2.38125 0,-1.521354 0.74966,-2.38125 0.75516,-0.859896 2.08359,-0.859896 z"
         style="font-style:normal;font-size:11.28888893px;fill:#2ec4b6;fill-opacity:1;stroke-width:0.26458332px"
         id="path2905" />
      <path
         d="m 228.97036,46.517849 v 3.726215 h -1.01423 v -3.693142 q 0,-0.876432 -0.34175,-1.311892 -0.34176,-0.43546 -1.02527,-0.43546 -0.82131,0 -1.29535,0.523654 -0.47405,0.523655 -0.47405,1.427648 v 3.489192 h -1.01974 v -6.173611 h 1.01974 v 0.959115 q 0.36381,-0.556728 0.85439,-0.832335 0.49609,-0.275608 1.14101,-0.275608 1.06385,0 1.60955,0.661458 0.5457,0.655947 0.5457,1.934766 z"
         style="font-style:normal;font-size:11.28888893px;fill:#2ec4b6;fill-opacity:1;stroke-width:0.26458332px"
         id="path2907" />
      <path
         d="m 232.00756,42.317589 v 1.752864 h 2.08911 v 0.788238 h -2.08911 v 3.351389 q 0,0.755165 0.20395,0.970139 0.20946,0.214974 0.84336,0.214974 h 1.0418 v 0.848871 h -1.0418 q -1.17409,0 -1.62057,-0.43546 -0.44649,-0.440972 -0.44649,-1.598524 v -3.351389 h -0.74414 v -0.788238 h 0.74414 v -1.752864 z"
         style="font-style:normal;font-size:11.28888893px;fill:#2ec4b6;fill-opacity:1;stroke-width:0.26458332px"
         id="path2909" />
      <path
         d="m 238.24181,47.140722 q -1.22921,0 -1.70326,0.28112 -0.47404,0.28112 -0.47404,0.959115 0,0.540191 0.35277,0.859896 0.35829,0.314192 0.97014,0.314192 0.84336,0 1.35048,-0.595312 0.51263,-0.600825 0.51263,-1.593012 v -0.225999 z m 2.02296,-0.418923 v 3.522265 h -1.01424 v -0.937066 q -0.34727,0.56224 -0.86541,0.832335 -0.51814,0.264584 -1.26779,0.264584 -0.94809,0 -1.51033,-0.529167 -0.55673,-0.534679 -0.55673,-1.427647 0,-1.041797 0.69453,-1.570964 0.70004,-0.529167 2.08359,-0.529167 h 1.42214 v -0.09922 q 0,-0.700044 -0.46302,-1.080382 -0.45751,-0.385851 -1.28984,-0.385851 -0.52917,0 -1.03078,0.126779 -0.5016,0.12678 -0.96462,0.380339 v -0.937066 q 0.55672,-0.214974 1.08038,-0.319705 0.52365,-0.110243 1.01975,-0.110243 1.33945,0 2.00091,0.694531 0.66146,0.694532 0.66146,2.105643 z"
         style="font-style:normal;font-size:11.28888893px;fill:#2ec4b6;fill-opacity:1;stroke-width:0.26458332px"
         id="path2911" />
      <path
         d="m 242.35939,44.070453 h 1.01423 v 6.173611 h -1.01423 z m 0,-2.403298 h 1.01423 v 1.284331 h -1.01423 z"
         style="font-style:normal;font-size:11.28888893px;fill:#2ec4b6;fill-opacity:1;stroke-width:0.26458332px"
         id="path2913" />
      <path
         d="m 250.6221,46.517849 v 3.726215 h -1.01424 v -3.693142 q 0,-0.876432 -0.34175,-1.311892 -0.34175,-0.43546 -1.02526,-0.43546 -0.82131,0 -1.29535,0.523654 -0.47405,0.523655 -0.47405,1.427648 v 3.489192 h -1.01975 v -6.173611 h 1.01975 v 0.959115 q 0.3638,-0.556728 0.85438,-0.832335 0.4961,-0.275608 1.14102,-0.275608 1.06384,0 1.60955,0.661458 0.5457,0.655947 0.5457,1.934766 z"
         style="font-style:normal;font-size:11.28888893px;fill:#2ec4b6;fill-opacity:1;stroke-width:0.26458332px"
         id="path2915" />
      <path
         d="m 257.93673,46.9037 v 0.496093 h -4.66328 q 0.0661,1.04731 0.62838,1.598525 0.56775,0.545703 1.57648,0.545703 0.58429,0 1.12999,-0.143316 0.55121,-0.143316 1.0914,-0.429948 v 0.959115 q -0.5457,0.23151 -1.11896,0.352777 -0.57327,0.121268 -1.16307,0.121268 -1.47725,0 -2.34266,-0.859896 -0.8599,-0.859896 -0.8599,-2.326129 0,-1.515842 0.8158,-2.403298 0.82131,-0.892969 2.21037,-0.892969 1.24575,0 1.96784,0.804774 0.72761,0.799263 0.72761,2.177301 z m -1.01424,-0.297657 q -0.011,-0.832335 -0.46853,-1.328428 -0.452,-0.496094 -1.20165,-0.496094 -0.84887,0 -1.3615,0.479557 -0.50712,0.479557 -0.58429,1.350478 z"
         style="font-style:normal;font-size:11.28888893px;fill:#2ec4b6;fill-opacity:1;stroke-width:0.26458332px"
         id="path2917" />
      <path
         d="m 263.17878,45.018543 q -0.17087,-0.09922 -0.37482,-0.143315 -0.19844,-0.04961 -0.44097,-0.04961 -0.8599,0 -1.32292,0.56224 -0.45751,0.556727 -0.45751,1.604036 v 3.25217 h -1.01975 v -6.173611 h 1.01975 v 0.959115 q 0.31971,-0.56224 0.83234,-0.832335 0.51263,-0.275608 1.24574,-0.275608 0.10473,0 0.23151,0.01654 0.12678,0.01102 0.28112,0.03859 z"
         style="font-style:normal;font-size:11.28888893px;fill:#2ec4b6;fill-opacity:1;stroke-width:0.26458332px"
         id="path2919" />
    </g>
    <g
       aria-label="172.19.35.3/24"
       style="font-style:normal;font-weight:normal;font-size:4.23333311px;line-height:125%;font-family:sans-serif;letter-spacing:0px;word-spacing:0px;fill:#ff1654;fill-opacity:1;stroke:none;stroke-width:0.26458332px;stroke-linecap:butt;stroke-linejoin:miter;stroke-opacity:1"
       id="text4654">
      <path
         d="m 204.29314,64.90199 h 1.36426 v -4.708756 l -1.48415,0.297656 v -0.760677 l 1.47588,-0.297656 h 0.83509 v 5.469433 h 1.36426 v 0.7028 h -3.55534 z"
         style="font-style:normal;font-size:8.46666622px;fill:#ff1654;fill-opacity:1;stroke-width:0.26458332px"
         id="path2922" />
      <path
         d="m 209.32849,59.432557 h 3.96875 v 0.355534 l -2.24069,5.816699 h -0.8723 l 2.1084,-5.469434 h -2.96416 z"
         style="font-style:normal;font-size:8.46666622px;fill:#ff1654;fill-opacity:1;stroke-width:0.26458332px"
         id="path2924" />
      <path
         d="m 215.64955,64.90199 h 2.91455 v 0.7028 h -3.91914 v -0.7028 q 0.47542,-0.491959 1.29398,-1.318782 0.82269,-0.830957 1.03353,-1.070736 0.40101,-0.450618 0.5581,-0.760677 0.16123,-0.314193 0.16123,-0.615983 0,-0.49196 -0.34726,-0.802018 -0.34313,-0.310059 -0.89711,-0.310059 -0.39274,0 -0.83095,0.136426 -0.43408,0.136426 -0.93018,0.413412 v -0.84336 q 0.50436,-0.202571 0.94258,-0.305924 0.43822,-0.103353 0.80202,-0.103353 0.95911,0 1.52962,0.479557 0.57051,0.479557 0.57051,1.281576 0,0.380338 -0.1447,0.72347 -0.14056,0.338997 -0.51676,0.802018 -0.10335,0.119889 -0.65732,0.694531 -0.55398,0.570508 -1.5627,1.599902 z"
         style="font-style:normal;font-size:8.46666622px;fill:#ff1654;fill-opacity:1;stroke-width:0.26458332px"
         id="path2926" />
      <path
         d="m 220.3211,64.554725 h 0.8723 v 1.050065 h -0.8723 z"
         style="font-style:normal;font-size:8.46666622px;fill:#ff1654;fill-opacity:1;stroke-width:0.26458332px"
         id="path2928" />
      <path
         d="m 223.16124,64.90199 h 1.36425 v -4.708756 l -1.48414,0.297656 v -0.760677 l 1.47588,-0.297656 h 0.83509 v 5.469433 h 1.36426 v 0.7028 h -3.55534 z"
         style="font-style:normal;font-size:8.46666622px;fill:#ff1654;fill-opacity:1;stroke-width:0.26458332px"
         id="path2930" />
      <path
         d="m 228.43223,65.476632 v -0.760677 q 0.31419,0.148828 0.63666,0.227376 0.32246,0.07855 0.63251,0.07855 0.82683,0 1.26091,-0.553972 0.43822,-0.558105 0.50023,-1.690852 -0.23978,0.355533 -0.60772,0.545703 -0.36793,0.190169 -0.81442,0.190169 -0.92604,0 -1.46761,-0.558106 -0.53743,-0.562239 -0.53743,-1.533756 0,-0.950846 0.56224,-1.525488 0.56224,-0.574642 1.49655,-0.574642 1.07073,0 1.63297,0.822689 0.56637,0.818554 0.56637,2.38125 0,1.459342 -0.69453,2.33164 -0.69039,0.868164 -1.86035,0.868164 -0.31419,0 -0.63665,-0.06201 -0.32246,-0.06201 -0.66973,-0.186035 z m 1.66192,-2.616894 q 0.56224,0 0.88883,-0.384473 0.33073,-0.384472 0.33073,-1.054199 0,-0.665592 -0.33073,-1.050065 -0.32659,-0.388607 -0.88883,-0.388607 -0.56224,0 -0.89297,0.388607 -0.3266,0.384473 -0.3266,1.050065 0,0.669727 0.3266,1.054199 0.33073,0.384473 0.89297,0.384473 z"
         style="font-style:normal;font-size:8.46666622px;fill:#ff1654;fill-opacity:1;stroke-width:0.26458332px"
         id="path2932" />
      <path
         d="m 233.79831,64.554725 h 0.8723 v 1.050065 h -0.8723 z"
         style="font-style:normal;font-size:8.46666622px;fill:#ff1654;fill-opacity:1;stroke-width:0.26458332px"
         id="path2934" />
      <path
         d="m 239.02384,62.276828 q 0.59944,0.128157 0.93431,0.5333 0.33899,0.405144 0.33899,1.000456 0,0.913639 -0.62838,1.413867 -0.62839,0.500228 -1.78594,0.500228 -0.38861,0 -0.80202,-0.07855 -0.40928,-0.07441 -0.84749,-0.227376 v -0.806153 q 0.34726,0.202572 0.76068,0.305925 0.41341,0.103353 0.86403,0.103353 0.78548,0 1.19475,-0.310059 0.41342,-0.310059 0.41342,-0.901237 0,-0.545703 -0.38448,-0.851627 -0.38034,-0.310059 -1.06246,-0.310059 h -0.71934 v -0.686263 h 0.75241 q 0.61598,0 0.94258,-0.243913 0.32659,-0.248047 0.32659,-0.711067 0,-0.475424 -0.339,-0.727605 -0.33486,-0.256315 -0.96324,-0.256315 -0.34314,0 -0.73588,0.07441 -0.39274,0.07441 -0.86403,0.231511 v -0.744141 q 0.47543,-0.132291 0.88884,-0.198437 0.41754,-0.06615 0.78548,-0.06615 0.95085,0 1.50482,0.434082 0.55397,0.429948 0.55397,1.16582 0,0.51263 -0.29352,0.868164 -0.29353,0.3514 -0.83509,0.487826 z"
         style="font-style:normal;font-size:8.46666622px;fill:#ff1654;fill-opacity:1;stroke-width:0.26458332px"
         id="path2936" />
      <path
         d="m 241.89291,59.432557 h 3.27835 v 0.702799 h -2.51354 v 1.513086 q 0.1819,-0.06201 0.3638,-0.09095 0.1819,-0.03307 0.36381,-0.03307 1.03352,0 1.6371,0.566374 0.60359,0.566373 0.60359,1.533756 0,0.996322 -0.62012,1.550293 -0.62012,0.549837 -1.74873,0.549837 -0.38861,0 -0.79375,-0.06615 -0.40101,-0.06615 -0.83096,-0.198437 v -0.839225 q 0.37207,0.202571 0.76895,0.30179 0.39687,0.09922 0.83922,0.09922 0.7152,0 1.13275,-0.376205 0.41754,-0.376204 0.41754,-1.021126 0,-0.644922 -0.41754,-1.021126 -0.41755,-0.376205 -1.13275,-0.376205 -0.33486,0 -0.66973,0.07441 -0.33072,0.07441 -0.67799,0.231511 z"
         style="font-style:normal;font-size:8.46666622px;fill:#ff1654;fill-opacity:1;stroke-width:0.26458332px"
         id="path2938" />
      <path
         d="m 247.27553,64.554725 h 0.87229 v 1.050065 h -0.87229 z"
         style="font-style:normal;font-size:8.46666622px;fill:#ff1654;fill-opacity:1;stroke-width:0.26458332px"
         id="path2940" />
      <path
         d="m 252.50105,62.276828 q 0.59944,0.128157 0.93431,0.5333 0.33899,0.405144 0.33899,1.000456 0,0.913639 -0.62838,1.413867 -0.62839,0.500228 -1.78594,0.500228 -0.38861,0 -0.80202,-0.07855 -0.40927,-0.07441 -0.84749,-0.227376 v -0.806153 q 0.34726,0.202572 0.76068,0.305925 0.41341,0.103353 0.86403,0.103353 0.78548,0 1.19476,-0.310059 0.41341,-0.310059 0.41341,-0.901237 0,-0.545703 -0.38448,-0.851627 -0.38033,-0.310059 -1.06246,-0.310059 h -0.71934 v -0.686263 h 0.75241 q 0.61598,0 0.94258,-0.243913 0.32659,-0.248047 0.32659,-0.711067 0,-0.475424 -0.33899,-0.727605 -0.33487,-0.256315 -0.96325,-0.256315 -0.34313,0 -0.73588,0.07441 -0.39274,0.07441 -0.86403,0.231511 v -0.744141 q 0.47543,-0.132291 0.88884,-0.198437 0.41754,-0.06615 0.78548,-0.06615 0.95085,0 1.50482,0.434082 0.55397,0.429948 0.55397,1.16582 0,0.51263 -0.29352,0.868164 -0.29352,0.3514 -0.83509,0.487826 z"
         style="font-style:normal;font-size:8.46666622px;fill:#ff1654;fill-opacity:1;stroke-width:0.26458332px"
         id="path2942" />
      <path
         d="m 256.60622,59.432557 h 0.7028 l -2.14974,6.957714 h -0.7028 z"
         style="font-style:normal;font-size:8.46666622px;fill:#ff1654;fill-opacity:1;stroke-width:0.26458332px"
         id="path2944" />
      <path
         d="m 258.942,64.90199 h 2.91455 v 0.7028 h -3.91914 v -0.7028 q 0.47542,-0.491959 1.29398,-1.318782 0.82268,-0.830957 1.03352,-1.070736 0.40101,-0.450618 0.55811,-0.760677 0.16123,-0.314193 0.16123,-0.615983 0,-0.49196 -0.34726,-0.802018 -0.34314,-0.310059 -0.89711,-0.310059 -0.39274,0 -0.83095,0.136426 -0.43409,0.136426 -0.93018,0.413412 v -0.84336 q 0.50436,-0.202571 0.94258,-0.305924 0.43821,-0.103353 0.80202,-0.103353 0.95911,0 1.52962,0.479557 0.57051,0.479557 0.57051,1.281576 0,0.380338 -0.1447,0.72347 -0.14056,0.338997 -0.51676,0.802018 -0.10336,0.119889 -0.65733,0.694531 -0.55397,0.570508 -1.56269,1.599902 z"
         style="font-style:normal;font-size:8.46666622px;fill:#ff1654;fill-opacity:1;stroke-width:0.26458332px"
         id="path2946" />
      <path
         d="m 265.90798,60.160161 -2.1084,3.294889 h 2.1084 z m -0.21911,-0.727604 h 1.05007 v 4.022493 h 0.88056 v 0.694531 h -0.88056 v 1.455209 h -0.83096 v -1.455209 h -2.78639 v -0.806152 z"
         style="font-style:normal;font-size:8.46666622px;fill:#ff1654;fill-opacity:1;stroke-width:0.26458332px"
         id="path2948" />
    </g>
    <rect
       y="70.911125"
       x="221.55565"
       height="16.036171"
       width="30.735994"
       id="rect4656"
       style="fill:#ff9f1c;fill-opacity:1;stroke:#27a89f;stroke-width:1.32291663;stroke-miterlimit:4;stroke-dasharray:none;stroke-dashoffset:0;stroke-opacity:1" />
    <g
       aria-label="veth3"
       style="font-style:normal;font-weight:normal;font-size:8.46666622px;line-height:125%;font-family:sans-serif;letter-spacing:0px;word-spacing:0px;fill:#ff1654;fill-opacity:1;stroke:none;stroke-width:2.64599991;stroke-linecap:butt;stroke-linejoin:miter;stroke-miterlimit:4;stroke-dasharray:none;stroke-opacity:1"
       id="text4660">
      <path
         d="m 225.23651,77.455401 h 0.80615 l 1.44694,3.886068 1.44694,-3.886068 h 0.80615 l -1.73632,4.630208 h -1.03353 z"
         style="font-style:normal;font-size:8.46666622px;fill:#ff1654;fill-opacity:1;stroke-width:2.64599991;stroke-miterlimit:4;stroke-dasharray:none"
         id="path2951" />
      <path
         d="m 234.75324,79.580336 v 0.37207 h -3.49746 q 0.0496,0.785482 0.47129,1.198894 0.42581,0.409277 1.18236,0.409277 0.43821,0 0.84749,-0.107487 0.41341,-0.107487 0.81855,-0.322461 v 0.719336 q -0.40927,0.173633 -0.83922,0.264583 -0.42995,0.09095 -0.8723,0.09095 -1.10794,0 -1.757,-0.644922 -0.64492,-0.644922 -0.64492,-1.744596 0,-1.136882 0.61185,-1.802474 0.61598,-0.669727 1.65778,-0.669727 0.93431,0 1.47588,0.603581 0.5457,0.599447 0.5457,1.632975 z m -0.76068,-0.223242 q -0.008,-0.624251 -0.3514,-0.996322 -0.33899,-0.37207 -0.90123,-0.37207 -0.63666,0 -1.02113,0.359668 -0.38034,0.359668 -0.43821,1.012858 z"
         style="font-style:normal;font-size:8.46666622px;fill:#ff1654;fill-opacity:1;stroke-width:2.64599991;stroke-miterlimit:4;stroke-dasharray:none"
         id="path2953" />
      <path
         d="m 236.75415,76.140753 v 1.314648 h 1.56683 v 0.591179 h -1.56683 v 2.513541 q 0,0.566374 0.15296,0.727604 0.1571,0.161231 0.63252,0.161231 h 0.78135 v 0.636653 h -0.78135 q -0.88056,0 -1.21543,-0.326595 -0.33486,-0.330729 -0.33486,-1.198893 V 78.04658 h -0.5581 v -0.591179 h 0.5581 v -1.314648 z"
         style="font-style:normal;font-size:8.46666622px;fill:#ff1654;fill-opacity:1;stroke-width:2.64599991;stroke-miterlimit:4;stroke-dasharray:none"
         id="path2955" />
      <path
         d="m 243.17443,79.290948 v 2.794661 h -0.76067 v -2.769856 q 0,-0.657324 -0.25632,-0.983919 -0.25631,-0.326595 -0.76894,-0.326595 -0.61599,0 -0.97152,0.39274 -0.35554,0.392741 -0.35554,1.070736 v 2.616894 h -0.76481 v -6.432682 h 0.76481 v 2.52181 q 0.27286,-0.417545 0.64079,-0.624251 0.37207,-0.206706 0.85576,-0.206706 0.79789,0 1.20717,0.496094 0.40927,0.49196 0.40927,1.451074 z"
         style="font-style:normal;font-size:8.46666622px;fill:#ff1654;fill-opacity:1;stroke-width:2.64599991;stroke-miterlimit:4;stroke-dasharray:none"
         id="path2957" />
      <path
         d="m 247.33749,78.757647 q 0.59944,0.128158 0.93431,0.533301 0.33899,0.405143 0.33899,1.000456 0,0.913639 -0.62838,1.413867 -0.62839,0.500228 -1.78594,0.500228 -0.38861,0 -0.80202,-0.07855 -0.40928,-0.07441 -0.84749,-0.227377 v -0.806152 q 0.34726,0.202572 0.76068,0.305924 0.41341,0.103353 0.86403,0.103353 0.78548,0 1.19475,-0.310058 0.41342,-0.310059 0.41342,-0.901237 0,-0.545703 -0.38448,-0.851628 -0.38034,-0.310058 -1.06246,-0.310058 h -0.71934 v -0.686263 h 0.75241 q 0.61598,0 0.94258,-0.243913 0.32659,-0.248047 0.32659,-0.711068 0,-0.475423 -0.339,-0.727604 -0.33486,-0.256315 -0.96324,-0.256315 -0.34314,0 -0.73588,0.07441 -0.39274,0.07441 -0.86403,0.231511 v -0.744141 q 0.47543,-0.132292 0.88884,-0.198438 0.41754,-0.06615 0.78548,-0.06615 0.95085,0 1.50482,0.434082 0.55397,0.429948 0.55397,1.16582 0,0.51263 -0.29352,0.868164 -0.29353,0.3514 -0.83509,0.487825 z"
         style="font-style:normal;font-size:8.46666622px;fill:#ff1654;fill-opacity:1;stroke-width:2.64599991;stroke-miterlimit:4;stroke-dasharray:none"
         id="path2959" />
    </g>
    <path
       sodipodi:nodetypes="cccccc"
       inkscape:connector-curvature="0"
       id="path4662"
       d="m 168.54329,84.059988 v 8.77893 c 0,0 0,6.89806 6.8981,6.89806 21.46092,0 37.06316,0 58.52397,0 6.89806,0 6.89806,-6.89806 6.89806,-6.89806 v -8.77893"
       style="fill:none;fill-rule:evenodd;stroke:#ff9f1c;stroke-width:2.64583325;stroke-linecap:butt;stroke-linejoin:miter;stroke-miterlimit:4;stroke-dasharray:none;stroke-opacity:1" />
    <g
       aria-label="veth pair"
       style="font-style:normal;font-weight:normal;font-size:4.23333311px;line-height:125%;font-family:sans-serif;letter-spacing:0px;word-spacing:0px;fill:#2ec4b6;fill-opacity:1;stroke:none;stroke-width:0.26458332px;stroke-linecap:butt;stroke-linejoin:miter;stroke-opacity:1"
       id="text4666">
      <path
         d="m 178.77855,105.04551 h 1.07487 l 1.92925,5.18142 1.92925,-5.18142 h 1.07487 l -2.3151,6.17361 h -1.37804 z"
         style="font-style:normal;font-size:11.28888893px;fill:#2ec4b6;fill-opacity:1;stroke-width:0.26458332px"
         id="path2962" />
      <path
         d="m 191.46752,107.87875 v 0.4961 h -4.66328 q 0.0661,1.0473 0.62839,1.59852 0.56775,0.5457 1.57647,0.5457 0.58429,0 1.12999,-0.14331 0.55122,-0.14332 1.09141,-0.42995 v 0.95911 q -0.5457,0.23151 -1.11897,0.35278 -0.57326,0.12127 -1.16306,0.12127 -1.47726,0 -2.34266,-0.8599 -0.8599,-0.85989 -0.8599,-2.32613 0,-1.51584 0.8158,-2.40329 0.82131,-0.89297 2.21037,-0.89297 1.24575,0 1.96784,0.80477 0.7276,0.79926 0.7276,2.1773 z m -1.01423,-0.29765 q -0.011,-0.83234 -0.46854,-1.32843 -0.45199,-0.4961 -1.20164,-0.4961 -0.84888,0 -1.36151,0.47956 -0.50711,0.47956 -0.58428,1.35048 z"
         style="font-style:normal;font-size:11.28888893px;fill:#2ec4b6;fill-opacity:1;stroke-width:0.26458332px"
         id="path2964" />
      <path
         d="m 194.13541,103.29264 v 1.75287 h 2.0891 v 0.78823 h -2.0891 v 3.35139 q 0,0.75517 0.20394,0.97014 0.20947,0.21497 0.84336,0.21497 h 1.0418 v 0.84888 h -1.0418 q -1.17408,0 -1.62057,-0.43546 -0.44648,-0.44098 -0.44648,-1.59853 v -3.35139 h -0.74414 v -0.78823 h 0.74414 v -1.75287 z"
         style="font-style:normal;font-size:11.28888893px;fill:#2ec4b6;fill-opacity:1;stroke-width:0.26458332px"
         id="path2966" />
      <path
         d="m 202.69578,107.4929 v 3.72622 h -1.01424 v -3.69315 q 0,-0.87643 -0.34175,-1.31189 -0.34176,-0.43546 -1.02526,-0.43546 -0.82131,0 -1.29536,0.52366 -0.47404,0.52365 -0.47404,1.42764 v 3.4892 h -1.01975 v -8.57691 h 1.01975 v 3.36241 q 0.3638,-0.55673 0.85438,-0.83234 0.49609,-0.2756 1.14102,-0.2756 1.06384,0 1.60954,0.66146 0.54571,0.65594 0.54571,1.93476 z"
         style="font-style:normal;font-size:11.28888893px;fill:#2ec4b6;fill-opacity:1;stroke-width:0.26458332px"
         id="path2968" />
      <path
         d="m 209.30485,110.29307 v 3.27422 h -1.01975 v -8.52178 h 1.01975 v 0.93706 q 0.31971,-0.55121 0.80477,-0.8158 0.49059,-0.27009 1.16858,-0.27009 1.12448,0 1.82452,0.89297 0.70556,0.89296 0.70556,2.34817 0,1.45521 -0.70556,2.34818 -0.70004,0.89297 -1.82452,0.89297 -0.67799,0 -1.16858,-0.26458 -0.48506,-0.2701 -0.80477,-0.82132 z m 3.45061,-2.15525 q 0,-1.11896 -0.46302,-1.75286 -0.45751,-0.63941 -1.26229,-0.63941 -0.80477,0 -1.26779,0.63941 -0.45751,0.6339 -0.45751,1.75286 0,1.11897 0.45751,1.75838 0.46302,0.6339 1.26779,0.6339 0.80478,0 1.26229,-0.6339 0.46302,-0.63941 0.46302,-1.75838 z"
         style="font-style:normal;font-size:11.28888893px;fill:#2ec4b6;fill-opacity:1;stroke-width:0.26458332px"
         id="path2970" />
      <path
         d="m 218.29517,108.11577 q -1.22921,0 -1.70325,0.28112 -0.47405,0.28112 -0.47405,0.95912 0,0.54019 0.35278,0.85989 0.35829,0.3142 0.97014,0.3142 0.84336,0 1.35048,-0.59532 0.51263,-0.60082 0.51263,-1.59301 v -0.226 z m 2.02296,-0.41892 v 3.52227 h -1.01423 v -0.93707 q -0.34727,0.56224 -0.86541,0.83234 -0.51815,0.26458 -1.2678,0.26458 -0.94809,0 -1.51033,-0.52917 -0.55673,-0.53468 -0.55673,-1.42765 0,-1.04179 0.69454,-1.57096 0.70004,-0.52917 2.08359,-0.52917 h 1.42214 v -0.0992 q 0,-0.70005 -0.46303,-1.08039 -0.4575,-0.38585 -1.28984,-0.38585 -0.52917,0 -1.03077,0.12678 -0.50161,0.12678 -0.96463,0.38034 v -0.93707 q 0.55673,-0.21497 1.08038,-0.3197 0.52366,-0.11024 1.01975,-0.11024 1.33945,0 2.00091,0.69453 0.66146,0.69453 0.66146,2.10564 z"
         style="font-style:normal;font-size:11.28888893px;fill:#2ec4b6;fill-opacity:1;stroke-width:0.26458332px"
         id="path2972" />
      <path
         d="m 222.41275,105.04551 h 1.01424 v 6.17361 h -1.01424 z m 0,-2.4033 h 1.01424 v 1.28433 h -1.01424 z"
         style="font-style:normal;font-size:11.28888893px;fill:#2ec4b6;fill-opacity:1;stroke-width:0.26458332px"
         id="path2974" />
      <path
         d="m 229.12104,105.9936 q -0.17088,-0.0992 -0.37483,-0.14332 -0.19844,-0.0496 -0.44097,-0.0496 -0.8599,0 -1.32292,0.56224 -0.45751,0.55673 -0.45751,1.60404 v 3.25217 h -1.01974 v -6.17361 h 1.01974 v 0.95911 q 0.31971,-0.56224 0.83234,-0.83234 0.51263,-0.2756 1.24575,-0.2756 0.10473,0 0.23151,0.0165 0.12678,0.011 0.28112,0.0386 z"
         style="font-style:normal;font-size:11.28888893px;fill:#2ec4b6;fill-opacity:1;stroke-width:0.26458332px"
         id="path2976" />
    </g>
  </g>
</svg>
