<?xml version="1.0" encoding="UTF-8" standalone="no"?>
<!-- Created with Inkscape (http://www.inkscape.org/) -->

<svg
   xmlns:dc="http://purl.org/dc/elements/1.1/"
   xmlns:cc="http://creativecommons.org/ns#"
   xmlns:rdf="http://www.w3.org/1999/02/22-rdf-syntax-ns#"
   xmlns:svg="http://www.w3.org/2000/svg"
   xmlns="http://www.w3.org/2000/svg"
   xmlns:sodipodi="http://sodipodi.sourceforge.net/DTD/sodipodi-0.dtd"
   xmlns:inkscape="http://www.inkscape.org/namespaces/inkscape"
   width="362.52731mm"
   height="147.49361mm"
   viewBox="0 0 362.52731 147.49361"
   version="1.1"
   id="svg4563"
   inkscape:version="0.92.2 5c3e80d, 2017-08-06"
   sodipodi:docname="general-calico.svg">
  <defs
     id="defs4557" />
  <sodipodi:namedview
     id="base"
     pagecolor="#ffffff"
     bordercolor="#666666"
     borderopacity="1.0"
     inkscape:pageopacity="0.0"
     inkscape:pageshadow="2"
     inkscape:zoom="0.7"
     inkscape:cx="465.76353"
     inkscape:cy="216.48559"
     inkscape:document-units="mm"
     inkscape:current-layer="layer1"
     showgrid="false"
     inkscape:window-width="1920"
     inkscape:window-height="1016"
     inkscape:window-x="0"
     inkscape:window-y="27"
     inkscape:window-maximized="1"
     fit-margin-top="10"
     fit-margin-left="10"
     fit-margin-right="10"
     fit-margin-bottom="10" />
  <metadata
     id="metadata4560">
    <rdf:RDF>
      <cc:Work
         rdf:about="">
        <dc:format>image/svg+xml</dc:format>
        <dc:type
           rdf:resource="http://purl.org/dc/dcmitype/StillImage" />
        <dc:title />
      </cc:Work>
    </rdf:RDF>
  </metadata>
  <g
     inkscape:label="Layer 1"
     inkscape:groupmode="layer"
     id="layer1"
     transform="translate(32.888391,-32.524341)">
    <rect
       style="fill:#011627;fill-opacity:1;stroke:#2ec4b6;stroke-width:1.32299995;stroke-miterlimit:4;stroke-dasharray:none;stroke-opacity:1"
       id="rect5243"
       width="341.20432"
       height="126.1706"
       x="-22.226891"
       y="41.598339"
       ry="41.199409" />
    <rect
       style="fill:#011627;fill-opacity:1;stroke:#2ec4b6;stroke-width:1.32299995;stroke-miterlimit:4;stroke-dasharray:none;stroke-opacity:1"
       id="rect5178"
       width="109.12693"
       height="76.655716"
       x="10.657031"
       y="51.123337" />
    <g
       aria-label="Host 1"
       style="font-style:normal;font-weight:normal;font-size:4.23333311px;line-height:125%;font-family:sans-serif;letter-spacing:0px;word-spacing:0px;fill:#2ec4b6;fill-opacity:1;stroke:none;stroke-width:0.26458332px;stroke-linecap:butt;stroke-linejoin:miter;stroke-opacity:1"
       id="text5182">
      <path
         d="m 48.052897,102.92341 h 1.113454 v 3.37344 h 4.045921 v -3.37344 h 1.113455 v 8.22964 h -1.113455 v -3.91914 h -4.045921 v 3.91914 h -1.113454 z"
         style="font-style:normal;font-size:11.28888893px;fill:#2ec4b6;fill-opacity:1;stroke-width:0.26458332px"
         id="path6412" />
      <path
         d="m 58.889789,105.69051 q -0.815799,0 -1.289844,0.63941 -0.474045,0.6339 -0.474045,1.74184 0,1.10794 0.468533,1.74735 0.474045,0.6339 1.295356,0.6339 0.810286,0 1.284331,-0.63941 0.474046,-0.63941 0.474046,-1.74184 0,-1.09692 -0.474046,-1.73633 -0.474045,-0.64492 -1.284331,-0.64492 z m 0,-0.8599 q 1.322917,0 2.078081,0.8599 0.755165,0.8599 0.755165,2.38125 0,1.51584 -0.755165,2.38125 -0.755164,0.8599 -2.078081,0.8599 -1.328429,0 -2.083594,-0.8599 -0.749653,-0.86541 -0.749653,-2.38125 0,-1.52135 0.749653,-2.38125 0.755165,-0.8599 2.083594,-0.8599 z"
         style="font-style:normal;font-size:11.28888893px;fill:#2ec4b6;fill-opacity:1;stroke-width:0.26458332px"
         id="path6414" />
      <path
         d="m 67.334407,105.16134 v 0.95912 q -0.429948,-0.22049 -0.892969,-0.33073 -0.46302,-0.11024 -0.959114,-0.11024 -0.755165,0 -1.135504,0.23151 -0.374826,0.23151 -0.374826,0.69453 0,0.35278 0.270096,0.55672 0.270095,0.19844 1.085894,0.38034 l 0.347265,0.0772 q 1.080382,0.23151 1.532379,0.65595 0.457508,0.41892 0.457508,1.17409 0,0.85989 -0.683507,1.3615 -0.677994,0.50161 -1.868619,0.50161 -0.496094,0 -1.036285,-0.0992 -0.534679,-0.0937 -1.129991,-0.28663 v -1.04731 q 0.562239,0.29214 1.107942,0.44097 0.545703,0.14331 1.080382,0.14331 0.71658,0 1.102431,-0.24253 0.385851,-0.24805 0.385851,-0.69453 0,-0.41341 -0.28112,-0.6339 -0.275608,-0.22049 -1.218186,-0.42444 l -0.352778,-0.0827 q -0.942578,-0.19843 -1.361502,-0.60633 -0.418923,-0.41342 -0.418923,-1.13 0,-0.87092 0.617361,-1.34496 0.617361,-0.47405 1.752865,-0.47405 0.562239,0 1.058333,0.0827 0.496094,0.0827 0.915017,0.24804 z"
         style="font-style:normal;font-size:11.28888893px;fill:#2ec4b6;fill-opacity:1;stroke-width:0.26458332px"
         id="path6416" />
      <path
         d="m 70.28892,103.22658 v 1.75286 h 2.089106 v 0.78824 H 70.28892 v 3.35139 q 0,0.75516 0.20395,0.97014 0.209462,0.21497 0.843359,0.21497 h 1.041797 v 0.84887 h -1.041797 q -1.174088,0 -1.620573,-0.43546 -0.446484,-0.44097 -0.446484,-1.59852 v -3.35139 h -0.744141 v -0.78824 h 0.744141 v -1.75286 z"
         style="font-style:normal;font-size:11.28888893px;fill:#2ec4b6;fill-opacity:1;stroke-width:0.26458332px"
         id="path6418" />
      <path
         d="m 77.647645,110.21599 h 1.819011 v -6.27834 l -1.978863,0.39687 v -1.01424 l 1.967839,-0.39687 h 1.113454 v 7.29258 h 1.819011 v 0.93706 h -4.740452 z"
         style="font-style:normal;font-size:11.28888893px;fill:#2ec4b6;fill-opacity:1;stroke-width:0.26458332px"
         id="path6420" />
    </g>
    <g
       aria-label="172.19.35/24"
       style="font-style:normal;font-weight:normal;font-size:4.23333311px;line-height:125%;font-family:sans-serif;letter-spacing:0px;word-spacing:0px;fill:#ff1654;fill-opacity:1;stroke:none;stroke-width:0.26458332px;stroke-linecap:butt;stroke-linejoin:miter;stroke-opacity:1"
       id="text5186">
      <path
         d="m 37.66042,121.83012 h 1.364258 v -4.70875 l -1.484147,0.29765 v -0.76068 l 1.475879,-0.29765 h 0.835091 v 5.46943 h 1.364258 v 0.7028 H 37.66042 Z"
         style="font-style:normal;font-size:8.46666622px;fill:#ff1654;fill-opacity:1;stroke-width:0.26458332px"
         id="path6387" />
      <path
         d="m 42.695772,116.36069 h 3.96875 v 0.35553 l -2.24069,5.8167 h -0.872298 l 2.108398,-5.46943 h -2.96416 z"
         style="font-style:normal;font-size:8.46666622px;fill:#ff1654;fill-opacity:1;stroke-width:0.26458332px"
         id="path6389" />
      <path
         d="m 49.016833,121.83012 h 2.914551 v 0.7028 h -3.919141 v -0.7028 q 0.475423,-0.49196 1.293978,-1.31878 0.822689,-0.83096 1.033529,-1.07074 0.401009,-0.45062 0.558105,-0.76067 0.161231,-0.3142 0.161231,-0.61599 0,-0.49196 -0.347266,-0.80201 -0.343132,-0.31006 -0.897103,-0.31006 -0.392741,0 -0.830957,0.13642 -0.434082,0.13643 -0.930176,0.41341 v -0.84336 q 0.504362,-0.20257 0.942578,-0.30592 0.438217,-0.10335 0.802019,-0.10335 0.959114,0 1.529622,0.47955 0.570508,0.47956 0.570508,1.28158 0,0.38034 -0.144694,0.72347 -0.14056,0.339 -0.516765,0.80202 -0.103352,0.11989 -0.657324,0.69453 -0.553971,0.57051 -1.562695,1.5999 z"
         style="font-style:normal;font-size:8.46666622px;fill:#ff1654;fill-opacity:1;stroke-width:0.26458332px"
         id="path6391" />
      <path
         d="m 53.688383,121.48286 h 0.872299 v 1.05006 h -0.872299 z"
         style="font-style:normal;font-size:8.46666622px;fill:#ff1654;fill-opacity:1;stroke-width:0.26458332px"
         id="path6393" />
      <path
         d="m 56.52852,121.83012 h 1.364257 v -4.70875 l -1.484147,0.29765 v -0.76068 l 1.475879,-0.29765 H 58.7196 v 5.46943 h 1.364258 v 0.7028 H 56.52852 Z"
         style="font-style:normal;font-size:8.46666622px;fill:#ff1654;fill-opacity:1;stroke-width:0.26458332px"
         id="path6395" />
      <path
         d="m 61.799515,122.40476 v -0.76067 q 0.314192,0.14882 0.636653,0.22737 0.322461,0.0786 0.63252,0.0786 0.826823,0 1.260905,-0.55397 0.438216,-0.55811 0.500228,-1.69085 -0.239779,0.35553 -0.607715,0.5457 -0.367936,0.19017 -0.814421,0.19017 -0.926041,0 -1.46761,-0.55811 -0.537435,-0.56224 -0.537435,-1.53375 0,-0.95085 0.562239,-1.52549 0.56224,-0.57464 1.49655,-0.57464 1.070735,0 1.632975,0.82269 0.566374,0.81855 0.566374,2.38125 0,1.45934 -0.694532,2.33164 -0.690397,0.86816 -1.860351,0.86816 -0.314193,0 -0.636654,-0.062 -0.322461,-0.062 -0.669726,-0.18604 z m 1.661914,-2.61689 q 0.562239,0 0.888834,-0.38447 0.330729,-0.38448 0.330729,-1.0542 0,-0.6656 -0.330729,-1.05007 -0.326595,-0.3886 -0.888834,-0.3886 -0.56224,0 -0.892969,0.3886 -0.326595,0.38447 -0.326595,1.05007 0,0.66972 0.326595,1.0542 0.330729,0.38447 0.892969,0.38447 z"
         style="font-style:normal;font-size:8.46666622px;fill:#ff1654;fill-opacity:1;stroke-width:0.26458332px"
         id="path6397" />
      <path
         d="m 67.165596,121.48286 h 0.872298 v 1.05006 h -0.872298 z"
         style="font-style:normal;font-size:8.46666622px;fill:#ff1654;fill-opacity:1;stroke-width:0.26458332px"
         id="path6399" />
      <path
         d="m 72.391118,119.20496 q 0.599447,0.12816 0.93431,0.5333 0.338998,0.40514 0.338998,1.00046 0,0.91363 -0.628386,1.41386 -0.628385,0.50023 -1.785937,0.50023 -0.388607,0 -0.802018,-0.0786 -0.409278,-0.0744 -0.847494,-0.22737 v -0.80616 q 0.347266,0.20257 0.760677,0.30593 0.413412,0.10335 0.86403,0.10335 0.785482,0 1.194759,-0.31006 0.413412,-0.31006 0.413412,-0.90123 0,-0.54571 -0.384473,-0.85163 -0.380338,-0.31006 -1.062467,-0.31006 h -0.719336 v -0.68626 h 0.752409 q 0.615983,0 0.942578,-0.24392 0.326595,-0.24804 0.326595,-0.71106 0,-0.47543 -0.338998,-0.72761 -0.334863,-0.25631 -0.963248,-0.25631 -0.343132,0 -0.735873,0.0744 -0.392741,0.0744 -0.86403,0.23151 v -0.74414 q 0.475424,-0.13229 0.888835,-0.19844 0.417546,-0.0661 0.785482,-0.0661 0.950846,0 1.504817,0.43408 0.553972,0.42995 0.553972,1.16582 0,0.51263 -0.293522,0.86816 -0.293523,0.3514 -0.835092,0.48783 z"
         style="font-style:normal;font-size:8.46666622px;fill:#ff1654;fill-opacity:1;stroke-width:0.26458332px"
         id="path6401" />
      <path
         d="m 75.260193,116.36069 h 3.278353 v 0.7028 h -2.513542 v 1.51308 q 0.181901,-0.062 0.363802,-0.091 0.181901,-0.0331 0.363802,-0.0331 1.033529,0 1.63711,0.56637 0.60358,0.56638 0.60358,1.53376 0,0.99632 -0.620117,1.55029 -0.620117,0.54984 -1.74873,0.54984 -0.388607,0 -0.79375,-0.0662 -0.401009,-0.0661 -0.830957,-0.19843 V 121.549 q 0.37207,0.20257 0.768945,0.30179 0.396875,0.0992 0.839225,0.0992 0.715202,0 1.132748,-0.3762 0.417545,-0.37621 0.417545,-1.02113 0,-0.64492 -0.417545,-1.02113 -0.417546,-0.3762 -1.132748,-0.3762 -0.334863,0 -0.669726,0.0744 -0.330729,0.0744 -0.677995,0.23151 z"
         style="font-style:normal;font-size:8.46666622px;fill:#ff1654;fill-opacity:1;stroke-width:0.26458332px"
         id="path6403" />
      <path
         d="m 81.887178,116.36069 h 0.702799 l -2.149739,6.95771 h -0.7028 z"
         style="font-style:normal;font-size:8.46666622px;fill:#ff1654;fill-opacity:1;stroke-width:0.26458332px"
         id="path6405" />
      <path
         d="m 84.222951,121.83012 h 2.91455 v 0.7028 h -3.91914 v -0.7028 q 0.475423,-0.49196 1.293978,-1.31878 0.822688,-0.83096 1.033528,-1.07074 0.401009,-0.45062 0.558106,-0.76067 0.16123,-0.3142 0.16123,-0.61599 0,-0.49196 -0.347265,-0.80201 -0.343132,-0.31006 -0.897103,-0.31006 -0.392741,0 -0.830957,0.13642 -0.434082,0.13643 -0.930176,0.41341 v -0.84336 q 0.504362,-0.20257 0.942578,-0.30592 0.438216,-0.10335 0.802018,-0.10335 0.959115,0 1.529623,0.47955 0.570507,0.47956 0.570507,1.28158 0,0.38034 -0.144694,0.72347 -0.14056,0.339 -0.516764,0.80202 -0.103353,0.11989 -0.657324,0.69453 -0.553971,0.57051 -1.562695,1.5999 z"
         style="font-style:normal;font-size:8.46666622px;fill:#ff1654;fill-opacity:1;stroke-width:0.26458332px"
         id="path6407" />
      <path
         d="m 91.188936,117.08829 -2.108398,3.29489 h 2.108398 z m -0.219108,-0.7276 h 1.050065 v 4.02249 h 0.880567 v 0.69453 h -0.880567 v 1.45521 h -0.830957 v -1.45521 h -2.786393 v -0.80615 z"
         style="font-style:normal;font-size:8.46666622px;fill:#ff1654;fill-opacity:1;stroke-width:0.26458332px"
         id="path6409" />
    </g>
    <ellipse
       style="fill:#011627;fill-opacity:1;stroke:#2ec4b6;stroke-width:1.32300007;stroke-miterlimit:4;stroke-dasharray:none;stroke-dashoffset:0;stroke-opacity:1"
       id="path5207"
       cx="64.679222"
       cy="75.433556"
       rx="48.91032"
       ry="16.30344" />
    <g
       aria-label="Container"
       style="font-style:normal;font-weight:normal;font-size:4.23333311px;line-height:125%;font-family:sans-serif;letter-spacing:0px;word-spacing:0px;fill:#2ec4b6;fill-opacity:1;stroke:none;stroke-width:0.26458332px;stroke-linecap:butt;stroke-linejoin:miter;stroke-opacity:1"
       id="text5509">
      <path
         d="m 44.033454,65.510958 v 1.174089 q -0.56224,-0.523655 -1.20165,-0.782726 -0.633897,-0.259071 -1.350477,-0.259071 -1.411111,0 -2.160764,0.865408 -0.749653,0.859896 -0.749653,2.491493 0,1.626085 0.749653,2.491493 0.749653,0.859896 2.160764,0.859896 0.71658,0 1.350477,-0.259071 0.63941,-0.259072 1.20165,-0.782726 v 1.163064 q -0.584288,0.396875 -1.240235,0.595313 -0.650434,0.198437 -1.378038,0.198437 -1.86862,0 -2.943489,-1.141015 -1.07487,-1.146528 -1.07487,-3.125391 0,-1.984375 1.07487,-3.125391 1.074869,-1.146528 2.943489,-1.146528 0.738629,0 1.389063,0.198438 0.655946,0.192925 1.22921,0.584288 z"
         style="font-style:normal;font-size:11.28888893px;fill:#2ec4b6;fill-opacity:1;stroke-width:0.26458332px"
         id="path6451" />
      <path
         d="m 48.112447,67.644161 q -0.815799,0 -1.289844,0.63941 -0.474045,0.633898 -0.474045,1.74184 0,1.107943 0.468533,1.747353 0.474045,0.633897 1.295356,0.633897 0.810286,0 1.284331,-0.639409 0.474045,-0.63941 0.474045,-1.741841 0,-1.096918 -0.474045,-1.736328 -0.474045,-0.644922 -1.284331,-0.644922 z m 0,-0.859896 q 1.322916,0 2.078081,0.859896 0.755165,0.859896 0.755165,2.38125 0,1.515842 -0.755165,2.38125 -0.755165,0.859896 -2.078081,0.859896 -1.328429,0 -2.083594,-0.859896 -0.749653,-0.865408 -0.749653,-2.38125 0,-1.521354 0.749653,-2.38125 0.755165,-0.859896 2.083594,-0.859896 z"
         style="font-style:normal;font-size:11.28888893px;fill:#2ec4b6;fill-opacity:1;stroke-width:0.26458332px"
         id="path6453" />
      <path
         d="m 57.753202,69.380489 v 3.726216 h -1.014237 v -3.693143 q 0,-0.876432 -0.341753,-1.311892 -0.341753,-0.43546 -1.02526,-0.43546 -0.821311,0 -1.295356,0.523654 -0.474045,0.523655 -0.474045,1.427648 v 3.489193 h -1.019749 v -6.173611 h 1.019749 v 0.959114 q 0.363802,-0.556727 0.854383,-0.832335 0.496094,-0.275608 1.141016,-0.275608 1.063845,0 1.609548,0.661459 0.545704,0.655946 0.545704,1.934765 z"
         style="font-style:normal;font-size:11.28888893px;fill:#2ec4b6;fill-opacity:1;stroke-width:0.26458332px"
         id="path6455" />
      <path
         d="m 60.790398,65.180229 v 1.752865 h 2.089106 v 0.788237 h -2.089106 v 3.351389 q 0,0.755165 0.20395,0.970139 0.209462,0.214974 0.843359,0.214974 h 1.041797 v 0.848872 h -1.041797 q -1.174088,0 -1.620573,-0.43546 Q 59.77065,72.230272 59.77065,71.07272 v -3.351389 h -0.744141 v -0.788237 h 0.744141 v -1.752865 z"
         style="font-style:normal;font-size:11.28888893px;fill:#2ec4b6;fill-opacity:1;stroke-width:0.26458332px"
         id="path6457" />
      <path
         d="m 67.024643,70.003363 q -1.22921,0 -1.703256,0.281119 -0.474045,0.28112 -0.474045,0.959115 0,0.540191 0.352778,0.859896 0.35829,0.314193 0.970139,0.314193 0.843359,0 1.350477,-0.595313 0.512631,-0.600825 0.512631,-1.593012 v -0.225998 z m 2.02296,-0.418924 v 3.522266 h -1.014236 v -0.937066 q -0.347266,0.562239 -0.865408,0.832335 -0.518143,0.264583 -1.267796,0.264583 -0.94809,0 -1.510329,-0.529167 -0.556728,-0.534678 -0.556728,-1.427647 0,-1.041797 0.694531,-1.570964 0.700044,-0.529166 2.083594,-0.529166 h 1.422136 v -0.09922 q 0,-0.700043 -0.463021,-1.080382 -0.457509,-0.385851 -1.289844,-0.385851 -0.529167,0 -1.030773,0.12678 -0.501606,0.126779 -0.964626,0.380338 v -0.937066 q 0.556727,-0.214974 1.080382,-0.319704 0.523654,-0.110244 1.019748,-0.110244 1.339453,0 2.000911,0.694532 0.661459,0.694531 0.661459,2.105642 z"
         style="font-style:normal;font-size:11.28888893px;fill:#2ec4b6;fill-opacity:1;stroke-width:0.26458332px"
         id="path6459" />
      <path
         d="m 71.142222,66.933094 h 1.014236 v 6.173611 h -1.014236 z m 0,-2.403299 h 1.014236 v 1.284332 h -1.014236 z"
         style="font-style:normal;font-size:11.28888893px;fill:#2ec4b6;fill-opacity:1;stroke-width:0.26458332px"
         id="path6461" />
      <path
         d="m 79.404938,69.380489 v 3.726216 h -1.014236 v -3.693143 q 0,-0.876432 -0.341754,-1.311892 -0.341753,-0.43546 -1.02526,-0.43546 -0.821311,0 -1.295356,0.523654 -0.474045,0.523655 -0.474045,1.427648 v 3.489193 h -1.019748 v -6.173611 h 1.019748 v 0.959114 q 0.363802,-0.556727 0.854383,-0.832335 0.496094,-0.275608 1.141016,-0.275608 1.063846,0 1.609549,0.661459 0.545703,0.655946 0.545703,1.934765 z"
         style="font-style:normal;font-size:11.28888893px;fill:#2ec4b6;fill-opacity:1;stroke-width:0.26458332px"
         id="path6463" />
      <path
         d="m 86.719564,69.76634 v 0.496094 h -4.663281 q 0.06615,1.047309 0.628385,1.598524 0.567752,0.545703 1.576476,0.545703 0.584288,0 1.129991,-0.143316 0.551216,-0.143316 1.091407,-0.429948 v 0.959115 q -0.545704,0.23151 -1.118967,0.352778 -0.573264,0.121267 -1.163065,0.121267 -1.477257,0 -2.342665,-0.859896 -0.859895,-0.859896 -0.859895,-2.326128 0,-1.515842 0.815798,-2.403299 0.821311,-0.892969 2.210373,-0.892969 1.245747,0 1.967839,0.804775 0.727604,0.799262 0.727604,2.1773 z m -1.014236,-0.297656 q -0.01102,-0.832335 -0.468533,-1.328429 -0.451996,-0.496094 -1.201649,-0.496094 -0.848872,0 -1.361502,0.479558 -0.507118,0.479557 -0.584288,1.350477 z"
         style="font-style:normal;font-size:11.28888893px;fill:#2ec4b6;fill-opacity:1;stroke-width:0.26458332px"
         id="path6465" />
      <path
         d="m 91.961621,67.881184 q -0.170876,-0.09922 -0.374826,-0.143316 -0.198437,-0.04961 -0.440972,-0.04961 -0.859896,0 -1.322917,0.562239 -0.457509,0.556728 -0.457509,1.604037 v 3.25217 h -1.019748 v -6.173611 h 1.019748 v 0.959114 q 0.319705,-0.562239 0.832336,-0.832335 0.51263,-0.275608 1.245746,-0.275608 0.104731,0 0.231511,0.01654 0.126779,0.01102 0.281119,0.03858 z"
         style="font-style:normal;font-size:11.28888893px;fill:#2ec4b6;fill-opacity:1;stroke-width:0.26458332px"
         id="path6467" />
    </g>
    <g
       aria-label="172.19.35.2"
       style="font-style:normal;font-weight:normal;font-size:4.23333311px;line-height:125%;font-family:sans-serif;letter-spacing:0px;word-spacing:0px;fill:#ff1654;fill-opacity:1;stroke:none;stroke-width:0.26458332px;stroke-linecap:butt;stroke-linejoin:miter;stroke-opacity:1"
       id="text5176">
      <path
         d="m 40.083306,83.187353 h 1.364258 v -4.708757 l -1.484147,0.297657 v -0.760678 l 1.475879,-0.297656 h 0.835091 v 5.469434 h 1.364258 v 0.702799 h -3.555339 z"
         style="font-style:normal;font-size:8.46666622px;fill:#ff1654;fill-opacity:1;stroke-width:0.26458332px"
         id="path6428" />
      <path
         d="m 45.118658,77.717919 h 3.96875 v 0.355534 l -2.24069,5.816699 H 45.97442 l 2.108398,-5.469433 h -2.96416 z"
         style="font-style:normal;font-size:8.46666622px;fill:#ff1654;fill-opacity:1;stroke-width:0.26458332px"
         id="path6430" />
      <path
         d="m 51.439719,83.187353 h 2.914551 v 0.702799 h -3.919141 v -0.702799 q 0.475423,-0.49196 1.293978,-1.318783 0.822689,-0.830957 1.033529,-1.070736 0.401009,-0.450618 0.558105,-0.760677 0.16123,-0.314192 0.16123,-0.615983 0,-0.491959 -0.347265,-0.802018 -0.343132,-0.310058 -0.897103,-0.310058 -0.392741,0 -0.830957,0.136425 -0.434082,0.136426 -0.930176,0.413412 v -0.84336 q 0.504362,-0.202571 0.942578,-0.305924 0.438216,-0.103353 0.802019,-0.103353 0.959114,0 1.529622,0.479557 0.570508,0.479558 0.570508,1.281576 0,0.380338 -0.144694,0.72347 -0.14056,0.338997 -0.516765,0.802018 -0.103353,0.119889 -0.657324,0.694531 -0.553971,0.570508 -1.562695,1.599903 z"
         style="font-style:normal;font-size:8.46666622px;fill:#ff1654;fill-opacity:1;stroke-width:0.26458332px"
         id="path6432" />
      <path
         d="m 56.111269,82.840087 h 0.872298 v 1.050065 h -0.872298 z"
         style="font-style:normal;font-size:8.46666622px;fill:#ff1654;fill-opacity:1;stroke-width:0.26458332px"
         id="path6434" />
      <path
         d="m 58.951406,83.187353 h 1.364257 v -4.708757 l -1.484147,0.297657 v -0.760678 l 1.475879,-0.297656 h 0.835091 v 5.469434 h 1.364258 v 0.702799 h -3.555338 z"
         style="font-style:normal;font-size:8.46666622px;fill:#ff1654;fill-opacity:1;stroke-width:0.26458332px"
         id="path6436" />
      <path
         d="m 64.222401,83.761994 v -0.760677 q 0.314192,0.148829 0.636653,0.227377 0.322461,0.07855 0.63252,0.07855 0.826823,0 1.260905,-0.553971 0.438216,-0.558106 0.500227,-1.690853 -0.239778,0.355534 -0.607714,0.545703 -0.367937,0.190169 -0.814421,0.190169 -0.926042,0 -1.46761,-0.558105 -0.537435,-0.56224 -0.537435,-1.533757 0,-0.950846 0.562239,-1.525488 0.56224,-0.574642 1.49655,-0.574642 1.070735,0 1.632975,0.822689 0.566373,0.818555 0.566373,2.38125 0,1.459342 -0.694531,2.33164 -0.690397,0.868164 -1.860351,0.868164 -0.314193,0 -0.636654,-0.06201 -0.322461,-0.06201 -0.669726,-0.186036 z M 65.884315,81.1451 q 0.562239,0 0.888834,-0.384473 0.330729,-0.384472 0.330729,-1.054199 0,-0.665592 -0.330729,-1.050065 -0.326595,-0.388607 -0.888834,-0.388607 -0.56224,0 -0.892969,0.388607 -0.326595,0.384473 -0.326595,1.050065 0,0.669727 0.326595,1.054199 0.330729,0.384473 0.892969,0.384473 z"
         style="font-style:normal;font-size:8.46666622px;fill:#ff1654;fill-opacity:1;stroke-width:0.26458332px"
         id="path6438" />
      <path
         d="m 69.588482,82.840087 h 0.872298 v 1.050065 h -0.872298 z"
         style="font-style:normal;font-size:8.46666622px;fill:#ff1654;fill-opacity:1;stroke-width:0.26458332px"
         id="path6440" />
      <path
         d="m 74.814004,80.56219 q 0.599447,0.128157 0.93431,0.533301 0.338998,0.405143 0.338998,1.000455 0,0.91364 -0.628386,1.413867 -0.628385,0.500228 -1.785937,0.500228 -0.388607,0 -0.802018,-0.07855 -0.409278,-0.07441 -0.847494,-0.227376 v -0.806152 q 0.347266,0.202571 0.760677,0.305924 0.413412,0.103353 0.86403,0.103353 0.785482,0 1.194759,-0.310059 0.413412,-0.310058 0.413412,-0.901237 0,-0.545703 -0.384473,-0.851627 -0.380339,-0.310059 -1.062467,-0.310059 h -0.719336 v -0.686263 h 0.752408 q 0.615984,0 0.942579,-0.243913 0.326595,-0.248046 0.326595,-0.711067 0,-0.475423 -0.338998,-0.727604 -0.334863,-0.256315 -0.963248,-0.256315 -0.343132,0 -0.735873,0.07441 -0.392741,0.07441 -0.86403,0.23151 v -0.744141 q 0.475423,-0.132291 0.888835,-0.198437 0.417545,-0.06615 0.785482,-0.06615 0.950846,0 1.504817,0.434082 0.553972,0.429948 0.553972,1.16582 0,0.512631 -0.293523,0.868164 -0.293522,0.3514 -0.835091,0.487826 z"
         style="font-style:normal;font-size:8.46666622px;fill:#ff1654;fill-opacity:1;stroke-width:0.26458332px"
         id="path6442" />
      <path
         d="m 77.683079,77.717919 h 3.278353 v 0.7028 H 78.44789 v 1.513086 q 0.181901,-0.06201 0.363802,-0.09095 0.181901,-0.03307 0.363802,-0.03307 1.033529,0 1.63711,0.566374 0.60358,0.566373 0.60358,1.533756 0,0.996322 -0.620117,1.550293 -0.620117,0.549837 -1.74873,0.549837 -0.388607,0 -0.79375,-0.06615 -0.401009,-0.06614 -0.830957,-0.198437 v -0.839225 q 0.37207,0.202571 0.768945,0.30179 0.396875,0.09922 0.839225,0.09922 0.715202,0 1.132748,-0.376205 0.417545,-0.376204 0.417545,-1.021126 0,-0.644922 -0.417545,-1.021126 -0.417546,-0.376204 -1.132748,-0.376204 -0.334863,0 -0.669726,0.07441 -0.330729,0.07441 -0.677995,0.23151 z"
         style="font-style:normal;font-size:8.46666622px;fill:#ff1654;fill-opacity:1;stroke-width:0.26458332px"
         id="path6444" />
      <path
         d="m 83.065695,82.840087 h 0.872298 v 1.050065 h -0.872298 z"
         style="font-style:normal;font-size:8.46666622px;fill:#ff1654;fill-opacity:1;stroke-width:0.26458332px"
         id="path6446" />
      <path
         d="m 86.480473,83.187353 h 2.914551 v 0.702799 h -3.919141 v -0.702799 q 0.475424,-0.49196 1.293978,-1.318783 0.822689,-0.830957 1.033529,-1.070736 0.401009,-0.450618 0.558105,-0.760677 0.161231,-0.314192 0.161231,-0.615983 0,-0.491959 -0.347266,-0.802018 -0.343131,-0.310058 -0.897103,-0.310058 -0.392741,0 -0.830957,0.136425 -0.434082,0.136426 -0.930175,0.413412 v -0.84336 q 0.504362,-0.202571 0.942578,-0.305924 0.438216,-0.103353 0.802018,-0.103353 0.959114,0 1.529622,0.479557 0.570508,0.479558 0.570508,1.281576 0,0.380338 -0.144694,0.72347 -0.14056,0.338997 -0.516764,0.802018 -0.103353,0.119889 -0.657325,0.694531 -0.553971,0.570508 -1.562695,1.599903 z"
         style="font-style:normal;font-size:8.46666622px;fill:#ff1654;fill-opacity:1;stroke-width:0.26458332px"
         id="path6448" />
    </g>
    <rect
       y="51.123337"
       x="175.30344"
       height="76.655716"
       width="109.12693"
       id="rect5221"
       style="fill:#011627;fill-opacity:1;stroke:#2ec4b6;stroke-width:1.32299995;stroke-miterlimit:4;stroke-dasharray:none;stroke-opacity:1" />
    <g
       aria-label="Host 2"
       style="font-style:normal;font-weight:normal;font-size:4.23333311px;line-height:125%;font-family:sans-serif;letter-spacing:0px;word-spacing:0px;fill:#2ec4b6;fill-opacity:1;stroke:none;stroke-width:0.26458332px;stroke-linecap:butt;stroke-linejoin:miter;stroke-opacity:1"
       id="text5225">
      <path
         d="m 212.6993,102.92341 h 1.11345 v 3.37344 h 4.04592 v -3.37344 h 1.11346 v 8.22964 h -1.11346 v -3.91914 h -4.04592 v 3.91914 h -1.11345 z"
         style="font-style:normal;font-size:11.28888893px;fill:#2ec4b6;fill-opacity:1;stroke-width:0.26458332px"
         id="path6609" />
      <path
         d="m 223.53619,105.69051 q -0.8158,0 -1.28984,0.63941 -0.47405,0.6339 -0.47405,1.74184 0,1.10794 0.46853,1.74735 0.47405,0.6339 1.29536,0.6339 0.81029,0 1.28433,-0.63941 0.47405,-0.63941 0.47405,-1.74184 0,-1.09692 -0.47405,-1.73633 -0.47404,-0.64492 -1.28433,-0.64492 z m 0,-0.8599 q 1.32292,0 2.07808,0.8599 0.75517,0.8599 0.75517,2.38125 0,1.51584 -0.75517,2.38125 -0.75516,0.8599 -2.07808,0.8599 -1.32843,0 -2.08359,-0.8599 -0.74966,-0.86541 -0.74966,-2.38125 0,-1.52135 0.74966,-2.38125 0.75516,-0.8599 2.08359,-0.8599 z"
         style="font-style:normal;font-size:11.28888893px;fill:#2ec4b6;fill-opacity:1;stroke-width:0.26458332px"
         id="path6611" />
      <path
         d="m 231.98081,105.16134 v 0.95912 q -0.42995,-0.22049 -0.89297,-0.33073 -0.46302,-0.11024 -0.95912,-0.11024 -0.75516,0 -1.1355,0.23151 -0.37483,0.23151 -0.37483,0.69453 0,0.35278 0.2701,0.55672 0.2701,0.19844 1.08589,0.38034 l 0.34727,0.0772 q 1.08038,0.23151 1.53238,0.65595 0.45751,0.41892 0.45751,1.17409 0,0.85989 -0.68351,1.3615 -0.67799,0.50161 -1.86862,0.50161 -0.49609,0 -1.03628,-0.0992 -0.53468,-0.0937 -1.13,-0.28663 v -1.04731 q 0.56224,0.29214 1.10795,0.44097 0.5457,0.14331 1.08038,0.14331 0.71658,0 1.10243,-0.24253 0.38585,-0.24805 0.38585,-0.69453 0,-0.41341 -0.28112,-0.6339 -0.27561,-0.22049 -1.21819,-0.42444 l -0.35277,-0.0827 q -0.94258,-0.19843 -1.36151,-0.60633 -0.41892,-0.41342 -0.41892,-1.13 0,-0.87092 0.61736,-1.34496 0.61736,-0.47405 1.75287,-0.47405 0.56224,0 1.05833,0.0827 0.49609,0.0827 0.91502,0.24804 z"
         style="font-style:normal;font-size:11.28888893px;fill:#2ec4b6;fill-opacity:1;stroke-width:0.26458332px"
         id="path6613" />
      <path
         d="m 234.93532,103.22658 v 1.75286 h 2.08911 v 0.78824 h -2.08911 v 3.35139 q 0,0.75516 0.20395,0.97014 0.20946,0.21497 0.84336,0.21497 h 1.0418 v 0.84887 h -1.0418 q -1.17409,0 -1.62057,-0.43546 -0.44649,-0.44097 -0.44649,-1.59852 v -3.35139 h -0.74414 v -0.78824 h 0.74414 v -1.75286 z"
         style="font-style:normal;font-size:11.28888893px;fill:#2ec4b6;fill-opacity:1;stroke-width:0.26458332px"
         id="path6615" />
      <path
         d="m 243.06024,110.21599 h 3.88606 v 0.93706 h -5.22552 v -0.93706 q 0.6339,-0.65595 1.72531,-1.75838 1.09691,-1.10794 1.37803,-1.42765 0.53468,-0.60082 0.74414,-1.01423 0.21498,-0.41893 0.21498,-0.82131 0,-0.65595 -0.46302,-1.06936 -0.45751,-0.41341 -1.19614,-0.41341 -0.52365,0 -1.10794,0.1819 -0.57878,0.1819 -1.24024,0.55121 v -1.12448 q 0.67249,-0.27009 1.25677,-0.4079 0.58429,-0.1378 1.06936,-0.1378 1.27882,0 2.0395,0.63941 0.76068,0.63941 0.76068,1.70877 0,0.50712 -0.19293,0.96462 -0.18741,0.452 -0.68902,1.06936 -0.1378,0.15985 -0.87643,0.92604 -0.73863,0.76068 -2.08359,2.13321 z"
         style="font-style:normal;font-size:11.28888893px;fill:#2ec4b6;fill-opacity:1;stroke-width:0.26458332px"
         id="path6617" />
    </g>
    <g
       aria-label="172.19.36/24"
       style="font-style:normal;font-weight:normal;font-size:4.23333311px;line-height:125%;font-family:sans-serif;letter-spacing:0px;word-spacing:0px;fill:#ff1654;fill-opacity:1;stroke:none;stroke-width:0.26458332px;stroke-linecap:butt;stroke-linejoin:miter;stroke-opacity:1"
       id="text5229">
      <path
         d="m 202.30682,121.83012 h 1.36426 v -4.70875 l -1.48414,0.29765 v -0.76068 l 1.47587,-0.29765 h 0.8351 v 5.46943 h 1.36425 v 0.7028 h -3.55534 z"
         style="font-style:normal;font-size:8.46666622px;fill:#ff1654;fill-opacity:1;stroke-width:0.26458332px"
         id="path6620" />
      <path
         d="m 207.34218,116.36069 h 3.96875 v 0.35553 l -2.24069,5.8167 h -0.8723 l 2.1084,-5.46943 h -2.96416 z"
         style="font-style:normal;font-size:8.46666622px;fill:#ff1654;fill-opacity:1;stroke-width:0.26458332px"
         id="path6622" />
      <path
         d="m 213.66324,121.83012 h 2.91455 v 0.7028 h -3.91914 v -0.7028 q 0.47542,-0.49196 1.29398,-1.31878 0.82268,-0.83096 1.03352,-1.07074 0.40101,-0.45062 0.55811,-0.76067 0.16123,-0.3142 0.16123,-0.61599 0,-0.49196 -0.34727,-0.80201 -0.34313,-0.31006 -0.8971,-0.31006 -0.39274,0 -0.83096,0.13642 -0.43408,0.13643 -0.93017,0.41341 v -0.84336 q 0.50436,-0.20257 0.94258,-0.30592 0.43821,-0.10335 0.80201,-0.10335 0.95912,0 1.52963,0.47955 0.57051,0.47956 0.57051,1.28158 0,0.38034 -0.1447,0.72347 -0.14056,0.339 -0.51676,0.80202 -0.10336,0.11989 -0.65733,0.69453 -0.55397,0.57051 -1.56269,1.5999 z"
         style="font-style:normal;font-size:8.46666622px;fill:#ff1654;fill-opacity:1;stroke-width:0.26458332px"
         id="path6624" />
      <path
         d="m 218.33479,121.48286 h 0.8723 v 1.05006 h -0.8723 z"
         style="font-style:normal;font-size:8.46666622px;fill:#ff1654;fill-opacity:1;stroke-width:0.26458332px"
         id="path6626" />
      <path
         d="m 221.17492,121.83012 h 1.36426 v -4.70875 l -1.48415,0.29765 v -0.76068 l 1.47588,-0.29765 h 0.83509 v 5.46943 h 1.36426 v 0.7028 h -3.55534 z"
         style="font-style:normal;font-size:8.46666622px;fill:#ff1654;fill-opacity:1;stroke-width:0.26458332px"
         id="path6628" />
      <path
         d="m 226.44592,122.40476 v -0.76067 q 0.31419,0.14882 0.63665,0.22737 0.32246,0.0786 0.63252,0.0786 0.82682,0 1.26091,-0.55397 0.43821,-0.55811 0.50022,-1.69085 -0.23977,0.35553 -0.60771,0.5457 -0.36794,0.19017 -0.81442,0.19017 -0.92604,0 -1.46761,-0.55811 -0.53744,-0.56224 -0.53744,-1.53375 0,-0.95085 0.56224,-1.52549 0.56224,-0.57464 1.49655,-0.57464 1.07074,0 1.63298,0.82269 0.56637,0.81855 0.56637,2.38125 0,1.45934 -0.69453,2.33164 -0.6904,0.86816 -1.86035,0.86816 -0.31419,0 -0.63665,-0.062 -0.32247,-0.062 -0.66973,-0.18604 z m 1.66191,-2.61689 q 0.56224,0 0.88884,-0.38447 0.33073,-0.38448 0.33073,-1.0542 0,-0.6656 -0.33073,-1.05007 -0.3266,-0.3886 -0.88884,-0.3886 -0.56224,0 -0.89297,0.3886 -0.32659,0.38447 -0.32659,1.05007 0,0.66972 0.32659,1.0542 0.33073,0.38447 0.89297,0.38447 z"
         style="font-style:normal;font-size:8.46666622px;fill:#ff1654;fill-opacity:1;stroke-width:0.26458332px"
         id="path6630" />
      <path
         d="m 231.812,121.48286 h 0.8723 v 1.05006 h -0.8723 z"
         style="font-style:normal;font-size:8.46666622px;fill:#ff1654;fill-opacity:1;stroke-width:0.26458332px"
         id="path6632" />
      <path
         d="m 237.03752,119.20496 q 0.59945,0.12816 0.93431,0.5333 0.339,0.40514 0.339,1.00046 0,0.91363 -0.62839,1.41386 -0.62838,0.50023 -1.78593,0.50023 -0.38861,0 -0.80202,-0.0786 -0.40928,-0.0744 -0.84749,-0.22737 v -0.80616 q 0.34726,0.20257 0.76067,0.30593 0.41341,0.10335 0.86403,0.10335 0.78548,0 1.19476,-0.31006 0.41341,-0.31006 0.41341,-0.90123 0,-0.54571 -0.38447,-0.85163 -0.38034,-0.31006 -1.06247,-0.31006 h -0.71933 v -0.68626 h 0.75241 q 0.61598,0 0.94257,-0.24392 0.3266,-0.24804 0.3266,-0.71106 0,-0.47543 -0.339,-0.72761 -0.33486,-0.25631 -0.96325,-0.25631 -0.34313,0 -0.73587,0.0744 -0.39274,0.0744 -0.86403,0.23151 v -0.74414 q 0.47542,-0.13229 0.88884,-0.19844 0.41754,-0.0661 0.78548,-0.0661 0.95084,0 1.50481,0.43408 0.55398,0.42995 0.55398,1.16582 0,0.51263 -0.29353,0.86816 -0.29352,0.3514 -0.83509,0.48783 z"
         style="font-style:normal;font-size:8.46666622px;fill:#ff1654;fill-opacity:1;stroke-width:0.26458332px"
         id="path6634" />
      <path
         d="m 241.78762,119.11401 q -0.56224,0 -0.89297,0.38447 -0.32659,0.38447 -0.32659,1.0542 0,0.66559 0.32659,1.0542 0.33073,0.38447 0.89297,0.38447 0.56224,0 0.88883,-0.38447 0.33073,-0.38861 0.33073,-1.0542 0,-0.66973 -0.33073,-1.0542 -0.32659,-0.38447 -0.88883,-0.38447 z m 1.65778,-2.6169 v 0.76068 q -0.31419,-0.14883 -0.63665,-0.22738 -0.31833,-0.0785 -0.63252,-0.0785 -0.82683,0 -1.26504,0.5581 -0.43408,0.55811 -0.4961,1.68672 0.24392,-0.35967 0.61185,-0.54984 0.36794,-0.1943 0.81029,-0.1943 0.93017,0 1.46761,0.56637 0.54157,0.56224 0.54157,1.53376 0,0.95085 -0.56224,1.52549 -0.56224,0.57464 -1.49655,0.57464 -1.07074,0 -1.63711,-0.81855 -0.56637,-0.82269 -0.56637,-2.38125 0,-1.46348 0.69453,-2.33164 0.69453,-0.8723 1.86448,-0.8723 0.3142,0 0.63252,0.062 0.32246,0.062 0.66973,0.18603 z"
         style="font-style:normal;font-size:8.46666622px;fill:#ff1654;fill-opacity:1;stroke-width:0.26458332px"
         id="path6636" />
      <path
         d="m 246.53358,116.36069 h 0.7028 l -2.14974,6.95771 h -0.7028 z"
         style="font-style:normal;font-size:8.46666622px;fill:#ff1654;fill-opacity:1;stroke-width:0.26458332px"
         id="path6638" />
      <path
         d="m 248.86935,121.83012 h 2.91456 v 0.7028 h -3.91914 v -0.7028 q 0.47542,-0.49196 1.29397,-1.31878 0.82269,-0.83096 1.03353,-1.07074 0.40101,-0.45062 0.55811,-0.76067 0.16123,-0.3142 0.16123,-0.61599 0,-0.49196 -0.34727,-0.80201 -0.34313,-0.31006 -0.8971,-0.31006 -0.39274,0 -0.83096,0.13642 -0.43408,0.13643 -0.93017,0.41341 v -0.84336 q 0.50436,-0.20257 0.94257,-0.30592 0.43822,-0.10335 0.80202,-0.10335 0.95912,0 1.52962,0.47955 0.57051,0.47956 0.57051,1.28158 0,0.38034 -0.14469,0.72347 -0.14056,0.339 -0.51677,0.80202 -0.10335,0.11989 -0.65732,0.69453 -0.55397,0.57051 -1.5627,1.5999 z"
         style="font-style:normal;font-size:8.46666622px;fill:#ff1654;fill-opacity:1;stroke-width:0.26458332px"
         id="path6640" />
      <path
         d="m 255.83534,117.08829 -2.1084,3.29489 h 2.1084 z m -0.21911,-0.7276 h 1.05007 v 4.02249 h 0.88056 v 0.69453 h -0.88056 v 1.45521 h -0.83096 v -1.45521 h -2.78639 v -0.80615 z"
         style="font-style:normal;font-size:8.46666622px;fill:#ff1654;fill-opacity:1;stroke-width:0.26458332px"
         id="path6642" />
    </g>
    <ellipse
       ry="16.30344"
       rx="48.91032"
       cy="75.433556"
       cx="229.32562"
       id="ellipse5231"
       style="fill:#011627;fill-opacity:1;stroke:#2ec4b6;stroke-width:1.32300007;stroke-miterlimit:4;stroke-dasharray:none;stroke-dashoffset:0;stroke-opacity:1" />
    <g
       aria-label="Container"
       style="font-style:normal;font-weight:normal;font-size:4.23333311px;line-height:125%;font-family:sans-serif;letter-spacing:0px;word-spacing:0px;fill:#2ec4b6;fill-opacity:1;stroke:none;stroke-width:0.26458332px;stroke-linecap:butt;stroke-linejoin:miter;stroke-opacity:1"
       id="text5235">
      <path
         d="m 208.67986,65.510958 v 1.174089 q -0.56224,-0.523655 -1.20165,-0.782726 -0.6339,-0.259071 -1.35047,-0.259071 -1.41112,0 -2.16077,0.865408 -0.74965,0.859896 -0.74965,2.491493 0,1.626085 0.74965,2.491493 0.74965,0.859896 2.16077,0.859896 0.71657,0 1.35047,-0.259071 0.63941,-0.259072 1.20165,-0.782726 v 1.163064 q -0.58429,0.396875 -1.24023,0.595313 -0.65044,0.198437 -1.37804,0.198437 -1.86862,0 -2.94349,-1.141015 -1.07487,-1.146528 -1.07487,-3.125391 0,-1.984375 1.07487,-3.125391 1.07487,-1.146528 2.94349,-1.146528 0.73863,0 1.38906,0.198438 0.65595,0.192925 1.22921,0.584288 z"
         style="font-style:normal;font-size:11.28888893px;fill:#2ec4b6;fill-opacity:1;stroke-width:0.26458332px"
         id="path6562" />
      <path
         d="m 212.75885,67.644161 q -0.81579,0 -1.28984,0.63941 -0.47404,0.633898 -0.47404,1.74184 0,1.107943 0.46853,1.747353 0.47404,0.633897 1.29535,0.633897 0.81029,0 1.28434,-0.639409 0.47404,-0.63941 0.47404,-1.741841 0,-1.096918 -0.47404,-1.736328 -0.47405,-0.644922 -1.28434,-0.644922 z m 0,-0.859896 q 1.32292,0 2.07809,0.859896 0.75516,0.859896 0.75516,2.38125 0,1.515842 -0.75516,2.38125 -0.75517,0.859896 -2.07809,0.859896 -1.32842,0 -2.08359,-0.859896 -0.74965,-0.865408 -0.74965,-2.38125 0,-1.521354 0.74965,-2.38125 0.75517,-0.859896 2.08359,-0.859896 z"
         style="font-style:normal;font-size:11.28888893px;fill:#2ec4b6;fill-opacity:1;stroke-width:0.26458332px"
         id="path6564" />
      <path
         d="m 222.39961,69.380489 v 3.726216 h -1.01424 v -3.693143 q 0,-0.876432 -0.34175,-1.311892 -0.34175,-0.43546 -1.02526,-0.43546 -0.82131,0 -1.29536,0.523654 -0.47404,0.523655 -0.47404,1.427648 v 3.489193 h -1.01975 v -6.173611 h 1.01975 v 0.959114 q 0.3638,-0.556727 0.85438,-0.832335 0.4961,-0.275608 1.14102,-0.275608 1.06384,0 1.60955,0.661459 0.5457,0.655946 0.5457,1.934765 z"
         style="font-style:normal;font-size:11.28888893px;fill:#2ec4b6;fill-opacity:1;stroke-width:0.26458332px"
         id="path6566" />
      <path
         d="m 225.43681,65.180229 v 1.752865 h 2.0891 v 0.788237 h -2.0891 v 3.351389 q 0,0.755165 0.20395,0.970139 0.20946,0.214974 0.84336,0.214974 h 1.04179 v 0.848872 h -1.04179 q -1.17409,0 -1.62058,-0.43546 -0.44648,-0.440973 -0.44648,-1.598525 v -3.351389 h -0.74414 v -0.788237 h 0.74414 v -1.752865 z"
         style="font-style:normal;font-size:11.28888893px;fill:#2ec4b6;fill-opacity:1;stroke-width:0.26458332px"
         id="path6568" />
      <path
         d="m 231.67105,70.003363 q -1.22921,0 -1.70325,0.281119 -0.47405,0.28112 -0.47405,0.959115 0,0.540191 0.35278,0.859896 0.35829,0.314193 0.97014,0.314193 0.84336,0 1.35047,-0.595313 0.51263,-0.600825 0.51263,-1.593012 v -0.225998 z m 2.02296,-0.418924 v 3.522266 h -1.01424 v -0.937066 q -0.34726,0.562239 -0.8654,0.832335 -0.51815,0.264583 -1.2678,0.264583 -0.94809,0 -1.51033,-0.529167 -0.55673,-0.534678 -0.55673,-1.427647 0,-1.041797 0.69454,-1.570964 0.70004,-0.529166 2.08359,-0.529166 h 1.42213 v -0.09922 q 0,-0.700043 -0.46302,-1.080382 -0.4575,-0.385851 -1.28984,-0.385851 -0.52917,0 -1.03077,0.12678 -0.50161,0.126779 -0.96463,0.380338 v -0.937066 q 0.55673,-0.214974 1.08038,-0.319704 0.52366,-0.110244 1.01975,-0.110244 1.33945,0 2.00091,0.694532 0.66146,0.694531 0.66146,2.105642 z"
         style="font-style:normal;font-size:11.28888893px;fill:#2ec4b6;fill-opacity:1;stroke-width:0.26458332px"
         id="path6570" />
      <path
         d="m 235.78863,66.933094 h 1.01424 v 6.173611 h -1.01424 z m 0,-2.403299 h 1.01424 v 1.284332 h -1.01424 z"
         style="font-style:normal;font-size:11.28888893px;fill:#2ec4b6;fill-opacity:1;stroke-width:0.26458332px"
         id="path6572" />
      <path
         d="m 244.05135,69.380489 v 3.726216 h -1.01424 v -3.693143 q 0,-0.876432 -0.34175,-1.311892 -0.34176,-0.43546 -1.02526,-0.43546 -0.82131,0 -1.29536,0.523654 -0.47405,0.523655 -0.47405,1.427648 v 3.489193 h -1.01974 v -6.173611 h 1.01974 v 0.959114 q 0.36381,-0.556727 0.85439,-0.832335 0.49609,-0.275608 1.14101,-0.275608 1.06385,0 1.60955,0.661459 0.54571,0.655946 0.54571,1.934765 z"
         style="font-style:normal;font-size:11.28888893px;fill:#2ec4b6;fill-opacity:1;stroke-width:0.26458332px"
         id="path6574" />
      <path
         d="m 251.36597,69.76634 v 0.496094 h -4.66328 q 0.0662,1.047309 0.62839,1.598524 0.56775,0.545703 1.57647,0.545703 0.58429,0 1.12999,-0.143316 0.55122,-0.143316 1.09141,-0.429948 v 0.959115 q -0.5457,0.23151 -1.11897,0.352778 -0.57326,0.121267 -1.16306,0.121267 -1.47726,0 -2.34267,-0.859896 -0.85989,-0.859896 -0.85989,-2.326128 0,-1.515842 0.8158,-2.403299 0.82131,-0.892969 2.21037,-0.892969 1.24575,0 1.96784,0.804775 0.7276,0.799262 0.7276,2.1773 z m -1.01423,-0.297656 q -0.011,-0.832335 -0.46854,-1.328429 -0.45199,-0.496094 -1.20165,-0.496094 -0.84887,0 -1.3615,0.479558 -0.50712,0.479557 -0.58429,1.350477 z"
         style="font-style:normal;font-size:11.28888893px;fill:#2ec4b6;fill-opacity:1;stroke-width:0.26458332px"
         id="path6576" />
      <path
         d="m 256.60803,67.881184 q -0.17088,-0.09922 -0.37483,-0.143316 -0.19843,-0.04961 -0.44097,-0.04961 -0.85989,0 -1.32292,0.562239 -0.4575,0.556728 -0.4575,1.604037 v 3.25217 h -1.01975 v -6.173611 h 1.01975 v 0.959114 q 0.3197,-0.562239 0.83233,-0.832335 0.51263,-0.275608 1.24575,-0.275608 0.10473,0 0.23151,0.01654 0.12678,0.01102 0.28112,0.03858 z"
         style="font-style:normal;font-size:11.28888893px;fill:#2ec4b6;fill-opacity:1;stroke-width:0.26458332px"
         id="path6578" />
    </g>
    <g
       aria-label="172.19.36.2"
       style="font-style:normal;font-weight:normal;font-size:4.23333311px;line-height:125%;font-family:sans-serif;letter-spacing:0px;word-spacing:0px;fill:#ff1654;fill-opacity:1;stroke:none;stroke-width:0.26458332px;stroke-linecap:butt;stroke-linejoin:miter;stroke-opacity:1"
       id="text5239">
      <path
         d="m 204.72971,83.187353 h 1.36425 v -4.708757 l -1.48414,0.297657 v -0.760678 l 1.47588,-0.297656 h 0.83509 v 5.469434 h 1.36426 v 0.702799 h -3.55534 z"
         style="font-style:normal;font-size:8.46666622px;fill:#ff1654;fill-opacity:1;stroke-width:0.26458332px"
         id="path6586" />
      <path
         d="m 209.76506,77.717919 h 3.96875 v 0.355534 l -2.24069,5.816699 h -0.8723 l 2.1084,-5.469433 h -2.96416 z"
         style="font-style:normal;font-size:8.46666622px;fill:#ff1654;fill-opacity:1;stroke-width:0.26458332px"
         id="path6588" />
      <path
         d="m 216.08612,83.187353 h 2.91455 v 0.702799 h -3.91914 v -0.702799 q 0.47542,-0.49196 1.29398,-1.318783 0.82269,-0.830957 1.03353,-1.070736 0.40101,-0.450618 0.5581,-0.760677 0.16123,-0.314192 0.16123,-0.615983 0,-0.491959 -0.34726,-0.802018 -0.34314,-0.310058 -0.89711,-0.310058 -0.39274,0 -0.83095,0.136425 -0.43409,0.136426 -0.93018,0.413412 v -0.84336 q 0.50436,-0.202571 0.94258,-0.305924 0.43821,-0.103353 0.80202,-0.103353 0.95911,0 1.52962,0.479557 0.57051,0.479558 0.57051,1.281576 0,0.380338 -0.1447,0.72347 -0.14056,0.338997 -0.51676,0.802018 -0.10335,0.119889 -0.65733,0.694531 -0.55397,0.570508 -1.56269,1.599903 z"
         style="font-style:normal;font-size:8.46666622px;fill:#ff1654;fill-opacity:1;stroke-width:0.26458332px"
         id="path6590" />
      <path
         d="m 220.75767,82.840087 h 0.8723 v 1.050065 h -0.8723 z"
         style="font-style:normal;font-size:8.46666622px;fill:#ff1654;fill-opacity:1;stroke-width:0.26458332px"
         id="path6592" />
      <path
         d="m 223.59781,83.187353 h 1.36425 v -4.708757 l -1.48414,0.297657 v -0.760678 l 1.47588,-0.297656 h 0.83509 v 5.469434 h 1.36425 v 0.702799 h -3.55533 z"
         style="font-style:normal;font-size:8.46666622px;fill:#ff1654;fill-opacity:1;stroke-width:0.26458332px"
         id="path6594" />
      <path
         d="m 228.8688,83.761994 v -0.760677 q 0.31419,0.148829 0.63665,0.227377 0.32247,0.07855 0.63252,0.07855 0.82683,0 1.26091,-0.553971 0.43822,-0.558106 0.50023,-1.690853 -0.23978,0.355534 -0.60772,0.545703 -0.36793,0.190169 -0.81442,0.190169 -0.92604,0 -1.46761,-0.558105 -0.53743,-0.56224 -0.53743,-1.533757 0,-0.950846 0.56224,-1.525488 0.56224,-0.574642 1.49655,-0.574642 1.07073,0 1.63297,0.822689 0.56637,0.818555 0.56637,2.38125 0,1.459342 -0.69453,2.33164 -0.69039,0.868164 -1.86035,0.868164 -0.31419,0 -0.63665,-0.06201 -0.32246,-0.06201 -0.66973,-0.186036 z m 1.66192,-2.616894 q 0.56223,0 0.88883,-0.384473 0.33073,-0.384472 0.33073,-1.054199 0,-0.665592 -0.33073,-1.050065 -0.3266,-0.388607 -0.88883,-0.388607 -0.56224,0 -0.89297,0.388607 -0.3266,0.384473 -0.3266,1.050065 0,0.669727 0.3266,1.054199 0.33073,0.384473 0.89297,0.384473 z"
         style="font-style:normal;font-size:8.46666622px;fill:#ff1654;fill-opacity:1;stroke-width:0.26458332px"
         id="path6596" />
      <path
         d="m 234.23488,82.840087 h 0.8723 v 1.050065 h -0.8723 z"
         style="font-style:normal;font-size:8.46666622px;fill:#ff1654;fill-opacity:1;stroke-width:0.26458332px"
         id="path6598" />
      <path
         d="m 239.4604,80.56219 q 0.59945,0.128157 0.93431,0.533301 0.339,0.405143 0.339,1.000455 0,0.91364 -0.62838,1.413867 -0.62839,0.500228 -1.78594,0.500228 -0.38861,0 -0.80202,-0.07855 -0.40928,-0.07441 -0.84749,-0.227376 v -0.806152 q 0.34726,0.202571 0.76067,0.305924 0.41342,0.103353 0.86403,0.103353 0.78549,0 1.19476,-0.310059 0.41342,-0.310058 0.41342,-0.901237 0,-0.545703 -0.38448,-0.851627 -0.38034,-0.310059 -1.06247,-0.310059 h -0.71933 v -0.686263 h 0.75241 q 0.61598,0 0.94258,-0.243913 0.32659,-0.248046 0.32659,-0.711067 0,-0.475423 -0.339,-0.727604 -0.33486,-0.256315 -0.96325,-0.256315 -0.34313,0 -0.73587,0.07441 -0.39274,0.07441 -0.86403,0.23151 v -0.744141 q 0.47543,-0.132291 0.88884,-0.198437 0.41754,-0.06615 0.78548,-0.06615 0.95085,0 1.50482,0.434082 0.55397,0.429948 0.55397,1.16582 0,0.512631 -0.29352,0.868164 -0.29353,0.3514 -0.8351,0.487826 z"
         style="font-style:normal;font-size:8.46666622px;fill:#ff1654;fill-opacity:1;stroke-width:0.26458332px"
         id="path6600" />
      <path
         d="m 244.2105,80.471239 q -0.56224,0 -0.89297,0.384473 -0.32659,0.384473 -0.32659,1.054199 0,0.665593 0.32659,1.054199 0.33073,0.384473 0.89297,0.384473 0.56224,0 0.88884,-0.384473 0.33073,-0.388606 0.33073,-1.054199 0,-0.669726 -0.33073,-1.054199 -0.3266,-0.384473 -0.88884,-0.384473 z m 1.65778,-2.616894 v 0.760677 q -0.31419,-0.148828 -0.63665,-0.227376 -0.31833,-0.07855 -0.63252,-0.07855 -0.82682,0 -1.26504,0.558105 -0.43408,0.558105 -0.49609,1.686719 0.24391,-0.359668 0.61184,-0.549838 0.36794,-0.194303 0.81029,-0.194303 0.93018,0 1.46761,0.566374 0.54157,0.562239 0.54157,1.533756 0,0.950847 -0.56224,1.525488 -0.56224,0.574642 -1.49655,0.574642 -1.07073,0 -1.63711,-0.818554 -0.56637,-0.822689 -0.56637,-2.38125 0,-1.463477 0.69453,-2.331641 0.69453,-0.872298 1.86449,-0.872298 0.31419,0 0.63251,0.06201 0.32247,0.06201 0.66973,0.186035 z"
         style="font-style:normal;font-size:8.46666622px;fill:#ff1654;fill-opacity:1;stroke-width:0.26458332px"
         id="path6602" />
      <path
         d="m 247.7121,82.840087 h 0.87229 v 1.050065 h -0.87229 z"
         style="font-style:normal;font-size:8.46666622px;fill:#ff1654;fill-opacity:1;stroke-width:0.26458332px"
         id="path6604" />
      <path
         d="m 251.12687,83.187353 h 2.91455 v 0.702799 h -3.91914 v -0.702799 q 0.47543,-0.49196 1.29398,-1.318783 0.82269,-0.830957 1.03353,-1.070736 0.40101,-0.450618 0.55811,-0.760677 0.16123,-0.314192 0.16123,-0.615983 0,-0.491959 -0.34727,-0.802018 -0.34313,-0.310058 -0.8971,-0.310058 -0.39274,0 -0.83096,0.136425 -0.43408,0.136426 -0.93017,0.413412 v -0.84336 q 0.50436,-0.202571 0.94257,-0.305924 0.43822,-0.103353 0.80202,-0.103353 0.95912,0 1.52962,0.479557 0.57051,0.479558 0.57051,1.281576 0,0.380338 -0.14469,0.72347 -0.14056,0.338997 -0.51677,0.802018 -0.10335,0.119889 -0.65732,0.694531 -0.55397,0.570508 -1.5627,1.599903 z"
         style="font-style:normal;font-size:8.46666622px;fill:#ff1654;fill-opacity:1;stroke-width:0.26458332px"
         id="path6606" />
    </g>
    <g
       aria-label="LAN"
       style="font-style:normal;font-weight:normal;font-size:4.23333311px;line-height:125%;font-family:sans-serif;letter-spacing:0px;word-spacing:0px;fill:#ff9f1c;fill-opacity:1;stroke:none;stroke-width:0.26458332px;stroke-linecap:butt;stroke-linejoin:miter;stroke-opacity:1"
       id="text5247">
      <path
         d="m 134.60797,139.71634 h 1.11346 v 7.29258 h 4.00733 v 0.93706 h -5.12079 z"
         style="font-style:normal;font-size:11.28888893px;fill:#ff9f1c;fill-opacity:1;stroke-width:0.26458332px"
         id="path6510" />
      <path
         d="m 143.90698,140.81326 -1.51033,4.09553 h 3.02617 z m -0.62839,-1.09692 h 1.26228 l 3.13642,8.22964 h -1.15755 l -0.74966,-2.11115 h -3.70968 l -0.74965,2.11115 h -1.17409 z"
         style="font-style:normal;font-size:11.28888893px;fill:#ff9f1c;fill-opacity:1;stroke-width:0.26458332px"
         id="path6512" />
      <path
         d="m 148.87342,139.71634 h 1.49931 l 3.64905,6.88468 v -6.88468 h 1.08038 v 8.22964 h -1.49931 l -3.64904,-6.88467 v 6.88467 h -1.08039 z"
         style="font-style:normal;font-size:11.28888893px;fill:#ff9f1c;fill-opacity:1;stroke-width:0.26458332px"
         id="path6514" />
    </g>
    <g
       aria-label="10.141/16"
       style="font-style:normal;font-weight:normal;font-size:4.23333311px;line-height:125%;font-family:sans-serif;letter-spacing:0px;word-spacing:0px;fill:#ff1654;fill-opacity:1;stroke:none;stroke-width:0.26458332px;stroke-linecap:butt;stroke-linejoin:miter;stroke-opacity:1"
       id="text5251">
      <path
         d="m 124.06253,157.2707 h 1.36426 v -4.70876 l -1.48415,0.29766 v -0.76068 l 1.47588,-0.29766 h 0.83509 v 5.46944 h 1.36426 v 0.7028 h -3.55534 z"
         style="font-style:normal;font-size:8.46666622px;fill:#ff1654;fill-opacity:1;stroke-width:0.26458332px"
         id="path6491" />
      <path
         d="m 131.09466,152.3511 q -0.64492,0 -0.97152,0.63665 -0.32246,0.63252 -0.32246,1.90583 0,1.26917 0.32246,1.90583 0.3266,0.63252 0.97152,0.63252 0.64906,0 0.97152,-0.63252 0.32659,-0.63666 0.32659,-1.90583 0,-1.27331 -0.32659,-1.90583 -0.32246,-0.63665 -0.97152,-0.63665 z m 0,-0.66146 q 1.03766,0 1.58337,0.82269 0.54983,0.81856 0.54983,2.38125 0,1.55856 -0.54983,2.38125 -0.54571,0.81855 -1.58337,0.81855 -1.03766,0 -1.5875,-0.81855 -0.5457,-0.82269 -0.5457,-2.38125 0,-1.56269 0.5457,-2.38125 0.54984,-0.82269 1.5875,-0.82269 z"
         style="font-style:normal;font-size:8.46666622px;fill:#ff1654;fill-opacity:1;stroke-width:0.26458332px"
         id="path6493" />
      <path
         d="m 134.69961,156.92343 h 0.8723 v 1.05007 h -0.8723 z"
         style="font-style:normal;font-size:8.46666622px;fill:#ff1654;fill-opacity:1;stroke-width:0.26458332px"
         id="path6495" />
      <path
         d="m 137.53974,157.2707 h 1.36426 v -4.70876 l -1.48414,0.29766 v -0.76068 l 1.47587,-0.29766 h 0.83509 v 5.46944 h 1.36426 v 0.7028 h -3.55534 z"
         style="font-style:normal;font-size:8.46666622px;fill:#ff1654;fill-opacity:1;stroke-width:0.26458332px"
         id="path6497" />
      <path
         d="m 145.08037,152.52887 -2.1084,3.29489 h 2.1084 z m -0.21911,-0.72761 h 1.05007 v 4.0225 h 0.88056 v 0.69453 h -0.88056 v 1.45521 h -0.83096 v -1.45521 h -2.78639 v -0.80616 z"
         style="font-style:normal;font-size:8.46666622px;fill:#ff1654;fill-opacity:1;stroke-width:0.26458332px"
         id="path6499" />
      <path
         d="m 148.32152,157.2707 h 1.36425 v -4.70876 l -1.48414,0.29766 v -0.76068 l 1.47587,-0.29766 h 0.8351 v 5.46944 h 1.36425 v 0.7028 h -3.55533 z"
         style="font-style:normal;font-size:8.46666622px;fill:#ff1654;fill-opacity:1;stroke-width:0.26458332px"
         id="path6501" />
      <path
         d="m 154.81208,151.80126 h 0.7028 l -2.14974,6.95772 h -0.7028 z"
         style="font-style:normal;font-size:8.46666622px;fill:#ff1654;fill-opacity:1;stroke-width:0.26458332px"
         id="path6503" />
      <path
         d="m 156.57321,157.2707 h 1.36426 v -4.70876 l -1.48415,0.29766 v -0.76068 l 1.47588,-0.29766 h 0.83509 v 5.46944 h 1.36426 v 0.7028 h -3.55534 z"
         style="font-style:normal;font-size:8.46666622px;fill:#ff1654;fill-opacity:1;stroke-width:0.26458332px"
         id="path6505" />
      <path
         d="m 163.70869,154.55458 q -0.56224,0 -0.89297,0.38448 -0.32659,0.38447 -0.32659,1.05419 0,0.6656 0.32659,1.0542 0.33073,0.38448 0.89297,0.38448 0.56224,0 0.88883,-0.38448 0.33073,-0.3886 0.33073,-1.0542 0,-0.66972 -0.33073,-1.05419 -0.32659,-0.38448 -0.88883,-0.38448 z m 1.65778,-2.61689 v 0.76068 q -0.31419,-0.14883 -0.63665,-0.22738 -0.31833,-0.0786 -0.63252,-0.0786 -0.82683,0 -1.26504,0.55811 -0.43408,0.5581 -0.4961,1.68672 0.24392,-0.35967 0.61185,-0.54984 0.36794,-0.19431 0.81029,-0.19431 0.93017,0 1.46761,0.56638 0.54157,0.56224 0.54157,1.53375 0,0.95085 -0.56224,1.52549 -0.56224,0.57464 -1.49655,0.57464 -1.07074,0 -1.63711,-0.81855 -0.56637,-0.82269 -0.56637,-2.38125 0,-1.46348 0.69453,-2.33164 0.69453,-0.8723 1.86448,-0.8723 0.3142,0 0.63252,0.062 0.32246,0.062 0.66973,0.18604 z"
         style="font-style:normal;font-size:8.46666622px;fill:#ff1654;fill-opacity:1;stroke-width:0.26458332px"
         id="path6507" />
    </g>
    <path
       style="fill:none;fill-rule:evenodd;stroke:#ff9f1c;stroke-width:2.64583325;stroke-linecap:butt;stroke-linejoin:miter;stroke-miterlimit:4;stroke-dasharray:none;stroke-opacity:1"
       d="m 60.205472,132.08043 v 14.12432 c 0,0 0,6.89806 6.898066,6.89806 h 52.693032"
       id="path5256"
       inkscape:connector-curvature="0"
       sodipodi:nodetypes="ccsc" />
    <path
       sodipodi:nodetypes="ccsc"
       inkscape:connector-curvature="0"
       id="path5266"
       d="m 230.65466,132.08043 v 14.12432 c 0,0 0,6.89806 -6.89806,6.89806 h -53.22775"
       style="fill:none;fill-rule:evenodd;stroke:#ff9f1c;stroke-width:2.64583325;stroke-linecap:butt;stroke-linejoin:miter;stroke-miterlimit:4;stroke-dasharray:none;stroke-opacity:1" />
    <g
       aria-label="10.141.0.1"
       style="font-style:normal;font-weight:normal;font-size:4.23333311px;line-height:125%;font-family:sans-serif;letter-spacing:0px;word-spacing:0px;fill:#ff1654;fill-opacity:1;stroke:none;stroke-width:0.26458332px;stroke-linecap:butt;stroke-linejoin:miter;stroke-opacity:1"
       id="text5270">
      <path
         d="m 64.890473,137.29295 h 1.136882 v -3.92396 l -1.23679,0.24804 v -0.63389 l 1.2299,-0.24805 h 0.695909 v 4.55786 h 1.136881 v 0.58567 h -2.962782 z"
         style="font-style:normal;font-size:7.05555534px;fill:#ff1654;fill-opacity:1;stroke-width:0.26458332px"
         id="path6517" />
      <path
         d="m 70.750581,133.19329 q -0.537435,0 -0.809598,0.53054 -0.268717,0.5271 -0.268717,1.58819 0,1.05764 0.268717,1.58819 0.272163,0.5271 0.809598,0.5271 0.54088,0 0.809597,-0.5271 0.272163,-0.53055 0.272163,-1.58819 0,-1.06109 -0.272163,-1.58819 -0.268717,-0.53054 -0.809597,-0.53054 z m 0,-0.55122 q 0.864719,0 1.319471,0.68558 0.458198,0.68212 0.458198,1.98437 0,1.2988 -0.458198,1.98438 -0.454752,0.68212 -1.319471,0.68212 -0.864719,0 -1.322917,-0.68212 -0.454753,-0.68558 -0.454753,-1.98438 0,-1.30225 0.454753,-1.98437 0.458198,-0.68558 1.322917,-0.68558 z"
         style="font-style:normal;font-size:7.05555534px;fill:#ff1654;fill-opacity:1;stroke-width:0.26458332px"
         id="path6519" />
      <path
         d="m 73.754704,137.00356 h 0.726915 v 0.87506 h -0.726915 z"
         style="font-style:normal;font-size:7.05555534px;fill:#ff1654;fill-opacity:1;stroke-width:0.26458332px"
         id="path6521" />
      <path
         d="m 76.121485,137.29295 h 1.136881 v -3.92396 l -1.236789,0.24804 v -0.63389 l 1.229899,-0.24805 h 0.695909 v 4.55786 h 1.136882 v 0.58567 h -2.962782 z"
         style="font-style:normal;font-size:7.05555534px;fill:#ff1654;fill-opacity:1;stroke-width:0.26458332px"
         id="path6523" />
      <path
         d="m 82.405338,133.34143 -1.756998,2.74574 h 1.756998 z m -0.18259,-0.60634 h 0.875054 v 3.35208 h 0.733806 v 0.57877 h -0.733806 v 1.21268 h -0.692464 v -1.21268 h -2.321994 v -0.67179 z"
         style="font-style:normal;font-size:7.05555534px;fill:#ff1654;fill-opacity:1;stroke-width:0.26458332px"
         id="path6525" />
      <path
         d="m 85.106294,137.29295 h 1.136881 v -3.92396 l -1.236789,0.24804 v -0.63389 l 1.229899,-0.24805 h 0.695909 v 4.55786 h 1.136882 v 0.58567 h -2.962782 z"
         style="font-style:normal;font-size:7.05555534px;fill:#ff1654;fill-opacity:1;stroke-width:0.26458332px"
         id="path6527" />
      <path
         d="m 89.47812,137.00356 h 0.726915 v 0.87506 H 89.47812 Z"
         style="font-style:normal;font-size:7.05555534px;fill:#ff1654;fill-opacity:1;stroke-width:0.26458332px"
         id="path6529" />
      <path
         d="m 93.212602,133.19329 q -0.537435,0 -0.809598,0.53054 -0.268717,0.5271 -0.268717,1.58819 0,1.05764 0.268717,1.58819 0.272163,0.5271 0.809598,0.5271 0.54088,0 0.809597,-0.5271 0.272163,-0.53055 0.272163,-1.58819 0,-1.06109 -0.272163,-1.58819 -0.268717,-0.53054 -0.809597,-0.53054 z m 0,-0.55122 q 0.864719,0 1.319471,0.68558 0.458198,0.68212 0.458198,1.98437 0,1.2988 -0.458198,1.98438 -0.454752,0.68212 -1.319471,0.68212 -0.864719,0 -1.322917,-0.68212 -0.454752,-0.68558 -0.454752,-1.98438 0,-1.30225 0.454752,-1.98437 0.458198,-0.68558 1.322917,-0.68558 z"
         style="font-style:normal;font-size:7.05555534px;fill:#ff1654;fill-opacity:1;stroke-width:0.26458332px"
         id="path6531" />
      <path
         d="m 96.216726,137.00356 h 0.726915 v 0.87506 h -0.726915 z"
         style="font-style:normal;font-size:7.05555534px;fill:#ff1654;fill-opacity:1;stroke-width:0.26458332px"
         id="path6533" />
      <path
         d="m 98.583508,137.29295 h 1.136882 v -3.92396 l -1.236789,0.24804 v -0.63389 l 1.229899,-0.24805 h 0.69591 v 4.55786 h 1.13688 v 0.58567 h -2.962782 z"
         style="font-style:normal;font-size:7.05555534px;fill:#ff1654;fill-opacity:1;stroke-width:0.26458332px"
         id="path6535" />
    </g>
    <g
       aria-label="10.141.0.2"
       style="font-style:normal;font-weight:normal;font-size:4.23333311px;line-height:125%;font-family:sans-serif;letter-spacing:0px;word-spacing:0px;fill:#ff1654;fill-opacity:1;stroke:none;stroke-width:0.26458332px;stroke-linecap:butt;stroke-linejoin:miter;stroke-opacity:1"
       id="text5274">
      <path
         d="m 189.44883,137.29295 h 1.13688 v -3.92396 l -1.23679,0.24804 v -0.63389 l 1.2299,-0.24805 h 0.69591 v 4.55786 h 1.13688 v 0.58567 h -2.96278 z"
         style="font-style:normal;font-size:7.05555534px;fill:#ff1654;fill-opacity:1;stroke-width:0.26458332px"
         id="path6470" />
      <path
         d="m 195.30894,133.19329 q -0.53744,0 -0.8096,0.53054 -0.26872,0.5271 -0.26872,1.58819 0,1.05764 0.26872,1.58819 0.27216,0.5271 0.8096,0.5271 0.54088,0 0.8096,-0.5271 0.27216,-0.53055 0.27216,-1.58819 0,-1.06109 -0.27216,-1.58819 -0.26872,-0.53054 -0.8096,-0.53054 z m 0,-0.55122 q 0.86472,0 1.31947,0.68558 0.4582,0.68212 0.4582,1.98437 0,1.2988 -0.4582,1.98438 -0.45475,0.68212 -1.31947,0.68212 -0.86472,0 -1.32292,-0.68212 -0.45475,-0.68558 -0.45475,-1.98438 0,-1.30225 0.45475,-1.98437 0.4582,-0.68558 1.32292,-0.68558 z"
         style="font-style:normal;font-size:7.05555534px;fill:#ff1654;fill-opacity:1;stroke-width:0.26458332px"
         id="path6472" />
      <path
         d="m 198.31306,137.00356 h 0.72692 v 0.87506 h -0.72692 z"
         style="font-style:normal;font-size:7.05555534px;fill:#ff1654;fill-opacity:1;stroke-width:0.26458332px"
         id="path6474" />
      <path
         d="m 200.67984,137.29295 h 1.13688 v -3.92396 l -1.23679,0.24804 v -0.63389 l 1.2299,-0.24805 h 0.69591 v 4.55786 h 1.13688 v 0.58567 h -2.96278 z"
         style="font-style:normal;font-size:7.05555534px;fill:#ff1654;fill-opacity:1;stroke-width:0.26458332px"
         id="path6476" />
      <path
         d="m 206.9637,133.34143 -1.757,2.74574 h 1.757 z m -0.18259,-0.60634 h 0.87505 v 3.35208 h 0.7338 v 0.57877 h -0.7338 v 1.21268 h -0.69246 v -1.21268 h -2.322 v -0.67179 z"
         style="font-style:normal;font-size:7.05555534px;fill:#ff1654;fill-opacity:1;stroke-width:0.26458332px"
         id="path6478" />
      <path
         d="m 209.66465,137.29295 h 1.13688 v -3.92396 l -1.23679,0.24804 v -0.63389 l 1.2299,-0.24805 h 0.69591 v 4.55786 h 1.13688 v 0.58567 h -2.96278 z"
         style="font-style:normal;font-size:7.05555534px;fill:#ff1654;fill-opacity:1;stroke-width:0.26458332px"
         id="path6480" />
      <path
         d="m 214.03648,137.00356 h 0.72691 v 0.87506 h -0.72691 z"
         style="font-style:normal;font-size:7.05555534px;fill:#ff1654;fill-opacity:1;stroke-width:0.26458332px"
         id="path6482" />
      <path
         d="m 217.77096,133.19329 q -0.53744,0 -0.8096,0.53054 -0.26872,0.5271 -0.26872,1.58819 0,1.05764 0.26872,1.58819 0.27216,0.5271 0.8096,0.5271 0.54088,0 0.8096,-0.5271 0.27216,-0.53055 0.27216,-1.58819 0,-1.06109 -0.27216,-1.58819 -0.26872,-0.53054 -0.8096,-0.53054 z m 0,-0.55122 q 0.86472,0 1.31947,0.68558 0.4582,0.68212 0.4582,1.98437 0,1.2988 -0.4582,1.98438 -0.45475,0.68212 -1.31947,0.68212 -0.86472,0 -1.32292,-0.68212 -0.45475,-0.68558 -0.45475,-1.98438 0,-1.30225 0.45475,-1.98437 0.4582,-0.68558 1.32292,-0.68558 z"
         style="font-style:normal;font-size:7.05555534px;fill:#ff1654;fill-opacity:1;stroke-width:0.26458332px"
         id="path6484" />
      <path
         d="m 220.77508,137.00356 h 0.72692 v 0.87506 h -0.72692 z"
         style="font-style:normal;font-size:7.05555534px;fill:#ff1654;fill-opacity:1;stroke-width:0.26458332px"
         id="path6486" />
      <path
         d="m 223.62073,137.29295 h 2.4288 v 0.58567 h -3.26595 v -0.58567 q 0.39618,-0.40997 1.07831,-1.09899 0.68557,-0.69246 0.86127,-0.89228 0.33418,-0.37551 0.46509,-0.63389 0.13436,-0.26183 0.13436,-0.51332 0,-0.40997 -0.28939,-0.66835 -0.28594,-0.25838 -0.74758,-0.25838 -0.32729,0 -0.69247,0.11369 -0.36173,0.11368 -0.77514,0.34451 v -0.7028 q 0.4203,-0.16881 0.78548,-0.25494 0.36518,-0.0861 0.66835,-0.0861 0.79926,0 1.27468,0.39963 0.47543,0.39963 0.47543,1.06798 0,0.31695 -0.12058,0.60289 -0.11714,0.2825 -0.43064,0.66835 -0.0861,0.0999 -0.54777,0.57878 -0.46164,0.47542 -1.30225,1.33325 z"
         style="font-style:normal;font-size:7.05555534px;fill:#ff1654;fill-opacity:1;stroke-width:0.26458332px"
         id="path6488" />
    </g>
    <path
       style="fill:none;fill-rule:evenodd;stroke:#ff9f1c;stroke-width:2.64583325;stroke-linecap:butt;stroke-linejoin:miter;stroke-miterlimit:4;stroke-dasharray:7.9375, 2.64583333;stroke-dashoffset:0;stroke-opacity:1"
       d="m 103.77408,112.92559 h 89.20238"
       id="path5276"
       inkscape:connector-curvature="0" />
    <g
       aria-label="L3"
       style="font-style:normal;font-weight:normal;font-size:4.23333311px;line-height:125%;font-family:sans-serif;letter-spacing:0px;word-spacing:0px;fill:#ff9f1c;fill-opacity:1;stroke:none;stroke-width:0.26458332px;stroke-linecap:butt;stroke-linejoin:miter;stroke-opacity:1"
       id="text5280">
      <path
         d="m 142.64813,98.894913 h 1.11346 v 7.292577 h 4.00733 v 0.93707 h -5.12079 z"
         style="font-style:normal;font-size:11.28888893px;fill:#ff9f1c;fill-opacity:1;stroke-width:0.26458332px"
         id="path6557" />
      <path
         d="m 152.40464,102.68727 q 0.79927,0.17088 1.24575,0.71107 0.452,0.54019 0.452,1.33394 0,1.21819 -0.83785,1.88516 -0.83785,0.66697 -2.38125,0.66697 -0.51814,0 -1.06936,-0.10473 -0.5457,-0.0992 -1.12999,-0.30317 v -1.07487 q 0.46302,0.2701 1.01424,0.4079 0.55121,0.1378 1.15204,0.1378 1.04731,0 1.59301,-0.41341 0.55121,-0.41341 0.55121,-1.20165 0,-0.7276 -0.51263,-1.1355 -0.50711,-0.41341 -1.41662,-0.41341 h -0.95911 v -0.91502 h 1.00321 q 0.82131,0 1.25677,-0.32522 0.43546,-0.33073 0.43546,-0.94809 0,-0.63389 -0.452,-0.97014 -0.44648,-0.341749 -1.28433,-0.341749 -0.45751,0 -0.98116,0.09922 -0.52366,0.09922 -1.15204,0.30868 v -0.992187 q 0.6339,-0.176389 1.18511,-0.264583 0.55673,-0.0882 1.04731,-0.0882 1.2678,0 2.00642,0.578776 0.73863,0.573264 0.73863,1.554429 0,0.68351 -0.39136,1.15755 -0.39136,0.46853 -1.11346,0.65043 z"
         style="font-style:normal;font-size:11.28888893px;fill:#ff9f1c;fill-opacity:1;stroke-width:0.26458332px"
         id="path6559" />
    </g>
    <g
       aria-label="L3"
       style="font-style:normal;font-weight:normal;font-size:4.23333311px;line-height:125%;font-family:sans-serif;letter-spacing:0px;word-spacing:0px;fill:#ff9f1c;fill-opacity:1;stroke:none;stroke-width:0.26458332px;stroke-linecap:butt;stroke-linejoin:miter;stroke-opacity:1"
       id="text5284">
      <path
         d="m 17.915991,92.091332 h 1.113455 v 7.292578 h 4.007335 v 0.93707 h -5.12079 z"
         style="font-style:normal;font-size:11.28888893px;fill:#ff9f1c;fill-opacity:1;stroke-width:0.26458332px"
         id="path6423" />
      <path
         d="m 27.672501,95.883693 q 0.799262,0.170877 1.245747,0.711068 0.451996,0.540191 0.451996,1.333941 0,1.218186 -0.837847,1.885156 -0.837847,0.666972 -2.38125,0.666972 -0.518142,0 -1.069358,-0.10473 -0.545703,-0.0992 -1.129991,-0.30317 v -1.07487 q 0.463021,0.270095 1.014236,0.407899 0.551215,0.137804 1.15204,0.137804 1.047309,0 1.593012,-0.413412 0.551216,-0.413411 0.551216,-1.201649 0,-0.727604 -0.512631,-1.135504 -0.507118,-0.413411 -1.416623,-0.413411 H 25.373934 V 95.46477 h 1.003211 q 0.821311,0 1.256771,-0.325217 0.43546,-0.33073 0.43546,-0.948091 0,-0.633897 -0.451996,-0.970139 -0.446485,-0.341753 -1.284332,-0.341753 -0.457509,0 -0.981163,0.09922 -0.523655,0.09922 -1.15204,0.30868 v -0.992187 q 0.633898,-0.176389 1.185113,-0.264584 0.556727,-0.08819 1.047309,-0.08819 1.267795,0 2.006423,0.578776 0.738629,0.573264 0.738629,1.554427 0,0.683507 -0.391363,1.157552 -0.391363,0.468533 -1.113455,0.650434 z"
         style="font-style:normal;font-size:11.28888893px;fill:#ff9f1c;fill-opacity:1;stroke-width:0.26458332px"
         id="path6425" />
    </g>
    <g
       aria-label="L3"
       style="font-style:normal;font-weight:normal;font-size:4.23333311px;line-height:125%;font-family:sans-serif;letter-spacing:0px;word-spacing:0px;fill:#ff9f1c;fill-opacity:1;stroke:none;stroke-width:0.26458332px;stroke-linecap:butt;stroke-linejoin:miter;stroke-opacity:1"
       id="text5288">
      <path
         d="m 268.06064,92.091332 h 1.11346 v 7.292578 h 4.00733 v 0.93707 h -5.12079 z"
         style="font-style:normal;font-size:11.28888893px;fill:#ff9f1c;fill-opacity:1;stroke-width:0.26458332px"
         id="path6581" />
      <path
         d="m 277.81715,95.883693 q 0.79926,0.170877 1.24575,0.711068 0.45199,0.540191 0.45199,1.333941 0,1.218186 -0.83784,1.885156 -0.83785,0.666972 -2.38125,0.666972 -0.51815,0 -1.06936,-0.10473 -0.5457,-0.0992 -1.12999,-0.30317 v -1.07487 q 0.46302,0.270095 1.01423,0.407899 0.55122,0.137804 1.15204,0.137804 1.04731,0 1.59302,-0.413412 0.55121,-0.413411 0.55121,-1.201649 0,-0.727604 -0.51263,-1.135504 -0.50712,-0.413411 -1.41662,-0.413411 h -0.95912 V 95.46477 h 1.00321 q 0.82132,0 1.25678,-0.325217 0.43546,-0.33073 0.43546,-0.948091 0,-0.633897 -0.452,-0.970139 -0.44649,-0.341753 -1.28433,-0.341753 -0.45751,0 -0.98117,0.09922 -0.52365,0.09922 -1.15204,0.30868 v -0.992187 q 0.6339,-0.176389 1.18512,-0.264584 0.55672,-0.08819 1.04731,-0.08819 1.26779,0 2.00642,0.578776 0.73863,0.573264 0.73863,1.554427 0,0.683507 -0.39136,1.157552 -0.39137,0.468533 -1.11346,0.650434 z"
         style="font-style:normal;font-size:11.28888893px;fill:#ff9f1c;fill-opacity:1;stroke-width:0.26458332px"
         id="path6583" />
    </g>
    <g
       aria-label="172.19/16"
       style="font-style:normal;font-weight:normal;font-size:4.23333311px;line-height:125%;font-family:sans-serif;letter-spacing:0px;word-spacing:0px;fill:#ff1654;fill-opacity:1;stroke:none;stroke-width:0.26458332px;stroke-linecap:butt;stroke-linejoin:miter;stroke-opacity:1"
       id="text5186-3">
      <path
         d="m 127.58274,122.26961 h 1.36426 v -4.70875 l -1.48415,0.29765 v -0.76067 l 1.47588,-0.29766 h 0.83509 v 5.46943 h 1.36426 v 0.7028 h -3.55534 z"
         style="font-style:normal;font-size:8.46666622px;fill:#ff1654;fill-opacity:1;stroke-width:0.26458332px"
         id="path6538" />
      <path
         d="m 132.61809,116.80018 h 3.96875 v 0.35553 l -2.24069,5.8167 h -0.8723 l 2.1084,-5.46943 h -2.96416 z"
         style="font-style:normal;font-size:8.46666622px;fill:#ff1654;fill-opacity:1;stroke-width:0.26458332px"
         id="path6540" />
      <path
         d="m 138.93915,122.26961 h 2.91455 v 0.7028 h -3.91914 v -0.7028 q 0.47543,-0.49196 1.29398,-1.31878 0.82269,-0.83096 1.03353,-1.07074 0.40101,-0.45061 0.55811,-0.76067 0.16123,-0.3142 0.16123,-0.61599 0,-0.49196 -0.34727,-0.80201 -0.34313,-0.31006 -0.8971,-0.31006 -0.39274,0 -0.83096,0.13642 -0.43408,0.13643 -0.93017,0.41341 v -0.84335 q 0.50436,-0.20258 0.94257,-0.30593 0.43822,-0.10335 0.80202,-0.10335 0.95912,0 1.52962,0.47956 0.57051,0.47955 0.57051,1.28157 0,0.38034 -0.14469,0.72347 -0.14056,0.339 -0.51677,0.80202 -0.10335,0.11989 -0.65732,0.69453 -0.55397,0.57051 -1.5627,1.5999 z"
         style="font-style:normal;font-size:8.46666622px;fill:#ff1654;fill-opacity:1;stroke-width:0.26458332px"
         id="path6542" />
      <path
         d="m 143.6107,121.92235 h 0.8723 v 1.05006 h -0.8723 z"
         style="font-style:normal;font-size:8.46666622px;fill:#ff1654;fill-opacity:1;stroke-width:0.26458332px"
         id="path6544" />
      <path
         d="m 146.45084,122.26961 h 1.36426 v -4.70875 l -1.48415,0.29765 v -0.76067 l 1.47588,-0.29766 h 0.83509 v 5.46943 h 1.36426 v 0.7028 h -3.55534 z"
         style="font-style:normal;font-size:8.46666622px;fill:#ff1654;fill-opacity:1;stroke-width:0.26458332px"
         id="path6546" />
      <path
         d="m 151.72184,122.84425 v -0.76067 q 0.31419,0.14883 0.63665,0.22737 0.32246,0.0785 0.63252,0.0785 0.82682,0 1.2609,-0.55397 0.43822,-0.5581 0.50023,-1.69085 -0.23978,0.35553 -0.60771,0.5457 -0.36794,0.19017 -0.81442,0.19017 -0.92605,0 -1.46761,-0.55811 -0.53744,-0.56223 -0.53744,-1.53375 0,-0.95085 0.56224,-1.52549 0.56224,-0.57464 1.49655,-0.57464 1.07074,0 1.63298,0.82269 0.56637,0.81855 0.56637,2.38125 0,1.45934 -0.69453,2.33164 -0.6904,0.86816 -1.86035,0.86816 -0.3142,0 -0.63666,-0.062 -0.32246,-0.062 -0.66972,-0.18604 z m 1.66191,-2.61689 q 0.56224,0 0.88883,-0.38447 0.33073,-0.38448 0.33073,-1.0542 0,-0.66559 -0.33073,-1.05007 -0.32659,-0.3886 -0.88883,-0.3886 -0.56224,0 -0.89297,0.3886 -0.32659,0.38448 -0.32659,1.05007 0,0.66972 0.32659,1.0542 0.33073,0.38447 0.89297,0.38447 z"
         style="font-style:normal;font-size:8.46666622px;fill:#ff1654;fill-opacity:1;stroke-width:0.26458332px"
         id="path6548" />
      <path
         d="m 158.33229,116.80018 h 0.7028 l -2.14974,6.95771 h -0.7028 z"
         style="font-style:normal;font-size:8.46666622px;fill:#ff1654;fill-opacity:1;stroke-width:0.26458332px"
         id="path6550" />
      <path
         d="m 160.09342,122.26961 h 1.36426 v -4.70875 l -1.48415,0.29765 v -0.76067 l 1.47588,-0.29766 h 0.83509 v 5.46943 h 1.36426 v 0.7028 h -3.55534 z"
         style="font-style:normal;font-size:8.46666622px;fill:#ff1654;fill-opacity:1;stroke-width:0.26458332px"
         id="path6552" />
      <path
         d="m 167.2289,119.5535 q -0.56224,0 -0.89297,0.38447 -0.32659,0.38447 -0.32659,1.0542 0,0.66559 0.32659,1.0542 0.33073,0.38447 0.89297,0.38447 0.56224,0 0.88883,-0.38447 0.33073,-0.38861 0.33073,-1.0542 0,-0.66973 -0.33073,-1.0542 -0.32659,-0.38447 -0.88883,-0.38447 z m 1.65778,-2.61689 v 0.76067 q -0.31419,-0.14883 -0.63665,-0.22737 -0.31833,-0.0785 -0.63252,-0.0785 -0.82683,0 -1.26504,0.5581 -0.43408,0.55811 -0.4961,1.68672 0.24392,-0.35967 0.61185,-0.54984 0.36794,-0.1943 0.81029,-0.1943 0.93017,0 1.46761,0.56637 0.54157,0.56224 0.54157,1.53376 0,0.95085 -0.56224,1.52549 -0.56224,0.57464 -1.49655,0.57464 -1.07074,0 -1.63711,-0.81855 -0.56637,-0.82269 -0.56637,-2.38125 0,-1.46348 0.69453,-2.33164 0.69453,-0.8723 1.86448,-0.8723 0.3142,0 0.63252,0.062 0.32246,0.062 0.66973,0.18604 z"
         style="font-style:normal;font-size:8.46666622px;fill:#ff1654;fill-opacity:1;stroke-width:0.26458332px"
         id="path6554" />
    </g>
  </g>
</svg>
