<?xml version="1.0" encoding="UTF-8" standalone="no"?>
<!DOCTYPE svg PUBLIC "-//W3C//DTD SVG 1.1//EN"
 "http://www.w3.org/Graphics/SVG/1.1/DTD/svg11.dtd">
<!-- Generated by graphviz version 2.43.0 (0)
 -->
<!-- Title: %3 Pages: 1 -->
<svg width="755pt" height="715pt"
 viewBox="0.00 0.00 755.15 715.18" xmlns="http://www.w3.org/2000/svg" xmlns:xlink="http://www.w3.org/1999/xlink">
<g id="graph0" class="graph" transform="scale(1 1) rotate(0) translate(4 711.18)">
<title>%3</title>
<polygon fill="white" stroke="transparent" points="-4,4 -4,-711.18 751.15,-711.18 751.15,4 -4,4"/>
<text text-anchor="middle" x="373.57" y="-691.18" font-family="Times,serif" font-size="15.00">Contribution graph toward versiti.co</text>
<!-- linkedin.com -->
<g id="node1" class="node">
<title>linkedin.com</title>
<ellipse fill="#fde725" stroke="black" cx="247.92" cy="-550.57" rx="75.82" ry="26.74"/>
<text text-anchor="middle" x="247.92" y="-554.37" font-family="Times,serif" font-size="14.00">linkedin.com</text>
<text text-anchor="middle" x="247.92" y="-539.37" font-family="Times,serif" font-size="14.00">(8)</text>
</g>
<!-- wikipedia.org -->
<g id="node2" class="node">
<title>wikipedia.org</title>
<ellipse fill="#e7e419" stroke="black" cx="371.92" cy="-445.83" rx="79.81" ry="26.74"/>
<text text-anchor="middle" x="371.92" y="-449.63" font-family="Times,serif" font-size="14.00">wikipedia.org</text>
<text text-anchor="middle" x="371.92" y="-434.63" font-family="Times,serif" font-size="14.00">(42)</text>
</g>
<!-- linkedin.com&#45;&gt;wikipedia.org -->
<g id="edge2" class="edge">
<title>linkedin.com&#45;&gt;wikipedia.org</title>
<path fill="none" stroke="black" stroke-width="1.09" d="M278.66,-525.93C286.93,-519.45 295.82,-512.38 303.92,-505.7 314.68,-496.84 326.2,-487 336.65,-477.95"/>
<polygon fill="black" stroke="black" stroke-width="1.09" points="339.15,-480.41 344.4,-471.2 334.55,-475.13 339.15,-480.41"/>
<text text-anchor="middle" x="336.92" y="-494.5" font-family="Times,serif" font-size="14.00">0.01</text>
</g>
<!-- zendesk.com -->
<g id="node3" class="node">
<title>zendesk.com</title>
<ellipse fill="#d8e219" stroke="black" cx="338.92" cy="-236.35" rx="76.24" ry="26.74"/>
<text text-anchor="middle" x="338.92" y="-240.15" font-family="Times,serif" font-size="14.00">zendesk.com</text>
<text text-anchor="middle" x="338.92" y="-225.15" font-family="Times,serif" font-size="14.00">(67)</text>
</g>
<!-- linkedin.com&#45;&gt;zendesk.com -->
<g id="edge3" class="edge">
<title>linkedin.com&#45;&gt;zendesk.com</title>
<path fill="none" stroke="black" stroke-width="1" d="M237.73,-523.93C235.78,-518.03 234.02,-511.72 232.92,-505.7 230.57,-492.77 231.45,-422.07 231.92,-418.96 241.8,-354.74 239.7,-331.44 280.92,-281.22 285.18,-276.04 290.16,-271.12 295.38,-266.58"/>
<polygon fill="black" stroke="black" stroke-width="1" points="297.64,-269.25 303.16,-260.21 293.21,-263.84 297.64,-269.25"/>
<text text-anchor="middle" x="252.92" y="-389.76" font-family="Times,serif" font-size="14.00">0.00</text>
</g>
<!-- focusvision.com -->
<g id="node5" class="node">
<title>focusvision.com</title>
<ellipse fill="#58c765" stroke="black" cx="91.92" cy="-131.61" rx="91.85" ry="26.74"/>
<text text-anchor="middle" x="91.92" y="-135.41" font-family="Times,serif" font-size="14.00">focusvision.com</text>
<text text-anchor="middle" x="91.92" y="-120.41" font-family="Times,serif" font-size="14.00">(260)</text>
</g>
<!-- linkedin.com&#45;&gt;focusvision.com -->
<g id="edge1" class="edge">
<title>linkedin.com&#45;&gt;focusvision.com</title>
<path fill="none" stroke="black" stroke-width="1.22" d="M181.42,-537.5C133.02,-524.43 75.92,-498.14 75.92,-446.83 75.92,-446.83 75.92,-446.83 75.92,-235.35 75.92,-213.01 79.66,-188.26 83.53,-168.65"/>
<polygon fill="black" stroke="black" stroke-width="1.22" points="87,-169.12 85.6,-158.62 80.15,-167.7 87,-169.12"/>
<text text-anchor="middle" x="91.92" y="-337.39" font-family="Times,serif" font-size="14.00">0.01</text>
</g>
<!-- wikipedia.org&#45;&gt;linkedin.com -->
<g id="edge4" class="edge">
<title>wikipedia.org&#45;&gt;linkedin.com</title>
<path fill="none" stroke="black" stroke-width="1" d="M310.17,-462.97C294.73,-469.47 279.34,-478.44 267.92,-490.7 261.9,-497.17 257.68,-505.54 254.73,-513.91"/>
<polygon fill="black" stroke="black" stroke-width="1" points="251.33,-513.06 251.82,-523.64 258.04,-515.06 251.33,-513.06"/>
<text text-anchor="middle" x="283.92" y="-494.5" font-family="Times,serif" font-size="14.00">0.00</text>
</g>
<!-- wikipedia.org&#45;&gt;zendesk.com -->
<g id="edge5" class="edge">
<title>wikipedia.org&#45;&gt;zendesk.com</title>
<path fill="none" stroke="black" stroke-width="1" d="M347.24,-420.2C334.96,-406.17 321.39,-387.52 314.92,-367.96 304.54,-336.51 313.36,-299.23 323.11,-272.57"/>
<polygon fill="black" stroke="black" stroke-width="1" points="326.51,-273.49 326.85,-262.9 319.98,-270.96 326.51,-273.49"/>
<text text-anchor="middle" x="330.92" y="-337.39" font-family="Times,serif" font-size="14.00">0.00</text>
</g>
<!-- beehiiv.com -->
<g id="node10" class="node">
<title>beehiiv.com</title>
<ellipse fill="#440154" stroke="black" cx="426.92" cy="-341.09" rx="70.92" ry="26.74"/>
<text text-anchor="middle" x="426.92" y="-344.89" font-family="Times,serif" font-size="14.00" fill="white">beehiiv.com</text>
<text text-anchor="middle" x="426.92" y="-329.89" font-family="Times,serif" font-size="14.00" fill="white">(972)</text>
</g>
<!-- wikipedia.org&#45;&gt;beehiiv.com -->
<g id="edge6" class="edge">
<title>wikipedia.org&#45;&gt;beehiiv.com</title>
<path fill="none" stroke="black" stroke-width="1" d="M392.76,-419.69C397.12,-413.76 401.44,-407.31 404.92,-400.96 408.95,-393.61 412.54,-385.38 415.59,-377.45"/>
<polygon fill="black" stroke="black" stroke-width="1" points="418.9,-378.6 419.04,-368.01 412.32,-376.2 418.9,-378.6"/>
<text text-anchor="middle" x="426.92" y="-389.76" font-family="Times,serif" font-size="14.00">0.00</text>
</g>
<!-- zendesk.com&#45;&gt;linkedin.com -->
<g id="edge8" class="edge">
<title>zendesk.com&#45;&gt;linkedin.com</title>
<path fill="none" stroke="black" stroke-width="2.24" d="M297.73,-259.25C286.95,-265.73 275.64,-273.25 265.92,-281.22 223.2,-316.27 211.96,-332.26 198.92,-385.96 187.93,-431.26 208.92,-482.63 226.76,-515.52"/>
<polygon fill="black" stroke="black" stroke-width="2.24" points="223.73,-517.28 231.67,-524.29 229.83,-513.86 223.73,-517.28"/>
<text text-anchor="middle" x="214.92" y="-389.76" font-family="Times,serif" font-size="14.00">0.08</text>
</g>
<!-- zendesk.com&#45;&gt;wikipedia.org -->
<g id="edge7" class="edge">
<title>zendesk.com&#45;&gt;wikipedia.org</title>
<path fill="none" stroke="black" stroke-width="1" d="M311.27,-261.44C297.49,-275.3 282.25,-293.97 274.92,-314.22 266.8,-336.68 264.53,-346.46 274.92,-367.96 284.69,-388.16 302.63,-404.67 320.44,-417.14"/>
<polygon fill="black" stroke="black" stroke-width="1" points="318.88,-420.3 329.14,-422.93 322.76,-414.48 318.88,-420.3"/>
<text text-anchor="middle" x="290.92" y="-337.39" font-family="Times,serif" font-size="14.00">0.00</text>
</g>
<!-- zendesk.com&#45;&gt;focusvision.com -->
<g id="edge10" class="edge">
<title>zendesk.com&#45;&gt;focusvision.com</title>
<path fill="none" stroke="black" stroke-width="1" d="M291.01,-215.42C251.62,-199.04 195.56,-175.72 152.96,-158"/>
<polygon fill="black" stroke="black" stroke-width="1" points="154.12,-154.69 143.54,-154.08 151.43,-161.15 154.12,-154.69"/>
<text text-anchor="middle" x="246.92" y="-180.28" font-family="Times,serif" font-size="14.00">0.00</text>
</g>
<!-- zendesk.com&#45;&gt;beehiiv.com -->
<g id="edge9" class="edge">
<title>zendesk.com&#45;&gt;beehiiv.com</title>
<path fill="none" stroke="black" stroke-width="1" d="M365.38,-261.7C371.67,-267.87 378.2,-274.63 383.92,-281.22 390.77,-289.11 397.66,-298.03 403.87,-306.49"/>
<polygon fill="black" stroke="black" stroke-width="1" points="401.13,-308.68 409.82,-314.75 406.81,-304.59 401.13,-308.68"/>
<text text-anchor="middle" x="410.92" y="-285.02" font-family="Times,serif" font-size="14.00">0.00</text>
</g>
<!-- europa.eu -->
<g id="node4" class="node">
<title>europa.eu</title>
<ellipse fill="#bade28" stroke="black" cx="684.92" cy="-655.31" rx="62.45" ry="26.74"/>
<text text-anchor="middle" x="684.92" y="-659.11" font-family="Times,serif" font-size="14.00">europa.eu</text>
<text text-anchor="middle" x="684.92" y="-644.11" font-family="Times,serif" font-size="14.00">(107)</text>
</g>
<!-- europa.eu&#45;&gt;linkedin.com -->
<g id="edge11" class="edge">
<title>europa.eu&#45;&gt;linkedin.com</title>
<path fill="none" stroke="black" stroke-width="2.94" d="M639.82,-636.65C631.3,-633.66 622.4,-630.78 613.92,-628.44 497.46,-596.32 464.77,-604.06 346.92,-577.44 337.01,-575.2 326.58,-572.67 316.37,-570.09"/>
<polygon fill="black" stroke="black" stroke-width="2.94" points="317.21,-566.69 306.66,-567.61 315.48,-573.48 317.21,-566.69"/>
<text text-anchor="middle" x="552.92" y="-599.24" font-family="Times,serif" font-size="14.00">0.13</text>
</g>
<!-- europa.eu&#45;&gt;wikipedia.org -->
<g id="edge13" class="edge">
<title>europa.eu&#45;&gt;wikipedia.org</title>
<path fill="none" stroke="black" stroke-width="1.01" d="M678.54,-628.4C668.06,-591.64 643.56,-525.01 596.92,-490.7 563.01,-465.75 545.25,-480.75 503.92,-472.7 486.49,-469.3 467.76,-465.64 450.04,-462.17"/>
<polygon fill="black" stroke="black" stroke-width="1.01" points="450.23,-458.64 439.75,-460.15 448.89,-465.51 450.23,-458.64"/>
<text text-anchor="middle" x="675.92" y="-546.87" font-family="Times,serif" font-size="14.00">0.00</text>
</g>
<!-- europa.eu&#45;&gt;zendesk.com -->
<g id="edge12" class="edge">
<title>europa.eu&#45;&gt;zendesk.com</title>
<path fill="none" stroke="black" stroke-width="1" d="M694.01,-628.49C700.44,-607.92 707.92,-578.26 707.92,-551.57 707.92,-551.57 707.92,-551.57 707.92,-340.09 707.92,-281.33 532.06,-254.73 423.15,-243.9"/>
<polygon fill="black" stroke="black" stroke-width="1" points="423.44,-240.41 413.15,-242.93 422.77,-247.38 423.44,-240.41"/>
<text text-anchor="middle" x="723.92" y="-442.13" font-family="Times,serif" font-size="14.00">0.00</text>
</g>
<!-- versiti.co -->
<g id="node9" class="node">
<title>versiti.co</title>
<ellipse fill="#34618d" stroke="black" cx="91.92" cy="-26.87" rx="58.88" ry="26.74"/>
<text text-anchor="middle" x="91.92" y="-30.67" font-family="Times,serif" font-size="14.00">versiti.co</text>
<text text-anchor="middle" x="91.92" y="-15.67" font-family="Times,serif" font-size="14.00">(677)</text>
</g>
<!-- focusvision.com&#45;&gt;versiti.co -->
<g id="edge14" class="edge">
<title>focusvision.com&#45;&gt;versiti.co</title>
<path fill="none" stroke="black" stroke-width="6" d="M91.92,-104.68C91.92,-92.4 91.92,-77.51 91.92,-64.12"/>
<polygon fill="black" stroke="black" stroke-width="6" points="97.17,-63.79 91.92,-53.79 86.67,-63.79 97.17,-63.79"/>
<text text-anchor="middle" x="107.92" y="-75.54" font-family="Times,serif" font-size="14.00">0.33</text>
</g>
<!-- godaddy.net -->
<g id="node6" class="node">
<title>godaddy.net</title>
<ellipse fill="#50c46a" stroke="black" cx="213.92" cy="-655.31" rx="72.66" ry="26.74"/>
<text text-anchor="middle" x="213.92" y="-659.11" font-family="Times,serif" font-size="14.00">godaddy.net</text>
<text text-anchor="middle" x="213.92" y="-644.11" font-family="Times,serif" font-size="14.00">(274)</text>
</g>
<!-- godaddy.net&#45;&gt;linkedin.com -->
<g id="edge15" class="edge">
<title>godaddy.net&#45;&gt;linkedin.com</title>
<path fill="none" stroke="black" stroke-width="1.26" d="M222.5,-628.39C226.65,-615.85 231.69,-600.62 236.19,-587.03"/>
<polygon fill="black" stroke="black" stroke-width="1.26" points="239.53,-588.08 239.35,-577.49 232.88,-585.88 239.53,-588.08"/>
<text text-anchor="middle" x="249.92" y="-599.24" font-family="Times,serif" font-size="14.00">0.02</text>
</g>
<!-- substack.com -->
<g id="node7" class="node">
<title>substack.com</title>
<ellipse fill="#28ae80" stroke="black" cx="524.92" cy="-655.31" rx="79.81" ry="26.74"/>
<text text-anchor="middle" x="524.92" y="-659.11" font-family="Times,serif" font-size="14.00">substack.com</text>
<text text-anchor="middle" x="524.92" y="-644.11" font-family="Times,serif" font-size="14.00">(367)</text>
</g>
<!-- substack.com&#45;&gt;linkedin.com -->
<g id="edge19" class="edge">
<title>substack.com&#45;&gt;linkedin.com</title>
<path fill="none" stroke="black" stroke-width="1.05" d="M470.34,-635.58C448.4,-627.94 422.9,-618.92 399.92,-610.44 368.92,-599 334.56,-585.74 306.37,-574.71"/>
<polygon fill="black" stroke="black" stroke-width="1.05" points="307.65,-571.45 297.06,-571.06 305.09,-577.97 307.65,-571.45"/>
<text text-anchor="middle" x="415.92" y="-599.24" font-family="Times,serif" font-size="14.00">0.00</text>
</g>
<!-- substack.com&#45;&gt;wikipedia.org -->
<g id="edge18" class="edge">
<title>substack.com&#45;&gt;wikipedia.org</title>
<path fill="none" stroke="black" stroke-width="1.09" d="M509.12,-628.79C502.46,-618.32 494.51,-606.16 486.92,-595.44 458.07,-554.67 422.6,-509.51 398.74,-479.8"/>
<polygon fill="black" stroke="black" stroke-width="1.09" points="401.33,-477.43 392.33,-471.84 395.88,-481.82 401.33,-477.43"/>
<text text-anchor="middle" x="488.92" y="-546.87" font-family="Times,serif" font-size="14.00">0.01</text>
</g>
<!-- substack.com&#45;&gt;zendesk.com -->
<g id="edge16" class="edge">
<title>substack.com&#45;&gt;zendesk.com</title>
<path fill="none" stroke="black" stroke-width="1" d="M549.81,-629.28C555.11,-623.35 560.45,-616.87 564.92,-610.44 580.03,-588.71 613.48,-507.78 613.92,-505.7 632.92,-416.46 586.24,-392.82 539.92,-314.22 530.44,-298.13 529.6,-291.37 513.92,-281.22 486.52,-263.48 452.43,-252.91 421.63,-246.62"/>
<polygon fill="black" stroke="black" stroke-width="1" points="422.24,-243.17 411.76,-244.72 420.92,-250.05 422.24,-243.17"/>
<text text-anchor="middle" x="633.92" y="-442.13" font-family="Times,serif" font-size="14.00">0.00</text>
</g>
<!-- substack.com&#45;&gt;beehiiv.com -->
<g id="edge17" class="edge">
<title>substack.com&#45;&gt;beehiiv.com</title>
<path fill="none" stroke="black" stroke-width="1" d="M539.09,-628.64C562.12,-583.12 601.32,-486.72 561.92,-418.96 546.46,-392.37 517.98,-374.21 491.15,-362.25"/>
<polygon fill="black" stroke="black" stroke-width="1" points="492.33,-358.95 481.76,-358.28 489.6,-365.4 492.33,-358.95"/>
<text text-anchor="middle" x="593.92" y="-494.5" font-family="Times,serif" font-size="14.00">0.00</text>
</g>
<!-- slack.com -->
<g id="node8" class="node">
<title>slack.com</title>
<ellipse fill="#27808e" stroke="black" cx="365.92" cy="-655.31" rx="60.62" ry="26.74"/>
<text text-anchor="middle" x="365.92" y="-659.11" font-family="Times,serif" font-size="14.00">slack.com</text>
<text text-anchor="middle" x="365.92" y="-644.11" font-family="Times,serif" font-size="14.00">(556)</text>
</g>
<!-- slack.com&#45;&gt;linkedin.com -->
<g id="edge21" class="edge">
<title>slack.com&#45;&gt;linkedin.com</title>
<path fill="none" stroke="black" stroke-width="1.51" d="M339.15,-631C322.76,-616.72 301.57,-598.28 283.75,-582.76"/>
<polygon fill="black" stroke="black" stroke-width="1.51" points="285.67,-579.79 275.83,-575.86 281.07,-585.07 285.67,-579.79"/>
<text text-anchor="middle" x="330.92" y="-599.24" font-family="Times,serif" font-size="14.00">0.03</text>
</g>
<!-- slack.com&#45;&gt;wikipedia.org -->
<g id="edge20" class="edge">
<title>slack.com&#45;&gt;wikipedia.org</title>
<path fill="none" stroke="black" stroke-width="1" d="M366.68,-628.03C367.75,-591.32 369.68,-524.53 370.87,-483.1"/>
<polygon fill="black" stroke="black" stroke-width="1" points="374.38,-482.99 371.17,-472.89 367.38,-482.79 374.38,-482.99"/>
<text text-anchor="middle" x="384.92" y="-546.87" font-family="Times,serif" font-size="14.00">0.00</text>
</g>
<!-- slack.com&#45;&gt;zendesk.com -->
<g id="edge22" class="edge">
<title>slack.com&#45;&gt;zendesk.com</title>
<path fill="none" stroke="black" stroke-width="1.05" d="M410.46,-636.93C418.86,-633.92 427.61,-630.95 435.92,-628.44 469.15,-618.41 487.37,-634.97 511.92,-610.44 530.95,-591.43 525.92,-578.46 525.92,-551.57 525.92,-551.57 525.92,-551.57 525.92,-340.09 525.92,-288.06 469.64,-262.2 418.83,-249.45"/>
<polygon fill="black" stroke="black" stroke-width="1.05" points="419.63,-246.04 409.09,-247.15 418.01,-252.86 419.63,-246.04"/>
<text text-anchor="middle" x="541.92" y="-442.13" font-family="Times,serif" font-size="14.00">0.00</text>
</g>
<!-- beehiiv.com&#45;&gt;linkedin.com -->
<g id="edge24" class="edge">
<title>beehiiv.com&#45;&gt;linkedin.com</title>
<path fill="none" stroke="black" stroke-width="2.27" d="M377.57,-360.51C328.2,-379.43 258.52,-407.64 250.92,-418.96 232.35,-446.64 234.11,-485.58 238.98,-513.73"/>
<polygon fill="black" stroke="black" stroke-width="2.27" points="235.55,-514.42 240.89,-523.57 242.43,-513.09 235.55,-514.42"/>
<text text-anchor="middle" x="266.92" y="-442.13" font-family="Times,serif" font-size="14.00">0.08</text>
</g>
<!-- beehiiv.com&#45;&gt;wikipedia.org -->
<g id="edge25" class="edge">
<title>beehiiv.com&#45;&gt;wikipedia.org</title>
<path fill="none" stroke="black" stroke-width="1.03" d="M387.86,-363.67C380.23,-369.82 373.25,-377.26 368.92,-385.96 365.47,-392.9 364.32,-400.9 364.42,-408.71"/>
<polygon fill="black" stroke="black" stroke-width="1.03" points="360.94,-409.06 365.18,-418.77 367.92,-408.53 360.94,-409.06"/>
<text text-anchor="middle" x="384.92" y="-389.76" font-family="Times,serif" font-size="14.00">0.00</text>
</g>
<!-- beehiiv.com&#45;&gt;zendesk.com -->
<g id="edge23" class="edge">
<title>beehiiv.com&#45;&gt;zendesk.com</title>
<path fill="none" stroke="black" stroke-width="1.06" d="M377.64,-321.71C366.28,-315.28 355.36,-306.91 347.92,-296.22 343.27,-289.54 340.63,-281.39 339.21,-273.32"/>
<polygon fill="black" stroke="black" stroke-width="1.06" points="342.66,-272.76 337.99,-263.25 335.71,-273.6 342.66,-272.76"/>
<text text-anchor="middle" x="363.92" y="-285.02" font-family="Times,serif" font-size="14.00">0.00</text>
</g>
</g>
</svg>
