<?xml version="1.0" encoding="UTF-8" standalone="no"?>
<!-- Created with Inkscape (http://www.inkscape.org/) -->

<svg
   xmlns:dc="http://purl.org/dc/elements/1.1/"
   xmlns:cc="http://creativecommons.org/ns#"
   xmlns:rdf="http://www.w3.org/1999/02/22-rdf-syntax-ns#"
   xmlns:svg="http://www.w3.org/2000/svg"
   xmlns="http://www.w3.org/2000/svg"
   xmlns:sodipodi="http://sodipodi.sourceforge.net/DTD/sodipodi-0.dtd"
   xmlns:inkscape="http://www.inkscape.org/namespaces/inkscape"
   width="237.85158mm"
   height="180.75551mm"
   viewBox="0 0 237.85158 180.75551"
   version="1.1"
   id="svg4674"
   inkscape:version="0.92.2 5c3e80d, 2017-08-06"
   sodipodi:docname="physical.svg">
  <defs
     id="defs4668" />
  <sodipodi:namedview
     id="base"
     pagecolor="#ffffff"
     bordercolor="#666666"
     borderopacity="1.0"
     inkscape:pageopacity="0.0"
     inkscape:pageshadow="2"
     inkscape:zoom="0.7"
     inkscape:cx="236.21477"
     inkscape:cy="187.98882"
     inkscape:document-units="mm"
     inkscape:current-layer="layer1"
     showgrid="false"
     inkscape:window-width="1920"
     inkscape:window-height="1016"
     inkscape:window-x="0"
     inkscape:window-y="27"
     inkscape:window-maximized="1"
     fit-margin-top="10"
     fit-margin-left="10"
     fit-margin-right="10"
     fit-margin-bottom="10" />
  <metadata
     id="metadata4671">
    <rdf:RDF>
      <cc:Work
         rdf:about="">
        <dc:format>image/svg+xml</dc:format>
        <dc:type
           rdf:resource="http://purl.org/dc/dcmitype/StillImage" />
        <dc:title />
      </cc:Work>
    </rdf:RDF>
  </metadata>
  <g
     inkscape:label="Layer 1"
     inkscape:groupmode="layer"
     id="layer1"
     transform="translate(71.706998,-4.0270033)">
    <rect
       style="fill:#011627;fill-opacity:1;stroke:#2ec4b6;stroke-width:1.32299995;stroke-miterlimit:4;stroke-dasharray:none;stroke-opacity:1"
       id="rect5243"
       width="216.52858"
       height="159.43251"
       x="-61.045498"
       y="14.688503"
       ry="13.607152" />
    <path
       style="fill:none;fill-rule:evenodd;stroke:#ff9f1c;stroke-width:2.64583325;stroke-linecap:butt;stroke-linejoin:miter;stroke-miterlimit:4;stroke-dasharray:none;stroke-opacity:1"
       d="M 128.26823,71.348213 V 129.00369"
       id="path6599"
       inkscape:connector-curvature="0"
       sodipodi:nodetypes="cc" />
    <rect
       y="37.779697"
       x="71.275009"
       height="37.653156"
       width="67.363091"
       id="rect5942"
       style="fill:#011627;fill-opacity:1;stroke:#2ec4b6;stroke-width:1.32291663;stroke-miterlimit:4;stroke-dasharray:none;stroke-opacity:1" />
    <g
       aria-label="node001"
       style="font-style:normal;font-weight:normal;font-size:4.23333311px;line-height:125%;font-family:sans-serif;letter-spacing:0px;word-spacing:0px;fill:#2ec4b6;fill-opacity:1;stroke:none;stroke-width:0.26458332px;stroke-linecap:butt;stroke-linejoin:miter;stroke-opacity:1"
       id="text5182">
      <path
         d="m 85.294644,49.422569 v 3.726216 h -1.014237 v -3.693143 q 0,-0.876432 -0.341753,-1.311892 -0.341754,-0.43546 -1.02526,-0.43546 -0.821311,0 -1.295356,0.523654 -0.474046,0.523655 -0.474046,1.427648 v 3.489193 h -1.019748 v -6.173611 h 1.019748 v 0.959114 q 0.363803,-0.556727 0.854384,-0.832335 0.496094,-0.275608 1.141016,-0.275608 1.063845,0 1.609548,0.661459 0.545704,0.655946 0.545704,1.934765 z"
         style="font-style:normal;font-size:11.28888893px;fill:#2ec4b6;fill-opacity:1;stroke-width:0.26458332px"
         id="path7336" />
      <path
         d="m 89.720902,47.686241 q -0.815798,0 -1.289844,0.63941 -0.474045,0.633898 -0.474045,1.74184 0,1.107943 0.468533,1.747353 0.474045,0.633897 1.295356,0.633897 0.810287,0 1.284332,-0.639409 0.474045,-0.63941 0.474045,-1.741841 0,-1.096918 -0.474045,-1.736328 -0.474045,-0.644922 -1.284332,-0.644922 z m 0,-0.859896 q 1.322917,0 2.078082,0.859896 0.755165,0.859896 0.755165,2.38125 0,1.515842 -0.755165,2.38125 -0.755165,0.859896 -2.078082,0.859896 -1.328429,0 -2.083594,-0.859896 -0.749652,-0.865408 -0.749652,-2.38125 0,-1.521354 0.749652,-2.38125 0.755165,-0.859896 2.083594,-0.859896 z"
         style="font-style:normal;font-size:11.28888893px;fill:#2ec4b6;fill-opacity:1;stroke-width:0.26458332px"
         id="path7338" />
      <path
         d="m 98.2923,47.912239 v -3.340364 h 1.014236 v 8.57691 H 98.2923 v -0.926042 q -0.319705,0.551215 -0.810287,0.821311 -0.485069,0.264583 -1.168576,0.264583 -1.118967,0 -1.824523,-0.892969 -0.700043,-0.892968 -0.700043,-2.348177 0,-1.455208 0.700043,-2.348177 0.705556,-0.892969 1.824523,-0.892969 0.683507,0 1.168576,0.270096 0.490582,0.264583 0.810287,0.815798 z m -3.45612,2.155252 q 0,1.118967 0.457508,1.758377 0.463021,0.633898 1.267796,0.633898 0.804774,0 1.267795,-0.633898 0.463021,-0.63941 0.463021,-1.758377 0,-1.118967 -0.463021,-1.752864 -0.463021,-0.63941 -1.267795,-0.63941 -0.804775,0 -1.267796,0.63941 -0.457508,0.633897 -0.457508,1.752864 z"
         style="font-style:normal;font-size:11.28888893px;fill:#2ec4b6;fill-opacity:1;stroke-width:0.26458332px"
         id="path7340" />
      <path
         d="m 106.67628,49.80842 v 0.496094 H 102.013 q 0.0661,1.047309 0.62839,1.598524 0.56775,0.545703 1.57647,0.545703 0.58429,0 1.13,-0.143316 0.55121,-0.143316 1.0914,-0.429948 v 0.959115 q -0.5457,0.23151 -1.11897,0.352778 -0.57326,0.121267 -1.16306,0.121267 -1.47726,0 -2.34266,-0.859896 -0.8599,-0.859896 -0.8599,-2.326128 0,-1.515842 0.8158,-2.403299 0.82131,-0.892969 2.21037,-0.892969 1.24575,0 1.96784,0.804775 0.7276,0.799262 0.7276,2.1773 z m -1.01423,-0.297656 q -0.011,-0.832335 -0.46853,-1.328429 -0.452,-0.496094 -1.20165,-0.496094 -0.84888,0 -1.36151,0.479558 -0.50711,0.479557 -0.58428,1.350477 z"
         style="font-style:normal;font-size:11.28888893px;fill:#2ec4b6;fill-opacity:1;stroke-width:0.26458332px"
         id="path7342" />
      <path
         d="m 110.86552,45.652257 q -0.8599,0 -1.29536,0.848871 -0.42994,0.84336 -0.42994,2.541103 0,1.692231 0.42994,2.541102 0.43546,0.84336 1.29536,0.84336 0.86541,0 1.29536,-0.84336 0.43546,-0.848871 0.43546,-2.541102 0,-1.697743 -0.43546,-2.541103 -0.42995,-0.848871 -1.29536,-0.848871 z m 0,-0.881945 q 1.38355,0 2.11116,1.096919 0.73311,1.091406 0.73311,3.175 0,2.078081 -0.73311,3.175 -0.72761,1.091406 -2.11116,1.091406 -1.38355,0 -2.11667,-1.091406 -0.7276,-1.096919 -0.7276,-3.175 0,-2.083594 0.7276,-3.175 0.73312,-1.096919 2.11667,-1.096919 z"
         style="font-style:normal;font-size:11.28888893px;fill:#2ec4b6;fill-opacity:1;stroke-width:0.26458332px"
         id="path7344" />
      <path
         d="m 118.05337,45.652257 q -0.8599,0 -1.29536,0.848871 -0.42995,0.84336 -0.42995,2.541103 0,1.692231 0.42995,2.541102 0.43546,0.84336 1.29536,0.84336 0.8654,0 1.29535,-0.84336 0.43546,-0.848871 0.43546,-2.541102 0,-1.697743 -0.43546,-2.541103 -0.42995,-0.848871 -1.29535,-0.848871 z m 0,-0.881945 q 1.38355,0 2.11115,1.096919 0.73312,1.091406 0.73312,3.175 0,2.078081 -0.73312,3.175 -0.7276,1.091406 -2.11115,1.091406 -1.38355,0 -2.11667,-1.091406 -0.7276,-1.096919 -0.7276,-3.175 0,-2.083594 0.7276,-3.175 0.73312,-1.096919 2.11667,-1.096919 z"
         style="font-style:normal;font-size:11.28888893px;fill:#2ec4b6;fill-opacity:1;stroke-width:0.26458332px"
         id="path7346" />
      <path
         d="m 123.05289,52.211719 h 1.81901 v -6.278342 l -1.97886,0.396875 v -1.014236 l 1.96783,-0.396875 h 1.11346 v 7.292578 h 1.81901 v 0.937066 h -4.74045 z"
         style="font-style:normal;font-size:11.28888893px;fill:#2ec4b6;fill-opacity:1;stroke-width:0.26458332px"
         id="path7348" />
    </g>
    <g
       aria-label="10.141.0.1"
       style="font-style:normal;font-weight:normal;font-size:4.23333311px;line-height:125%;font-family:sans-serif;letter-spacing:0px;word-spacing:0px;fill:#ff1654;fill-opacity:1;stroke:none;stroke-width:0.26458332px;stroke-linecap:butt;stroke-linejoin:miter;stroke-opacity:1"
       id="text5176">
      <path
         d="m 83.023004,66.74838 h 1.364257 v -4.708756 l -1.484147,0.297656 v -0.760677 l 1.475879,-0.297656 h 0.835091 v 5.469433 h 1.364258 v 0.7028 h -3.555338 z"
         style="font-style:normal;font-size:8.46666622px;fill:#ff1654;fill-opacity:1;stroke-width:0.26458332px"
         id="path7351" />
      <path
         d="m 90.055132,61.828784 q -0.644921,0 -0.971517,0.636654 -0.32246,0.632519 -0.32246,1.905826 0,1.269173 0.32246,1.905827 0.326596,0.63252 0.971517,0.63252 0.649056,0 0.971517,-0.63252 0.326595,-0.636654 0.326595,-1.905827 0,-1.273307 -0.326595,-1.905826 -0.322461,-0.636654 -0.971517,-0.636654 z m 0,-0.661458 q 1.037663,0 1.583366,0.822688 0.549837,0.818555 0.549837,2.38125 0,1.558561 -0.549837,2.38125 -0.545703,0.818555 -1.583366,0.818555 -1.037662,0 -1.5875,-0.818555 -0.545703,-0.822689 -0.545703,-2.38125 0,-1.562695 0.545703,-2.38125 0.549838,-0.822688 1.5875,-0.822688 z"
         style="font-style:normal;font-size:8.46666622px;fill:#ff1654;fill-opacity:1;stroke-width:0.26458332px"
         id="path7353" />
      <path
         d="m 93.66008,66.401114 h 0.872298 V 67.45118 H 93.66008 Z"
         style="font-style:normal;font-size:8.46666622px;fill:#ff1654;fill-opacity:1;stroke-width:0.26458332px"
         id="path7355" />
      <path
         d="m 96.500216,66.74838 h 1.364258 v -4.708756 l -1.484147,0.297656 v -0.760677 l 1.475879,-0.297656 h 0.835091 v 5.469433 h 1.364253 v 0.7028 h -3.555334 z"
         style="font-style:normal;font-size:8.46666622px;fill:#ff1654;fill-opacity:1;stroke-width:0.26458332px"
         id="path7357" />
      <path
         d="m 104.04084,62.006551 -2.1084,3.294889 h 2.1084 z m -0.21911,-0.727604 h 1.05007 v 4.022493 h 0.88057 v 0.694531 h -0.88057 v 1.455209 h -0.83096 v -1.455209 h -2.78639 v -0.806152 z"
         style="font-style:normal;font-size:8.46666622px;fill:#ff1654;fill-opacity:1;stroke-width:0.26458332px"
         id="path7359" />
      <path
         d="m 107.28199,66.74838 h 1.36425 v -4.708756 l -1.48414,0.297656 v -0.760677 l 1.47588,-0.297656 h 0.83509 v 5.469433 h 1.36426 v 0.7028 h -3.55534 z"
         style="font-style:normal;font-size:8.46666622px;fill:#ff1654;fill-opacity:1;stroke-width:0.26458332px"
         id="path7361" />
      <path
         d="m 112.52818,66.401114 h 0.8723 v 1.050066 h -0.8723 z"
         style="font-style:normal;font-size:8.46666622px;fill:#ff1654;fill-opacity:1;stroke-width:0.26458332px"
         id="path7363" />
      <path
         d="m 117.00956,61.828784 q -0.64492,0 -0.97152,0.636654 -0.32246,0.632519 -0.32246,1.905826 0,1.269173 0.32246,1.905827 0.3266,0.63252 0.97152,0.63252 0.64906,0 0.97152,-0.63252 0.32659,-0.636654 0.32659,-1.905827 0,-1.273307 -0.32659,-1.905826 -0.32246,-0.636654 -0.97152,-0.636654 z m 0,-0.661458 q 1.03766,0 1.58337,0.822688 0.54983,0.818555 0.54983,2.38125 0,1.558561 -0.54983,2.38125 -0.54571,0.818555 -1.58337,0.818555 -1.03766,0 -1.5875,-0.818555 -0.5457,-0.822689 -0.5457,-2.38125 0,-1.562695 0.5457,-2.38125 0.54984,-0.822688 1.5875,-0.822688 z"
         style="font-style:normal;font-size:8.46666622px;fill:#ff1654;fill-opacity:1;stroke-width:0.26458332px"
         id="path7365" />
      <path
         d="m 120.61451,66.401114 h 0.8723 v 1.050066 h -0.8723 z"
         style="font-style:normal;font-size:8.46666622px;fill:#ff1654;fill-opacity:1;stroke-width:0.26458332px"
         id="path7367" />
      <path
         d="m 123.45464,66.74838 h 1.36426 v -4.708756 l -1.48415,0.297656 v -0.760677 l 1.47588,-0.297656 h 0.83509 v 5.469433 h 1.36426 v 0.7028 h -3.55534 z"
         style="font-style:normal;font-size:8.46666622px;fill:#ff1654;fill-opacity:1;stroke-width:0.26458332px"
         id="path7369" />
    </g>
    <path
       sodipodi:nodetypes="cc"
       inkscape:connector-curvature="0"
       id="path1069"
       d="M 39.583964,106.23005 H 128.37634"
       style="fill:none;fill-rule:evenodd;stroke:#ff9f1c;stroke-width:2.64583325;stroke-linecap:butt;stroke-linejoin:miter;stroke-miterlimit:4;stroke-dasharray:none;stroke-opacity:1" />
    <rect
       y="85.026695"
       x="-43.569508"
       height="40.678703"
       width="89.784836"
       id="rect5946"
       style="fill:#011627;fill-opacity:1;stroke:#2ec4b6;stroke-width:1.32291663;stroke-miterlimit:4;stroke-dasharray:none;stroke-opacity:1" />
    <path
       sodipodi:nodetypes="cc"
       inkscape:connector-curvature="0"
       id="path6605"
       d="M 3.6937849,58.252006 V 102.8677"
       style="fill:none;fill-rule:evenodd;stroke:#ff9f1c;stroke-width:2.64583325;stroke-linecap:butt;stroke-linejoin:miter;stroke-miterlimit:4;stroke-dasharray:5.29166667, 2.64583333;stroke-dashoffset:0;stroke-opacity:1" />
    <g
       aria-label="head"
       style="font-style:normal;font-weight:normal;font-size:4.23333311px;line-height:125%;font-family:sans-serif;letter-spacing:0px;word-spacing:0px;fill:#2ec4b6;fill-opacity:1;stroke:none;stroke-width:0.26458332px;stroke-linecap:butt;stroke-linejoin:miter;stroke-opacity:1"
       id="text5950">
      <path
         d="m -27.389103,97.198734 v 3.726216 h -1.014236 v -3.693143 q 0,-0.876432 -0.341753,-1.311892 -0.341754,-0.43546 -1.025261,-0.43546 -0.821311,0 -1.295356,0.523654 -0.474045,0.523655 -0.474045,1.427648 v 3.489193 h -1.019748 v -8.57691 h 1.019748 v 3.362413 q 0.363802,-0.556727 0.854384,-0.832335 0.496094,-0.275608 1.141015,-0.275608 1.063846,0 1.609549,0.661459 0.545703,0.655946 0.545703,1.934765 z"
         style="font-style:normal;font-size:11.28888893px;fill:#2ec4b6;fill-opacity:1;stroke-width:0.26458332px"
         id="path7420" />
      <path
         d="m -20.074476,97.584585 v 0.496094 h -4.663281 q 0.06615,1.047309 0.628385,1.598524 0.567752,0.545707 1.576476,0.545707 0.584288,0 1.129991,-0.14332 0.551215,-0.143316 1.091406,-0.429948 v 0.959118 q -0.545703,0.23151 -1.118967,0.35277 -0.573264,0.12127 -1.163064,0.12127 -1.477257,0 -2.342665,-0.85989 -0.859896,-0.8599 -0.859896,-2.326132 0,-1.515842 0.815799,-2.403299 0.821311,-0.892969 2.210373,-0.892969 1.245747,0 1.967839,0.804775 0.727604,0.799262 0.727604,2.1773 z m -1.014236,-0.297656 q -0.01102,-0.832335 -0.468533,-1.328429 -0.451997,-0.496094 -1.201649,-0.496094 -0.848872,0 -1.361502,0.479558 -0.507118,0.479557 -0.584288,1.350477 z"
         style="font-style:normal;font-size:11.28888893px;fill:#2ec4b6;fill-opacity:1;stroke-width:0.26458332px"
         id="path7422" />
      <path
         d="m -15.604121,97.821608 q -1.22921,0 -1.703255,0.281119 -0.474045,0.28112 -0.474045,0.959115 0,0.540191 0.352778,0.859896 0.35829,0.314192 0.970139,0.314192 0.843359,0 1.350477,-0.595312 0.51263,-0.600825 0.51263,-1.593012 v -0.225998 z m 2.02296,-0.418924 v 3.522266 h -1.014236 v -0.937066 q -0.347265,0.562236 -0.865408,0.832336 -0.518142,0.26458 -1.267795,0.26458 -0.94809,0 -1.51033,-0.52916 -0.556727,-0.53468 -0.556727,-1.427652 0,-1.041797 0.694531,-1.570964 0.700044,-0.529166 2.083594,-0.529166 h 1.422135 v -0.09922 q 0,-0.700044 -0.46302,-1.080382 -0.457509,-0.385851 -1.289844,-0.385851 -0.529167,0 -1.030773,0.12678 -0.501606,0.126779 -0.964627,0.380338 v -0.937066 q 0.556728,-0.214974 1.080382,-0.319705 0.523655,-0.110243 1.019749,-0.110243 1.339453,0 2.000911,0.694532 0.661458,0.694531 0.661458,2.105642 z"
         style="font-style:normal;font-size:11.28888893px;fill:#2ec4b6;fill-opacity:1;stroke-width:0.26458332px"
         id="path7424" />
      <path
         d="M -7.4240862,95.688404 V 92.34804 h 1.0142361 v 8.57691 h -1.0142361 v -0.926042 q -0.3197049,0.551212 -0.8102865,0.821312 -0.4850694,0.26458 -1.1685764,0.26458 -1.1189669,0 -1.8245229,-0.89297 -0.700043,-0.892965 -0.700043,-2.348174 0,-1.455208 0.700043,-2.348177 0.705556,-0.892969 1.8245229,-0.892969 0.683507,0 1.1685764,0.270096 0.4905816,0.264583 0.8102865,0.815798 z m -3.4561198,2.155252 q 0,1.118967 0.457509,1.758377 0.4630205,0.633897 1.2677948,0.633897 0.8047743,0 1.2677951,-0.633897 0.4630209,-0.63941 0.4630209,-1.758377 0,-1.118967 -0.4630209,-1.752864 -0.4630208,-0.63941 -1.2677951,-0.63941 -0.8047743,0 -1.2677948,0.63941 -0.457509,0.633897 -0.457509,1.752864 z"
         style="font-style:normal;font-size:11.28888893px;fill:#2ec4b6;fill-opacity:1;stroke-width:0.26458332px"
         id="path7426" />
    </g>
    <g
       aria-label="10.141.255.254"
       style="font-style:normal;font-weight:normal;font-size:4.23333311px;line-height:125%;font-family:sans-serif;letter-spacing:0px;word-spacing:0px;fill:#ff1654;fill-opacity:1;stroke:none;stroke-width:0.26458332px;stroke-linecap:butt;stroke-linejoin:miter;stroke-opacity:1"
       id="text5954">
      <path
         d="m -38.337714,113.99541 h 1.364258 v -4.70875 l -1.484148,0.29765 v -0.76067 l 1.475879,-0.29766 h 0.835091 v 5.46943 h 1.364258 v 0.7028 h -3.555338 z"
         style="font-style:normal;font-size:8.46666622px;fill:#ff1654;fill-opacity:1;stroke-width:0.26458332px"
         id="path7391" />
      <path
         d="m -31.305585,109.07582 q -0.644922,0 -0.971517,0.63665 -0.322461,0.63252 -0.322461,1.90583 0,1.26917 0.322461,1.90582 0.326595,0.63252 0.971517,0.63252 0.649056,0 0.971516,-0.63252 0.326595,-0.63665 0.326595,-1.90582 0,-1.27331 -0.326595,-1.90583 -0.32246,-0.63665 -0.971516,-0.63665 z m 0,-0.66146 q 1.037662,0 1.583365,0.82269 0.549838,0.81855 0.549838,2.38125 0,1.55856 -0.549838,2.38125 -0.545703,0.81855 -1.583365,0.81855 -1.037663,0 -1.5875,-0.81855 -0.545703,-0.82269 -0.545703,-2.38125 0,-1.5627 0.545703,-2.38125 0.549837,-0.82269 1.5875,-0.82269 z"
         style="font-style:normal;font-size:8.46666622px;fill:#ff1654;fill-opacity:1;stroke-width:0.26458332px"
         id="path7393" />
      <path
         d="m -27.700637,113.64815 h 0.872298 v 1.05006 h -0.872298 z"
         style="font-style:normal;font-size:8.46666622px;fill:#ff1654;fill-opacity:1;stroke-width:0.26458332px"
         id="path7395" />
      <path
         d="m -24.860501,113.99541 h 1.364257 v -4.70875 l -1.484147,0.29765 v -0.76067 l 1.475879,-0.29766 h 0.835091 v 5.46943 h 1.364258 v 0.7028 h -3.555338 z"
         style="font-style:normal;font-size:8.46666622px;fill:#ff1654;fill-opacity:1;stroke-width:0.26458332px"
         id="path7397" />
      <path
         d="m -17.319876,109.25358 -2.108398,3.29489 h 2.108398 z m -0.219108,-0.7276 h 1.050065 v 4.02249 h 0.880567 v 0.69453 h -0.880567 v 1.45521 h -0.830957 V 113.243 h -2.786393 v -0.80615 z"
         style="font-style:normal;font-size:8.46666622px;fill:#ff1654;fill-opacity:1;stroke-width:0.26458332px"
         id="path7399" />
      <path
         d="m -14.078731,113.99541 h 1.364258 v -4.70875 l -1.484147,0.29765 v -0.76067 l 1.475879,-0.29766 h 0.835091 v 5.46943 h 1.364258 v 0.7028 h -3.555339 z"
         style="font-style:normal;font-size:8.46666622px;fill:#ff1654;fill-opacity:1;stroke-width:0.26458332px"
         id="path7401" />
      <path
         d="m -8.8325383,113.64815 h 0.8722982 v 1.05006 h -0.8722982 z"
         style="font-style:normal;font-size:8.46666622px;fill:#ff1654;fill-opacity:1;stroke-width:0.26458332px"
         id="path7403" />
      <path
         d="m -5.4177583,113.99541 h 2.9145507 v 0.7028 h -3.9191405 v -0.7028 q 0.4754232,-0.49196 1.2939778,-1.31878 0.8226888,-0.83096 1.0335286,-1.07074 0.4010091,-0.45061 0.5581055,-0.76067 0.1612304,-0.3142 0.1612304,-0.61599 0,-0.49196 -0.3472656,-0.80201 -0.3431315,-0.31006 -0.8971028,-0.31006 -0.3927409,0 -0.830957,0.13642 -0.434082,0.13643 -0.9301757,0.41341 v -0.84335 q 0.5043619,-0.20258 0.9425781,-0.30593 0.4382161,-0.10335 0.8020182,-0.10335 0.9591145,0 1.5296223,0.47956 0.5705077,0.47955 0.5705077,1.28157 0,0.38034 -0.144694,0.72347 -0.1405598,0.339 -0.5167642,0.80202 -0.1033529,0.11989 -0.6573242,0.69453 -0.5539714,0.57051 -1.5626953,1.5999 z"
         style="font-style:normal;font-size:8.46666622px;fill:#ff1654;fill-opacity:1;stroke-width:0.26458332px"
         id="path7405" />
      <path
         d="M -0.73794154,108.52598 H 2.5404112 v 0.7028 H 0.02686962 v 1.51308 q 0.18190103,-0.062 0.36380207,-0.091 0.18190103,-0.0331 0.36380206,-0.0331 1.03352855,0 1.63710925,0.56637 0.6035807,0.56638 0.6035807,1.53376 0,0.99632 -0.6201171,1.55029 -0.6201172,0.54984 -1.74873039,0.54984 -0.38860676,0 -0.79374996,-0.0661 -0.4010091,-0.0661 -0.83095699,-0.19844 v -0.83923 q 0.37207029,0.20257 0.76894527,0.30179 0.39687498,0.0992 0.83922522,0.0992 0.71520175,0 1.13274735,-0.3762 0.4175455,-0.37621 0.4175455,-1.02113 0,-0.64492 -0.4175455,-1.02113 -0.4175456,-0.3762 -1.13274735,-0.3762 -0.33486327,0 -0.66972653,0.0744 -0.33072915,0.0744 -0.67799476,0.23151 z"
         style="font-style:normal;font-size:8.46666622px;fill:#ff1654;fill-opacity:1;stroke-width:0.26458332px"
         id="path7407" />
      <path
         d="m 4.6529429,108.52598 h 3.2783527 v 0.7028 H 5.417754 v 1.51308 q 0.1819011,-0.062 0.3638021,-0.091 0.181901,-0.0331 0.363802,-0.0331 1.0335286,0 1.6371093,0.56637 0.6035807,0.56638 0.6035807,1.53376 0,0.99632 -0.6201171,1.55029 -0.6201172,0.54984 -1.7487304,0.54984 -0.3886067,0 -0.79375,-0.0661 -0.401009,-0.0661 -0.8309569,-0.19844 v -0.83923 q 0.3720703,0.20257 0.7689452,0.30179 0.396875,0.0992 0.8392252,0.0992 0.7152018,0 1.1327474,-0.3762 0.4175455,-0.37621 0.4175455,-1.02113 0,-0.64492 -0.4175455,-1.02113 -0.4175456,-0.3762 -1.1327474,-0.3762 -0.3348632,0 -0.6697265,0.0744 -0.3307291,0.0744 -0.6779947,0.23151 z"
         style="font-style:normal;font-size:8.46666622px;fill:#ff1654;fill-opacity:1;stroke-width:0.26458332px"
         id="path7409" />
      <path
         d="m 10.035559,113.64815 h 0.872298 v 1.05006 h -0.872298 z"
         style="font-style:normal;font-size:8.46666622px;fill:#ff1654;fill-opacity:1;stroke-width:0.26458332px"
         id="path7411" />
      <path
         d="m 13.450337,113.99541 h 2.914551 v 0.7028 h -3.919141 v -0.7028 q 0.475423,-0.49196 1.293978,-1.31878 0.822689,-0.83096 1.033529,-1.07074 0.401009,-0.45061 0.558105,-0.76067 0.161231,-0.3142 0.161231,-0.61599 0,-0.49196 -0.347266,-0.80201 -0.343131,-0.31006 -0.897103,-0.31006 -0.392741,0 -0.830957,0.13642 -0.434082,0.13643 -0.930176,0.41341 v -0.84335 q 0.504362,-0.20258 0.942579,-0.30593 0.438216,-0.10335 0.802018,-0.10335 0.959114,0 1.529622,0.47956 0.570508,0.47955 0.570508,1.28157 0,0.38034 -0.144694,0.72347 -0.14056,0.339 -0.516764,0.80202 -0.103353,0.11989 -0.657325,0.69453 -0.553971,0.57051 -1.562695,1.5999 z"
         style="font-style:normal;font-size:8.46666622px;fill:#ff1654;fill-opacity:1;stroke-width:0.26458332px"
         id="path7413" />
      <path
         d="m 18.130158,108.52598 h 3.278352 v 0.7028 h -2.513541 v 1.51308 q 0.181901,-0.062 0.363802,-0.091 0.181901,-0.0331 0.363802,-0.0331 1.033529,0 1.637109,0.56637 0.603581,0.56638 0.603581,1.53376 0,0.99632 -0.620117,1.55029 -0.620117,0.54984 -1.748731,0.54984 -0.388606,0 -0.79375,-0.0661 -0.401009,-0.0661 -0.830957,-0.19844 v -0.83923 q 0.372071,0.20257 0.768946,0.30179 0.396875,0.0992 0.839225,0.0992 0.715202,0 1.132747,-0.3762 0.417546,-0.37621 0.417546,-1.02113 0,-0.64492 -0.417546,-1.02113 -0.417545,-0.3762 -1.132747,-0.3762 -0.334863,0 -0.669727,0.0744 -0.330729,0.0744 -0.677994,0.23151 z"
         style="font-style:normal;font-size:8.46666622px;fill:#ff1654;fill-opacity:1;stroke-width:0.26458332px"
         id="path7415" />
      <path
         d="m 25.807207,109.25358 -2.108398,3.29489 h 2.108398 z m -0.219108,-0.7276 h 1.050065 v 4.02249 h 0.880567 v 0.69453 h -0.880567 v 1.45521 H 25.807207 V 113.243 h -2.786393 v -0.80615 z"
         style="font-style:normal;font-size:8.46666622px;fill:#ff1654;fill-opacity:1;stroke-width:0.26458332px"
         id="path7417" />
    </g>
    <rect
       style="fill:#011627;fill-opacity:1;stroke:#2ec4b6;stroke-width:1.32291663;stroke-miterlimit:4;stroke-dasharray:none;stroke-opacity:1"
       id="rect5956"
       width="67.363091"
       height="37.653156"
       x="70.519066"
       y="123.65586" />
    <g
       aria-label="node002"
       style="font-style:normal;font-weight:normal;font-size:4.23333311px;line-height:125%;font-family:sans-serif;letter-spacing:0px;word-spacing:0px;fill:#2ec4b6;fill-opacity:1;stroke:none;stroke-width:0.26458332px;stroke-linecap:butt;stroke-linejoin:miter;stroke-opacity:1"
       id="text5960">
      <path
         d="m 84.538708,135.29876 v 3.72622 h -1.014236 v -3.69314 q 0,-0.87644 -0.341754,-1.3119 -0.341753,-0.43546 -1.02526,-0.43546 -0.821311,0 -1.295356,0.52366 -0.474045,0.52365 -0.474045,1.42765 v 3.48919 h -1.019748 v -6.17361 h 1.019748 v 0.95911 q 0.363802,-0.55673 0.854383,-0.83233 0.496094,-0.27561 1.141016,-0.27561 1.063846,0 1.609549,0.66146 0.545703,0.65594 0.545703,1.93476 z"
         style="font-style:normal;font-size:11.28888893px;fill:#2ec4b6;fill-opacity:1;stroke-width:0.26458332px"
         id="path7321" />
      <path
         d="m 88.964967,133.56244 q -0.815799,0 -1.289844,0.6394 -0.474045,0.6339 -0.474045,1.74185 0,1.10794 0.468533,1.74735 0.474045,0.6339 1.295356,0.6339 0.810286,0 1.284331,-0.63941 0.474045,-0.63941 0.474045,-1.74184 0,-1.09692 -0.474045,-1.73633 -0.474045,-0.64492 -1.284331,-0.64492 z m 0,-0.8599 q 1.322916,0 2.078081,0.8599 0.755165,0.85989 0.755165,2.38125 0,1.51584 -0.755165,2.38125 -0.755165,0.85989 -2.078081,0.85989 -1.328429,0 -2.083594,-0.85989 -0.749653,-0.86541 -0.749653,-2.38125 0,-1.52136 0.749653,-2.38125 0.755165,-0.8599 2.083594,-0.8599 z"
         style="font-style:normal;font-size:11.28888893px;fill:#2ec4b6;fill-opacity:1;stroke-width:0.26458332px"
         id="path7323" />
      <path
         d="m 97.536364,133.78843 v -3.34036 H 98.5506 v 8.57691 h -1.014236 v -0.92604 q -0.319705,0.55121 -0.810287,0.82131 -0.485069,0.26458 -1.168576,0.26458 -1.118967,0 -1.824522,-0.89297 -0.700044,-0.89297 -0.700044,-2.34817 0,-1.45521 0.700044,-2.34818 0.705555,-0.89297 1.824522,-0.89297 0.683507,0 1.168576,0.27009 0.490582,0.26459 0.810287,0.8158 z m -3.45612,2.15526 q 0,1.11896 0.457509,1.75837 0.463021,0.6339 1.267795,0.6339 0.804774,0 1.267795,-0.6339 0.463021,-0.63941 0.463021,-1.75837 0,-1.11897 -0.463021,-1.75287 -0.463021,-0.63941 -1.267795,-0.63941 -0.804774,0 -1.267795,0.63941 -0.457509,0.6339 -0.457509,1.75287 z"
         style="font-style:normal;font-size:11.28888893px;fill:#2ec4b6;fill-opacity:1;stroke-width:0.26458332px"
         id="path7325" />
      <path
         d="m 105.92035,135.68461 v 0.4961 h -4.66328 q 0.0661,1.04731 0.62838,1.59852 0.56775,0.54571 1.57648,0.54571 0.58429,0 1.12999,-0.14332 0.55122,-0.14332 1.09141,-0.42995 v 0.95912 q -0.54571,0.23151 -1.11897,0.35277 -0.57326,0.12127 -1.16306,0.12127 -1.47726,0 -2.34267,-0.85989 -0.8599,-0.8599 -0.8599,-2.32613 0,-1.51585 0.8158,-2.4033 0.82131,-0.89297 2.21038,-0.89297 1.24574,0 1.96783,0.80477 0.72761,0.79927 0.72761,2.1773 z m -1.01424,-0.29765 q -0.011,-0.83234 -0.46853,-1.32843 -0.452,-0.49609 -1.20165,-0.49609 -0.84887,0 -1.3615,0.47955 -0.50712,0.47956 -0.58429,1.35048 z"
         style="font-style:normal;font-size:11.28888893px;fill:#2ec4b6;fill-opacity:1;stroke-width:0.26458332px"
         id="path7327" />
      <path
         d="m 110.10958,131.52845 q -0.85989,0 -1.29535,0.84887 -0.42995,0.84336 -0.42995,2.5411 0,1.69224 0.42995,2.54111 0.43546,0.84336 1.29535,0.84336 0.86541,0 1.29536,-0.84336 0.43546,-0.84887 0.43546,-2.54111 0,-1.69774 -0.43546,-2.5411 -0.42995,-0.84887 -1.29536,-0.84887 z m 0,-0.88194 q 1.38356,0 2.11116,1.09691 0.73312,1.09141 0.73312,3.175 0,2.07809 -0.73312,3.175 -0.7276,1.09141 -2.11116,1.09141 -1.38355,0 -2.11666,-1.09141 -0.72761,-1.09691 -0.72761,-3.175 0,-2.08359 0.72761,-3.175 0.73311,-1.09691 2.11666,-1.09691 z"
         style="font-style:normal;font-size:11.28888893px;fill:#2ec4b6;fill-opacity:1;stroke-width:0.26458332px"
         id="path7329" />
      <path
         d="m 117.29743,131.52845 q -0.8599,0 -1.29536,0.84887 -0.42994,0.84336 -0.42994,2.5411 0,1.69224 0.42994,2.54111 0.43546,0.84336 1.29536,0.84336 0.86541,0 1.29536,-0.84336 0.43546,-0.84887 0.43546,-2.54111 0,-1.69774 -0.43546,-2.5411 -0.42995,-0.84887 -1.29536,-0.84887 z m 0,-0.88194 q 1.38355,0 2.11115,1.09691 0.73312,1.09141 0.73312,3.175 0,2.07809 -0.73312,3.175 -0.7276,1.09141 -2.11115,1.09141 -1.38355,0 -2.11667,-1.09141 -0.7276,-1.09691 -0.7276,-3.175 0,-2.08359 0.7276,-3.175 0.73312,-1.09691 2.11667,-1.09691 z"
         style="font-style:normal;font-size:11.28888893px;fill:#2ec4b6;fill-opacity:1;stroke-width:0.26458332px"
         id="path7331" />
      <path
         d="m 123.06314,138.08791 h 3.88607 v 0.93707 h -5.22552 v -0.93707 q 0.6339,-0.65594 1.7253,-1.75837 1.09692,-1.10795 1.37804,-1.42765 0.53468,-0.60083 0.74414,-1.01424 0.21498,-0.41892 0.21498,-0.82131 0,-0.65594 -0.46303,-1.06936 -0.4575,-0.41341 -1.19613,-0.41341 -0.52366,0 -1.10795,0.1819 -0.57877,0.1819 -1.24023,0.55122 v -1.12448 q 0.67248,-0.2701 1.25677,-0.4079 0.58429,-0.1378 1.06936,-0.1378 1.27882,0 2.0395,0.63941 0.76067,0.63941 0.76067,1.70876 0,0.50712 -0.19292,0.96463 -0.18742,0.452 -0.68902,1.06936 -0.13781,0.15985 -0.87643,0.92604 -0.73863,0.76068 -2.0836,2.1332 z"
         style="font-style:normal;font-size:11.28888893px;fill:#2ec4b6;fill-opacity:1;stroke-width:0.26458332px"
         id="path7333" />
    </g>
    <g
       aria-label="10.141.0.2"
       style="font-style:normal;font-weight:normal;font-size:4.23333311px;line-height:125%;font-family:sans-serif;letter-spacing:0px;word-spacing:0px;fill:#ff1654;fill-opacity:1;stroke:none;stroke-width:0.26458332px;stroke-linecap:butt;stroke-linejoin:miter;stroke-opacity:1"
       id="text5964">
      <path
         d="m 82.267068,152.62461 h 1.364258 v -4.70876 l -1.484147,0.29766 v -0.76068 l 1.475878,-0.29765 h 0.835092 v 5.46943 h 1.364257 v 0.7028 h -3.555338 z"
         style="font-style:normal;font-size:8.46666622px;fill:#ff1654;fill-opacity:1;stroke-width:0.26458332px"
         id="path7300" />
      <path
         d="m 89.299197,147.70501 q -0.644922,0 -0.971517,0.63666 -0.322461,0.63252 -0.322461,1.90582 0,1.26918 0.322461,1.90583 0.326595,0.63252 0.971517,0.63252 0.649056,0 0.971517,-0.63252 0.326595,-0.63665 0.326595,-1.90583 0,-1.2733 -0.326595,-1.90582 -0.322461,-0.63666 -0.971517,-0.63666 z m 0,-0.66146 q 1.037662,0 1.583365,0.82269 0.549838,0.81856 0.549838,2.38125 0,1.55856 -0.549838,2.38125 -0.545703,0.81856 -1.583365,0.81856 -1.037663,0 -1.5875,-0.81856 -0.545703,-0.82269 -0.545703,-2.38125 0,-1.56269 0.545703,-2.38125 0.549837,-0.82269 1.5875,-0.82269 z"
         style="font-style:normal;font-size:8.46666622px;fill:#ff1654;fill-opacity:1;stroke-width:0.26458332px"
         id="path7302" />
      <path
         d="m 92.904145,152.27734 h 0.872298 v 1.05007 h -0.872298 z"
         style="font-style:normal;font-size:8.46666622px;fill:#ff1654;fill-opacity:1;stroke-width:0.26458332px"
         id="path7304" />
      <path
         d="m 95.744281,152.62461 h 1.364258 v -4.70876 l -1.484147,0.29766 v -0.76068 l 1.475878,-0.29765 h 0.835091 v 5.46943 h 1.364258 v 0.7028 h -3.555338 z"
         style="font-style:normal;font-size:8.46666622px;fill:#ff1654;fill-opacity:1;stroke-width:0.26458332px"
         id="path7306" />
      <path
         d="m 103.28491,147.88278 -2.1084,3.29489 h 2.1084 z m -0.21911,-0.7276 h 1.05006 v 4.02249 h 0.88057 v 0.69453 h -0.88057 v 1.45521 h -0.83095 v -1.45521 h -2.7864 v -0.80615 z"
         style="font-style:normal;font-size:8.46666622px;fill:#ff1654;fill-opacity:1;stroke-width:0.26458332px"
         id="path7308" />
      <path
         d="m 106.52605,152.62461 h 1.36426 v -4.70876 l -1.48415,0.29766 v -0.76068 l 1.47588,-0.29765 h 0.83509 v 5.46943 h 1.36426 v 0.7028 h -3.55534 z"
         style="font-style:normal;font-size:8.46666622px;fill:#ff1654;fill-opacity:1;stroke-width:0.26458332px"
         id="path7310" />
      <path
         d="m 111.77224,152.27734 h 0.8723 v 1.05007 h -0.8723 z"
         style="font-style:normal;font-size:8.46666622px;fill:#ff1654;fill-opacity:1;stroke-width:0.26458332px"
         id="path7312" />
      <path
         d="m 116.25363,147.70501 q -0.64493,0 -0.97152,0.63666 -0.32246,0.63252 -0.32246,1.90582 0,1.26918 0.32246,1.90583 0.32659,0.63252 0.97152,0.63252 0.64905,0 0.97151,-0.63252 0.3266,-0.63665 0.3266,-1.90583 0,-1.2733 -0.3266,-1.90582 -0.32246,-0.63666 -0.97151,-0.63666 z m 0,-0.66146 q 1.03766,0 1.58336,0.82269 0.54984,0.81856 0.54984,2.38125 0,1.55856 -0.54984,2.38125 -0.5457,0.81856 -1.58336,0.81856 -1.03767,0 -1.5875,-0.81856 -0.54571,-0.82269 -0.54571,-2.38125 0,-1.56269 0.54571,-2.38125 0.54983,-0.82269 1.5875,-0.82269 z"
         style="font-style:normal;font-size:8.46666622px;fill:#ff1654;fill-opacity:1;stroke-width:0.26458332px"
         id="path7314" />
      <path
         d="m 119.85857,152.27734 h 0.8723 v 1.05007 h -0.8723 z"
         style="font-style:normal;font-size:8.46666622px;fill:#ff1654;fill-opacity:1;stroke-width:0.26458332px"
         id="path7316" />
      <path
         d="m 123.27335,152.62461 h 2.91455 v 0.7028 h -3.91914 v -0.7028 q 0.47542,-0.49196 1.29398,-1.31878 0.82269,-0.83096 1.03353,-1.07074 0.40101,-0.45062 0.5581,-0.76068 0.16123,-0.31419 0.16123,-0.61598 0,-0.49196 -0.34726,-0.80202 -0.34313,-0.31006 -0.89711,-0.31006 -0.39274,0 -0.83095,0.13643 -0.43408,0.13642 -0.93018,0.41341 v -0.84336 q 0.50436,-0.20257 0.94258,-0.30592 0.43822,-0.10336 0.80202,-0.10336 0.95911,0 1.52962,0.47956 0.57051,0.47956 0.57051,1.28158 0,0.38034 -0.1447,0.72347 -0.14056,0.33899 -0.51676,0.80201 -0.10335,0.11989 -0.65732,0.69454 -0.55398,0.5705 -1.5627,1.5999 z"
         style="font-style:normal;font-size:8.46666622px;fill:#ff1654;fill-opacity:1;stroke-width:0.26458332px"
         id="path7318" />
    </g>
    <g
       aria-label="L2"
       style="font-style:normal;font-weight:normal;font-size:4.23333311px;line-height:125%;font-family:sans-serif;letter-spacing:0px;word-spacing:0px;fill:#ff9f1c;fill-opacity:1;stroke:none;stroke-width:0.26458332px;stroke-linecap:butt;stroke-linejoin:miter;stroke-opacity:1"
       id="text5284">
      <path
         d="m 44.866446,64.068139 h 1.113455 v 7.292578 h 4.007335 v 0.937066 h -5.12079 z"
         style="font-style:normal;font-size:11.28888893px;fill:#ff9f1c;fill-opacity:1;stroke-width:0.26458332px"
         id="path7429" />
      <path
         d="m 52.208633,71.360717 h 3.886068 v 0.937066 H 50.86918 v -0.937066 q 0.633897,-0.655946 1.725304,-1.758377 1.096918,-1.107943 1.378038,-1.427647 0.534679,-0.600825 0.744141,-1.014237 0.214974,-0.418923 0.214974,-0.82131 0,-0.655946 -0.463021,-1.069358 -0.457509,-0.413411 -1.196137,-0.413411 -0.523655,0 -1.107943,0.181901 -0.578776,0.181901 -1.240235,0.551215 v -1.124479 q 0.672483,-0.270096 1.256771,-0.4079 0.584288,-0.137803 1.069358,-0.137803 1.278819,0 2.039496,0.639409 0.760678,0.63941 0.760678,1.708768 0,0.507118 -0.192926,0.964626 -0.187413,0.451997 -0.689019,1.069358 -0.137804,0.159853 -0.876432,0.926042 -0.738629,0.760677 -2.083594,2.133203 z"
         style="font-style:normal;font-size:11.28888893px;fill:#ff9f1c;fill-opacity:1;stroke-width:0.26458332px"
         id="path7431" />
    </g>
    <g
       aria-label="NAT"
       style="font-style:normal;font-weight:normal;font-size:4.23333311px;line-height:125%;font-family:sans-serif;letter-spacing:0px;word-spacing:0px;fill:#ff9f1c;fill-opacity:1;stroke:none;stroke-width:0.26458332px;stroke-linecap:butt;stroke-linejoin:miter;stroke-opacity:1"
       id="text6595">
      <path
         d="m -6.4775137,45.240708 h 1.4993056 l 3.6490452,6.884679 v -6.884679 h 1.0803819 v 8.229644 h -1.4993056 l -3.6490451,-6.884679 v 6.884679 h -1.080382 z"
         style="font-style:normal;font-size:11.28888893px;fill:#ff9f1c;fill-opacity:1;stroke-width:0.26458332px"
         id="path7468" />
      <path
         d="m 4.7176688,46.337626 -1.5103299,4.09553 H 6.2335108 Z M 4.0892834,45.240708 h 1.262283 l 3.1364149,8.229644 H 7.3304292 L 6.5807765,51.359198 H 2.8710976 L 2.1214448,53.470352 H 0.9473563 Z"
         style="font-style:normal;font-size:11.28888893px;fill:#ff9f1c;fill-opacity:1;stroke-width:0.26458332px"
         id="path7470" />
      <path
         d="m 7.6611586,45.240708 h 6.9618494 v 0.937066 h -2.921441 v 7.292578 H 10.5826 V 46.177774 H 7.6611586 Z"
         style="font-style:normal;font-size:11.28888893px;fill:#ff9f1c;fill-opacity:1;stroke-width:0.26458332px"
         id="path7472" />
    </g>
    <g
       aria-label="10.141/16"
       style="font-style:normal;font-weight:normal;font-size:4.23333311px;line-height:125%;font-family:sans-serif;letter-spacing:0px;word-spacing:0px;fill:#ff1654;fill-opacity:1;stroke:none;stroke-width:0.26458332px;stroke-linecap:butt;stroke-linejoin:miter;stroke-opacity:1"
       id="text6574"
       transform="translate(1.6036172,-1.3363476)">
      <path
         d="m 67.345659,103.114 h 1.591634 v -5.493553 l -1.731505,0.347266 v -0.887457 l 1.721858,-0.347265 h 0.974273 V 103.114 h 1.591635 v 0.81993 h -4.147895 z"
         style="font-style:normal;font-size:9.87777805px;fill:#ff1654;fill-opacity:1;stroke-width:0.26458332px"
         id="path7372"
         inkscape:connector-curvature="0" />
      <path
         d="m 75.549809,97.374467 q -0.752408,0 -1.133436,0.742763 -0.376204,0.73794 -0.376204,2.22346 0,1.48071 0.376204,2.22347 0.381028,0.73794 1.133436,0.73794 0.757232,0 1.133437,-0.73794 0.381027,-0.74276 0.381027,-2.22347 0,-1.48552 -0.381027,-2.22346 -0.376205,-0.742763 -1.133437,-0.742763 z m 0,-0.771701 q 1.210607,0 1.847261,0.959804 0.641476,0.95498 0.641476,2.77812 0,1.81833 -0.641476,2.77813 -0.636654,0.95498 -1.847261,0.95498 -1.210606,0 -1.852083,-0.95498 -0.636654,-0.9598 -0.636654,-2.77813 0,-1.82314 0.636654,-2.77812 0.641477,-0.959804 1.852083,-0.959804 z"
         style="font-style:normal;font-size:9.87777805px;fill:#ff1654;fill-opacity:1;stroke-width:0.26458332px"
         id="path7374"
         inkscape:connector-curvature="0" />
      <path
         d="m 79.755582,102.70885 h 1.017682 v 1.22508 h -1.017682 z"
         style="font-style:normal;font-size:9.87777805px;fill:#ff1654;fill-opacity:1;stroke-width:0.26458332px"
         id="path7376"
         inkscape:connector-curvature="0" />
      <path
         d="m 83.069076,103.114 h 1.591634 v -5.493553 l -1.731505,0.347266 v -0.887457 l 1.721859,-0.347265 h 0.974273 V 103.114 h 1.591634 v 0.81993 h -4.147895 z"
         style="font-style:normal;font-size:9.87777805px;fill:#ff1654;fill-opacity:1;stroke-width:0.26458332px"
         id="path7378"
         inkscape:connector-curvature="0" />
      <path
         d="m 91.866471,97.581862 -2.459798,3.844038 h 2.459798 z m -0.255626,-0.848871 h 1.225076 v 4.692909 h 1.027328 v 0.81029 h -1.027328 v 1.69774 h -0.96945 v -1.69774 h -3.250792 v -0.94051 z"
         style="font-style:normal;font-size:9.87777805px;fill:#ff1654;fill-opacity:1;stroke-width:0.26458332px"
         id="path7380"
         inkscape:connector-curvature="0" />
      <path
         d="m 95.647809,103.114 h 1.591634 v -5.493553 l -1.731505,0.347266 v -0.887457 l 1.721859,-0.347265 H 98.20407 V 103.114 h 1.591634 v 0.81993 h -4.147895 z"
         style="font-style:normal;font-size:9.87777805px;fill:#ff1654;fill-opacity:1;stroke-width:0.26458332px"
         id="path7382"
         inkscape:connector-curvature="0" />
      <path
         d="m 103.22013,96.732991 h 0.81993 l -2.50803,8.117329 h -0.81993 z"
         style="font-style:normal;font-size:9.87777805px;fill:#ff1654;fill-opacity:1;stroke-width:0.26458332px"
         id="path7384"
         inkscape:connector-curvature="0" />
      <path
         d="m 105.27479,103.114 h 1.59163 v -5.493553 l -1.73151,0.347266 v -0.887457 l 1.72186,-0.347265 h 0.97428 V 103.114 h 1.59163 v 0.81993 h -4.14789 z"
         style="font-style:normal;font-size:9.87777805px;fill:#ff1654;fill-opacity:1;stroke-width:0.26458332px"
         id="path7386"
         inkscape:connector-curvature="0" />
      <path
         d="m 113.59951,99.945198 q -0.65594,0 -1.0418,0.448552 -0.38102,0.44855 -0.38102,1.2299 0,0.77652 0.38102,1.2299 0.38586,0.44855 1.0418,0.44855 0.65595,0 1.03698,-0.44855 0.38585,-0.45338 0.38585,-1.2299 0,-0.78135 -0.38585,-1.2299 -0.38103,-0.448552 -1.03698,-0.448552 z m 1.93408,-3.053044 v 0.887457 q -0.36656,-0.173633 -0.74276,-0.265273 -0.37139,-0.09164 -0.73794,-0.09164 -0.96463,0 -1.47588,0.651123 -0.50643,0.651123 -0.57878,1.967839 0.28457,-0.419613 0.71383,-0.641477 0.42925,-0.226688 0.94533,-0.226688 1.0852,0 1.71221,0.66077 0.63183,0.655945 0.63183,1.789385 0,1.10932 -0.65594,1.77973 -0.65595,0.67042 -1.74598,0.67042 -1.24919,0 -1.90996,-0.95498 -0.66077,-0.9598 -0.66077,-2.77813 0,-1.707386 0.81029,-2.720244 0.81028,-1.017681 2.17523,-1.017681 0.36656,0 0.73794,0.07235 0.37621,0.07235 0.78135,0.217041 z"
         style="font-style:normal;font-size:9.87777805px;fill:#ff1654;fill-opacity:1;stroke-width:0.26458332px"
         id="path7388"
         inkscape:connector-curvature="0" />
    </g>
    <g
       aria-label="external"
       style="font-style:normal;font-weight:normal;font-size:4.23333311px;line-height:125%;font-family:sans-serif;letter-spacing:0px;word-spacing:0px;fill:#2ec4b6;fill-opacity:1;stroke:none;stroke-width:0.26458332px;stroke-linecap:butt;stroke-linejoin:miter;stroke-opacity:1"
       id="text5950-3">
      <path
         d="m -45.256209,34.796743 v 0.496094 h -4.663281 q 0.06615,1.047309 0.628385,1.598524 0.567752,0.545703 1.576476,0.545703 0.584288,0 1.129991,-0.143316 0.551216,-0.143316 1.091407,-0.429947 v 0.959114 q -0.545703,0.231511 -1.118967,0.352778 -0.573264,0.121267 -1.163065,0.121267 -1.477256,0 -2.342664,-0.859896 -0.859896,-0.859895 -0.859896,-2.326128 0,-1.515842 0.815798,-2.403299 0.821311,-0.892968 2.210374,-0.892968 1.245746,0 1.967838,0.804774 0.727604,0.799262 0.727604,2.1773 z m -1.014236,-0.297656 q -0.01102,-0.832335 -0.468533,-1.328429 -0.451996,-0.496094 -1.201649,-0.496094 -0.848872,0 -1.361502,0.479558 -0.507118,0.479557 -0.584288,1.350477 z"
         style="font-style:normal;font-size:11.28888893px;fill:#2ec4b6;fill-opacity:1;stroke-width:0.26458332px"
         id="path7451" />
      <path
         d="m -38.658162,31.963497 -2.232422,3.004123 2.348177,3.169488 h -1.196137 l -1.796962,-2.425347 -1.796962,2.425347 h -1.196137 l 2.397787,-3.230122 -2.193837,-2.943489 h 1.196137 l 1.637109,2.199349 1.63711,-2.199349 z"
         style="font-style:normal;font-size:11.28888893px;fill:#2ec4b6;fill-opacity:1;stroke-width:0.26458332px"
         id="path7453" />
      <path
         d="m -36.106035,30.210632 v 1.752865 h 2.089106 v 0.788238 h -2.089106 v 3.351388 q 0,0.755165 0.20395,0.970139 0.209462,0.214974 0.843359,0.214974 h 1.041797 v 0.848872 h -1.041797 q -1.174088,0 -1.620572,-0.43546 -0.446485,-0.440972 -0.446485,-1.598525 v -3.351388 h -0.74414 v -0.788238 h 0.74414 v -1.752865 z"
         style="font-style:normal;font-size:11.28888893px;fill:#2ec4b6;fill-opacity:1;stroke-width:0.26458332px"
         id="path7455" />
      <path
         d="m -27.396834,34.796743 v 0.496094 h -4.663281 q 0.06615,1.047309 0.628385,1.598524 0.567752,0.545703 1.576476,0.545703 0.584288,0 1.129991,-0.143316 0.551216,-0.143316 1.091407,-0.429947 v 0.959114 q -0.545703,0.231511 -1.118967,0.352778 -0.573264,0.121267 -1.163065,0.121267 -1.477256,0 -2.342664,-0.859896 -0.859896,-0.859895 -0.859896,-2.326128 0,-1.515842 0.815798,-2.403299 0.821311,-0.892968 2.210374,-0.892968 1.245746,0 1.967838,0.804774 0.727604,0.799262 0.727604,2.1773 z m -1.014236,-0.297656 q -0.01102,-0.832335 -0.468533,-1.328429 -0.451996,-0.496094 -1.201649,-0.496094 -0.848872,0 -1.361502,0.479558 -0.507118,0.479557 -0.584288,1.350477 z"
         style="font-style:normal;font-size:11.28888893px;fill:#2ec4b6;fill-opacity:1;stroke-width:0.26458332px"
         id="path7457" />
      <path
         d="m -22.154776,32.911587 q -0.170877,-0.09922 -0.374827,-0.143316 -0.198437,-0.04961 -0.440972,-0.04961 -0.859896,0 -1.322917,0.562239 -0.457508,0.556728 -0.457508,1.604037 v 3.25217 h -1.019749 V 31.963497 H -24.751 v 0.959114 q 0.319704,-0.562239 0.832335,-0.832335 0.51263,-0.275607 1.245746,-0.275607 0.104731,0 0.231511,0.01654 0.126779,0.01102 0.281119,0.03858 z"
         style="font-style:normal;font-size:11.28888893px;fill:#2ec4b6;fill-opacity:1;stroke-width:0.26458332px"
         id="path7459" />
      <path
         d="m -16.14653,34.410893 v 3.726215 h -1.014236 v -3.693143 q 0,-0.876432 -0.341754,-1.311892 -0.341753,-0.43546 -1.02526,-0.43546 -0.821311,0 -1.295356,0.523655 -0.474045,0.523654 -0.474045,1.427647 v 3.489193 h -1.019748 v -6.173611 h 1.019748 v 0.959114 q 0.363802,-0.556727 0.854384,-0.832335 0.496093,-0.275607 1.141015,-0.275607 1.063846,0 1.609549,0.661458 0.545703,0.655946 0.545703,1.934766 z"
         style="font-style:normal;font-size:11.28888893px;fill:#2ec4b6;fill-opacity:1;stroke-width:0.26458332px"
         id="path7461" />
      <path
         d="m -11.30686,35.033766 q -1.22921,0 -1.703256,0.28112 -0.474045,0.281119 -0.474045,0.959114 0,0.540191 0.352778,0.859896 0.35829,0.314193 0.970139,0.314193 0.843359,0 1.350477,-0.595313 0.512631,-0.600824 0.512631,-1.593012 v -0.225998 z m 2.0229597,-0.418924 v 3.522266 h -1.0142357 v -0.937066 q -0.347266,0.562239 -0.865408,0.832335 -0.518143,0.264583 -1.267796,0.264583 -0.94809,0 -1.510329,-0.529166 -0.556728,-0.534679 -0.556728,-1.427648 0,-1.041797 0.694531,-1.570964 0.700044,-0.529166 2.083594,-0.529166 h 1.422136 v -0.09922 q 0,-0.700043 -0.463021,-1.080382 -0.457509,-0.385851 -1.289844,-0.385851 -0.529167,0 -1.030773,0.12678 -0.501605,0.126779 -0.964626,0.380338 v -0.937065 q 0.556727,-0.214974 1.080382,-0.319705 0.523654,-0.110243 1.019748,-0.110243 1.339453,0 2.0009114,0.694531 0.6614583,0.694531 0.6614583,2.105642 z"
         style="font-style:normal;font-size:11.28888893px;fill:#2ec4b6;fill-opacity:1;stroke-width:0.26458332px"
         id="path7463" />
      <path
         d="m -7.1892826,29.560198 h 1.0142362 v 8.57691 h -1.0142362 z"
         style="font-style:normal;font-size:11.28888893px;fill:#2ec4b6;fill-opacity:1;stroke-width:0.26458332px"
         id="path7465" />
    </g>
    <path
       style="fill:none;fill-rule:evenodd;stroke:#ff9f1c;stroke-width:2.64583325;stroke-linecap:butt;stroke-linejoin:miter;stroke-miterlimit:4;stroke-dasharray:5.29166667, 2.64583333;stroke-dashoffset:0;stroke-opacity:1"
       d="M 3.6937849,20.07641 V 41.173733"
       id="path6629"
       inkscape:connector-curvature="0"
       sodipodi:nodetypes="cc" />
    <g
       aria-label="internal"
       style="font-style:normal;font-weight:normal;font-size:4.23333311px;line-height:125%;font-family:sans-serif;letter-spacing:0px;word-spacing:0px;fill:#2ec4b6;fill-opacity:1;stroke:none;stroke-width:0.26458332px;stroke-linecap:butt;stroke-linejoin:miter;stroke-opacity:1"
       id="text6637">
      <path
         d="m 14.021486,31.963497 h 1.014236 v 6.173611 h -1.014236 z m 0,-2.403299 h 1.014236 v 1.284332 h -1.014236 z"
         style="font-style:normal;font-size:11.28888893px;fill:#2ec4b6;fill-opacity:1;stroke-width:0.26458332px"
         id="path7434" />
      <path
         d="m 22.284203,34.410893 v 3.726215 h -1.014236 v -3.693143 q 0,-0.876432 -0.341753,-1.311892 -0.341754,-0.43546 -1.025261,-0.43546 -0.821311,0 -1.295356,0.523655 -0.474045,0.523654 -0.474045,1.427647 v 3.489193 h -1.019748 v -6.173611 h 1.019748 v 0.959114 q 0.363802,-0.556727 0.854384,-0.832335 0.496094,-0.275607 1.141015,-0.275607 1.063846,0 1.609549,0.661458 0.545703,0.655946 0.545703,1.934766 z"
         style="font-style:normal;font-size:11.28888893px;fill:#2ec4b6;fill-opacity:1;stroke-width:0.26458332px"
         id="path7436" />
      <path
         d="m 25.321399,30.210632 v 1.752865 h 2.089106 v 0.788238 h -2.089106 v 3.351388 q 0,0.755165 0.20395,0.970139 0.209462,0.214974 0.843359,0.214974 h 1.041797 v 0.848872 h -1.041797 q -1.174088,0 -1.620573,-0.43546 -0.446484,-0.440972 -0.446484,-1.598525 V 32.751735 H 23.55751 v -0.788238 h 0.744141 v -1.752865 z"
         style="font-style:normal;font-size:11.28888893px;fill:#2ec4b6;fill-opacity:1;stroke-width:0.26458332px"
         id="path7438" />
      <path
         d="m 34.0306,34.796743 v 0.496094 h -4.663281 q 0.06615,1.047309 0.628385,1.598524 0.567752,0.545703 1.576476,0.545703 0.584288,0 1.129991,-0.143316 0.551216,-0.143316 1.091407,-0.429947 v 0.959114 q -0.545703,0.231511 -1.118967,0.352778 -0.573264,0.121267 -1.163065,0.121267 -1.477257,0 -2.342664,-0.859896 -0.859896,-0.859895 -0.859896,-2.326128 0,-1.515842 0.815798,-2.403299 0.821311,-0.892968 2.210374,-0.892968 1.245746,0 1.967838,0.804774 0.727604,0.799262 0.727604,2.1773 z m -1.014236,-0.297656 q -0.01102,-0.832335 -0.468533,-1.328429 -0.451996,-0.496094 -1.201649,-0.496094 -0.848872,0 -1.361502,0.479558 -0.507118,0.479557 -0.584288,1.350477 z"
         style="font-style:normal;font-size:11.28888893px;fill:#2ec4b6;fill-opacity:1;stroke-width:0.26458332px"
         id="path7440" />
      <path
         d="m 39.272658,32.911587 q -0.170877,-0.09922 -0.374827,-0.143316 -0.198437,-0.04961 -0.440972,-0.04961 -0.859896,0 -1.322917,0.562239 -0.457508,0.556728 -0.457508,1.604037 v 3.25217 h -1.019749 v -6.173611 h 1.019749 v 0.959114 q 0.319704,-0.562239 0.832335,-0.832335 0.51263,-0.275607 1.245746,-0.275607 0.104731,0 0.231511,0.01654 0.126779,0.01102 0.281119,0.03858 z"
         style="font-style:normal;font-size:11.28888893px;fill:#2ec4b6;fill-opacity:1;stroke-width:0.26458332px"
         id="path7442" />
      <path
         d="m 45.280904,34.410893 v 3.726215 h -1.014236 v -3.693143 q 0,-0.876432 -0.341754,-1.311892 -0.341753,-0.43546 -1.02526,-0.43546 -0.821311,0 -1.295356,0.523655 -0.474045,0.523654 -0.474045,1.427647 v 3.489193 h -1.019748 v -6.173611 h 1.019748 v 0.959114 q 0.363802,-0.556727 0.854384,-0.832335 0.496093,-0.275607 1.141015,-0.275607 1.063846,0 1.609549,0.661458 0.545703,0.655946 0.545703,1.934766 z"
         style="font-style:normal;font-size:11.28888893px;fill:#2ec4b6;fill-opacity:1;stroke-width:0.26458332px"
         id="path7444" />
      <path
         d="m 50.120576,35.033766 q -1.229211,0 -1.703256,0.28112 -0.474045,0.281119 -0.474045,0.959114 0,0.540191 0.352778,0.859896 0.35829,0.314193 0.970139,0.314193 0.843359,0 1.350477,-0.595313 0.512631,-0.600824 0.512631,-1.593012 v -0.225998 z m 2.02296,-0.418924 v 3.522266 H 51.1293 v -0.937066 q -0.347266,0.562239 -0.865408,0.832335 -0.518143,0.264583 -1.267796,0.264583 -0.94809,0 -1.510329,-0.529166 -0.556728,-0.534679 -0.556728,-1.427648 0,-1.041797 0.694531,-1.570964 0.700044,-0.529166 2.083594,-0.529166 H 51.1293 v -0.09922 q 0,-0.700043 -0.463021,-1.080382 -0.457509,-0.385851 -1.289844,-0.385851 -0.529167,0 -1.030773,0.12678 -0.501606,0.126779 -0.964626,0.380338 v -0.937065 q 0.556727,-0.214974 1.080382,-0.319705 0.523654,-0.110243 1.019748,-0.110243 1.339453,0 2.000911,0.694531 0.661459,0.694531 0.661459,2.105642 z"
         style="font-style:normal;font-size:11.28888893px;fill:#2ec4b6;fill-opacity:1;stroke-width:0.26458332px"
         id="path7446" />
      <path
         d="m 54.238153,29.560198 h 1.014236 v 8.57691 h -1.014236 z"
         style="font-style:normal;font-size:11.28888893px;fill:#2ec4b6;fill-opacity:1;stroke-width:0.26458332px"
         id="path7448" />
    </g>
    <path
       style="fill:none;fill-rule:evenodd;stroke:#ff9f1c;stroke-width:2.64583325;stroke-linecap:butt;stroke-linejoin:miter;stroke-miterlimit:4;stroke-dasharray:5.29166667, 2.64583333;stroke-dashoffset:0;stroke-opacity:1"
       d="m 3.6937849,120.16449 v 47.63964"
       id="path6639"
       inkscape:connector-curvature="0"
       sodipodi:nodetypes="cc" />
  </g>
</svg>
