<?xml version="1.0" encoding="UTF-8" standalone="no"?>
<!-- Created with Inkscape (http://www.inkscape.org/) -->

<svg
   xmlns:dc="http://purl.org/dc/elements/1.1/"
   xmlns:cc="http://creativecommons.org/ns#"
   xmlns:rdf="http://www.w3.org/1999/02/22-rdf-syntax-ns#"
   xmlns:svg="http://www.w3.org/2000/svg"
   xmlns="http://www.w3.org/2000/svg"
   xmlns:sodipodi="http://sodipodi.sourceforge.net/DTD/sodipodi-0.dtd"
   xmlns:inkscape="http://www.inkscape.org/namespaces/inkscape"
   width="224.96632mm"
   height="213.55165mm"
   viewBox="0 0 224.96632 213.55165"
   version="1.1"
   id="svg8"
   inkscape:version="0.92.1 r"
   sodipodi:docname="overview.svg">
  <defs
     id="defs2">
    <marker
       inkscape:isstock="true"
       style="overflow:visible"
       id="marker5056"
       refX="0"
       refY="0"
       orient="auto"
       inkscape:stockid="Arrow2Send">
      <path
         inkscape:connector-curvature="0"
         transform="matrix(-0.3,0,0,-0.3,0.69,0)"
         d="M 8.7185878,4.0337352 -2.2072895,0.01601326 8.7185884,-4.0017078 c -1.7454984,2.3720609 -1.7354408,5.6174519 -6e-7,8.035443 z"
         style="fill:#172441;fill-opacity:1;fill-rule:evenodd;stroke:#172441;stroke-width:0.625;stroke-linejoin:round;stroke-opacity:1"
         id="path5054" />
    </marker>
    <marker
       inkscape:isstock="true"
       style="overflow:visible"
       id="marker4980"
       refX="0"
       refY="0"
       orient="auto"
       inkscape:stockid="Arrow2Sstart">
      <path
         inkscape:connector-curvature="0"
         transform="matrix(0.3,0,0,0.3,-0.69,0)"
         d="M 8.7185878,4.0337352 -2.2072895,0.01601326 8.7185884,-4.0017078 c -1.7454984,2.3720609 -1.7354408,5.6174519 -6e-7,8.035443 z"
         style="fill:#172441;fill-opacity:1;fill-rule:evenodd;stroke:#172441;stroke-width:0.625;stroke-linejoin:round;stroke-opacity:1"
         id="path4978" />
    </marker>
    <inkscape:perspective
       sodipodi:type="inkscape:persp3d"
       inkscape:vp_x="0 : 106.77582 : 1"
       inkscape:vp_y="0 : 1000 : 0"
       inkscape:vp_z="224.96632 : 106.77582 : 1"
       inkscape:persp3d-origin="112.48316 : 71.183883 : 1"
       id="perspective4693" />
    <marker
       inkscape:stockid="Arrow2Sstart"
       orient="auto"
       refY="0"
       refX="0"
       id="marker4655"
       style="overflow:visible"
       inkscape:isstock="true">
      <path
         id="path4653"
         style="fill:#f5404f;fill-opacity:1;fill-rule:evenodd;stroke:#f5404f;stroke-width:0.625;stroke-linejoin:round;stroke-opacity:1"
         d="M 8.7185878,4.0337352 -2.2072895,0.01601326 8.7185884,-4.0017078 c -1.7454984,2.3720609 -1.7354408,5.6174519 -6e-7,8.035443 z"
         transform="matrix(0.3,0,0,0.3,-0.69,0)"
         inkscape:connector-curvature="0" />
    </marker>
    <marker
       inkscape:isstock="true"
       style="overflow:visible"
       id="marker4604"
       refX="0"
       refY="0"
       orient="auto"
       inkscape:stockid="Arrow2Sstart"
       inkscape:collect="always">
      <path
         inkscape:connector-curvature="0"
         transform="matrix(0.3,0,0,0.3,-0.69,0)"
         d="M 8.7185878,4.0337352 -2.2072895,0.01601326 8.7185884,-4.0017078 c -1.7454984,2.3720609 -1.7354408,5.6174519 -6e-7,8.035443 z"
         style="fill:#f5404f;fill-opacity:1;fill-rule:evenodd;stroke:#f5404f;stroke-width:0.625;stroke-linejoin:round;stroke-opacity:1"
         id="path4602" />
    </marker>
    <marker
       inkscape:stockid="Arrow2Send"
       orient="auto"
       refY="0"
       refX="0"
       id="Arrow2Send"
       style="overflow:visible"
       inkscape:isstock="true"
       inkscape:collect="always">
      <path
         id="path4668"
         style="fill:#172441;fill-opacity:1;fill-rule:evenodd;stroke:#172441;stroke-width:0.625;stroke-linejoin:round;stroke-opacity:1"
         d="M 8.7185878,4.0337352 -2.2072895,0.01601326 8.7185884,-4.0017078 c -1.7454984,2.3720609 -1.7354408,5.6174519 -6e-7,8.035443 z"
         transform="matrix(-0.3,0,0,-0.3,0.69,0)"
         inkscape:connector-curvature="0" />
    </marker>
    <marker
       inkscape:stockid="Arrow1Send"
       orient="auto"
       refY="0"
       refX="0"
       id="marker4961"
       style="overflow:visible"
       inkscape:isstock="true">
      <path
         id="path4959"
         d="M 0,0 5,-5 -12.5,0 5,5 Z"
         style="fill:#172441;fill-opacity:1;fill-rule:evenodd;stroke:#172441;stroke-width:1.00000003pt;stroke-opacity:1"
         transform="matrix(-0.2,0,0,-0.2,-1.2,0)"
         inkscape:connector-curvature="0" />
    </marker>
    <marker
       inkscape:stockid="Arrow1Send"
       orient="auto"
       refY="0"
       refX="0"
       id="Arrow1Send"
       style="overflow:visible"
       inkscape:isstock="true">
      <path
         id="path4650"
         d="M 0,0 5,-5 -12.5,0 5,5 Z"
         style="fill:#172441;fill-opacity:1;fill-rule:evenodd;stroke:#172441;stroke-width:1.00000003pt;stroke-opacity:1"
         transform="matrix(-0.2,0,0,-0.2,-1.2,0)"
         inkscape:connector-curvature="0" />
    </marker>
    <marker
       inkscape:stockid="Arrow2Sstart"
       orient="auto"
       refY="0"
       refX="0"
       id="marker5742"
       style="overflow:visible"
       inkscape:isstock="true"
       inkscape:collect="always">
      <path
         id="path5744"
         style="fill:#172441;fill-opacity:1;fill-rule:evenodd;stroke:#172441;stroke-width:0.625;stroke-linejoin:round;stroke-opacity:1"
         d="M 8.7185878,4.0337352 -2.2072895,0.01601326 8.7185884,-4.0017078 c -1.7454984,2.3720609 -1.7354408,5.6174519 -6e-7,8.035443 z"
         transform="matrix(0.3,0,0,0.3,-0.69,0)"
         inkscape:connector-curvature="0" />
    </marker>
    <marker
       inkscape:stockid="Arrow2Sstart"
       orient="auto"
       refY="0"
       refX="0"
       id="marker5742-5"
       style="overflow:visible"
       inkscape:isstock="true">
      <path
         id="path5744-3"
         style="fill:#172441;fill-opacity:1;fill-rule:evenodd;stroke:#172441;stroke-width:0.625;stroke-linejoin:round;stroke-opacity:1"
         d="M 8.7185878,4.0337352 -2.2072895,0.01601326 8.7185884,-4.0017078 c -1.7454984,2.3720609 -1.7354408,5.6174519 -6e-7,8.035443 z"
         transform="matrix(0.3,0,0,0.3,-0.69,0)"
         inkscape:connector-curvature="0" />
    </marker>
    <marker
       inkscape:stockid="Arrow2Send"
       orient="auto"
       refY="0"
       refX="0"
       id="Arrow2Send-5"
       style="overflow:visible"
       inkscape:isstock="true">
      <path
         inkscape:connector-curvature="0"
         id="path4668-6"
         style="fill:#172441;fill-opacity:1;fill-rule:evenodd;stroke:#172441;stroke-width:0.625;stroke-linejoin:round;stroke-opacity:1"
         d="M 8.7185878,4.0337352 -2.2072895,0.01601326 8.7185884,-4.0017078 c -1.7454984,2.3720609 -1.7354408,5.6174519 -6e-7,8.035443 z"
         transform="matrix(-0.3,0,0,-0.3,0.69,0)" />
    </marker>
    <marker
       inkscape:stockid="Arrow2Sstart"
       orient="auto"
       refY="0"
       refX="0"
       id="marker5742-3"
       style="overflow:visible"
       inkscape:isstock="true"
       inkscape:collect="always">
      <path
         id="path5744-6"
         style="fill:#f5404f;fill-opacity:1;fill-rule:evenodd;stroke:#f5404f;stroke-width:0.625;stroke-linejoin:round;stroke-opacity:1"
         d="M 8.7185878,4.0337352 -2.2072895,0.01601326 8.7185884,-4.0017078 c -1.7454984,2.3720609 -1.7354408,5.6174519 -6e-7,8.035443 z"
         transform="matrix(0.3,0,0,0.3,-0.69,0)"
         inkscape:connector-curvature="0" />
    </marker>
    <marker
       inkscape:stockid="Arrow2Send"
       orient="auto"
       refY="0"
       refX="0"
       id="Arrow2Send-7"
       style="overflow:visible"
       inkscape:isstock="true">
      <path
         id="path4668-5"
         style="fill:#172441;fill-opacity:1;fill-rule:evenodd;stroke:#172441;stroke-width:0.625;stroke-linejoin:round;stroke-opacity:1"
         d="M 8.7185878,4.0337352 -2.2072895,0.01601326 8.7185884,-4.0017078 c -1.7454984,2.3720609 -1.7354408,5.6174519 -6e-7,8.035443 z"
         transform="matrix(-0.3,0,0,-0.3,0.69,0)"
         inkscape:connector-curvature="0" />
    </marker>
    <clipPath
       clipPathUnits="userSpaceOnUse"
       id="clipPath4685">
      <path
         inkscape:connector-curvature="0"
         id="path4687"
         d="m 220.05446,13.849438 c 10.59563,0 23.11775,-7.9718029 23.11775,-7.9718029 0,0 -12.52212,-7.9718006 -23.11775,-7.9718006 h -0.97772 c -10.59566,0 -23.11778,7.9718006 -23.11778,7.9718006 0,0 12.52212,7.9718029 23.11778,7.9718029 z"
         style="fill:none;fill-rule:evenodd;stroke:#000000;stroke-width:1.32291663;stroke-linecap:butt;stroke-linejoin:miter;stroke-miterlimit:4;stroke-dasharray:none;stroke-opacity:1"
         sodipodi:nodetypes="ccccccc" />
    </clipPath>
  </defs>
  <sodipodi:namedview
     id="base"
     pagecolor="#ffffff"
     bordercolor="#666666"
     borderopacity="1.0"
     inkscape:pageopacity="0.0"
     inkscape:pageshadow="2"
     inkscape:zoom="0.64"
     inkscape:cx="253.49249"
     inkscape:cy="334.62224"
     inkscape:document-units="mm"
     inkscape:current-layer="layer1"
     showgrid="false"
     inkscape:window-width="1920"
     inkscape:window-height="1016"
     inkscape:window-x="0"
     inkscape:window-y="27"
     inkscape:window-maximized="1"
     inkscape:lockguides="false"
     fit-margin-top="5"
     fit-margin-left="5"
     fit-margin-right="5"
     fit-margin-bottom="5"
     inkscape:object-nodes="true">
    <inkscape:grid
       type="xygrid"
       id="grid4591"
       originx="69.573698"
       originy="-104.4641" />
  </sodipodi:namedview>
  <metadata
     id="metadata5">
    <rdf:RDF>
      <cc:Work
         rdf:about="">
        <dc:format>image/svg+xml</dc:format>
        <dc:type
           rdf:resource="http://purl.org/dc/dcmitype/StillImage" />
        <dc:title />
      </cc:Work>
    </rdf:RDF>
  </metadata>
  <g
     inkscape:label="Layer 1"
     inkscape:groupmode="layer"
     id="layer1"
     transform="translate(69.573699,21.01575)">
    <rect
       style="opacity:1;fill:#f5404f;fill-opacity:1;stroke:#172441;stroke-width:1.32291663;stroke-miterlimit:4;stroke-dasharray:none;stroke-opacity:1"
       id="rect4140-6"
       width="56.06855"
       height="36.464924"
       x="14.04603"
       y="76.072914" />
    <text
       xml:space="preserve"
       style="font-style:normal;font-weight:normal;font-size:7.05555534px;line-height:125%;font-family:sans-serif;letter-spacing:0px;word-spacing:0px;fill:#ffffff;fill-opacity:1;stroke:none;stroke-width:0.26458332px;stroke-linecap:butt;stroke-linejoin:miter;stroke-opacity:1"
       x="20.713823"
       y="97.987839"
       id="text4545"><tspan
         sodipodi:role="line"
         id="tspan4543"
         x="20.713823"
         y="97.987839"
         style="font-size:9.87777805px;fill:#ffffff;fill-opacity:1;stroke-width:0.26458332px">antifurto</tspan></text>
    <rect
       y="76.072914"
       x="108.47913"
       height="36.72382"
       width="36.014961"
       id="rect4547"
       style="opacity:1;fill:#f5404f;fill-opacity:1;stroke:#172441;stroke-width:1.32291663;stroke-miterlimit:4;stroke-dasharray:none;stroke-opacity:1" />
    <g
       aria-label="fcgi"
       style="font-style:normal;font-weight:normal;font-size:7.05555534px;line-height:125%;font-family:sans-serif;letter-spacing:0px;word-spacing:0px;fill:#ffffff;fill-opacity:1;stroke:none;stroke-width:0.26458332px;stroke-linecap:butt;stroke-linejoin:miter;stroke-opacity:1"
       id="text4551">
      <path
         d="m 121.53813,89.655101 v 0.737939 h -0.84888 q -0.47749,0 -0.66559,0.192925 -0.18328,0.192926 -0.18328,0.694532 v 0.47749 h 1.46141 v 0.689708 h -1.46141 v 4.712202 h -0.89228 v -4.712202 h -0.84887 v -0.689708 h 0.84887 v -0.376204 q 0,-0.901926 0.41961,-1.311893 0.41962,-0.414789 1.33119,-0.414789 z"
         style="font-size:9.87777805px;fill:#ffffff;fill-opacity:1;stroke-width:0.26458332px"
         id="path4943" />
      <path
         d="m 126.16351,91.965382 v 0.829579 q -0.3762,-0.207395 -0.75723,-0.308681 -0.37621,-0.106109 -0.76206,-0.106109 -0.86334,0 -1.34083,0.549837 -0.47749,0.545015 -0.47749,1.533757 0,0.988742 0.47749,1.53858 0.47749,0.545014 1.34083,0.545014 0.38585,0 0.76206,-0.101286 0.38103,-0.106109 0.75723,-0.313504 v 0.819933 q -0.37138,0.173633 -0.7717,0.260449 -0.3955,0.08682 -0.84405,0.08682 -1.22025,0 -1.9389,-0.766879 -0.71865,-0.766878 -0.71865,-2.069124 0,-1.321539 0.72347,-2.078771 0.7283,-0.757232 1.99196,-0.757232 0.40996,0 0.80064,0.08682 0.39067,0.08199 0.75723,0.250803 z"
         style="font-size:9.87777805px;fill:#ffffff;fill-opacity:1;stroke-width:0.26458332px"
         id="path4945" />
      <path
         d="m 131.27121,94.396241 q 0,-0.964627 -0.40032,-1.495171 -0.3955,-0.530545 -1.11415,-0.530545 -0.71382,0 -1.11414,0.530545 -0.3955,0.530544 -0.3955,1.495171 0,0.959804 0.3955,1.490349 0.40032,0.530544 1.11414,0.530544 0.71865,0 1.11415,-0.530544 0.40032,-0.530545 0.40032,-1.490349 z m 0.88746,2.09324 q 0,1.379417 -0.61254,2.049832 -0.61254,0.675239 -1.8762,0.675239 -0.46785,0 -0.88264,-0.07235 -0.41478,-0.06752 -0.80546,-0.212218 v -0.863341 q 0.39068,0.212218 0.7717,0.313504 0.38103,0.101286 0.77653,0.101286 0.87298,0 1.30707,-0.458198 0.43408,-0.453375 0.43408,-1.374593 v -0.438906 q -0.27492,0.477491 -0.70418,0.713824 -0.42926,0.236334 -1.02733,0.236334 -0.99356,0 -1.60128,-0.757232 -0.60771,-0.757232 -0.60771,-2.006424 0,-1.254015 0.60771,-2.011247 0.60772,-0.757232 1.60128,-0.757232 0.59807,0 1.02733,0.236334 0.42926,0.236333 0.70418,0.713824 v -0.819933 h 0.88746 z"
         style="font-size:9.87777805px;fill:#ffffff;fill-opacity:1;stroke-width:0.26458332px"
         id="path4947" />
      <path
         d="m 133.98663,91.757987 h 0.88746 v 5.40191 h -0.88746 z m 0,-2.102886 h 0.88746 v 1.12379 h -0.88746 z"
         style="font-size:9.87777805px;fill:#ffffff;fill-opacity:1;stroke-width:0.26458332px"
         id="path4949" />
    </g>
    <path
       style="fill:none;fill-rule:evenodd;stroke:#172441;stroke-width:2.82231045;stroke-linecap:butt;stroke-linejoin:miter;stroke-miterlimit:4;stroke-dasharray:none;stroke-opacity:1;marker-start:url(#marker5742);marker-end:url(#Arrow2Send)"
       d="M 74.951982,96.848049 H 103.82931"
       id="path5740"
       inkscape:connector-curvature="0"
       sodipodi:nodetypes="cc" />
    <g
       aria-label="zmq"
       style="font-style:normal;font-weight:normal;font-size:7.05555534px;line-height:125%;font-family:sans-serif;letter-spacing:0px;word-spacing:0px;fill:#172441;fill-opacity:1;stroke:none;stroke-width:0.26458332px;stroke-linecap:butt;stroke-linejoin:miter;stroke-opacity:1"
       id="text5657">
      <path
         d="m 82.980948,85.205801 h 3.011013 v 0.578776 l -2.384006,2.773302 h 2.384006 v 0.506429 H 82.89482 v -0.578776 l 2.384006,-2.773302 h -2.297878 z"
         style="fill:#172441;fill-opacity:1;stroke-width:0.26458332px"
         id="path4895" />
      <path
         d="m 89.967601,85.946497 q 0.237712,-0.427192 0.568441,-0.630453 0.330729,-0.20326 0.778591,-0.20326 0.602892,0 0.930176,0.423746 0.327284,0.420302 0.327284,1.198894 v 2.328884 H 91.93475 v -2.308214 q 0,-0.55466 -0.19637,-0.823378 -0.19637,-0.268717 -0.599447,-0.268717 -0.492648,0 -0.778591,0.327284 -0.285943,0.327284 -0.285943,0.89228 v 2.180745 h -0.637343 v -2.308214 q 0,-0.558105 -0.19637,-0.823378 -0.196371,-0.268717 -0.606337,-0.268717 -0.485758,0 -0.771701,0.330729 -0.285943,0.327284 -0.285943,0.888835 v 2.180745 h -0.637343 v -3.858507 h 0.637343 v 0.599447 q 0.217041,-0.354845 0.520209,-0.523655 0.303169,-0.168809 0.720025,-0.168809 0.420302,0 0.713135,0.213596 0.296278,0.213596 0.437527,0.620117 z"
         style="fill:#172441;fill-opacity:1;stroke-width:0.26458332px"
         id="path4897" />
      <path
         d="m 94.218849,87.1385 q 0,0.699354 0.285943,1.098985 0.289388,0.396186 0.792372,0.396186 0.502984,0 0.792372,-0.396186 0.289388,-0.399631 0.289388,-1.098985 0,-0.699355 -0.289388,-1.09554 -0.289388,-0.399632 -0.792372,-0.399632 -0.502984,0 -0.792372,0.399632 -0.285943,0.396185 -0.285943,1.09554 z m 2.160075,1.347032 q -0.199816,0.34451 -0.506429,0.513319 -0.303169,0.165365 -0.730361,0.165365 -0.699354,0 -1.140326,-0.558106 -0.437527,-0.558105 -0.437527,-1.46761 0,-0.909505 0.437527,-1.467611 0.440972,-0.558105 1.140326,-0.558105 0.427192,0 0.730361,0.168809 0.306613,0.165365 0.506429,0.509875 v -0.585667 h 0.633897 v 5.326118 h -0.633897 z"
         style="fill:#172441;fill-opacity:1;stroke-width:0.26458332px"
         id="path4899" />
    </g>
    <rect
       y="147.87413"
       x="55.95702"
       height="39.000313"
       width="57.267593"
       id="rect4547-3"
       style="opacity:1;fill:#172441;fill-opacity:1;stroke:#172441;stroke-width:1.32291663;stroke-miterlimit:4;stroke-dasharray:none;stroke-opacity:1" />
    <g
       aria-label="webserver"
       style="font-style:normal;font-weight:normal;font-size:7.05555534px;line-height:125%;font-family:sans-serif;letter-spacing:0px;word-spacing:0px;fill:#ffffff;fill-opacity:1;stroke:none;stroke-width:0.26458332px;stroke-linecap:butt;stroke-linejoin:miter;stroke-opacity:1"
       id="text4551-6">
      <path
         d="m 58.941389,165.65484 h 0.887457 l 1.109321,4.21542 1.104497,-4.21542 h 1.04662 l 1.109321,4.21542 1.104498,-4.21542 h 0.887457 l -1.413179,5.40191 h -1.04662 l -1.162375,-4.42764 -1.167198,4.42764 h -1.04662 z"
         style="font-size:9.87777805px;fill:#ffffff;fill-opacity:1;stroke-width:0.26458332px"
         id="path4902" />
      <path
         d="m 72.161599,168.13393 v 0.43408 h -4.080371 q 0.05788,0.9164 0.549837,1.39871 0.496783,0.47749 1.379417,0.47749 0.511252,0 0.988742,-0.1254 0.482313,-0.1254 0.954981,-0.37621 v 0.83923 q -0.477491,0.20257 -0.979097,0.30868 -0.501606,0.10611 -1.017681,0.10611 -1.2926,0 -2.049832,-0.75241 -0.752409,-0.75241 -0.752409,-2.03536 0,-1.32636 0.713824,-2.10289 0.718647,-0.78135 1.934077,-0.78135 1.090028,0 1.721859,0.70418 0.636653,0.69935 0.636653,1.90514 z m -0.887456,-0.26045 q -0.0096,-0.72829 -0.409967,-1.16238 -0.395497,-0.43408 -1.051443,-0.43408 -0.742762,0 -1.191314,0.41961 -0.443728,0.41962 -0.511252,1.18167 z"
         style="font-size:9.87777805px;fill:#ffffff;fill-opacity:1;stroke-width:0.26458332px"
         id="path4904" />
      <path
         d="m 77.495985,168.36062 q 0,-0.9791 -0.405143,-1.53376 -0.40032,-0.55948 -1.104498,-0.55948 -0.704177,0 -1.109321,0.55948 -0.40032,0.55466 -0.40032,1.53376 0,0.97909 0.40032,1.53858 0.405144,0.55466 1.109321,0.55466 0.704178,0 1.104498,-0.55466 0.405143,-0.55949 0.405143,-1.53858 z m -3.019282,-1.88585 q 0.279742,-0.48231 0.704178,-0.71382 0.429259,-0.23634 1.022504,-0.23634 0.98392,0 1.596458,0.78135 0.617361,0.78135 0.617361,2.05466 0,1.2733 -0.617361,2.05465 -0.612538,0.78135 -1.596458,0.78135 -0.593245,0 -1.022504,-0.23151 -0.424436,-0.23634 -0.704178,-0.71865 v 0.81029 h -0.892279 v -7.5048 h 0.892279 z"
         style="font-size:9.87777805px;fill:#ffffff;fill-opacity:1;stroke-width:0.26458332px"
         id="path4906" />
      <path
         d="m 83.331976,165.814 v 0.83923 q -0.376204,-0.19293 -0.781348,-0.28939 -0.405143,-0.0965 -0.839225,-0.0965 -0.660769,0 -0.993566,0.20257 -0.327973,0.20257 -0.327973,0.60771 0,0.30868 0.236334,0.48714 0.236334,0.17363 0.950157,0.33279 l 0.303858,0.0675 q 0.945334,0.20257 1.340831,0.57395 0.40032,0.36656 0.40032,1.02733 0,0.75241 -0.598069,1.19131 -0.593245,0.43891 -1.635042,0.43891 -0.434082,0 -0.906749,-0.0868 -0.467844,-0.082 -0.988743,-0.2508 v -0.9164 q 0.49196,0.25563 0.96945,0.38585 0.477491,0.12541 0.945335,0.12541 0.627007,0 0.964626,-0.21222 0.33762,-0.21704 0.33762,-0.60772 0,-0.36173 -0.24598,-0.55466 -0.241157,-0.19292 -1.065913,-0.37138 l -0.30868,-0.0724 q -0.824756,-0.17363 -1.191314,-0.53054 -0.366558,-0.36174 -0.366558,-0.98874 0,-0.76206 0.540191,-1.17685 0.540191,-0.41479 1.533756,-0.41479 0.49196,0 0.926042,0.0724 0.434082,0.0724 0.80064,0.21704 z"
         style="font-size:9.87777805px;fill:#ffffff;fill-opacity:1;stroke-width:0.26458332px"
         id="path4908" />
      <path
         d="m 89.659928,168.13393 v 0.43408 h -4.080371 q 0.05788,0.9164 0.549838,1.39871 0.496782,0.47749 1.379416,0.47749 0.511252,0 0.988742,-0.1254 0.482314,-0.1254 0.954981,-0.37621 v 0.83923 q -0.477491,0.20257 -0.979096,0.30868 -0.501606,0.10611 -1.017682,0.10611 -1.2926,0 -2.049832,-0.75241 -0.752408,-0.75241 -0.752408,-2.03536 0,-1.32636 0.713823,-2.10289 0.718647,-0.78135 1.934077,-0.78135 1.090028,0 1.721859,0.70418 0.636653,0.69935 0.636653,1.90514 z m -0.887456,-0.26045 q -0.0096,-0.72829 -0.409967,-1.16238 -0.395497,-0.43408 -1.051443,-0.43408 -0.742762,0 -1.191314,0.41961 -0.443728,0.41962 -0.511252,1.18167 z"
         style="font-size:9.87777805px;fill:#ffffff;fill-opacity:1;stroke-width:0.26458332px"
         id="path4910" />
      <path
         d="m 94.246729,166.48442 q -0.149518,-0.0868 -0.327974,-0.1254 -0.173632,-0.0434 -0.38585,-0.0434 -0.752409,0 -1.157552,0.49196 -0.40032,0.48713 -0.40032,1.40353 v 2.84565 h -0.89228 v -5.40191 h 0.89228 v 0.83922 q 0.279741,-0.49196 0.728293,-0.72829 0.448551,-0.24116 1.090028,-0.24116 0.09164,0 0.202572,0.0145 0.110932,0.01 0.245979,0.0338 z"
         style="font-size:9.87777805px;fill:#ffffff;fill-opacity:1;stroke-width:0.26458332px"
         id="path4912" />
      <path
         d="m 94.550586,165.65484 h 0.940511 l 1.688096,4.53374 1.688097,-4.53374 h 0.940511 l -2.025716,5.40191 h -1.205783 z"
         style="font-size:9.87777805px;fill:#ffffff;fill-opacity:1;stroke-width:0.26458332px"
         id="path4914" />
      <path
         d="m 105.65344,168.13393 v 0.43408 h -4.08037 q 0.0579,0.9164 0.54984,1.39871 0.49678,0.47749 1.37941,0.47749 0.51125,0 0.98874,-0.1254 0.48232,-0.1254 0.95498,-0.37621 v 0.83923 q -0.47749,0.20257 -0.97909,0.30868 -0.50161,0.10611 -1.01768,0.10611 -1.2926,0 -2.04983,-0.75241 -0.75241,-0.75241 -0.75241,-2.03536 0,-1.32636 0.71382,-2.10289 0.71865,-0.78135 1.93408,-0.78135 1.09003,0 1.72186,0.70418 0.63665,0.69935 0.63665,1.90514 z m -0.88746,-0.26045 q -0.01,-0.72829 -0.40996,-1.16238 -0.3955,-0.43408 -1.05145,-0.43408 -0.74276,0 -1.19131,0.41961 -0.44373,0.41962 -0.51125,1.18167 z"
         style="font-size:9.87777805px;fill:#ffffff;fill-opacity:1;stroke-width:0.26458332px"
         id="path4916" />
      <path
         d="m 110.24024,166.48442 q -0.14952,-0.0868 -0.32797,-0.1254 -0.17364,-0.0434 -0.38585,-0.0434 -0.75241,0 -1.15756,0.49196 -0.40032,0.48713 -0.40032,1.40353 v 2.84565 h -0.89228 v -5.40191 h 0.89228 v 0.83922 q 0.27975,-0.49196 0.7283,-0.72829 0.44855,-0.24116 1.09003,-0.24116 0.0916,0 0.20257,0.0145 0.11093,0.01 0.24598,0.0338 z"
         style="font-size:9.87777805px;fill:#ffffff;fill-opacity:1;stroke-width:0.26458332px"
         id="path4918" />
    </g>
    <path
       style="fill:none;fill-rule:evenodd;stroke:#172441;stroke-width:2.82231045;stroke-linecap:butt;stroke-linejoin:miter;stroke-miterlimit:4;stroke-dasharray:none;stroke-opacity:1;marker-start:url(#marker5742-5);marker-end:url(#Arrow2Send-5)"
       d="m 125.63109,117.34261 -23.30635,25.56612"
       id="path5740-2"
       inkscape:connector-curvature="0"
       sodipodi:nodetypes="cc" />
    <g
       aria-label="fcgi socket"
       style="font-style:normal;font-weight:normal;font-size:7.05555534px;line-height:125%;font-family:sans-serif;letter-spacing:0px;word-spacing:0px;fill:#172441;fill-opacity:1;stroke:none;stroke-width:0.26458332px;stroke-linecap:butt;stroke-linejoin:miter;stroke-opacity:1"
       id="text5657-9"
       transform="translate(-3.1750001,-1.0583333)">
      <path
         d="m 128.2531,131.32821 v 0.5271 h -0.60634 q -0.34106,0 -0.47542,0.13781 -0.13091,0.1378 -0.13091,0.49609 v 0.34106 h 1.04386 v 0.49265 h -1.04386 v 3.36586 h -0.63735 v -3.36586 h -0.60633 v -0.49265 h 0.60633 v -0.26871 q 0,-0.64424 0.29973,-0.93707 0.29972,-0.29628 0.95084,-0.29628 z"
         style="fill:#172441;fill-opacity:1;stroke-width:0.26458332px"
         id="path4921"
         inkscape:connector-curvature="0" />
      <path
         d="m 131.55695,132.97841 v 0.59256 q -0.26872,-0.14814 -0.54088,-0.22049 -0.26872,-0.0758 -0.54433,-0.0758 -0.61667,0 -0.95774,0.39274 -0.34106,0.3893 -0.34106,1.09554 0,0.70625 0.34106,1.09899 0.34107,0.38929 0.95774,0.38929 0.27561,0 0.54433,-0.0723 0.27216,-0.0758 0.54088,-0.22393 v 0.58566 q -0.26528,0.12403 -0.55122,0.18604 -0.2825,0.062 -0.60289,0.062 -0.87161,0 -1.38493,-0.54777 -0.51332,-0.54777 -0.51332,-1.47795 0,-0.94395 0.51677,-1.48483 0.5202,-0.54088 1.42282,-0.54088 0.29283,0 0.57189,0.062 0.27905,0.0586 0.54088,0.17914 z"
         style="fill:#172441;fill-opacity:1;stroke-width:0.26458332px"
         id="path4923"
         inkscape:connector-curvature="0" />
      <path
         d="m 135.2053,134.71474 q 0,-0.68902 -0.28594,-1.06798 -0.2825,-0.37896 -0.79582,-0.37896 -0.50987,0 -0.79582,0.37896 -0.28249,0.37896 -0.28249,1.06798 0,0.68558 0.28249,1.06454 0.28595,0.37896 0.79582,0.37896 0.51332,0 0.79582,-0.37896 0.28594,-0.37896 0.28594,-1.06454 z m 0.6339,1.49517 q 0,0.9853 -0.43753,1.46417 -0.43753,0.48231 -1.34014,0.48231 -0.33417,0 -0.63045,-0.0517 -0.29628,-0.0482 -0.57533,-0.15159 v -0.61667 q 0.27905,0.15158 0.55121,0.22393 0.27216,0.0724 0.55466,0.0724 0.62356,0 0.93362,-0.32729 0.31006,-0.32384 0.31006,-0.98185 v -0.3135 q -0.19637,0.34106 -0.50298,0.50987 -0.30662,0.16881 -0.73381,0.16881 -0.70969,0 -1.14377,-0.54088 -0.43408,-0.54088 -0.43408,-1.43316 0,-0.89572 0.43408,-1.4366 0.43408,-0.54088 1.14377,-0.54088 0.42719,0 0.73381,0.16881 0.30661,0.16881 0.50298,0.50987 v -0.58567 h 0.6339 z"
         style="fill:#172441;fill-opacity:1;stroke-width:0.26458332px"
         id="path4925"
         inkscape:connector-curvature="0" />
      <path
         d="m 137.14489,132.83027 h 0.6339 v 3.85851 h -0.6339 z m 0,-1.50206 h 0.6339 v 0.80271 h -0.6339 z"
         style="fill:#172441;fill-opacity:1;stroke-width:0.26458332px"
         id="path4927"
         inkscape:connector-curvature="0" />
      <path
         d="m 128.75953,141.76341 v 0.59944 q -0.26872,-0.1378 -0.55811,-0.2067 -0.28939,-0.0689 -0.59944,-0.0689 -0.47198,0 -0.70969,0.14469 -0.23427,0.1447 -0.23427,0.43408 0,0.22049 0.16881,0.34796 0.16881,0.12402 0.67868,0.23771 l 0.21704,0.0482 q 0.67524,0.14469 0.95774,0.40997 0.28594,0.26182 0.28594,0.7338 0,0.53744 -0.42719,0.85094 -0.42374,0.3135 -1.16789,0.3135 -0.31005,0 -0.64767,-0.062 -0.33418,-0.0586 -0.70625,-0.17914 v -0.65457 q 0.3514,0.18259 0.69247,0.27561 0.34106,0.0896 0.67524,0.0896 0.44786,0 0.68901,-0.15158 0.24116,-0.15503 0.24116,-0.43409 0,-0.25838 -0.1757,-0.39618 -0.17225,-0.13781 -0.76137,-0.26527 l -0.22048,-0.0517 q -0.58911,-0.12402 -0.85094,-0.37896 -0.26183,-0.25838 -0.26183,-0.70625 0,-0.54432 0.38585,-0.8406 0.38585,-0.29628 1.09554,-0.29628 0.3514,0 0.66146,0.0517 0.31006,0.0517 0.57189,0.15503 z"
         style="fill:#172441;fill-opacity:1;stroke-width:0.26458332px"
         id="path4929"
         inkscape:connector-curvature="0" />
      <path
         d="m 131.47426,142.09414 q -0.50987,0 -0.80615,0.39963 -0.29628,0.39618 -0.29628,1.08865 0,0.69246 0.29284,1.09209 0.29627,0.39619 0.80959,0.39619 0.50643,0 0.80271,-0.39963 0.29628,-0.39963 0.29628,-1.08865 0,-0.68558 -0.29628,-1.08521 -0.29628,-0.40307 -0.80271,-0.40307 z m 0,-0.53744 q 0.82683,0 1.2988,0.53744 0.47198,0.53743 0.47198,1.48828 0,0.9474 -0.47198,1.48828 -0.47197,0.53743 -1.2988,0.53743 -0.83026,0 -1.30224,-0.53743 -0.46854,-0.54088 -0.46854,-1.48828 0,-0.95085 0.46854,-1.48828 0.47198,-0.53744 1.30224,-0.53744 z"
         style="fill:#172441;fill-opacity:1;stroke-width:0.26458332px"
         id="path4931"
         inkscape:connector-curvature="0" />
      <path
         d="m 137.0691,141.79786 v 0.59256 q -0.26872,-0.14814 -0.54088,-0.22049 -0.26872,-0.0758 -0.54433,-0.0758 -0.61667,0 -0.95773,0.39274 -0.34107,0.38929 -0.34107,1.09554 0,0.70624 0.34107,1.09898 0.34106,0.3893 0.95773,0.3893 0.27561,0 0.54433,-0.0724 0.27216,-0.0758 0.54088,-0.22393 v 0.58567 q -0.26527,0.12402 -0.55122,0.18603 -0.28249,0.062 -0.60289,0.062 -0.87161,0 -1.38493,-0.54777 -0.51332,-0.54777 -0.51332,-1.47794 0,-0.94396 0.51677,-1.48484 0.52021,-0.54088 1.42282,-0.54088 0.29284,0 0.57189,0.062 0.27905,0.0586 0.54088,0.17915 z"
         style="fill:#172441;fill-opacity:1;stroke-width:0.26458332px"
         id="path4933"
         inkscape:connector-curvature="0" />
      <path
         d="m 138.1543,140.14766 h 0.63735 v 3.16604 l 1.89135,-1.66398 h 0.8096 l -2.04639,1.80523 2.13252,2.05328 h -0.82682 l -1.96026,-1.88447 v 1.88447 h -0.63735 z"
         style="fill:#172441;fill-opacity:1;stroke-width:0.26458332px"
         id="path4935"
         inkscape:connector-curvature="0" />
      <path
         d="m 145.32355,143.4205 v 0.31006 H 142.409 q 0.0413,0.65457 0.39274,0.99908 0.35484,0.34106 0.98529,0.34106 0.36518,0 0.70625,-0.0896 0.34451,-0.0896 0.68213,-0.26872 v 0.59945 q -0.34107,0.14469 -0.69936,0.22048 -0.35829,0.0758 -0.72691,0.0758 -0.92329,0 -1.46417,-0.53743 -0.53743,-0.53744 -0.53743,-1.45383 0,-0.9474 0.50987,-1.50206 0.51332,-0.55811 1.38149,-0.55811 0.77859,0 1.22989,0.50299 0.45476,0.49954 0.45476,1.36081 z m -0.6339,-0.18604 q -0.007,-0.52021 -0.29283,-0.83026 -0.2825,-0.31006 -0.75103,-0.31006 -0.53055,0 -0.85094,0.29972 -0.31695,0.29972 -0.36518,0.84405 z"
         style="fill:#172441;fill-opacity:1;stroke-width:0.26458332px"
         id="path4937"
         inkscape:connector-curvature="0" />
      <path
         d="m 146.99097,140.55418 v 1.09554 h 1.30569 v 0.49265 h -1.30569 v 2.09462 q 0,0.47197 0.12747,0.60633 0.13092,0.13436 0.5271,0.13436 h 0.65112 v 0.53055 h -0.65112 q -0.7338,0 -1.01286,-0.27217 -0.27905,-0.2756 -0.27905,-0.99907 v -2.09462 h -0.46509 v -0.49265 h 0.46509 v -1.09554 z"
         style="fill:#172441;fill-opacity:1;stroke-width:0.26458332px"
         id="path4939"
         inkscape:connector-curvature="0" />
    </g>
    <path
       sodipodi:nodetypes="cccccccccccc"
       inkscape:connector-curvature="0"
       id="path8599"
       d="m 23.797526,115.41742 6.7849,9.74643 1.903975,-3.43918 8.273715,11.99843 3.167759,-5.72197 8.761816,12.83046 -2.97739,5.3781 -7.612234,-10.94476 -3.167761,5.72196 -7.908155,-13.45118 -2.08218,3.76108 -5.144445,-15.87937"
       style="fill:#172441;fill-opacity:1;fill-rule:evenodd;stroke:#172441;stroke-width:1.05833328;stroke-linecap:butt;stroke-linejoin:miter;stroke-miterlimit:4;stroke-dasharray:none;stroke-opacity:1" />
    <g
       aria-label="POSIX signals"
       style="font-style:normal;font-weight:normal;font-size:7.05555534px;line-height:125%;font-family:sans-serif;letter-spacing:0px;word-spacing:0px;fill:#172441;fill-opacity:1;stroke:none;stroke-width:0.26458332px;stroke-linecap:butt;stroke-linejoin:miter;stroke-opacity:1"
       id="text8626">
      <path
         d="m 1.0675113,129.85826 v 1.9327 h 0.8750542 q 0.4857584,0 0.7510308,-0.25149 0.2652723,-0.2515 0.2652723,-0.71658 0,-0.46165 -0.2652723,-0.71314 -0.2652724,-0.25149 -0.7510308,-0.25149 z M 0.371602,129.28637 h 1.5709635 q 0.8647189,0 1.3056911,0.39274 0.4444173,0.3893 0.4444173,1.14378 0,0.76136 -0.4444173,1.15066 -0.4409722,0.38929 -1.3056911,0.38929 H 1.0675113 v 2.06706 H 0.371602 Z"
         style="fill:#172441;fill-opacity:1;stroke-width:0.26458332px"
         id="path4865" />
      <path
         d="m 6.7174675,129.75835 q -0.757921,0 -1.2057834,0.565 -0.4444173,0.56499 -0.4444173,1.53996 0,0.97151 0.4444173,1.53651 0.4478624,0.56499 1.2057834,0.56499 0.757921,0 1.1988932,-0.56499 0.4444173,-0.565 0.4444173,-1.53651 0,-0.97497 -0.4444173,-1.53996 -0.4409722,-0.565 -1.1988932,-0.565 z m 0,-0.56499 q 1.08176,0 1.7294379,0.72691 0.6476779,0.72347 0.6476779,1.94304 0,1.21611 -0.6476779,1.94303 -0.6476779,0.72347 -1.7294379,0.72347 -1.085205,0 -1.7363281,-0.72347 -0.6476779,-0.72347 -0.6476779,-1.94303 0,-1.21957 0.6476779,-1.94304 0.6511231,-0.72691 1.7363281,-0.72691 z"
         style="fill:#172441;fill-opacity:1;stroke-width:0.26458332px"
         id="path4867" />
      <path
         d="m 13.266595,129.45518 v 0.67869 q -0.396186,-0.18948 -0.747586,-0.2825 -0.3514,-0.093 -0.678684,-0.093 -0.568441,0 -0.878499,0.22049 -0.306614,0.22048 -0.306614,0.62701 0,0.34106 0.203261,0.51676 0.206706,0.17225 0.778591,0.27905 l 0.420302,0.0861 q 0.778592,0.14814 1.147217,0.52365 0.37207,0.37207 0.37207,0.99908 0,0.74759 -0.502984,1.13344 -0.499539,0.38585 -1.46761,0.38585 -0.365181,0 -0.778592,-0.0827 -0.409966,-0.0827 -0.8509386,-0.24461 v -0.71658 q 0.4237466,0.23772 0.8302676,0.35829 0.406522,0.12058 0.799263,0.12058 0.596001,0 0.91984,-0.23426 0.323839,-0.23427 0.323839,-0.66835 0,-0.37896 -0.234267,-0.59256 -0.230821,-0.21359 -0.761366,-0.32039 l -0.423746,-0.0827 q -0.778592,-0.15503 -1.126547,-0.48576 -0.3479541,-0.33073 -0.3479541,-0.91984 0,-0.68213 0.4788681,-1.07487 0.482313,-0.39274 1.326362,-0.39274 0.361735,0 0.73725,0.0654 0.375516,0.0655 0.768257,0.19637 z"
         style="fill:#172441;fill-opacity:1;stroke-width:0.26458332px"
         id="path4869" />
      <path
         d="m 14.661858,129.28637 h 0.695909 v 5.14353 h -0.695909 z"
         style="fill:#172441;fill-opacity:1;stroke-width:0.26458332px"
         id="path4871" />
      <path
         d="m 16.494649,129.28637 h 0.747586 l 1.27813,1.91203 1.285021,-1.91203 h 0.747585 l -1.653646,2.47014 1.763889,2.67339 h -0.747585 l -1.44694,-2.18763 -1.457276,2.18763 h -0.751031 l 1.836236,-2.74574 z"
         style="fill:#172441;fill-opacity:1;stroke-width:0.26458332px"
         id="path4873" />
      <path
         d="m 2.8038393,139.50453 v 0.59944 q -0.2687174,-0.1378 -0.5581054,-0.2067 -0.289388,-0.0689 -0.5994466,-0.0689 -0.4719781,0 -0.70968966,0.14469 -0.23426649,0.14469 -0.23426649,0.43408 0,0.22049 0.16880968,0.34796 0.16880967,0.12402 0.67868377,0.23771 l 0.217041,0.0482 q 0.6752387,0.14469 0.9577365,0.40997 0.285943,0.26182 0.285943,0.7338 0,0.53744 -0.4271919,0.85094 -0.4237467,0.3135 -1.1678873,0.3135 -0.3100586,0 -0.64767793,-0.062 -0.33417426,-0.0586 -0.70624456,-0.17914 v -0.65457 q 0.35139973,0.18259 0.69246418,0.27561 0.34106441,0.0896 0.67523871,0.0896 0.4478624,0 0.6890191,-0.15158 0.2411566,-0.15503 0.2411566,-0.43409 0,-0.25838 -0.1756998,-0.39618 -0.1722548,-0.13781 -0.7613661,-0.26528 L 1.20187,141.51991 q -0.58911133,-0.12403 -0.85093857,-0.37896 -0.26182725,-0.25838 -0.26182725,-0.70625 0,-0.54432 0.38585068,-0.8406 0.38585068,-0.29628 1.09554034,-0.29628 0.3513997,0 0.6614583,0.0517 0.3100586,0.0517 0.5718858,0.15503 z"
         style="fill:#172441;fill-opacity:1;stroke-width:0.26458332px"
         id="path4875" />
      <path
         d="m 4.0234031,139.39084 h 0.6338975 v 3.85851 H 4.0234031 Z m 0,-1.50206 h 0.6338975 v 0.8027 H 4.0234031 Z"
         style="fill:#172441;fill-opacity:1;stroke-width:0.26458332px"
         id="path4877" />
      <path
         d="m 8.5192526,141.27531 q 0,-0.68902 -0.2859429,-1.06798 -0.2824978,-0.37896 -0.795817,-0.37896 -0.5098741,0 -0.795817,0.37896 -0.2824979,0.37896 -0.2824979,1.06798 0,0.68557 0.2824979,1.06453 0.2859429,0.37896 0.795817,0.37896 0.5133192,0 0.795817,-0.37896 0.2859429,-0.37896 0.2859429,-1.06453 z m 0.6338976,1.49517 q 0,0.9853 -0.4375271,1.46416 -0.4375271,0.48232 -1.3401421,0.48232 -0.3341743,0 -0.6304525,-0.0517 -0.2962782,-0.0482 -0.5753309,-0.15158 v -0.61668 q 0.2790527,0.15159 0.5512153,0.22394 0.2721625,0.0723 0.5546603,0.0723 0.6235623,0 0.9336209,-0.32728 0.3100585,-0.32384 0.3100585,-0.98185 v -0.31351 q -0.1963704,0.34107 -0.5029839,0.50988 -0.3066135,0.16881 -0.7338053,0.16881 -0.7096897,0 -1.1437717,-0.54088 -0.434082,-0.54088 -0.434082,-1.43316 0,-0.89573 0.434082,-1.43661 0.434082,-0.54088 1.1437717,-0.54088 0.4271918,0 0.7338053,0.16881 0.3066135,0.16881 0.5029839,0.50988 v -0.58567 h 0.6338976 z"
         style="fill:#172441;fill-opacity:1;stroke-width:0.26458332px"
         id="path4879" />
      <path
         d="m 13.666225,140.92046 v 2.32889 h -0.633898 v -2.30822 q 0,-0.54777 -0.213596,-0.81993 -0.213596,-0.27216 -0.640788,-0.27216 -0.513319,0 -0.809597,0.32728 -0.296278,0.32729 -0.296278,0.89228 v 2.18075 h -0.637343 v -3.85851 h 0.637343 v 0.59945 q 0.227376,-0.34796 0.533989,-0.52021 0.310059,-0.17226 0.713135,-0.17226 0.664904,0 1.005968,0.41341 0.341065,0.40997 0.341065,1.20923 z"
         style="fill:#172441;fill-opacity:1;stroke-width:0.26458332px"
         id="path4881" />
      <path
         d="m 16.691019,141.30976 q -0.768257,0 -1.064535,0.1757 -0.296278,0.1757 -0.296278,0.59944 0,0.33762 0.220486,0.53744 0.223931,0.19637 0.606337,0.19637 0.527099,0 0.844048,-0.37207 0.320394,-0.37552 0.320394,-0.99563 v -0.14125 z m 1.26435,-0.26183 v 2.20142 h -0.633898 v -0.58567 q -0.217041,0.3514 -0.54088,0.52021 -0.323839,0.16536 -0.792372,0.16536 -0.592556,0 -0.943956,-0.33073 -0.347955,-0.33417 -0.347955,-0.89227 0,-0.65113 0.434082,-0.98186 0.437528,-0.33073 1.302246,-0.33073 h 0.888835 v -0.062 q 0,-0.43753 -0.289388,-0.67524 -0.285943,-0.24115 -0.806152,-0.24115 -0.330729,0 -0.644233,0.0792 -0.313504,0.0792 -0.602892,0.23772 v -0.58567 q 0.347955,-0.13436 0.675239,-0.19982 0.327284,-0.0689 0.637343,-0.0689 0.837158,0 1.250569,0.43408 0.413412,0.43409 0.413412,1.31603 z"
         style="fill:#172441;fill-opacity:1;stroke-width:0.26458332px"
         id="path4883" />
      <path
         d="m 19.264505,137.88878 h 0.633897 v 5.36057 h -0.633897 z"
         style="fill:#172441;fill-opacity:1;stroke-width:0.26458332px"
         id="path4885" />
      <path
         d="m 23.681117,139.50453 v 0.59944 q -0.268718,-0.1378 -0.558106,-0.2067 -0.289388,-0.0689 -0.599446,-0.0689 -0.471978,0 -0.70969,0.14469 -0.234266,0.14469 -0.234266,0.43408 0,0.22049 0.168809,0.34796 0.16881,0.12402 0.678684,0.23771 l 0.217041,0.0482 q 0.675239,0.14469 0.957737,0.40997 0.285942,0.26182 0.285942,0.7338 0,0.53744 -0.427191,0.85094 -0.423747,0.3135 -1.167888,0.3135 -0.310058,0 -0.647678,-0.062 -0.334174,-0.0586 -0.706244,-0.17914 v -0.65457 q 0.3514,0.18259 0.692464,0.27561 0.341064,0.0896 0.675239,0.0896 0.447862,0 0.689019,-0.15158 0.241156,-0.15503 0.241156,-0.43409 0,-0.25838 -0.175699,-0.39618 -0.172255,-0.13781 -0.761367,-0.26528 l -0.220486,-0.0517 q -0.589111,-0.12403 -0.850938,-0.37896 -0.261827,-0.25838 -0.261827,-0.70625 0,-0.54432 0.38585,-0.8406 0.385851,-0.29628 1.095541,-0.29628 0.351399,0 0.661458,0.0517 0.310058,0.0517 0.571886,0.15503 z"
         style="fill:#172441;fill-opacity:1;stroke-width:0.26458332px"
         id="path4887" />
    </g>
    <path
       cx="-53.423344"
       cy="40.979954"
       rx="19.425344"
       ry="7.5453815"
       style="fill:#59afe1;fill-opacity:1;stroke:#000000;stroke-width:1.32291663;stroke-miterlimit:4;stroke-dasharray:none;stroke-opacity:1"
       id="path4529"
       d=""
       inkscape:connector-curvature="0" />
    <path
       inkscape:connector-curvature="0"
       d="m -45.079799,90.7657 q 6.0157,0 11.24453,-1.09146 5.22884,-1.09145 8.24938,-3.2236 v 4.31506 q 0,1.7514 -2.61442,3.24898 -2.61441,1.49758 -7.10715,2.37328 -4.49274,0.87571 -9.77234,0.87571 -5.2796,0 -9.77233,-0.87571 -4.49274,-0.8757 -7.10715,-2.37328 -2.61442,-1.49758 -2.61442,-3.24898 v -4.31506 q 3.02054,2.13215 8.24937,3.2236 5.22884,1.09146 11.24453,1.09146 z m 0,19.49392 q 6.0157,0 11.24453,-1.09145 5.22884,-1.09146 8.24938,-3.22361 v 4.31506 q 0,1.75141 -2.61442,3.24899 -2.61441,1.49757 -7.10715,2.37328 -4.49274,0.8757 -9.77234,0.8757 -5.2796,0 -9.77233,-0.8757 -4.49274,-0.87571 -7.10715,-2.37328 -2.61442,-1.49758 -2.61442,-3.24899 v -4.31506 q 3.02054,2.13215 8.24937,3.22361 5.22884,1.09145 11.24453,1.09145 z m 0,-9.74697 q 6.0157,0 11.24453,-1.09146 5.22884,-1.09145 8.24938,-3.2236 v 4.31506 q 0,1.75142 -2.61442,3.249 -2.61441,1.49758 -7.10715,2.37328 -4.49274,0.87571 -9.77234,0.87571 -5.2796,0 -9.77233,-0.87571 -4.49274,-0.8757 -7.10715,-2.37328 -2.61442,-1.49758 -2.61442,-3.249 v -4.31506 q 3.02054,2.13215 8.24937,3.2236 5.22884,1.09146 11.24453,1.09146 z m 0,-29.240859 q 5.2796,0 9.77234,0.87571 4.49274,0.8757 7.10715,2.37328 2.61442,1.49758 2.61442,3.24898 v 3.24899 q 0,1.7514 -2.61442,3.248979 -2.61441,1.49758 -7.10715,2.37328 -4.49274,0.8757 -9.77234,0.8757 -5.2796,0 -9.77233,-0.8757 -4.49274,-0.8757 -7.10715,-2.37328 -2.61442,-1.497579 -2.61442,-3.248979 v -3.24899 q 0,-1.7514 2.61442,-3.24898 2.61441,-1.49758 7.10715,-2.37328 4.49273,-0.87571 9.77233,-0.87571 z"
       id="path4594"
       style="fill:#172441;fill-opacity:1;stroke-width:0.02538269" />
    <path
       style="fill:none;fill-rule:evenodd;stroke:#f5404f;stroke-width:2.82231045;stroke-linecap:butt;stroke-linejoin:miter;stroke-miterlimit:4;stroke-dasharray:none;stroke-opacity:1;marker-start:url(#marker5742-3)"
       d="M -16.876821,96.194975 H 12.000512"
       id="path5740-3"
       inkscape:connector-curvature="0"
       sodipodi:nodetypes="cc" />
    <g
       aria-label="HD"
       style="font-style:normal;font-weight:normal;font-size:10.58333302px;line-height:125%;font-family:sans-serif;letter-spacing:0px;word-spacing:0px;fill:#ffffff;fill-opacity:1;stroke:none;stroke-width:0.26458332px;stroke-linecap:butt;stroke-linejoin:miter;stroke-opacity:1"
       id="text4580">
      <path
         d="m -51.826603,74.583682 h 1.043864 v 3.162598 h 3.79305 v -3.162598 h 1.043864 v 7.715291 h -1.043864 v -3.674194 h -3.79305 v 3.674194 h -1.043864 z"
         style="fill:#ffffff;fill-opacity:1;stroke-width:0.26458332px"
         id="path4890" />
      <path
         d="m -42.824569,75.441511 v 5.999633 h 1.260905 q 1.596802,0 2.335775,-0.72347 0.744141,-0.72347 0.744141,-2.284098 0,-1.550293 -0.744141,-2.268595 -0.738973,-0.72347 -2.335775,-0.72347 z m -1.043864,-0.857829 h 2.144572 q 2.242757,0 3.291789,0.935343 1.049032,0.930176 1.049032,2.914551 0,1.99471 -1.0542,2.930054 -1.054199,0.935343 -3.286621,0.935343 h -2.144572 z"
         style="fill:#ffffff;fill-opacity:1;stroke-width:0.26458332px"
         id="path4892" />
    </g>
    <g
       id="XMLID_5_"
       transform="matrix(1.3474214,0,0,1.3474214,20.061928,-16.313406)"
       style="fill:#172441;fill-opacity:1">
      <g
         id="XMLID_6_"
         style="fill:#172441;fill-opacity:1">
        <polygon
           style="fill:#172441;fill-opacity:1"
           id="XMLID_11_"
           points="8.7,15.1 21.2,7.3 12.5,0 0,8.1 " />
        <polygon
           style="fill:#172441;fill-opacity:1"
           id="XMLID_10_"
           points="21.2,22.8 8.7,15.1 0,21.9 12.5,30.1 " />
        <polygon
           style="fill:#172441;fill-opacity:1"
           id="XMLID_9_"
           points="42.4,22 33.8,15.1 21.2,22.8 30,30.1 " />
        <polygon
           style="fill:#172441;fill-opacity:1"
           id="XMLID_8_"
           points="21.2,7.3 33.8,15.1 42.4,8.1 30,0 " />
        <polygon
           style="fill:#172441;fill-opacity:1"
           id="XMLID_7_"
           points="8.8,29.2 8.8,32 21.3,39.5 33.8,32 33.8,29.2 30,31.7 21.3,24.4 12.5,31.7 " />
      </g>
    </g>
    <path
       sodipodi:nodetypes="cc"
       inkscape:connector-curvature="0"
       id="path4600"
       d="M 43.877577,45.247315 V 74.124648"
       style="fill:none;fill-rule:evenodd;stroke:#f5404f;stroke-width:2.82231045;stroke-linecap:butt;stroke-linejoin:miter;stroke-miterlimit:4;stroke-dasharray:none;stroke-opacity:1;marker-start:url(#marker4604)" />
    <path
       style="fill:none;fill-rule:evenodd;stroke:#f5404f;stroke-width:2.82231045;stroke-linecap:butt;stroke-linejoin:miter;stroke-miterlimit:4;stroke-dasharray:none;stroke-opacity:1;marker-start:url(#marker4655)"
       d="M 2.7289986,63.615895 -23.375353,36.892639"
       id="path4651"
       inkscape:connector-curvature="0"
       sodipodi:nodetypes="cc" />
    <g
       id="g6759"
       transform="translate(-144.69401,-10.748698)">
      <circle
         r="11.36265"
         cy="30.753012"
         cx="116.21207"
         id="path4715"
         style="fill:#f5404f;fill-opacity:1;stroke:#172441;stroke-width:1.49206662;stroke-miterlimit:4;stroke-dasharray:none;stroke-opacity:1" />
      <path
         sodipodi:nodetypes="ccccccc"
         style="fill:none;fill-rule:evenodd;stroke:#172441;stroke-width:1.83270037;stroke-linecap:butt;stroke-linejoin:miter;stroke-miterlimit:4;stroke-dasharray:none;stroke-opacity:1"
         d="m 116.73253,43.255151 c 12.95,0 28.25457,-12.517899 28.25457,-12.517899 0,0 -15.30457,-12.517899 -28.25457,-12.517899 h -1.19498 c -12.95,0 -28.254615,12.517899 -28.254615,12.517899 0,0 15.304615,12.517899 28.254615,12.517899 z"
         id="path4689"
         inkscape:connector-curvature="0" />
      <path
         inkscape:connector-curvature="0"
         id="path4713"
         d="m 120.66255,30.753007 -2.22526,3.854255 h -4.45051 l -2.22524,-3.854255 2.22524,-3.854253 h 4.45051 z"
         inkscape:transform-center-y="1.3094038e-06"
         inkscape:transform-center-x="1.0290542e-05"
         style="fill:#172441;fill-opacity:1;stroke:#172441;stroke-width:1.52808523;stroke-miterlimit:4;stroke-dasharray:none;stroke-opacity:1" />
      <path
         sodipodi:nodetypes="czc"
         inkscape:connector-curvature="0"
         id="path4718"
         d="m 118.83338,26.361208 c 0,0 -1.7789,-0.237254 -4.45051,-0.120033 -2.67161,0.117227 -7.07736,0.358979 -9.20408,1.522959"
         style="fill:none;fill-rule:evenodd;stroke:#172441;stroke-width:0.55952501;stroke-linecap:butt;stroke-linejoin:miter;stroke-miterlimit:4;stroke-dasharray:none;stroke-opacity:1" />
      <path
         style="fill:none;fill-rule:evenodd;stroke:#172441;stroke-width:0.55952501;stroke-linecap:butt;stroke-linejoin:miter;stroke-miterlimit:4;stroke-dasharray:none;stroke-opacity:1"
         d="m 113.77612,26.244453 c 0,0 -1.13175,1.3928 -2.42772,3.731968 -1.29596,2.339172 -3.39183,6.222007 -3.51058,8.643515"
         id="path4720"
         inkscape:connector-curvature="0"
         sodipodi:nodetypes="czc" />
      <path
         style="fill:none;fill-rule:evenodd;stroke:#172441;stroke-width:0.55952501;stroke-linecap:butt;stroke-linejoin:miter;stroke-miterlimit:4;stroke-dasharray:none;stroke-opacity:1"
         d="m 111.0092,30.78771 c 0,0 0.73298,1.638143 2.23664,3.849528 1.5037,2.211374 4.02462,5.832689 6.13254,7.030412"
         id="path4722"
         inkscape:connector-curvature="0"
         sodipodi:nodetypes="czc" />
      <path
         sodipodi:nodetypes="czc"
         inkscape:connector-curvature="0"
         id="path4724"
         d="m 113.5675,35.151721 c 0,0 1.77972,0.230963 4.45089,0.104313 2.67118,-0.126673 7.07605,-0.383976 9.19865,-1.555457"
         style="fill:none;fill-rule:evenodd;stroke:#172441;stroke-width:0.55952501;stroke-linecap:butt;stroke-linejoin:miter;stroke-miterlimit:4;stroke-dasharray:none;stroke-opacity:1" />
      <path
         sodipodi:nodetypes="czc"
         inkscape:connector-curvature="0"
         id="path4726"
         d="m 119.12513,35.28857 c 0,0 1.02335,-1.474276 2.13905,-3.904607 1.11565,-2.430346 2.91239,-6.460319 2.84799,-8.883896"
         style="fill:none;fill-rule:evenodd;stroke:#172441;stroke-width:0.55952501;stroke-linecap:butt;stroke-linejoin:miter;stroke-miterlimit:4;stroke-dasharray:none;stroke-opacity:1" />
      <path
         style="fill:none;fill-rule:evenodd;stroke:#172441;stroke-width:0.55952501;stroke-linecap:butt;stroke-linejoin:miter;stroke-miterlimit:4;stroke-dasharray:none;stroke-opacity:1"
         d="m 121.53832,30.842661 c 0,0 -0.72233,-1.64287 -2.21158,-3.863967 -1.4893,-2.221101 -3.98661,-5.858741 -6.08669,-7.070142"
         id="path4728"
         inkscape:connector-curvature="0"
         sodipodi:nodetypes="czc" />
    </g>
    <g
       aria-label="pictures"
       transform="rotate(-167.36086,-41.000578,72.763964)"
       style="font-style:normal;font-weight:normal;font-size:9.87777805px;line-height:125%;font-family:sans-serif;letter-spacing:0px;word-spacing:0px;fill:#f5404f;fill-opacity:1;stroke:none;stroke-width:0.26458332px;stroke-linecap:butt;stroke-linejoin:miter;stroke-opacity:1"
       id="text4841">
      <path
         d="m -84.039385,67.983368 -2.877051,-0.327553 0.102015,-0.896051 7.488083,0.852519 -0.102015,0.896051 -0.823399,-0.09374 q 0.452369,0.336068 0.636332,0.788767 0.188255,0.458093 0.120428,1.053846 -0.112493,0.988079 -0.967175,1.513873 -0.855234,0.530638 -2.133924,0.385059 -1.278689,-0.145578 -1.992756,-0.854882 -0.714618,-0.704459 -0.602125,-1.692538 0.06783,-0.595753 0.349393,-1.000357 0.285859,-0.39921 0.802194,-0.62499 z m 1.548618,3.247655 q 0.983235,0.111941 1.58656,-0.231499 0.607618,-0.338046 0.688127,-1.0452 0.08051,-0.707154 -0.435018,-1.177976 -0.511236,-0.465428 -1.49447,-0.577369 -0.983235,-0.111941 -1.590852,0.226104 -0.603326,0.343441 -0.683835,1.050595 -0.08051,0.707154 0.430726,1.172581 0.515528,0.470823 1.498762,0.582764 z"
         style="font-size:9.98361111px;fill:#f5404f;fill-opacity:1;stroke-width:0.26458332px"
         id="path4848"
         inkscape:connector-curvature="0" />
      <path
         d="m -80.518489,74.775545 -0.24626,0.862498 -5.249986,-1.498973 0.24626,-0.862498 z m 2.043745,0.583529 -0.24626,0.862498 -1.092185,-0.31184 0.24626,-0.862498 z"
         style="font-size:9.98361111px;fill:#f5404f;fill-opacity:1;stroke-width:0.26458332px"
         id="path4850"
         inkscape:connector-curvature="0" />
      <path
         d="m -83.423895,81.687672 -0.762733,-0.348232 q 0.348603,-0.258833 0.601671,-0.566641 0.255479,-0.301349 0.417447,-0.656108 0.362405,-0.793775 0.05731,-1.463595 -0.300662,-0.667796 -1.209733,-1.08284 -0.909071,-0.415045 -1.61504,-0.206835 -0.701534,0.210234 -1.063938,1.004008 -0.161969,0.35476 -0.226764,0.743167 -0.06238,0.394867 -0.02962,0.827815 l -0.753864,-0.344183 q -0.0037,-0.414342 0.08447,-0.818848 0.0862,-0.400071 0.274486,-0.812479 0.512225,-1.121927 1.518977,-1.460754 1.006751,-0.338827 2.204064,0.207817 1.215051,0.554742 1.607576,1.53778 0.3905,0.987472 -0.139948,2.149309 -0.172091,0.376932 -0.415906,0.699683 -0.239379,0.324776 -0.548457,0.590936 z"
         style="font-size:9.98361111px;fill:#f5404f;fill-opacity:1;stroke-width:0.26458332px"
         id="path4852"
         inkscape:connector-curvature="0" />
      <path
         d="m -83.764238,85.515683 -1.280725,-0.873401 -1.040941,1.526399 -0.575923,-0.392756 1.04094,-1.526399 -2.448683,-1.669899 q -0.55176,-0.376277 -0.810452,-0.334376 -0.261439,0.04593 -0.577291,0.509083 l -0.519097,0.761186 -0.620226,-0.422968 0.519097,-0.761186 q 0.585014,-0.857845 1.125652,-0.96709 0.544665,-0.1065 1.390427,0.470275 l 2.448683,1.669899 0.370784,-0.543705 0.575924,0.392756 -0.370784,0.543704 1.280726,0.873401 z"
         style="font-size:9.98361111px;fill:#f5404f;fill-opacity:1;stroke-width:0.26458332px"
         id="path4854"
         inkscape:connector-curvature="0" />
      <path
         d="m -89.728361,85.496587 2.343343,2.330788 -0.632544,0.635951 -2.319149,-2.306723 q -0.549545,-0.546601 -1.039186,-0.607332 -0.486184,-0.05729 -0.912464,0.371282 -0.512223,0.514983 -0.479524,1.138806 0.02926,0.62728 0.596087,1.191069 l 2.194724,2.182965 -0.632544,0.635952 -3.871009,-3.850269 0.632544,-0.635952 0.594477,0.591291 q -0.12221,-0.582218 0.01094,-1.061712 0.133164,-0.4726 0.53538,-0.876982 0.663484,-0.667058 1.422009,-0.600155 0.758525,0.0669 1.55692,0.861021 z m 0.844988,4.023854 z"
         style="font-size:9.98361111px;fill:#f5404f;fill-opacity:1;stroke-width:0.26458332px"
         id="path4856"
         inkscape:connector-curvature="0" />
      <path
         d="m -95.961664,93.927618 q 0.174213,-0.01365 0.344799,-0.08403 0.169344,-0.0636 0.345855,-0.185465 0.625809,-0.432062 0.680282,-1.073894 0.05323,-0.635051 -0.472999,-1.397255 l -1.63408,-2.366844 0.742146,-0.512381 3.101983,4.492992 -0.742146,0.512381 -0.481915,-0.698018 q 0.04983,0.569821 -0.187538,1.023965 -0.234598,0.458155 -0.768141,0.826516 -0.07622,0.05262 -0.176796,0.104289 -0.09781,0.05568 -0.223979,0.11317 z"
         style="font-size:9.98361111px;fill:#f5404f;fill-opacity:1;stroke-width:0.26458332px"
         id="path4858"
         inkscape:connector-curvature="0" />
      <path
         d="m -102.28551,95.100445 -0.18,-0.400109 3.761016,-1.691997 q -0.433347,-0.820673 -1.086803,-1.061238 -0.655903,-0.23412 -1.469453,0.13188 -0.47124,0.211999 -0.85936,0.525586 -0.39256,0.315586 -0.72424,0.74276 l -0.348,-0.773543 q 0.35612,-0.384717 0.77447,-0.690521 0.41835,-0.305804 0.89403,-0.519803 1.19143,-0.536 2.201401,-0.156478 1.00552,0.381521 1.53752,1.564064 0.549999,1.222553 0.214042,2.234302 -0.338402,1.018194 -1.458705,1.522194 -1.004718,0.451999 -1.879098,0.06493 -0.87682,-0.380619 -1.37682,-1.492031 z m 0.926,-0.127935 q 0.31089,0.667293 0.85988,0.901402 0.544539,0.236108 1.149147,-0.03589 0.68463,-0.307999 0.924076,-0.88077 0.235,-0.570771 -0.01876,-1.301184 z"
         style="font-size:9.98361111px;fill:#f5404f;fill-opacity:1;stroke-width:0.26458332px"
         id="path4860"
         inkscape:connector-curvature="0" />
      <path
         d="m -107.19511,98.710557 -0.18234,-0.828388 q 0.41326,0.108697 0.83413,0.115889 0.42087,0.0072 0.84935,-0.08712 0.65223,-0.143564 0.93672,-0.415825 0.27973,-0.271214 0.1917,-0.671125 -0.0671,-0.304694 -0.33912,-0.429498 -0.27101,-0.120042 -1.01019,-0.122059 l -0.31461,-6.33e-4 q -0.97713,0.0054 -1.44821,-0.275221 -0.47479,-0.274848 -0.61836,-0.927084 -0.16347,-0.742692 0.33151,-1.30587 0.49023,-0.56213 1.51857,-0.788479 0.42847,-0.09431 0.9139,-0.111313 0.47962,-0.02071 1.03046,0.03274 l 0.19911,0.904561 q -0.54115,-0.145438 -1.04076,-0.170237 -0.49857,-0.02004 -0.96038,0.08161 -0.61891,0.136228 -0.90606,0.419059 -0.2861,0.287592 -0.20122,0.673221 0.0786,0.357063 0.36331,0.494054 0.27996,0.138038 1.13284,0.134996 l 0.32041,0.0043 q 0.85183,-0.0078 1.2912,0.264859 0.44042,0.277422 0.57665,0.896332 0.16557,0.752213 -0.27753,1.279012 -0.44309,0.526799 -1.42382,0.742669 -0.48561,0.106888 -0.9298,0.129787 -0.4442,0.0229 -0.83746,-0.04028 z"
         style="font-size:9.98361111px;fill:#f5404f;fill-opacity:1;stroke-width:0.26458332px"
         id="path4862"
         inkscape:connector-curvature="0" />
    </g>
    <path
       inkscape:connector-curvature="0"
       style="clip-rule:evenodd;fill:#172441;fill-opacity:1;fill-rule:evenodd;stroke-width:0.03993412"
       d="m 129.79504,18.753778 c -2.76859,-2.770908 -6.4506,-4.297672 -10.37336,-4.299229 -8.08279,0 -14.66118,6.575869 -14.66442,14.658699 -0.001,2.58369 0.67422,5.10578 1.95742,7.32883 l -2.08037,7.59662 7.77381,-2.03851 c 2.14183,1.16783 4.55337,1.7833 7.00768,1.78433 h 0.006 c 8.08194,0 14.66093,-6.5767 14.6642,-14.65957 0.002,-3.91706 -1.52232,-7.60026 -4.291,-10.37117 m -10.3732,22.55479 h -0.005 c -2.18703,-5.8e-4 -4.33217,-0.58819 -6.20348,-1.69836 l -0.4451,-0.26408 -4.61303,1.20972 1.23133,-4.49626 -0.28985,-0.46096 c -1.22006,-1.94 -1.86448,-4.18226 -1.86352,-6.48446 0.003,-6.71812 5.47041,-12.183701 12.19348,-12.183701 3.25547,0.0012 6.31574,1.270301 8.61694,3.573381 2.30121,2.30308 3.5678,5.36443 3.56656,8.62014 -0.003,6.7186 -5.47046,12.18458 -12.18833,12.18458 m 6.68557,-9.12551 c -0.36644,-0.18333 -2.16787,-1.06951 -2.50375,-1.19175 -0.33585,-0.12224 -0.58009,-0.18333 -0.8244,0.18338 -0.24424,0.36668 -0.94644,1.19175 -1.16025,1.43619 -0.21369,0.24447 -0.42741,0.27506 -0.79385,0.0917 -0.36639,-0.18334 -1.54701,-0.5701 -2.94658,-1.81804 -1.0892,-0.9712 -1.82462,-2.17082 -2.03836,-2.53749 -0.21372,-0.36672 -0.0227,-0.56499 0.1607,-0.74757 0.16481,-0.16413 0.3664,-0.42782 0.54961,-0.64174 0.18318,-0.21389 0.24424,-0.36667 0.36636,-0.61111 0.12216,-0.24448 0.0611,-0.45841 -0.0305,-0.64175 -0.0916,-0.18333 -0.82436,-1.98628 -1.12974,-2.71967 -0.29739,-0.71426 -0.59949,-0.61762 -0.82439,-0.6288 -0.21349,-0.0106 -0.45801,-0.0129 -0.70225,-0.0129 -0.24427,0 -0.64122,0.0917 -0.97711,0.45836 -0.33584,0.36672 -1.28236,1.25289 -1.28236,3.0558 0,1.80291 1.31291,3.54467 1.49613,3.78915 0.18318,0.24447 2.5837,3.94433 6.25931,5.53096 0.8742,0.37738 1.55671,0.60272 2.08884,0.77164 0.87779,0.2787 1.67655,0.23937 2.30791,0.14509 0.70396,-0.10515 2.16782,-0.88615 2.4732,-1.74177 0.30534,-0.85563 0.30534,-1.58902 0.21372,-1.74181 -0.0916,-0.15279 -0.33584,-0.24448 -0.70223,-0.42785"
       id="path2" />
    <rect
       style="fill:#000000;fill-opacity:0;stroke:#172441;stroke-width:1.85208333;stroke-miterlimit:4;stroke-dasharray:none;stroke-opacity:1"
       id="rect4958"
       width="28.789684"
       height="20.312231"
       x="105.14864"
       y="-9.1044683" />
    <path
       style="fill:none;fill-rule:evenodd;stroke:#172441;stroke-width:1.85208333;stroke-linecap:butt;stroke-linejoin:miter;stroke-miterlimit:4;stroke-dasharray:none;stroke-opacity:1"
       d="M 133.93836,-9.1044665 119.54351,1.0516475 105.14867,-9.1044665"
       id="path4962"
       inkscape:connector-curvature="0"
       sodipodi:nodetypes="ccc" />
    <path
       sodipodi:nodetypes="cc"
       inkscape:connector-curvature="0"
       id="path4976"
       d="M 95.73503,39.264365 62.201482,72.640778"
       style="fill:none;fill-rule:evenodd;stroke:#172441;stroke-width:2.82231045;stroke-linecap:butt;stroke-linejoin:miter;stroke-miterlimit:4;stroke-dasharray:none;stroke-opacity:1;marker-start:url(#marker4980)" />
    <g
       aria-label="notifications"
       style="font-style:normal;font-weight:normal;font-size:8.46666622px;line-height:125%;font-family:sans-serif;letter-spacing:0px;word-spacing:0px;fill:#172441;fill-opacity:1;stroke:none;stroke-width:0.26458332px;stroke-linecap:butt;stroke-linejoin:miter;stroke-opacity:1"
       id="text8839">
      <path
         d="m 86.822663,59.774789 v 2.794661 h -0.760677 v -2.769856 q 0,-0.657324 -0.256315,-0.983919 -0.256315,-0.326596 -0.768945,-0.326596 -0.615983,0 -0.971517,0.392741 -0.355534,0.392741 -0.355534,1.070736 v 2.616894 h -0.764811 v -4.630208 h 0.764811 v 0.719336 q 0.272852,-0.417545 0.640788,-0.624251 0.37207,-0.206706 0.855761,-0.206706 0.797884,0 1.207162,0.496094 0.409277,0.49196 0.409277,1.451074 z"
         style="font-size:8.46666622px;fill:#172441;fill-opacity:1;stroke-width:0.26458332px"
         id="path5836" />
      <path
         d="m 90.142357,58.472543 q -0.611849,0 -0.967383,0.479557 -0.355534,0.475423 -0.355534,1.30638 0,0.830957 0.3514,1.310515 0.355534,0.475423 0.971517,0.475423 0.607715,0 0.963249,-0.479557 0.355533,-0.479558 0.355533,-1.306381 0,-0.822688 -0.355533,-1.302246 -0.355534,-0.483691 -0.963249,-0.483691 z m 0,-0.644922 q 0.992187,0 1.558561,0.644922 0.566374,0.644922 0.566374,1.785937 0,1.136882 -0.566374,1.785938 -0.566374,0.644922 -1.558561,0.644922 -0.996322,0 -1.562695,-0.644922 -0.56224,-0.649056 -0.56224,-1.785938 0,-1.141015 0.56224,-1.785937 0.566373,-0.644922 1.562695,-0.644922 z"
         style="font-size:8.46666622px;fill:#172441;fill-opacity:1;stroke-width:0.26458332px"
         id="path5838" />
      <path
         d="m 94.276471,56.624594 v 1.314648 H 95.8433 v 0.591179 h -1.566829 v 2.513541 q 0,0.566374 0.152962,0.727604 0.157097,0.161231 0.63252,0.161231 H 95.8433 v 0.636653 h -0.781347 q -0.880567,0 -1.21543,-0.326595 -0.334863,-0.330729 -0.334863,-1.198893 v -2.513541 h -0.558106 v -0.591179 h 0.558106 v -1.314648 z"
         style="font-size:8.46666622px;fill:#172441;fill-opacity:1;stroke-width:0.26458332px"
         id="path5840" />
      <path
         d="m 96.84789,57.939242 h 0.760677 V 62.56945 H 96.84789 Z m 0,-1.802474 h 0.760677 v 0.963249 H 96.84789 Z"
         style="font-size:8.46666622px;fill:#172441;fill-opacity:1;stroke-width:0.26458332px"
         id="path5842" />
      <path
         d="m 102.93744,57.939242 v 4.630208 h -0.76481 v -4.039029 h -2.08773 v 4.039029 h -0.764809 v -4.039029 h -0.727604 v -0.591179 h 0.727604 v -0.322461 q 0,-0.756543 0.355534,-1.116211 0.359665,-0.363802 1.099675,-0.363802 h 0.76481 v 0.63252 h -0.7276 q -0.40928,0 -0.57051,0.165364 -0.1571,0.165365 -0.1571,0.595313 v 0.409277 z m -0.76481,-1.794205 h 0.76481 v 0.963248 h -0.76481 z"
         style="font-size:8.46666622px;fill:#172441;fill-opacity:1;stroke-width:0.26458332px"
         id="path5844" />
      <path
         d="m 107.86944,58.117009 v 0.711068 q -0.32246,-0.177767 -0.64906,-0.264583 -0.32246,-0.09095 -0.65319,-0.09095 -0.74,0 -1.14928,0.471289 -0.40928,0.467155 -0.40928,1.314648 0,0.847494 0.40928,1.318783 0.40928,0.467155 1.14928,0.467155 0.33073,0 0.65319,-0.08682 0.3266,-0.09095 0.64906,-0.268717 v 0.702799 q -0.31833,0.148829 -0.66146,0.223243 -0.339,0.07441 -0.72347,0.07441 -1.04593,0 -1.66191,-0.657324 -0.61599,-0.657325 -0.61599,-1.773536 0,-1.132747 0.62012,-1.781803 0.62425,-0.649056 1.70739,-0.649056 0.3514,0 0.68626,0.07441 0.33487,0.07028 0.64906,0.214974 z"
         style="font-size:8.46666622px;fill:#172441;fill-opacity:1;stroke-width:0.26458332px"
         id="path5846" />
      <path
         d="m 111.30489,60.241944 q -0.92191,0 -1.27744,0.21084 -0.35554,0.21084 -0.35554,0.719336 0,0.405143 0.26459,0.644922 0.26871,0.235644 0.7276,0.235644 0.63252,0 1.01286,-0.446484 0.38447,-0.450619 0.38447,-1.194759 v -0.169499 z m 1.51722,-0.314193 v 2.641699 h -0.76068 v -0.702799 q -0.26045,0.42168 -0.64905,0.624251 -0.38861,0.198438 -0.95085,0.198438 -0.71107,0 -1.13275,-0.396875 -0.41754,-0.401009 -0.41754,-1.070736 0,-0.781348 0.52089,-1.178222 0.52504,-0.396875 1.5627,-0.396875 h 1.0666 v -0.07441 q 0,-0.525032 -0.34726,-0.810286 -0.34314,-0.289388 -0.96739,-0.289388 -0.39687,0 -0.77308,0.09508 -0.3762,0.09508 -0.72347,0.285254 v -0.7028 q 0.41755,-0.16123 0.81029,-0.239779 0.39274,-0.08268 0.76481,-0.08268 1.00459,0 1.50069,0.520899 0.49609,0.520898 0.49609,1.579231 z"
         style="font-size:8.46666622px;fill:#172441;fill-opacity:1;stroke-width:0.26458332px"
         id="path5848" />
      <path
         d="m 115.14548,56.624594 v 1.314648 h 1.56683 v 0.591179 h -1.56683 v 2.513541 q 0,0.566374 0.15296,0.727604 0.1571,0.161231 0.63252,0.161231 h 0.78135 v 0.636653 h -0.78135 q -0.88056,0 -1.21543,-0.326595 -0.33486,-0.330729 -0.33486,-1.198893 v -2.513541 h -0.55811 v -0.591179 h 0.55811 v -1.314648 z"
         style="font-size:8.46666622px;fill:#172441;fill-opacity:1;stroke-width:0.26458332px"
         id="path5850" />
      <path
         d="m 117.7169,57.939242 h 0.76068 v 4.630208 h -0.76068 z m 0,-1.802474 h 0.76068 v 0.963249 h -0.76068 z"
         style="font-size:8.46666622px;fill:#172441;fill-opacity:1;stroke-width:0.26458332px"
         id="path5852" />
      <path
         d="m 121.85928,58.472543 q -0.61185,0 -0.96738,0.479557 -0.35553,0.475423 -0.35553,1.30638 0,0.830957 0.3514,1.310515 0.35553,0.475423 0.97151,0.475423 0.60772,0 0.96325,-0.479557 0.35554,-0.479558 0.35554,-1.306381 0,-0.822688 -0.35554,-1.302246 -0.35553,-0.483691 -0.96325,-0.483691 z m 0,-0.644922 q 0.99219,0 1.55856,0.644922 0.56638,0.644922 0.56638,1.785937 0,1.136882 -0.56638,1.785938 -0.56637,0.644922 -1.55856,0.644922 -0.99632,0 -1.56269,-0.644922 -0.56224,-0.649056 -0.56224,-1.785938 0,-1.141015 0.56224,-1.785937 0.56637,-0.644922 1.56269,-0.644922 z"
         style="font-size:8.46666622px;fill:#172441;fill-opacity:1;stroke-width:0.26458332px"
         id="path5854" />
      <path
         d="m 129.08985,59.774789 v 2.794661 h -0.76068 v -2.769856 q 0,-0.657324 -0.25631,-0.983919 -0.25632,-0.326596 -0.76895,-0.326596 -0.61598,0 -0.97152,0.392741 -0.35553,0.392741 -0.35553,1.070736 v 2.616894 h -0.76481 v -4.630208 h 0.76481 v 0.719336 q 0.27285,-0.417545 0.64079,-0.624251 0.37207,-0.206706 0.85576,-0.206706 0.79788,0 1.20716,0.496094 0.40928,0.49196 0.40928,1.451074 z"
         style="font-size:8.46666622px;fill:#172441;fill-opacity:1;stroke-width:0.26458332px"
         id="path5856" />
      <path
         d="m 133.56709,58.075668 v 0.719336 q -0.32246,-0.165365 -0.66972,-0.248047 -0.34727,-0.08268 -0.71934,-0.08268 -0.56637,0 -0.85163,0.173633 -0.28112,0.173632 -0.28112,0.520898 0,0.264583 0.20258,0.417546 0.20257,0.148828 0.81442,0.285253 l 0.26044,0.05788 q 0.81029,0.173633 1.14929,0.49196 0.34313,0.314192 0.34313,0.880566 0,0.644922 -0.51263,1.021126 -0.5085,0.376205 -1.40146,0.376205 -0.37208,0 -0.77722,-0.07441 -0.40101,-0.07028 -0.84749,-0.214974 V 61.61447 q 0.42168,0.219108 0.83096,0.330729 0.40927,0.107487 0.81028,0.107487 0.53744,0 0.82682,-0.181901 0.28939,-0.186035 0.28939,-0.520898 0,-0.310059 -0.21084,-0.475424 -0.2067,-0.165364 -0.91364,-0.318326 l -0.26458,-0.06201 q -0.70693,-0.148828 -1.02113,-0.454753 -0.31419,-0.310058 -0.31419,-0.847493 0,-0.65319 0.46302,-1.008724 0.46302,-0.355534 1.31465,-0.355534 0.42168,0 0.79375,0.06201 0.37207,0.06201 0.68626,0.186035 z"
         style="font-size:8.46666622px;fill:#172441;fill-opacity:1;stroke-width:0.26458332px"
         id="path5858" />
    </g>
  </g>
</svg>
