<?xml version="1.0" encoding="UTF-8" standalone="no"?>
<svg
   xmlns:dc="http://purl.org/dc/elements/1.1/"
   xmlns:cc="http://creativecommons.org/ns#"
   xmlns:rdf="http://www.w3.org/1999/02/22-rdf-syntax-ns#"
   xmlns:svg="http://www.w3.org/2000/svg"
   xmlns="http://www.w3.org/2000/svg"
   xmlns:xlink="http://www.w3.org/1999/xlink"
   xmlns:sodipodi="http://sodipodi.sourceforge.net/DTD/sodipodi-0.dtd"
   xmlns:inkscape="http://www.inkscape.org/namespaces/inkscape"
   width="261.82819mm"
   height="227.65976mm"
   viewBox="0 0 927.73767 806.66844"
   id="svg2"
   version="1.1"
   inkscape:version="1.0.2 (e86c870879, 2021-01-15)"
   sodipodi:docname="main.svg">
  <defs
     id="defs4">
    <linearGradient
       id="linearGradient4350"
       inkscape:collect="always">
      <stop
         id="stop4352"
         offset="0"
         style="stop-color:#172441;stop-opacity:1" />
      <stop
         id="stop4354"
         offset="1"
         style="stop-color:#004445;stop-opacity:0;" />
    </linearGradient>
    <marker
       inkscape:stockid="Arrow2Sstart"
       orient="auto"
       refY="0"
       refX="0"
       id="marker4644"
       style="overflow:visible"
       inkscape:isstock="true">
      <path
         id="path4646"
         style="fill:#172441;fill-opacity:1;fill-rule:evenodd;stroke:#172441;stroke-width:0.625;stroke-linejoin:round;stroke-opacity:1"
         d="M 8.7185878,4.0337352 -2.2072895,0.01601326 8.7185884,-4.0017078 c -1.7454984,2.3720609 -1.7354408,5.6174519 -6e-7,8.035443 z"
         transform="matrix(0.3,0,0,0.3,-0.69,0)"
         inkscape:connector-curvature="0" />
    </marker>
    <marker
       inkscape:stockid="Arrow2Send"
       orient="auto"
       refY="0"
       refX="0"
       id="marker4640"
       style="overflow:visible"
       inkscape:isstock="true">
      <path
         id="path4642"
         style="fill:#004445;fill-opacity:1;fill-rule:evenodd;stroke:#004445;stroke-width:0.625;stroke-linejoin:round;stroke-opacity:1"
         d="M 8.7185878,4.0337352 -2.2072895,0.01601326 8.7185884,-4.0017078 c -1.7454984,2.3720609 -1.7354408,5.6174519 -6e-7,8.035443 z"
         transform="matrix(-0.3,0,0,-0.3,0.69,0)"
         inkscape:connector-curvature="0" />
    </marker>
    <marker
       inkscape:isstock="true"
       style="overflow:visible"
       id="marker4613"
       refX="0"
       refY="0"
       orient="auto"
       inkscape:stockid="Arrow2Send"
       inkscape:collect="always">
      <path
         transform="matrix(-0.3,0,0,-0.3,0.69,0)"
         d="M 8.7185878,4.0337352 -2.2072895,0.01601326 8.7185884,-4.0017078 c -1.7454984,2.3720609 -1.7354408,5.6174519 -6e-7,8.035443 z"
         style="fill:#172441;fill-opacity:1;fill-rule:evenodd;stroke:#172441;stroke-width:0.625;stroke-linejoin:round;stroke-opacity:1"
         id="path4615"
         inkscape:connector-curvature="0" />
    </marker>
    <marker
       inkscape:isstock="true"
       style="overflow:visible"
       id="marker4556"
       refX="0"
       refY="0"
       orient="auto"
       inkscape:stockid="Arrow2Send">
      <path
         transform="matrix(-0.3,0,0,-0.3,0.69,0)"
         d="M 8.7185878,4.0337352 -2.2072895,0.01601326 8.7185884,-4.0017078 c -1.7454984,2.3720609 -1.7354408,5.6174519 -6e-7,8.035443 z"
         style="fill:#004445;fill-opacity:1;fill-rule:evenodd;stroke:#004445;stroke-width:0.625;stroke-linejoin:round;stroke-opacity:1"
         id="path4558"
         inkscape:connector-curvature="0" />
    </marker>
    <marker
       inkscape:stockid="Arrow2Send"
       orient="auto"
       refY="0"
       refX="0"
       id="marker4550"
       style="overflow:visible"
       inkscape:isstock="true">
      <path
         id="path4552"
         style="fill:#172441;fill-opacity:1;fill-rule:evenodd;stroke:#172441;stroke-width:0.625;stroke-linejoin:round;stroke-opacity:1"
         d="M 8.7185878,4.0337352 -2.2072895,0.01601326 8.7185884,-4.0017078 c -1.7454984,2.3720609 -1.7354408,5.6174519 -6e-7,8.035443 z"
         transform="matrix(-0.3,0,0,-0.3,0.69,0)"
         inkscape:connector-curvature="0" />
    </marker>
    <marker
       inkscape:stockid="Arrow2Send"
       orient="auto"
       refY="0"
       refX="0"
       id="marker4544"
       style="overflow:visible"
       inkscape:isstock="true"
       inkscape:collect="always">
      <path
         id="path4546"
         style="fill:#172441;fill-opacity:1;fill-rule:evenodd;stroke:#172441;stroke-width:0.625;stroke-linejoin:round;stroke-opacity:1"
         d="M 8.7185878,4.0337352 -2.2072895,0.01601326 8.7185884,-4.0017078 c -1.7454984,2.3720609 -1.7354408,5.6174519 -6e-7,8.035443 z"
         transform="matrix(-0.3,0,0,-0.3,0.69,0)"
         inkscape:connector-curvature="0" />
    </marker>
    <marker
       inkscape:stockid="Arrow2Send"
       orient="auto"
       refY="0"
       refX="0"
       id="marker4494"
       style="overflow:visible"
       inkscape:isstock="true">
      <path
         id="path4269"
         style="fill:#172441;fill-opacity:1;fill-rule:evenodd;stroke:#172441;stroke-width:0.625;stroke-linejoin:round;stroke-opacity:1"
         d="M 8.7185878,4.0337352 -2.2072895,0.01601326 8.7185884,-4.0017078 c -1.7454984,2.3720609 -1.7354408,5.6174519 -6e-7,8.035443 z"
         transform="matrix(-0.3,0,0,-0.3,0.69,0)"
         inkscape:connector-curvature="0" />
    </marker>
    <marker
       inkscape:stockid="Arrow2Sstart"
       orient="auto"
       refY="0"
       refX="0"
       id="Arrow2Sstart"
       style="overflow:visible"
       inkscape:isstock="true">
      <path
         id="path4266"
         style="fill:#000000;fill-opacity:1;fill-rule:evenodd;stroke:#000000;stroke-width:0.625;stroke-linejoin:round;stroke-opacity:1"
         d="M 8.7185878,4.0337352 -2.2072895,0.01601326 8.7185884,-4.0017078 c -1.7454984,2.3720609 -1.7354408,5.6174519 -6e-7,8.035443 z"
         transform="matrix(0.3,0,0,0.3,-0.69,0)"
         inkscape:connector-curvature="0" />
    </marker>
    <marker
       inkscape:stockid="Arrow2Send"
       orient="auto"
       refY="0"
       refX="0"
       id="Arrow2Send"
       style="overflow:visible"
       inkscape:isstock="true">
      <path
         id="path4260"
         style="fill:#172441;fill-opacity:1;fill-rule:evenodd;stroke:#172441;stroke-width:0.625;stroke-linejoin:round;stroke-opacity:1"
         d="M 8.7185878,4.0337352 -2.2072895,0.01601326 8.7185884,-4.0017078 c -1.7454984,2.3720609 -1.7354408,5.6174519 -6e-7,8.035443 z"
         transform="matrix(-0.3,0,0,-0.3,0.69,0)"
         inkscape:connector-curvature="0" />
    </marker>
    <marker
       inkscape:stockid="Arrow1Send"
       orient="auto"
       refY="0"
       refX="0"
       id="marker4739"
       style="overflow:visible"
       inkscape:isstock="true">
      <path
         id="path4741"
         d="M 0,0 5,-5 -12.5,0 5,5 0,0 Z"
         style="fill:#000000;fill-opacity:1;fill-rule:evenodd;stroke:#000000;stroke-width:1pt;stroke-opacity:1"
         transform="matrix(-0.2,0,0,-0.2,-1.2,0)"
         inkscape:connector-curvature="0" />
    </marker>
    <marker
       inkscape:stockid="Arrow1Send"
       orient="auto"
       refY="0"
       refX="0"
       id="Arrow1Send"
       style="overflow:visible"
       inkscape:isstock="true">
      <path
         id="path4242"
         d="M 0,0 5,-5 -12.5,0 5,5 0,0 Z"
         style="fill:#000000;fill-opacity:1;fill-rule:evenodd;stroke:#000000;stroke-width:1pt;stroke-opacity:1"
         transform="matrix(-0.2,0,0,-0.2,-1.2,0)"
         inkscape:connector-curvature="0" />
    </marker>
    <linearGradient
       inkscape:collect="always"
       xlink:href="#linearGradient4350"
       id="linearGradient4566"
       x1="420.44659"
       y1="539.19037"
       x2="521.9632"
       y2="539.19037"
       gradientUnits="userSpaceOnUse"
       gradientTransform="translate(387.89857,-173.92898)" />
    <marker
       inkscape:stockid="Arrow2Send"
       orient="auto"
       refY="0"
       refX="0"
       id="marker4550-1"
       style="overflow:visible"
       inkscape:isstock="true">
      <path
         inkscape:connector-curvature="0"
         id="path4552-8"
         style="fill:#172441;fill-opacity:1;fill-rule:evenodd;stroke:#172441;stroke-width:0.625;stroke-linejoin:round;stroke-opacity:1"
         d="M 8.7185878,4.0337352 -2.2072895,0.01601326 8.7185884,-4.0017078 c -1.7454984,2.3720609 -1.7354408,5.6174519 -6e-7,8.035443 z"
         transform="matrix(-0.3,0,0,-0.3,0.69,0)" />
    </marker>
    <linearGradient
       inkscape:collect="always"
       xlink:href="#linearGradient4350"
       id="linearGradient4654"
       x1="471.02203"
       y1="812.42627"
       x2="572.98181"
       y2="812.42627"
       gradientUnits="userSpaceOnUse"
       gradientTransform="translate(387.89857,-173.92898)" />
  </defs>
  <sodipodi:namedview
     id="base"
     pagecolor="#ffffff"
     bordercolor="#666666"
     borderopacity="1.0"
     inkscape:pageopacity="0.0"
     inkscape:pageshadow="2"
     inkscape:zoom="0.51178107"
     inkscape:cx="537.66883"
     inkscape:cy="417.98873"
     inkscape:document-units="px"
     inkscape:current-layer="layer1"
     showgrid="false"
     inkscape:window-width="1440"
     inkscape:window-height="746"
     inkscape:window-x="0"
     inkscape:window-y="27"
     inkscape:window-maximized="1"
     fit-margin-top="10"
     fit-margin-left="10"
     fit-margin-right="-10"
     fit-margin-bottom="10"
     inkscape:document-rotation="0" />
  <metadata
     id="metadata7">
    <rdf:RDF>
      <cc:Work
         rdf:about="">
        <dc:format>image/svg+xml</dc:format>
        <dc:type
           rdf:resource="http://purl.org/dc/dcmitype/StillImage" />
        <dc:title />
      </cc:Work>
    </rdf:RDF>
  </metadata>
  <g
     inkscape:groupmode="layer"
     id="layer7"
     inkscape:label="Livello 2">
    <rect
       style="fill:#ffffff;stroke-width:0.9375"
       id="rect2124"
       width="909.27197"
       height="787.37555"
       x="7.583724"
       y="8.5617514" />
  </g>
  <g
     inkscape:label="Livello 1"
     inkscape:groupmode="layer"
     id="layer1"
     transform="translate(-99.138163,1.679106)">
    <circle
       style="fill:#f5404f;fill-opacity:1;fill-rule:evenodd;stroke:#172441;stroke-width:5;stroke-linecap:butt;stroke-linejoin:miter;stroke-miterlimit:4;stroke-dasharray:none;stroke-opacity:1"
       id="path3336"
       cx="483.53885"
       cy="219.52538"
       r="72.85714" />
    <path
       style="fill:#172441;fill-opacity:1;stroke:#004445;stroke-width:0;stroke-miterlimit:4;stroke-dasharray:none;stroke-opacity:1"
       d="m 444.0885,182.36623 a 54.999996,54.999996 0 0 0 -7.31938,66.08997 l -0.14141,-3.3797 -0.77144,-18.37096 9.87343,5.15989 a 39.999996,39.999996 0 0 1 9.23646,-39.17077 39.999996,39.999996 0 0 1 56.54958,-1.46459 39.999996,39.999996 0 0 1 1.46459,56.54958 39.999996,39.999996 0 0 1 -55.1498,2.70211 l -4.90668,3.11395 -8.15109,5.17219 a 54.999996,54.999996 0 0 0 1.32957,1.35399 54.999996,54.999996 0 0 0 77.75567,-2.01381 54.999996,54.999996 0 0 0 -2.01382,-77.75567 54.999996,54.999996 0 0 0 -77.75567,2.01381 z"
       id="path4146"
       inkscape:connector-curvature="0"
       inkscape:transform-center-x="0.61000454"
       inkscape:transform-center-y="0.86164111" />
    <path
       sodipodi:type="star"
       style="fill:#172441;fill-opacity:1;stroke:#004445;stroke-width:0;stroke-miterlimit:4;stroke-dasharray:none;stroke-opacity:1"
       id="path4153"
       sodipodi:sides="3"
       sodipodi:cx="273.12"
       sodipodi:cy="152.82137"
       sodipodi:r1="18.985764"
       sodipodi:r2="9.4928818"
       sodipodi:arg1="0.52359878"
       sodipodi:arg2="1.5707963"
       inkscape:flatsided="false"
       inkscape:rounded="0"
       inkscape:randomized="0"
       d="m 289.56215,162.31425 -16.44215,0 -16.44216,0 8.22108,-14.23933 8.22108,-14.23932 8.22107,14.23932 z"
       inkscape:transform-center-y="30.810367"
       transform="matrix(0.94421732,-0.59929083,0.59929083,0.94421732,100.71168,269.12246)"
       inkscape:transform-center-x="29.485999" />
    <g
       style="font-style:normal;font-weight:normal;font-size:40px;line-height:125%;font-family:sans-serif;letter-spacing:0px;word-spacing:0px;fill:#ffffff;fill-opacity:1;stroke:none;stroke-width:1px;stroke-linecap:butt;stroke-linejoin:miter;stroke-opacity:1"
       id="text4178">
      <path
         d="m 466.25369,211.92772 q -0.60547,-0.35156 -1.32812,-0.50781 -0.70313,-0.17578 -1.5625,-0.17578 -3.04688,0 -4.6875,1.99218 -1.6211,1.97266 -1.6211,5.6836 l 0,11.52343 -3.61328,0 0,-21.875 3.61328,0 0,3.39844 q 1.13282,-1.99219 2.94922,-2.94922 1.81641,-0.97656 4.41407,-0.97656 0.37109,0 0.82031,0.0586 0.44922,0.0391 0.99609,0.13672 l 0.0195,3.69141 z"
         id="path4292"
         inkscape:connector-curvature="0" />
      <path
         d="m 469.69119,221.81053 0,-13.24219 3.59375,0 0,13.10547 q 0,3.10547 1.21094,4.66797 1.21094,1.54297 3.63281,1.54297 2.91016,0 4.58985,-1.85547 1.69922,-1.85547 1.69922,-5.05859 l 0,-12.40235 3.59375,0 0,21.875 -3.59375,0 0,-3.35937 q -1.3086,1.99219 -3.04688,2.96875 -1.71875,0.95703 -4.00391,0.95703 -3.76953,0 -5.72265,-2.34375 -1.95313,-2.34375 -1.95313,-6.85547 z m 9.04297,-13.76953 0,0 z"
         id="path4294"
         inkscape:connector-curvature="0" />
      <path
         d="m 513.63651,217.24022 0,13.20312 -3.59375,0 0,-13.08593 q 0,-3.10547 -1.21094,-4.64844 -1.21094,-1.54297 -3.63281,-1.54297 -2.91016,0 -4.58985,1.85547 -1.67969,1.85547 -1.67969,5.05859 l 0,12.36328 -3.61328,0 0,-21.875 3.61328,0 0,3.39844 q 1.28907,-1.97265 3.02735,-2.94922 1.75781,-0.97656 4.04297,-0.97656 3.76953,0 5.70312,2.34375 1.9336,2.32422 1.9336,6.85547 z"
         id="path4296"
         inkscape:connector-curvature="0" />
    </g>
    <rect
       style="fill:#f5404f;fill-opacity:1;stroke:#172441;stroke-width:4.99754;stroke-miterlimit:4;stroke-dasharray:none;stroke-opacity:1"
       id="rect4140"
       width="115.00246"
       height="30.00246"
       x="137.07021"
       y="147.00383" />
    <rect
       y="177.00383"
       x="137.07021"
       height="30.00246"
       width="115.00246"
       id="rect4144"
       style="fill:#f5404f;fill-opacity:1;stroke:#172441;stroke-width:4.99754;stroke-miterlimit:4;stroke-dasharray:none;stroke-opacity:1" />
    <rect
       style="fill:#f5404f;fill-opacity:1;stroke:#172441;stroke-width:4.99754;stroke-miterlimit:4;stroke-dasharray:none;stroke-opacity:1"
       id="rect4182"
       width="115.00246"
       height="30.00246"
       x="137.07021"
       y="207.00383" />
    <rect
       y="237.00383"
       x="137.07021"
       height="30.00246"
       width="115.00246"
       id="rect4203"
       style="fill:#f5404f;fill-opacity:0.74509804;stroke:#172441;stroke-width:4.99800014;stroke-miterlimit:4;stroke-dasharray:14.99400043, 4.99800014;stroke-dashoffset:0;stroke-opacity:1" />
    <rect
       style="fill:#f5404f;fill-opacity:0.3372549;stroke:#172441;stroke-width:4.99800014;stroke-miterlimit:4;stroke-dasharray:14.99400043, 4.99800014;stroke-dashoffset:0;stroke-opacity:0.45882353"
       id="rect4205"
       width="115.00246"
       height="30.00246"
       x="137.07021"
       y="267.00385" />
    <g
       style="font-style:normal;font-weight:normal;font-size:40px;line-height:125%;font-family:sans-serif;letter-spacing:0px;word-spacing:0px;fill:#000000;fill-opacity:1;stroke:none;stroke-width:1px;stroke-linecap:butt;stroke-linejoin:miter;stroke-opacity:1"
       id="text4207">
      <path
         d="m 150.62379,155.2332 0,1.30737 -1.5039,0 q -0.84595,0 -1.1792,0.3418 -0.32471,0.3418 -0.32471,1.23047 l 0,0.84595 2.58911,0 0,1.22192 -2.58911,0 0,8.34839 -1.58081,0 0,-8.34839 -1.5039,0 0,-1.22192 1.5039,0 0,-0.66651 q 0,-1.5979 0.74341,-2.32422 0.74341,-0.73486 2.3584,-0.73486 l 1.48681,0 z"
         style="font-size:17.5px;fill:#ffffff"
         id="path4226"
         inkscape:connector-curvature="0" />
      <path
         d="m 155.63966,160.06108 q -1.26464,0 -1.99951,0.99121 -0.73486,0.98267 -0.73486,2.7002 0,1.71753 0.72632,2.70874 0.73486,0.98266 2.00805,0.98266 1.25611,0 1.99097,-0.99121 0.73486,-0.99121 0.73486,-2.70019 0,-1.70044 -0.73486,-2.69165 -0.73486,-0.99976 -1.99097,-0.99976 z m 0,-1.33301 q 2.05078,0 3.22144,1.33301 1.17065,1.33301 1.17065,3.69141 0,2.34985 -1.17065,3.6914 -1.17066,1.33301 -3.22144,1.33301 -2.05932,0 -3.22998,-1.33301 -1.16211,-1.34155 -1.16211,-3.6914 0,-2.3584 1.16211,-3.69141 1.17066,-1.33301 3.22998,-1.33301 z"
         style="font-size:17.5px;fill:#ffffff"
         id="path4228"
         inkscape:connector-curvature="0" />
      <path
         d="m 166.33791,160.06108 q -1.26465,0 -1.99952,0.99121 -0.73486,0.98267 -0.73486,2.7002 0,1.71753 0.72632,2.70874 0.73486,0.98266 2.00806,0.98266 1.2561,0 1.99096,-0.99121 0.73487,-0.99121 0.73487,-2.70019 0,-1.70044 -0.73487,-2.69165 -0.73486,-0.99976 -1.99096,-0.99976 z m 0,-1.33301 q 2.05078,0 3.22143,1.33301 1.17066,1.33301 1.17066,3.69141 0,2.34985 -1.17066,3.6914 -1.17065,1.33301 -3.22143,1.33301 -2.05933,0 -3.22998,-1.33301 -1.16211,-1.34155 -1.16211,-3.6914 0,-2.3584 1.16211,-3.69141 1.17065,-1.33301 3.22998,-1.33301 z"
         style="font-size:17.5px;fill:#ffffff"
         id="path4231"
         inkscape:connector-curvature="0" />
      <path
         d="m 173.2422,166.35869 1.80298,0 0,2.17041 -1.80298,0 0,-2.17041 z"
         style="font-size:17.5px;fill:#ffffff"
         id="path4233"
         inkscape:connector-curvature="0" />
      <path
         d="m 180.1465,156.2415 0,2.71729 3.23853,0 0,1.22192 -3.23853,0 0,5.19531 q 0,1.17066 0.31616,1.50391 0.32471,0.33325 1.30737,0.33325 l 1.615,0 0,1.31592 -1.615,0 q -1.82006,0 -2.5122,-0.67505 -0.69214,-0.68359 -0.69214,-2.47803 l 0,-5.19531 -1.15357,0 0,-1.22192 1.15357,0 0,-2.71729 1.58081,0 z"
         style="font-size:17.5px;fill:#ffffff"
         id="path4235"
         inkscape:connector-curvature="0" />
      <path
         d="m 193.41676,158.95879 -3.46069,4.65698 3.64014,4.91333 -1.85425,0 -2.78565,-3.75977 -2.78564,3.75977 -1.85425,0 3.71704,-5.00733 -3.40088,-4.56298 1.85425,0 2.53784,3.40942 2.53785,-3.40942 1.85424,0 z"
         style="font-size:17.5px;fill:#ffffff"
         id="path4237"
         inkscape:connector-curvature="0" />
      <path
         d="m 197.37306,156.2415 0,2.71729 3.23853,0 0,1.22192 -3.23853,0 0,5.19531 q 0,1.17066 0.31616,1.50391 0.32471,0.33325 1.30738,0.33325 l 1.61499,0 0,1.31592 -1.61499,0 q -1.82007,0 -2.51221,-0.67505 -0.69214,-0.68359 -0.69214,-2.47803 l 0,-5.19531 -1.15356,0 0,-1.22192 1.15356,0 0,-2.71729 1.58081,0 z"
         style="font-size:17.5px;fill:#ffffff"
         id="path4239"
         inkscape:connector-curvature="0" />
    </g>
    <g
       style="font-style:normal;font-weight:normal;font-size:40px;line-height:125%;font-family:sans-serif;letter-spacing:0px;word-spacing:0px;fill:#000000;fill-opacity:1;stroke:none;stroke-width:1px;stroke-linecap:butt;stroke-linejoin:miter;stroke-opacity:1"
       id="text4211">
      <path
         d="m 151.8799,188.55292 0,1.48681 q -0.66651,-0.34179 -1.38428,-0.51269 -0.71777,-0.1709 -1.48682,-0.1709 -1.17065,0 -1.76025,0.35889 -0.58105,0.35888 -0.58105,1.07666 0,0.54687 0.4187,0.86303 0.4187,0.30762 1.68335,0.5896 l 0.53833,0.11963 q 1.6748,0.35889 2.37548,1.01685 0.70923,0.64941 0.70923,1.82007 0,1.333 -1.05957,2.11059 -1.05102,0.77759 -2.89673,0.77759 -0.76904,0 -1.60644,-0.15381 -0.82886,-0.14526 -1.75171,-0.44433 l 0,-1.62354 q 0.87158,0.45288 1.71753,0.68359 0.84595,0.22217 1.6748,0.22217 1.11084,0 1.70899,-0.37597 0.59814,-0.38453 0.59814,-1.07666 0,-0.64087 -0.43579,-0.98267 -0.42724,-0.3418 -1.88843,-0.65796 l -0.54687,-0.12817 q -1.46118,-0.30762 -2.1106,-0.93994 -0.64941,-0.64087 -0.64941,-1.75171 0,-1.3501 0.95703,-2.08496 0.95703,-0.73487 2.71729,-0.73487 0.87158,0 1.64062,0.12818 0.76904,0.12817 1.41846,0.38452 z"
         style="font-size:17.5px;fill:#ffffff"
         id="path4243"
         inkscape:connector-curvature="0" />
      <path
         d="m 160.45045,189.74066 q -0.26489,-0.15381 -0.58105,-0.22217 -0.30762,-0.0769 -0.68359,-0.0769 -1.33301,0 -2.05078,0.87158 -0.70923,0.86304 -0.70923,2.48657 l 0,5.04151 -1.58081,0 0,-9.57031 1.58081,0 0,1.48681 q 0.4956,-0.87158 1.29028,-1.29028 0.79468,-0.42725 1.93115,-0.42725 0.16236,0 0.35889,0.0256 0.19653,0.0171 0.43579,0.0598 l 0.009,1.61499 z"
         style="font-size:17.5px;fill:#ffffff"
         id="path4245"
         inkscape:connector-curvature="0" />
      <path
         d="m 168.62794,188.63837 0,1.46972 q -0.6665,-0.36743 -1.34155,-0.54687 -0.6665,-0.18799 -1.3501,-0.18799 -1.52954,0 -2.37548,0.97412 -0.84595,0.96558 -0.84595,2.71729 0,1.75171 0.84595,2.72583 0.84594,0.96557 2.37548,0.96557 0.6836,0 1.3501,-0.17944 0.67505,-0.18799 1.34155,-0.55542 l 0,1.45264 q -0.65795,0.30761 -1.36718,0.46142 -0.70069,0.15381 -1.49536,0.15381 -2.16187,0 -3.43506,-1.35864 -1.2732,-1.35864 -1.2732,-3.66577 0,-2.34131 1.28174,-3.68287 1.29029,-1.34155 3.52906,-1.34155 0.72631,0 1.41845,0.15381 0.69214,0.14526 1.34155,0.44434 z"
         style="font-size:17.5px;fill:#ffffff"
         id="path4247"
         inkscape:connector-curvature="0" />
      <path
         d="m 174.1736,185.08368 1.45264,0 -4.44336,14.3811 -1.45264,0 4.44336,-14.3811 z"
         style="font-size:17.5px;fill:#ffffff"
         id="path4249"
         inkscape:connector-curvature="0" />
      <path
         d="m 184.16261,193.06464 q 0,-1.73462 -0.71777,-2.71729 -0.70923,-0.99121 -1.95679,-0.99121 -1.24756,0 -1.96533,0.99121 -0.70923,0.98267 -0.70923,2.71729 0,1.73462 0.70923,2.72583 0.71777,0.98266 1.96533,0.98266 1.24756,0 1.95679,-0.98266 0.71777,-0.99121 0.71777,-2.72583 z m -5.34912,-3.34107 q 0.49561,-0.85449 1.24756,-1.26465 0.7605,-0.4187 1.81152,-0.4187 1.74317,0 2.82837,1.38428 1.09375,1.38428 1.09375,3.64014 0,2.25586 -1.09375,3.64013 -1.0852,1.38428 -2.82837,1.38428 -1.05102,0 -1.81152,-0.41016 -0.75195,-0.4187 -1.24756,-1.27319 l 0,1.43555 -1.58081,0 0,-13.2959 1.58081,0 0,5.17822 z"
         style="font-size:17.5px;fill:#ffffff"
         id="path4251"
         inkscape:connector-curvature="0" />
      <path
         d="m 192.75026,193.03046 q -1.90552,0 -2.64038,0.43579 -0.73486,0.43579 -0.73486,1.48681 0,0.83741 0.54687,1.33301 0.55542,0.48706 1.50391,0.48706 1.30737,0 2.0935,-0.92285 0.79468,-0.9314 0.79468,-2.46948 l 0,-0.35034 -1.56372,0 z m 3.13599,-0.64942 0,5.46021 -1.57227,0 0,-1.45264 q -0.53833,0.87158 -1.34155,1.29028 -0.80323,0.41016 -1.96533,0.41016 -1.46973,0 -2.34131,-0.82031 -0.86304,-0.82886 -0.86304,-2.21314 0,-1.61499 1.07666,-2.4353 1.0852,-0.82031 3.22998,-0.82031 l 2.20459,0 0,-0.15381 q 0,-1.08521 -0.71777,-1.67481 -0.70923,-0.59814 -1.99952,-0.59814 -0.82031,0 -1.5979,0.19653 -0.77758,0.19654 -1.49536,0.5896 l 0,-1.45263 q 0.86304,-0.33326 1.67481,-0.49561 0.81177,-0.1709 1.58081,-0.1709 2.07641,0 3.10181,1.07666 1.02539,1.07666 1.02539,3.26416 z"
         style="font-size:17.5px;fill:#ffffff"
         id="path4253"
         inkscape:connector-curvature="0" />
      <path
         d="m 204.67897,189.74066 q -0.26489,-0.15381 -0.58105,-0.22217 -0.30762,-0.0769 -0.6836,-0.0769 -1.33301,0 -2.05078,0.87158 -0.70923,0.86304 -0.70923,2.48657 l 0,5.04151 -1.58081,0 0,-9.57031 1.58081,0 0,1.48681 q 0.49561,-0.87158 1.29029,-1.29028 0.79467,-0.42725 1.93115,-0.42725 0.16235,0 0.35888,0.0256 0.19654,0.0171 0.4358,0.0598 l 0.009,1.61499 z"
         style="font-size:17.5px;fill:#ffffff"
         id="path4255"
         inkscape:connector-curvature="0" />
      <path
         d="m 204.96095,195.67084 1.80298,0 0,2.17041 -1.80298,0 0,-2.17041 z"
         style="font-size:17.5px;fill:#ffffff"
         id="path4257"
         inkscape:connector-curvature="0" />
      <path
         d="m 217.19728,188.63837 0,1.46972 q -0.6665,-0.36743 -1.34155,-0.54687 -0.66651,-0.18799 -1.3501,-0.18799 -1.52954,0 -2.37549,0.97412 -0.84595,0.96558 -0.84595,2.71729 0,1.75171 0.84595,2.72583 0.84595,0.96557 2.37549,0.96557 0.68359,0 1.3501,-0.17944 0.67505,-0.18799 1.34155,-0.55542 l 0,1.45264 q -0.65796,0.30761 -1.36719,0.46142 -0.70068,0.15381 -1.49536,0.15381 -2.16186,0 -3.43506,-1.35864 -1.27319,-1.35864 -1.27319,-3.66577 0,-2.34131 1.28174,-3.68287 1.29028,-1.34155 3.52905,-1.34155 0.72632,0 1.41846,0.15381 0.69214,0.14526 1.34155,0.44434 z"
         style="font-size:17.5px;fill:#ffffff"
         id="path4259"
         inkscape:connector-curvature="0" />
    </g>
    <g
       style="font-style:normal;font-weight:normal;font-size:40px;line-height:125%;font-family:sans-serif;letter-spacing:0px;word-spacing:0px;fill:#000000;fill-opacity:1;stroke:none;stroke-width:1px;stroke-linecap:butt;stroke-linejoin:miter;stroke-opacity:1"
       id="text4215">
      <path
         d="m 151.8799,218.55292 0,1.48681 q -0.66651,-0.34179 -1.38428,-0.51269 -0.71777,-0.1709 -1.48682,-0.1709 -1.17065,0 -1.76025,0.35889 -0.58105,0.35888 -0.58105,1.07666 0,0.54687 0.4187,0.86303 0.4187,0.30762 1.68335,0.5896 l 0.53833,0.11963 q 1.6748,0.35889 2.37548,1.01685 0.70923,0.64941 0.70923,1.82007 0,1.333 -1.05957,2.11059 -1.05102,0.77759 -2.89673,0.77759 -0.76904,0 -1.60644,-0.15381 -0.82886,-0.14526 -1.75171,-0.44433 l 0,-1.62354 q 0.87158,0.45288 1.71753,0.68359 0.84595,0.22217 1.6748,0.22217 1.11084,0 1.70899,-0.37597 0.59814,-0.38453 0.59814,-1.07666 0,-0.64087 -0.43579,-0.98267 -0.42724,-0.3418 -1.88843,-0.65796 l -0.54687,-0.12817 q -1.46118,-0.30762 -2.1106,-0.93994 -0.64941,-0.64087 -0.64941,-1.75171 0,-1.3501 0.95703,-2.08496 0.95703,-0.73487 2.71729,-0.73487 0.87158,0 1.64062,0.12818 0.76904,0.12817 1.41846,0.38452 z"
         style="font-size:17.5px;fill:#ffffff"
         id="path4262"
         inkscape:connector-curvature="0" />
      <path
         d="m 160.45045,219.74066 q -0.26489,-0.15381 -0.58105,-0.22217 -0.30762,-0.0769 -0.68359,-0.0769 -1.33301,0 -2.05078,0.87158 -0.70923,0.86304 -0.70923,2.48657 l 0,5.04151 -1.58081,0 0,-9.57031 1.58081,0 0,1.48681 q 0.4956,-0.87158 1.29028,-1.29028 0.79468,-0.42725 1.93115,-0.42725 0.16236,0 0.35889,0.0256 0.19653,0.0171 0.43579,0.0598 l 0.009,1.61499 z"
         style="font-size:17.5px;fill:#ffffff"
         id="path4264"
         inkscape:connector-curvature="0" />
      <path
         d="m 168.62794,218.63837 0,1.46972 q -0.6665,-0.36743 -1.34155,-0.54687 -0.6665,-0.18799 -1.3501,-0.18799 -1.52954,0 -2.37548,0.97412 -0.84595,0.96558 -0.84595,2.71729 0,1.75171 0.84595,2.72583 0.84594,0.96557 2.37548,0.96557 0.6836,0 1.3501,-0.17944 0.67505,-0.18799 1.34155,-0.55542 l 0,1.45264 q -0.65795,0.30761 -1.36718,0.46142 -0.70069,0.15381 -1.49536,0.15381 -2.16187,0 -3.43506,-1.35864 -1.2732,-1.35864 -1.2732,-3.66577 0,-2.34131 1.28174,-3.68287 1.29029,-1.34155 3.52906,-1.34155 0.72631,0 1.41845,0.15381 0.69214,0.14526 1.34155,0.44434 z"
         style="font-size:17.5px;fill:#ffffff"
         id="path4267"
         inkscape:connector-curvature="0" />
      <path
         d="m 174.1736,215.08368 1.45264,0 -4.44336,14.3811 -1.45264,0 4.44336,-14.3811 z"
         style="font-size:17.5px;fill:#ffffff"
         id="path4270"
         inkscape:connector-curvature="0" />
      <path
         d="m 178.81349,226.4057 0,5.07568 -1.58081,0 0,-13.21044 1.58081,0 0,1.45263 q 0.49561,-0.85449 1.24756,-1.26465 0.7605,-0.4187 1.81152,-0.4187 1.74317,0 2.82837,1.38428 1.09375,1.38428 1.09375,3.64014 0,2.25586 -1.09375,3.64013 -1.0852,1.38428 -2.82837,1.38428 -1.05102,0 -1.81152,-0.41016 -0.75195,-0.4187 -1.24756,-1.27319 z m 5.34912,-3.34106 q 0,-1.73462 -0.71777,-2.71729 -0.70923,-0.99121 -1.95679,-0.99121 -1.24756,0 -1.96533,0.99121 -0.70923,0.98267 -0.70923,2.71729 0,1.73462 0.70923,2.72583 0.71777,0.98266 1.96533,0.98266 1.24756,0 1.95679,-0.98266 0.71777,-0.99121 0.71777,-2.72583 z"
         style="font-size:17.5px;fill:#ffffff"
         id="path4272"
         inkscape:connector-curvature="0" />
      <path
         d="m 188.40089,218.27094 1.57227,0 0,9.57031 -1.57227,0 0,-9.57031 z m 0,-3.72559 1.57227,0 0,1.99097 -1.57227,0 0,-1.99097 z"
         style="font-size:17.5px;fill:#ffffff"
         id="path4274"
         inkscape:connector-curvature="0" />
      <path
         d="m 194.77541,226.4057 0,5.07568 -1.58081,0 0,-13.21044 1.58081,0 0,1.45263 q 0.4956,-0.85449 1.24755,-1.26465 0.7605,-0.4187 1.81153,-0.4187 1.74316,0 2.82837,1.38428 1.09375,1.38428 1.09375,3.64014 0,2.25586 -1.09375,3.64013 -1.08521,1.38428 -2.82837,1.38428 -1.05103,0 -1.81153,-0.41016 -0.75195,-0.4187 -1.24755,-1.27319 z m 5.34912,-3.34106 q 0,-1.73462 -0.71778,-2.71729 -0.70922,-0.99121 -1.95678,-0.99121 -1.24756,0 -1.96534,0.99121 -0.70922,0.98267 -0.70922,2.71729 0,1.73462 0.70922,2.72583 0.71778,0.98266 1.96534,0.98266 1.24756,0 1.95678,-0.98266 0.71778,-0.99121 0.71778,-2.72583 z"
         style="font-size:17.5px;fill:#ffffff"
         id="path4276"
         inkscape:connector-curvature="0" />
      <path
         d="m 205.8838,226.4057 0,5.07568 -1.58081,0 0,-13.21044 1.58081,0 0,1.45263 q 0.49561,-0.85449 1.24756,-1.26465 0.7605,-0.4187 1.81153,-0.4187 1.74316,0 2.82837,1.38428 1.09375,1.38428 1.09375,3.64014 0,2.25586 -1.09375,3.64013 -1.08521,1.38428 -2.82837,1.38428 -1.05103,0 -1.81153,-0.41016 -0.75195,-0.4187 -1.24756,-1.27319 z m 5.34913,-3.34106 q 0,-1.73462 -0.71778,-2.71729 -0.70923,-0.99121 -1.95679,-0.99121 -1.24755,0 -1.96533,0.99121 -0.70923,0.98267 -0.70923,2.71729 0,1.73462 0.70923,2.72583 0.71778,0.98266 1.96533,0.98266 1.24756,0 1.95679,-0.98266 0.71778,-0.99121 0.71778,-2.72583 z"
         style="font-size:17.5px;fill:#ffffff"
         id="path4278"
         inkscape:connector-curvature="0" />
      <path
         d="m 219.1797,219.37323 q -1.26465,0 -1.99951,0.99121 -0.73486,0.98267 -0.73486,2.7002 0,1.71753 0.72632,2.70874 0.73486,0.98266 2.00805,0.98266 1.25611,0 1.99097,-0.99121 0.73486,-0.99121 0.73486,-2.70019 0,-1.70044 -0.73486,-2.69165 -0.73486,-0.99976 -1.99097,-0.99976 z m 0,-1.33301 q 2.05078,0 3.22144,1.33301 1.17065,1.33301 1.17065,3.69141 0,2.34985 -1.17065,3.6914 -1.17066,1.33301 -3.22144,1.33301 -2.05932,0 -3.22998,-1.33301 -1.16211,-1.34155 -1.16211,-3.6914 0,-2.3584 1.16211,-3.69141 1.17066,-1.33301 3.22998,-1.33301 z"
         style="font-size:17.5px;fill:#ffffff"
         id="path4280"
         inkscape:connector-curvature="0" />
      <path
         d="m 226.084,225.67084 1.80298,0 0,2.17041 -1.80298,0 0,-2.17041 z"
         style="font-size:17.5px;fill:#ffffff"
         id="path4282"
         inkscape:connector-curvature="0" />
      <path
         d="m 239.38844,222.06488 0,5.77637 -1.57226,0 0,-5.7251 q 0,-1.35864 -0.52979,-2.03369 -0.52978,-0.67505 -1.58935,-0.67505 -1.2732,0 -2.00806,0.81177 -0.73486,0.81176 -0.73486,2.21313 l 0,5.40894 -1.58081,0 0,-13.2959 1.58081,0 0,5.2124 q 0.56396,-0.86304 1.32446,-1.29028 0.76904,-0.42725 1.7688,-0.42725 1.64917,0 2.49512,1.02539 0.84594,1.01685 0.84594,2.99927 z"
         style="font-size:17.5px;fill:#ffffff"
         id="path4284"
         inkscape:connector-curvature="0" />
    </g>
    <path
       sodipodi:nodetypes="csccsc"
       inkscape:connector-curvature="0"
       id="path4221"
       d="m 195.18223,130.84654 c 1.42857,-67.142854 -4.28571,-81.284994 15.71429,-81.284994 l 86.39118,0 m 96.01964,0 75.05189,0 c 20,0 14.28572,0 15.71429,67.142854"
       style="fill:none;fill-rule:evenodd;stroke:#172441;stroke-width:10;stroke-linecap:butt;stroke-linejoin:miter;stroke-miterlimit:4;stroke-dasharray:none;stroke-opacity:1;marker-end:url(#Arrow2Send)" />
    <g
       style="font-style:normal;font-weight:normal;font-size:30px;line-height:125%;font-family:sans-serif;letter-spacing:0px;word-spacing:0px;fill:#172441;fill-opacity:1;stroke:none;stroke-width:1px;stroke-linecap:butt;stroke-linejoin:miter;stroke-opacity:1"
       id="text5499">
      <path
         d="m 308.83612,54.085999 0,8.701171 -2.70996,0 0,-22.646484 2.70996,0 0,2.490234 q 0.84961,-1.464843 2.13867,-2.167968 1.30371,-0.717774 3.10547,-0.717774 2.98828,0 4.84863,2.373047 1.875,2.373047 1.875,6.240234 0,3.867188 -1.875,6.240235 -1.86035,2.373047 -4.84863,2.373047 -1.80176,0 -3.10547,-0.703125 -1.28906,-0.717774 -2.13867,-2.182617 z m 9.16992,-5.72754 q 0,-2.973632 -1.23047,-4.658203 -1.21582,-1.699218 -3.35449,-1.699218 -2.13867,0 -3.36914,1.699218 -1.21582,1.684571 -1.21582,4.658203 0,2.973633 1.21582,4.672852 1.23047,1.68457 3.36914,1.68457 2.13867,0 3.35449,-1.68457 1.23047,-1.699219 1.23047,-4.672852 z"
         style="fill:#172441;fill-opacity:1"
         id="path4401"
         inkscape:connector-curvature="0" />
      <path
         d="m 332.72772,48.299866 q -3.2666,0 -4.52637,0.74707 -1.25976,0.74707 -1.25976,2.548828 0,1.435547 0.9375,2.285156 0.95215,0.834961 2.57812,0.834961 2.24122,0 3.58887,-1.582031 1.36231,-1.59668 1.36231,-4.233398 l 0,-0.600586 -2.68067,0 z m 5.37598,-1.113282 0,9.360352 -2.69531,0 0,-2.490234 q -0.92286,1.49414 -2.29981,2.211914 -1.37695,0.703125 -3.36914,0.703125 -2.51953,0 -4.01367,-1.40625 -1.47949,-1.420899 -1.47949,-3.793946 0,-2.768554 1.8457,-4.174804 1.86035,-1.40625 5.53711,-1.40625 l 3.7793,0 0,-0.263672 q 0,-1.860352 -1.23047,-2.871094 -1.21582,-1.025391 -3.42774,-1.025391 -1.40625,0 -2.73925,0.336915 -1.33301,0.336914 -2.56348,1.010742 l 0,-2.490235 q 1.47949,-0.571289 2.87109,-0.849609 1.3916,-0.292969 2.70996,-0.292969 3.55957,0 5.31739,1.845703 1.75781,1.845703 1.75781,5.595703 z"
         style="fill:#172441;fill-opacity:1"
         id="path4403"
         inkscape:connector-curvature="0" />
      <path
         d="m 346.33612,35.482483 0,4.658203 5.55176,0 0,2.094727 -5.55176,0 0,8.90625 q 0,2.006836 0.54199,2.578125 0.55664,0.571289 2.24121,0.571289 l 2.76856,0 0,2.255859 -2.76856,0 q -3.12011,0 -4.30664,-1.157227 -1.18652,-1.171875 -1.18652,-4.248046 l 0,-8.90625 -1.97754,0 0,-2.094727 1.97754,0 0,-4.658203 2.70996,0 z"
         style="fill:#172441;fill-opacity:1"
         id="path4405"
         inkscape:connector-curvature="0" />
      <path
         d="m 369.08514,46.644592 0,9.902344 -2.69531,0 0,-9.814453 q 0,-2.329102 -0.9082,-3.486328 -0.9082,-1.157227 -2.72461,-1.157227 -2.18262,0 -3.44238,1.391602 -1.25977,1.391601 -1.25977,3.793945 l 0,9.272461 -2.70996,0 0,-22.792969 2.70996,0 0,8.935547 q 0.9668,-1.479492 2.27051,-2.211914 1.31836,-0.732422 3.03222,-0.732422 2.82715,0 4.27735,1.757813 1.45019,1.743164 1.45019,5.141601 z"
         style="fill:#172441;fill-opacity:1"
         id="path4407"
         inkscape:connector-curvature="0" />
      <path
         d="m 384.9494,40.624084 0,2.548829 q -1.14258,-0.585938 -2.37305,-0.878907 -1.23046,-0.292968 -2.54882,-0.292968 -2.00684,0 -3.01758,0.615234 -0.9961,0.615234 -0.9961,1.845703 0,0.9375 0.71778,1.479492 0.71777,0.527344 2.88574,1.010742 l 0.92285,0.205079 q 2.8711,0.615234 4.07227,1.743164 1.21582,1.113281 1.21582,3.120117 0,2.285156 -1.81641,3.618164 -1.80176,1.333008 -4.96582,1.333008 -1.31836,0 -2.7539,-0.263672 -1.4209,-0.249024 -3.00293,-0.761719 l 0,-2.783203 q 1.49414,0.776367 2.94433,1.171875 1.4502,0.380859 2.8711,0.380859 1.90429,0 2.92968,-0.644531 1.02539,-0.65918 1.02539,-1.845703 0,-1.098633 -0.74707,-1.68457 -0.73242,-0.585938 -3.2373,-1.12793 l -0.9375,-0.219727 q -2.50488,-0.527343 -3.61817,-1.611328 -1.11328,-1.098633 -1.11328,-3.002929 0,-2.314454 1.64063,-3.574219 1.64062,-1.259766 4.6582,-1.259766 1.49414,0 2.8125,0.219727 1.31836,0.219726 2.43164,0.659179 z"
         style="fill:#172441;fill-opacity:1"
         id="path4409"
         inkscape:connector-curvature="0" />
    </g>
    <rect
       style="fill:#f5404f;fill-opacity:1;stroke:#172441;stroke-width:4.99754;stroke-miterlimit:4;stroke-dasharray:none;stroke-opacity:1"
       id="rect4140-6"
       width="115.00246"
       height="30.00246"
       x="697.54022"
       y="208.57471" />
    <path
       style="fill:#f5404f;fill-opacity:1;stroke:#172441;stroke-width:4.99754;stroke-miterlimit:4;stroke-dasharray:none;stroke-opacity:1"
       d="m 697.5402,238.57471 115.00246,0 0,30.00246 -115.00246,0 z"
       id="rect4144-7"
       inkscape:connector-curvature="0" />
    <rect
       style="fill:#f5404f;fill-opacity:1;stroke:#172441;stroke-width:4.99754;stroke-miterlimit:4;stroke-dasharray:none;stroke-opacity:1"
       id="rect4182-5"
       width="115.00246"
       height="30.00246"
       x="697.54022"
       y="268.57471" />
    <g
       style="font-style:normal;font-weight:normal;font-size:40px;line-height:125%;font-family:sans-serif;letter-spacing:0px;word-spacing:0px;fill:#000000;fill-opacity:1;stroke:none;stroke-width:1px;stroke-linecap:butt;stroke-linejoin:miter;stroke-opacity:1"
       id="text4207-6"
       transform="translate(387.89857,-173.92898)">
      <path
         d="m 319.90543,391.74136 0,2.71729 3.23852,0 0,1.22192 -3.23852,0 0,5.19532 q 0,1.17065 0.31616,1.5039 0.32471,0.33325 1.30737,0.33325 l 1.61499,0 0,1.31592 -1.61499,0 q -1.82007,0 -2.51221,-0.67505 -0.69213,-0.68359 -0.69213,-2.47802 l 0,-5.19532 -1.15357,0 0,-1.22192 1.15357,0 0,-2.71729 1.58081,0 z"
         style="font-size:17.5px;fill:#ffffff"
         id="path4299"
         inkscape:connector-curvature="0" />
      <path
         d="m 333.4064,398.85074 0,0.76904 -7.229,0 q 0.10254,1.62354 0.97412,2.47803 0.88013,0.84595 2.44385,0.84595 0.90576,0 1.75171,-0.22217 0.85449,-0.22217 1.69189,-0.66651 l 0,1.48682 q -0.84595,0.35889 -1.73462,0.54688 -0.88867,0.18798 -1.80298,0.18798 -2.29004,0 -3.63159,-1.333 -1.33301,-1.33301 -1.33301,-3.60596 0,-2.34985 1.26465,-3.72559 1.2732,-1.38427 3.42652,-1.38427 1.93115,0 3.05053,1.24755 1.12793,1.23902 1.12793,3.37525 z m -1.57226,-0.46143 q -0.0171,-1.29028 -0.72632,-2.05932 -0.70068,-0.76905 -1.86279,-0.76905 -1.31592,0 -2.1106,0.74341 -0.78613,0.74341 -0.90576,2.09351 l 5.60547,-0.009 z"
         style="font-size:17.5px;fill:#ffffff"
         id="path4301"
         inkscape:connector-curvature="0" />
      <path
         d="m 342.08804,394.74063 0,1.48682 q -0.6665,-0.3418 -1.38427,-0.5127 -0.71778,-0.1709 -1.48682,-0.1709 -1.17065,0 -1.76025,0.35889 -0.58106,0.35889 -0.58106,1.07666 0,0.54688 0.4187,0.86304 0.4187,0.30761 1.68335,0.5896 l 0.53833,0.11963 q 1.67481,0.35888 2.37549,1.01684 0.70923,0.64942 0.70923,1.82007 0,1.33301 -1.05957,2.1106 -1.05103,0.77758 -2.89673,0.77758 -0.76904,0 -1.60645,-0.1538 -0.82885,-0.14527 -1.7517,-0.44434 l 0,-1.62354 q 0.87158,0.45289 1.71752,0.6836 0.84595,0.22217 1.67481,0.22217 1.11084,0 1.70898,-0.37598 0.59815,-0.38452 0.59815,-1.07666 0,-0.64087 -0.43579,-0.98267 -0.42725,-0.34179 -1.88843,-0.65796 l -0.54688,-0.12817 q -1.46118,-0.30762 -2.11059,-0.93994 -0.64942,-0.64087 -0.64942,-1.75171 0,-1.3501 0.95704,-2.08496 0.95703,-0.73486 2.71728,-0.73486 0.87158,0 1.64063,0.12817 0.76904,0.12817 1.41845,0.38452 z"
         style="font-size:17.5px;fill:#ffffff"
         id="path4303"
         inkscape:connector-curvature="0" />
      <path
         d="m 346.66812,391.74136 0,2.71729 3.23853,0 0,1.22192 -3.23853,0 0,5.19532 q 0,1.17065 0.31616,1.5039 0.32471,0.33325 1.30738,0.33325 l 1.61499,0 0,1.31592 -1.61499,0 q -1.82007,0 -2.51221,-0.67505 -0.69214,-0.68359 -0.69214,-2.47802 l 0,-5.19532 -1.15356,0 0,-1.22192 1.15356,0 0,-2.71729 1.58081,0 z"
         style="font-size:17.5px;fill:#ffffff"
         id="path4305"
         inkscape:connector-curvature="0" />
      <path
         d="m 352.20523,401.85855 1.80298,0 0,2.17041 -1.80298,0 0,-2.17041 z"
         style="font-size:17.5px;fill:#ffffff"
         id="path4307"
         inkscape:connector-curvature="0" />
      <path
         d="m 363.65543,394.74063 0,1.48682 q -0.66651,-0.3418 -1.38428,-0.5127 -0.71777,-0.1709 -1.48682,-0.1709 -1.17065,0 -1.76025,0.35889 -0.58106,0.35889 -0.58106,1.07666 0,0.54688 0.4187,0.86304 0.41871,0.30761 1.68335,0.5896 l 0.53833,0.11963 q 1.67481,0.35888 2.37549,1.01684 0.70923,0.64942 0.70923,1.82007 0,1.33301 -1.05957,2.1106 -1.05102,0.77758 -2.89673,0.77758 -0.76904,0 -1.60644,-0.1538 -0.82886,-0.14527 -1.75171,-0.44434 l 0,-1.62354 q 0.87158,0.45289 1.71753,0.6836 0.84594,0.22217 1.6748,0.22217 1.11084,0 1.70899,-0.37598 0.59814,-0.38452 0.59814,-1.07666 0,-0.64087 -0.43579,-0.98267 -0.42725,-0.34179 -1.88843,-0.65796 l -0.54687,-0.12817 q -1.46118,-0.30762 -2.1106,-0.93994 -0.64941,-0.64087 -0.64941,-1.75171 0,-1.3501 0.95703,-2.08496 0.95703,-0.73486 2.71728,-0.73486 0.87159,0 1.64063,0.12817 0.76904,0.12817 1.41846,0.38452 z"
         style="font-size:17.5px;fill:#ffffff"
         id="path4309"
         inkscape:connector-curvature="0" />
      <path
         d="m 374.63565,398.25259 0,5.77637 -1.57226,0 0,-5.7251 q 0,-1.35864 -0.52979,-2.03369 -0.52979,-0.67505 -1.58936,-0.67505 -1.27319,0 -2.00805,0.81177 -0.73487,0.81177 -0.73487,2.21314 l 0,5.40893 -1.58081,0 0,-13.2959 1.58081,0 0,5.21241 q 0.56397,-0.86304 1.32447,-1.29029 0.76904,-0.42724 1.7688,-0.42724 1.64917,0 2.49511,1.02539 0.84595,1.01684 0.84595,2.99926 z"
         style="font-size:17.5px;fill:#ffffff"
         id="path4311"
         inkscape:connector-curvature="0" />
    </g>
    <g
       style="font-style:normal;font-weight:normal;font-size:40px;line-height:125%;font-family:sans-serif;letter-spacing:0px;word-spacing:0px;fill:#000000;fill-opacity:1;stroke:none;stroke-width:1px;stroke-linecap:butt;stroke-linejoin:miter;stroke-opacity:1"
       id="text4211-9"
       transform="translate(387.89857,-173.92898)">
      <path
         d="m 324.45132,424.0528 0,1.48681 q -0.6665,-0.3418 -1.38427,-0.51269 -0.71778,-0.1709 -1.48682,-0.1709 -1.17065,0 -1.76025,0.35888 -0.58106,0.35889 -0.58106,1.07666 0,0.54688 0.4187,0.86304 0.4187,0.30762 1.68335,0.5896 l 0.53833,0.11963 q 1.67481,0.35889 2.37549,1.01685 0.70923,0.64941 0.70923,1.82006 0,1.33301 -1.05957,2.1106 -1.05103,0.77759 -2.89673,0.77759 -0.76904,0 -1.60644,-0.15381 -0.82886,-0.14526 -1.75171,-0.44434 l 0,-1.62353 q 0.87158,0.45288 1.71753,0.68359 0.84594,0.22217 1.6748,0.22217 1.11084,0 1.70899,-0.37598 0.59814,-0.38452 0.59814,-1.07666 0,-0.64087 -0.43579,-0.98266 -0.42725,-0.3418 -1.88843,-0.65796 l -0.54687,-0.12818 q -1.46119,-0.30761 -2.1106,-0.93994 -0.64941,-0.64087 -0.64941,-1.75171 0,-1.35009 0.95703,-2.08496 0.95703,-0.73486 2.71728,-0.73486 0.87158,0 1.64063,0.12817 0.76904,0.12818 1.41845,0.38453 z"
         style="font-size:17.5px;fill:#ffffff"
         id="path4412"
         inkscape:connector-curvature="0" />
      <path
         d="m 333.02188,425.24054 q -0.26489,-0.15381 -0.58105,-0.22217 -0.30762,-0.0769 -0.6836,-0.0769 -1.33301,0 -2.05078,0.87158 -0.70923,0.86304 -0.70923,2.48657 l 0,5.04151 -1.58081,0 0,-9.57032 1.58081,0 0,1.48682 q 0.49561,-0.87158 1.29029,-1.29028 0.79467,-0.42725 1.93115,-0.42725 0.16235,0 0.35889,0.0256 0.19653,0.0171 0.43579,0.0598 l 0.009,1.61499 z"
         style="font-size:17.5px;fill:#ffffff"
         id="path4414"
         inkscape:connector-curvature="0" />
      <path
         d="m 341.19937,424.13824 0,1.46973 q -0.6665,-0.36743 -1.34155,-0.54687 -0.66651,-0.18799 -1.3501,-0.18799 -1.52954,0 -2.37549,0.97412 -0.84594,0.96558 -0.84594,2.71728 0,1.75171 0.84594,2.72583 0.84595,0.96558 2.37549,0.96558 0.68359,0 1.3501,-0.17944 0.67505,-0.18799 1.34155,-0.55542 l 0,1.45263 q -0.65796,0.30762 -1.36719,0.46143 -0.70068,0.15381 -1.49536,0.15381 -2.16186,0 -3.43506,-1.35864 -1.27319,-1.35865 -1.27319,-3.66578 0,-2.3413 1.28174,-3.68286 1.29028,-1.34155 3.52905,-1.34155 0.72632,0 1.41846,0.15381 0.69214,0.14526 1.34155,0.44433 z"
         style="font-size:17.5px;fill:#ffffff"
         id="path4416"
         inkscape:connector-curvature="0" />
      <path
         d="m 346.74503,420.58356 1.45263,0 -4.44336,14.3811 -1.45263,0 4.44336,-14.3811 z"
         style="font-size:17.5px;fill:#ffffff"
         id="path4418"
         inkscape:connector-curvature="0" />
      <path
         d="m 351.38492,431.90558 0,5.07568 -1.58081,0 0,-13.21045 1.58081,0 0,1.45264 q 0.4956,-0.85449 1.24756,-1.26465 0.76049,-0.4187 1.81152,-0.4187 1.74316,0 2.82837,1.38428 1.09375,1.38427 1.09375,3.64013 0,2.25586 -1.09375,3.64014 -1.08521,1.38428 -2.82837,1.38428 -1.05103,0 -1.81152,-0.41016 -0.75196,-0.4187 -1.24756,-1.27319 z m 5.34912,-3.34107 q 0,-1.73461 -0.71777,-2.71728 -0.70923,-0.99121 -1.95679,-0.99121 -1.24756,0 -1.96533,0.99121 -0.70923,0.98267 -0.70923,2.71728 0,1.73462 0.70923,2.72583 0.71777,0.98267 1.96533,0.98267 1.24756,0 1.95679,-0.98267 0.71777,-0.99121 0.71777,-2.72583 z"
         style="font-size:17.5px;fill:#ffffff"
         id="path4420"
         inkscape:connector-curvature="0" />
      <path
         d="m 366.51797,425.24054 q -0.26489,-0.15381 -0.58105,-0.22217 -0.30762,-0.0769 -0.68359,-0.0769 -1.33301,0 -2.05078,0.87158 -0.70923,0.86304 -0.70923,2.48657 l 0,5.04151 -1.58081,0 0,-9.57032 1.58081,0 0,1.48682 q 0.4956,-0.87158 1.29028,-1.29028 0.79468,-0.42725 1.93115,-0.42725 0.16236,0 0.35889,0.0256 0.19653,0.0171 0.43579,0.0598 l 0.009,1.61499 z"
         style="font-size:17.5px;fill:#ffffff"
         id="path4422"
         inkscape:connector-curvature="0" />
      <path
         d="m 368.18423,423.77081 1.57227,0 0,9.57032 -1.57227,0 0,-9.57032 z m 0,-3.72558 1.57227,0 0,1.99096 -1.57227,0 0,-1.99096 z"
         style="font-size:17.5px;fill:#ffffff"
         id="path4424"
         inkscape:connector-curvature="0" />
      <path
         d="m 380.99307,427.56476 0,5.77637 -1.57226,0 0,-5.7251 q 0,-1.35864 -0.52979,-2.03369 -0.52978,-0.67505 -1.58935,-0.67505 -1.2732,0 -2.00806,0.81177 -0.73486,0.81176 -0.73486,2.21313 l 0,5.40894 -1.58081,0 0,-9.57032 1.58081,0 0,1.48682 q 0.56396,-0.86304 1.32446,-1.29028 0.76904,-0.42725 1.7688,-0.42725 1.64917,0 2.49512,1.02539 0.84594,1.01685 0.84594,2.99927 z"
         style="font-size:17.5px;fill:#ffffff"
         id="path4426"
         inkscape:connector-curvature="0" />
      <path
         d="m 385.70132,421.05353 0,2.71728 3.23853,0 0,1.22193 -3.23853,0 0,5.19531 q 0,1.17065 0.31617,1.50391 0.3247,0.33325 1.30737,0.33325 l 1.61499,0 0,1.31592 -1.61499,0 q -1.82007,0 -2.51221,-0.67505 -0.69214,-0.6836 -0.69214,-2.47803 l 0,-5.19531 -1.15356,0 0,-1.22193 1.15356,0 0,-2.71728 1.58081,0 z"
         style="font-size:17.5px;fill:#ffffff"
         id="path4428"
         inkscape:connector-curvature="0" />
      <path
         d="m 391.23843,431.17072 1.80298,0 0,2.17041 -1.80298,0 0,-2.17041 z"
         style="font-size:17.5px;fill:#ffffff"
         id="path4430"
         inkscape:connector-curvature="0" />
      <path
         d="m 403.47476,424.13824 0,1.46973 q -0.6665,-0.36743 -1.34155,-0.54687 -0.6665,-0.18799 -1.3501,-0.18799 -1.52954,0 -2.37549,0.97412 -0.84594,0.96558 -0.84594,2.71728 0,1.75171 0.84594,2.72583 0.84595,0.96558 2.37549,0.96558 0.6836,0 1.3501,-0.17944 0.67505,-0.18799 1.34155,-0.55542 l 0,1.45263 q -0.65796,0.30762 -1.36719,0.46143 -0.70068,0.15381 -1.49536,0.15381 -2.16186,0 -3.43506,-1.35864 -1.27319,-1.35865 -1.27319,-3.66578 0,-2.3413 1.28174,-3.68286 1.29028,-1.34155 3.52905,-1.34155 0.72632,0 1.41846,0.15381 0.69214,0.14526 1.34155,0.44433 z"
         style="font-size:17.5px;fill:#ffffff"
         id="path4432"
         inkscape:connector-curvature="0" />
    </g>
    <g
       style="font-style:normal;font-weight:normal;font-size:40px;line-height:125%;font-family:sans-serif;letter-spacing:0px;word-spacing:0px;fill:#000000;fill-opacity:1;stroke:none;stroke-width:1px;stroke-linecap:butt;stroke-linejoin:miter;stroke-opacity:1"
       id="text4215-2"
       transform="translate(387.89857,-173.92898)">
      <path
         d="m 324.45132,454.0528 0,1.48681 q -0.6665,-0.3418 -1.38427,-0.51269 -0.71778,-0.1709 -1.48682,-0.1709 -1.17065,0 -1.76025,0.35888 -0.58106,0.35889 -0.58106,1.07666 0,0.54688 0.4187,0.86304 0.4187,0.30762 1.68335,0.5896 l 0.53833,0.11963 q 1.67481,0.35889 2.37549,1.01685 0.70923,0.64941 0.70923,1.82006 0,1.33301 -1.05957,2.1106 -1.05103,0.77759 -2.89673,0.77759 -0.76904,0 -1.60644,-0.15381 -0.82886,-0.14526 -1.75171,-0.44434 l 0,-1.62353 q 0.87158,0.45288 1.71753,0.68359 0.84594,0.22217 1.6748,0.22217 1.11084,0 1.70899,-0.37598 0.59814,-0.38452 0.59814,-1.07666 0,-0.64087 -0.43579,-0.98266 -0.42725,-0.3418 -1.88843,-0.65796 l -0.54687,-0.12818 q -1.46119,-0.30761 -2.1106,-0.93994 -0.64941,-0.64087 -0.64941,-1.75171 0,-1.35009 0.95703,-2.08496 0.95703,-0.73486 2.71728,-0.73486 0.87158,0 1.64063,0.12817 0.76904,0.12818 1.41845,0.38453 z"
         style="font-size:17.5px;fill:#ffffff"
         id="path4326"
         inkscape:connector-curvature="0" />
      <path
         d="m 333.02188,455.24054 q -0.26489,-0.15381 -0.58105,-0.22217 -0.30762,-0.0769 -0.6836,-0.0769 -1.33301,0 -2.05078,0.87158 -0.70923,0.86304 -0.70923,2.48657 l 0,5.04151 -1.58081,0 0,-9.57032 1.58081,0 0,1.48682 q 0.49561,-0.87158 1.29029,-1.29028 0.79467,-0.42725 1.93115,-0.42725 0.16235,0 0.35889,0.0256 0.19653,0.0171 0.43579,0.0598 l 0.009,1.61499 z"
         style="font-size:17.5px;fill:#ffffff"
         id="path4328"
         inkscape:connector-curvature="0" />
      <path
         d="m 341.19937,454.13824 0,1.46973 q -0.6665,-0.36743 -1.34155,-0.54687 -0.66651,-0.18799 -1.3501,-0.18799 -1.52954,0 -2.37549,0.97412 -0.84594,0.96558 -0.84594,2.71728 0,1.75171 0.84594,2.72583 0.84595,0.96558 2.37549,0.96558 0.68359,0 1.3501,-0.17944 0.67505,-0.18799 1.34155,-0.55542 l 0,1.45263 q -0.65796,0.30762 -1.36719,0.46143 -0.70068,0.15381 -1.49536,0.15381 -2.16186,0 -3.43506,-1.35864 -1.27319,-1.35865 -1.27319,-3.66578 0,-2.3413 1.28174,-3.68286 1.29028,-1.34155 3.52905,-1.34155 0.72632,0 1.41846,0.15381 0.69214,0.14526 1.34155,0.44433 z"
         style="font-size:17.5px;fill:#ffffff"
         id="path4330"
         inkscape:connector-curvature="0" />
      <path
         d="m 346.74503,450.58356 1.45263,0 -4.44336,14.3811 -1.45263,0 4.44336,-14.3811 z"
         style="font-size:17.5px;fill:#ffffff"
         id="path4332"
         inkscape:connector-curvature="0" />
      <path
         d="m 354.82852,452.08746 -4.35791,6.81031 4.35791,0 0,-6.81031 z m -0.45288,-1.5039 2.17041,0 0,8.31421 1.82007,0 0,1.43554 -1.82007,0 0,3.00782 -1.71753,0 0,-3.00782 -5.75928,0 0,-1.66626 5.3064,-8.08349 z"
         style="font-size:17.5px;fill:#ffffff"
         id="path4334"
         inkscape:connector-curvature="0" />
      <path
         d="m 362.71548,461.88849 6.02417,0 0,1.45264 -8.10058,0 0,-1.45264 q 0.98266,-1.01685 2.67456,-2.72583 1.70044,-1.71753 2.13623,-2.21314 0.82886,-0.93139 1.15356,-1.57226 0.33326,-0.64942 0.33326,-1.2732 0,-1.01684 -0.71778,-1.65771 -0.70923,-0.64087 -1.85425,-0.64087 -0.81176,0 -1.71752,0.28198 -0.89722,0.28199 -1.92261,0.8545 l 0,-1.74317 q 1.04248,-0.4187 1.94824,-0.63232 0.90576,-0.21363 1.65771,-0.21363 1.98243,0 3.16163,0.99122 1.1792,0.99121 1.1792,2.64892 0,0.78613 -0.29908,1.49536 -0.29052,0.70069 -1.06811,1.65772 -0.21363,0.2478 -1.35864,1.43554 -1.14502,1.1792 -3.22999,3.30689 z"
         style="font-size:17.5px;fill:#ffffff"
         id="path4336"
         inkscape:connector-curvature="0" />
      <path
         d="m 372.37125,461.17072 1.80297,0 0,2.17041 -1.80297,0 0,-2.17041 z"
         style="font-size:17.5px;fill:#ffffff"
         id="path4338"
         inkscape:connector-curvature="0" />
      <path
         d="m 384.60757,454.13824 0,1.46973 q -0.6665,-0.36743 -1.34155,-0.54687 -0.6665,-0.18799 -1.3501,-0.18799 -1.52954,0 -2.37548,0.97412 -0.84595,0.96558 -0.84595,2.71728 0,1.75171 0.84595,2.72583 0.84594,0.96558 2.37548,0.96558 0.6836,0 1.3501,-0.17944 0.67505,-0.18799 1.34155,-0.55542 l 0,1.45263 q -0.65795,0.30762 -1.36718,0.46143 -0.70069,0.15381 -1.49536,0.15381 -2.16187,0 -3.43506,-1.35864 -1.2732,-1.35865 -1.2732,-3.66578 0,-2.3413 1.28174,-3.68286 1.29029,-1.34155 3.52905,-1.34155 0.72632,0 1.41846,0.15381 0.69214,0.14526 1.34155,0.44433 z"
         style="font-size:17.5px;fill:#ffffff"
         id="path4340"
         inkscape:connector-curvature="0" />
    </g>
    <path
       style="fill:none;fill-rule:evenodd;stroke:#172441;stroke-width:10;stroke-linecap:butt;stroke-linejoin:miter;stroke-miterlimit:4;stroke-dasharray:none;stroke-opacity:1;marker-end:url(#marker4494)"
       d="m 578.55853,223.63799 84.76,-1.1327"
       id="path4230"
       inkscape:connector-curvature="0"
       sodipodi:nodetypes="cc" />
    <circle
       style="fill:#f5404f;fill-opacity:1;fill-rule:evenodd;stroke:#172441;stroke-width:5;stroke-linecap:butt;stroke-linejoin:miter;stroke-miterlimit:4;stroke-dasharray:none;stroke-opacity:1"
       id="path3336-9"
       cx="533.04144"
       cy="501.00467"
       r="72.85714" />
    <path
       style="fill:#172441;fill-opacity:1;stroke:#004445;stroke-width:0;stroke-miterlimit:4;stroke-dasharray:none;stroke-opacity:1"
       d="m 480.24758,490.32323 a 54.999996,54.999996 0 0 0 28.13997,60.24616 l -1.87941,-2.81251 -10.21821,-15.28644 11.11638,-0.73142 a 39.999996,39.999996 0 0 1 -12.49529,-38.2561 39.999996,39.999996 0 0 1 47.52835,-30.67663 39.999996,39.999996 0 0 1 30.67663,47.52836 39.999996,39.999996 0 0 1 -45.68906,31.00502 l -2.56969,5.21238 -4.26924,8.65826 a 54.999996,54.999996 0 0 0 1.83995,0.46439 54.999996,54.999996 0 0 0 65.35148,-42.18037 54.999996,54.999996 0 0 0 -42.18037,-65.35148 54.999996,54.999996 0 0 0 -65.35149,42.18037 z"
       id="path4146-3"
       inkscape:connector-curvature="0"
       inkscape:transform-center-x="0.073363342"
       inkscape:transform-center-y="1.0539851" />
    <path
       sodipodi:type="star"
       style="fill:#172441;fill-opacity:1;stroke:#004445;stroke-width:0;stroke-miterlimit:4;stroke-dasharray:none;stroke-opacity:1"
       id="path4153-6"
       sodipodi:sides="3"
       sodipodi:cx="273.12"
       sodipodi:cy="152.82137"
       sodipodi:r1="18.985764"
       sodipodi:r2="9.4928818"
       sodipodi:arg1="0.52359878"
       sodipodi:arg2="1.5707963"
       inkscape:flatsided="false"
       inkscape:rounded="0"
       inkscape:randomized="0"
       d="m 289.56215,162.31425 -16.44215,0 -16.44216,0 8.22108,-14.23933 8.22108,-14.23932 8.22107,14.23932 z"
       inkscape:transform-center-y="48.526626"
       transform="matrix(0.49446865,-1.0030935,1.0030935,0.49446865,232.16542,743.087)"
       inkscape:transform-center-x="14.274572" />
    <g
       style="font-style:normal;font-weight:normal;font-size:35px;line-height:125%;font-family:sans-serif;letter-spacing:0px;word-spacing:0px;fill:#ffffff;fill-opacity:1;stroke:none;stroke-width:1px;stroke-linecap:butt;stroke-linejoin:miter;stroke-opacity:1"
       id="text4178-0"
       transform="translate(387.89857,-173.92898)">
      <path
         d="m 86.148712,668.84113 3.144531,0 3.930664,14.93652 3.913575,-14.93652 3.708498,0 3.93066,14.93652 3.91358,-14.93652 3.14453,0 -5.00733,19.14062 -3.70849,0 -4.118655,-15.68848 -4.135743,15.68848 -3.708496,0 -5.007324,-19.14062 z"
         id="path4381"
         inkscape:connector-curvature="0" />
      <path
         d="m 124.0369,671.04572 q -2.5293,0 -3.99903,1.98242 -1.46972,1.96533 -1.46972,5.40039 0,3.43506 1.45263,5.41748 1.46973,1.96533 4.01612,1.96533 2.5122,0 3.98193,-1.98242 1.46973,-1.98242 1.46973,-5.40039 0,-3.40088 -1.46973,-5.3833 -1.46973,-1.99951 -3.98193,-1.99951 z m 0,-2.66602 q 4.10156,0 6.44287,2.66602 2.34131,2.66601 2.34131,7.38281 0,4.6997 -2.34131,7.38281 -2.34131,2.66602 -6.44287,2.66602 -4.11866,0 -6.45997,-2.66602 -2.32421,-2.68311 -2.32421,-7.38281 0,-4.7168 2.32421,-7.38281 2.34131,-2.66602 6.45997,-2.66602 z"
         id="path4383"
         inkscape:connector-curvature="0" />
      <path
         d="m 149.1077,671.78058 q -0.52979,-0.30762 -1.16211,-0.44434 -0.61524,-0.15381 -1.36719,-0.15381 -2.66602,0 -4.10156,1.74317 -1.41846,1.72607 -1.41846,4.97314 l 0,10.08301 -3.16162,0 0,-19.14062 3.16162,0 0,2.97363 q 0.99121,-1.74317 2.58057,-2.58057 1.58935,-0.85449 3.8623,-0.85449 0.32471,0 0.71777,0.0513 0.39307,0.0342 0.87159,0.11963 l 0.0171,3.22998 z"
         id="path4385"
         inkscape:connector-curvature="0" />
      <path
         d="m 152.32059,661.38995 3.16162,0 0,15.70557 9.38232,-8.25439 4.01612,0 -10.15137,8.95507 10.57861,10.18555 -4.10156,0 -9.72412,-9.34814 0,9.34814 -3.16162,0 0,-26.5918 z"
         id="path4387"
         inkscape:connector-curvature="0" />
      <path
         d="m 187.88455,677.62531 0,1.53808 -14.45801,0 q 0.20508,3.24707 1.94825,4.95606 1.76025,1.69189 4.88769,1.69189 1.81153,0 3.50342,-0.44434 1.70898,-0.44433 3.38379,-1.333 l 0,2.97363 q -1.6919,0.71777 -3.46924,1.09375 -1.77734,0.37598 -3.60596,0.37598 -4.58007,0 -7.26318,-2.66602 -2.66602,-2.66602 -2.66602,-7.21191 0,-4.69971 2.5293,-7.45118 2.54639,-2.76855 6.85303,-2.76855 3.8623,0 6.10107,2.49512 2.25586,2.47802 2.25586,6.75049 z m -3.14453,-0.92286 q -0.0342,-2.58056 -1.45264,-4.11865 -1.40136,-1.53808 -3.72558,-1.53808 -2.63184,0 -4.22119,1.48681 -1.57227,1.48682 -1.81153,4.18701 l 11.21094,-0.0171 z"
         id="path4389"
         inkscape:connector-curvature="0" />
      <path
         d="m 204.13699,671.78058 q -0.52978,-0.30762 -1.16211,-0.44434 -0.61523,-0.15381 -1.36718,-0.15381 -2.66602,0 -4.10157,1.74317 -1.41845,1.72607 -1.41845,4.97314 l 0,10.08301 -3.16162,0 0,-19.14062 3.16162,0 0,2.97363 q 0.99121,-1.74317 2.58056,-2.58057 1.58936,-0.85449 3.86231,-0.85449 0.32471,0 0.71777,0.0513 0.39307,0.0342 0.87158,0.11963 l 0.0171,3.22998 z"
         id="path4391"
         inkscape:connector-curvature="0" />
    </g>
    <circle
       r="72.85714"
       cy="499.00467"
       cx="753.04144"
       id="circle4532"
       style="fill:#f5404f;fill-opacity:1;fill-rule:evenodd;stroke:#172441;stroke-width:5;stroke-linecap:butt;stroke-linejoin:miter;stroke-miterlimit:4;stroke-dasharray:none;stroke-opacity:1" />
    <path
       inkscape:transform-center-y="-0.78396235"
       inkscape:transform-center-x="0.70634832"
       inkscape:connector-curvature="0"
       id="path4534"
       d="m 799.08495,467.47253 a 54.999996,54.999996 0 0 0 -62.87023,-21.6516 l 3.32828,0.60409 18.09205,3.28095 -7.2018,8.49958 a 39.999996,39.999996 0 0 1 36.18697,17.61149 39.999996,39.999996 0 0 1 -10.98726,55.49125 39.999996,39.999996 0 0 1 -55.49126,-10.98726 39.999996,39.999996 0 0 1 9.4726,-54.39735 l -1.96064,-5.47065 -3.25632,-9.08781 a 54.999996,54.999996 0 0 0 -1.61287,0.99985 54.999996,54.999996 0 0 0 -15.10748,76.30048 54.999996,54.999996 0 0 0 76.30048,15.10748 54.999996,54.999996 0 0 0 15.10749,-76.3005 z"
       style="fill:#172441;fill-opacity:1;stroke:#004445;stroke-width:0;stroke-miterlimit:4;stroke-dasharray:none;stroke-opacity:1" />
    <path
       inkscape:transform-center-x="20.175869"
       transform="matrix(0.37735344,1.0527584,-1.0527584,0.37735344,789.83806,113.42624)"
       inkscape:transform-center-y="-36.64934"
       d="m 289.56215,162.31425 -16.44215,0 -16.44216,0 8.22108,-14.23933 8.22108,-14.23932 8.22107,14.23932 z"
       inkscape:randomized="0"
       inkscape:rounded="0"
       inkscape:flatsided="false"
       sodipodi:arg2="1.5707963"
       sodipodi:arg1="0.52359878"
       sodipodi:r2="9.4928818"
       sodipodi:r1="18.985764"
       sodipodi:cy="152.82137"
       sodipodi:cx="273.12"
       sodipodi:sides="3"
       id="path4536"
       style="fill:#172441;fill-opacity:1;stroke:#004445;stroke-width:0;stroke-miterlimit:4;stroke-dasharray:none;stroke-opacity:1"
       sodipodi:type="star" />
    <g
       style="font-style:normal;font-weight:normal;font-size:35px;line-height:125%;font-family:sans-serif;letter-spacing:0px;word-spacing:0px;fill:#ffffff;fill-opacity:1;stroke:none;stroke-width:1px;stroke-linecap:butt;stroke-linejoin:miter;stroke-opacity:1"
       id="text4538"
       transform="translate(387.89857,-173.92898)">
      <path
         d="m 306.14871,666.84113 3.14453,0 3.93067,14.93652 3.91357,-14.93652 3.7085,0 3.93066,14.93652 3.91358,-14.93652 3.14453,0 -5.00733,19.14062 -3.70849,0 -4.11866,-15.68848 -4.13574,15.68848 -3.70849,0 -5.00733,-19.14062 z"
         id="path4343"
         inkscape:connector-curvature="0" />
      <path
         d="m 344.0369,669.04572 q -2.5293,0 -3.99903,1.98242 -1.46972,1.96533 -1.46972,5.40039 0,3.43506 1.45263,5.41748 1.46973,1.96533 4.01612,1.96533 2.5122,0 3.98193,-1.98242 1.46973,-1.98242 1.46973,-5.40039 0,-3.40088 -1.46973,-5.3833 -1.46973,-1.99951 -3.98193,-1.99951 z m 0,-2.66602 q 4.10156,0 6.44287,2.66602 2.34131,2.66601 2.34131,7.38281 0,4.6997 -2.34131,7.38281 -2.34131,2.66602 -6.44287,2.66602 -4.11866,0 -6.45997,-2.66602 -2.32421,-2.68311 -2.32421,-7.38281 0,-4.7168 2.32421,-7.38281 2.34131,-2.66602 6.45997,-2.66602 z"
         id="path4345"
         inkscape:connector-curvature="0" />
      <path
         d="m 369.1077,669.78058 q -0.52979,-0.30762 -1.16211,-0.44434 -0.61524,-0.15381 -1.36719,-0.15381 -2.66602,0 -4.10156,1.74317 -1.41846,1.72607 -1.41846,4.97314 l 0,10.08301 -3.16162,0 0,-19.14062 3.16162,0 0,2.97363 q 0.99121,-1.74317 2.58057,-2.58057 1.58935,-0.85449 3.8623,-0.85449 0.32471,0 0.71777,0.0513 0.39307,0.0342 0.87159,0.11963 l 0.0171,3.22998 z"
         id="path4347"
         inkscape:connector-curvature="0" />
      <path
         d="m 372.32059,659.38995 3.16162,0 0,15.70557 9.38232,-8.25439 4.01612,0 -10.15137,8.95507 10.57861,10.18555 -4.10156,0 -9.72412,-9.34814 0,9.34814 -3.16162,0 0,-26.5918 z"
         id="path4349"
         inkscape:connector-curvature="0" />
      <path
         d="m 407.88455,675.62531 0,1.53808 -14.45801,0 q 0.20508,3.24707 1.94825,4.95606 1.76025,1.69189 4.88769,1.69189 1.81153,0 3.50342,-0.44434 1.70898,-0.44433 3.38379,-1.333 l 0,2.97363 q -1.6919,0.71777 -3.46924,1.09375 -1.77734,0.37598 -3.60596,0.37598 -4.58007,0 -7.26318,-2.66602 -2.66602,-2.66602 -2.66602,-7.21191 0,-4.69971 2.5293,-7.45118 2.54639,-2.76855 6.85303,-2.76855 3.8623,0 6.10107,2.49512 2.25586,2.47802 2.25586,6.75049 z m -3.14453,-0.92286 q -0.0342,-2.58056 -1.45264,-4.11865 -1.40136,-1.53808 -3.72558,-1.53808 -2.63184,0 -4.22119,1.48681 -1.57227,1.48682 -1.81153,4.18701 l 11.21094,-0.0171 z"
         id="path4351"
         inkscape:connector-curvature="0" />
      <path
         d="m 424.13699,669.78058 q -0.52978,-0.30762 -1.16211,-0.44434 -0.61523,-0.15381 -1.36718,-0.15381 -2.66602,0 -4.10157,1.74317 -1.41845,1.72607 -1.41845,4.97314 l 0,10.08301 -3.16162,0 0,-19.14062 3.16162,0 0,2.97363 q 0.99121,-1.74317 2.58056,-2.58057 1.58936,-0.85449 3.86231,-0.85449 0.32471,0 0.71777,0.0513 0.39307,0.0342 0.87158,0.11963 l 0.0171,3.22998 z"
         id="path4353"
         inkscape:connector-curvature="0" />
    </g>
    <path
       style="fill:none;fill-rule:evenodd;stroke:#172441;stroke-width:10;stroke-linecap:butt;stroke-linejoin:miter;stroke-miterlimit:4;stroke-dasharray:none;stroke-opacity:1;marker-end:url(#marker4544)"
       d="m 750.75571,311.29037 c 0,64.28571 -75.71428,54.28571 -145.71428,54.28571 -70,0 -65.7108,29.4537 -69.24633,39.97939"
       id="path4542"
       inkscape:connector-curvature="0"
       sodipodi:nodetypes="csc" />
    <path
       style="fill:none;fill-rule:evenodd;stroke:#172441;stroke-width:10;stroke-linecap:butt;stroke-linejoin:miter;stroke-miterlimit:4;stroke-dasharray:none;stroke-opacity:1;marker-end:url(#marker4550)"
       d="m 750.75777,305.44423 0,97.9848"
       id="path4548"
       inkscape:connector-curvature="0" />
    <path
       sodipodi:nodetypes="csc"
       inkscape:connector-curvature="0"
       id="path4554"
       d="m 750.76645,311.2588 c 0,64.28571 75.71428,54.28571 145.71428,54.28571 70,0 65.7108,29.4537 69.24633,39.97939"
       style="fill:none;fill-opacity:1;fill-rule:evenodd;stroke:url(#linearGradient4566);stroke-width:10;stroke-linecap:butt;stroke-linejoin:miter;stroke-miterlimit:4;stroke-dasharray:40, 10;stroke-dashoffset:43;stroke-opacity:1" />
    <g
       transform="matrix(0,1,-1,0,1125.7758,679.22729)"
       style="font-style:normal;font-weight:normal;font-size:30px;line-height:125%;font-family:sans-serif;letter-spacing:0px;word-spacing:0px;fill:#172441;fill-opacity:1;stroke:none;stroke-width:1px;stroke-linecap:butt;stroke-linejoin:miter;stroke-opacity:1"
       id="text5499-2">
      <path
         d="m -459.72015,266.87039 0,-8.87695 2.69531,0 0,22.79297 -2.69531,0 0,-2.46094 q -0.84961,1.46484 -2.15332,2.18262 -1.28907,0.70312 -3.10547,0.70312 -2.97364,0 -4.84864,-2.37304 -1.86035,-2.37305 -1.86035,-6.24024 0,-3.86719 1.86035,-6.24023 1.875,-2.37305 4.84864,-2.37305 1.8164,0 3.10547,0.71777 1.30371,0.70313 2.15332,2.16797 z m -9.18457,5.72754 q 0,2.97363 1.21582,4.67285 1.23046,1.68457 3.36914,1.68457 2.13867,0 3.36914,-1.68457 1.23047,-1.69922 1.23047,-4.67285 0,-2.97363 -1.23047,-4.6582 -1.23047,-1.69922 -3.36914,-1.69922 -2.13868,0 -3.36914,1.69922 -1.21582,1.68457 -1.21582,4.6582 z"
         id="path4314"
         inkscape:connector-curvature="0"
         style="fill:#172441;fill-opacity:1" />
      <path
         d="m -437.43988,271.90945 0,1.31836 -12.39258,0 q 0.17578,2.78321 1.66992,4.24805 1.50879,1.4502 4.18946,1.4502 1.55273,0 3.00293,-0.38086 1.46484,-0.38086 2.90039,-1.14258 l 0,2.54883 q -1.4502,0.61523 -2.97364,0.9375 -1.52343,0.32226 -3.09082,0.32226 -3.92578,0 -6.22558,-2.28515 -2.28516,-2.28516 -2.28516,-6.18164 0,-4.02833 2.16797,-6.38672 2.18262,-2.37305 5.87402,-2.37305 3.31055,0 5.2295,2.13867 1.93359,2.12402 1.93359,5.78613 z m -2.69531,-0.79101 q -0.0293,-2.21192 -1.24512,-3.53027 -1.20117,-1.31836 -3.19336,-1.31836 -2.25586,0 -3.61816,1.27441 -1.34766,1.27441 -1.55274,3.58887 l 9.60938,-0.0146 z"
         id="path4316"
         inkscape:connector-curvature="0"
         style="fill:#172441;fill-opacity:1" />
      <path
         d="m -431.40472,272.59793 q 0,2.97363 1.21582,4.67285 1.23046,1.68457 3.36914,1.68457 2.13867,0 3.36914,-1.68457 1.23047,-1.69922 1.23047,-4.67285 0,-2.97363 -1.23047,-4.6582 -1.23047,-1.69922 -3.36914,-1.69922 -2.13868,0 -3.36914,1.69922 -1.21582,1.68457 -1.21582,4.6582 z m 9.18457,5.72754 q -0.84961,1.46484 -2.15332,2.18262 -1.28907,0.70312 -3.10547,0.70312 -2.97364,0 -4.84864,-2.37304 -1.86035,-2.37305 -1.86035,-6.24024 0,-3.86719 1.86035,-6.24023 1.875,-2.37305 4.84864,-2.37305 1.8164,0 3.10547,0.71777 1.30371,0.70313 2.15332,2.16797 l 0,-2.49023 2.69531,0 0,22.64648 -2.69531,0 0,-8.70117 z"
         id="path4318"
         inkscape:connector-curvature="0"
         style="fill:#172441;fill-opacity:1" />
      <path
         d="m -414.2514,274.3118 0,-9.93164 2.69531,0 0,9.8291 q 0,2.3291 0.9082,3.50098 0.9082,1.15722 2.72461,1.15722 2.18262,0 3.44238,-1.3916 1.27442,-1.3916 1.27442,-3.79394 l 0,-9.30176 2.69531,0 0,16.40625 -2.69531,0 0,-2.51953 q -0.98145,1.49414 -2.28516,2.22656 -1.28906,0.71777 -3.00293,0.71777 -2.82715,0 -4.29199,-1.75781 -1.46484,-1.75781 -1.46484,-5.1416 z m 6.78222,-10.32715 0,0 z"
         id="path4320"
         inkscape:connector-curvature="0"
         style="fill:#172441;fill-opacity:1" />
      <path
         d="m -380.89691,271.90945 0,1.31836 -12.39258,0 q 0.17578,2.78321 1.66992,4.24805 1.50879,1.4502 4.18946,1.4502 1.55273,0 3.00292,-0.38086 1.46485,-0.38086 2.9004,-1.14258 l 0,2.54883 q -1.4502,0.61523 -2.97364,0.9375 -1.52343,0.32226 -3.09082,0.32226 -3.92578,0 -6.22558,-2.28515 -2.28516,-2.28516 -2.28516,-6.18164 0,-4.02833 2.16797,-6.38672 2.18262,-2.37305 5.87402,-2.37305 3.31055,0 5.22949,2.13867 1.9336,2.12402 1.9336,5.78613 z m -2.69531,-0.79101 q -0.0293,-2.21192 -1.24512,-3.53027 -1.20117,-1.31836 -3.19336,-1.31836 -2.25586,0 -3.61816,1.27441 -1.34766,1.27441 -1.55274,3.58887 l 9.60938,-0.0146 z"
         id="path4322"
         inkscape:connector-curvature="0"
         style="fill:#172441;fill-opacity:1" />
    </g>
    <rect
       style="fill:#f5404f;fill-opacity:1;stroke:#172441;stroke-width:5;stroke-linecap:butt;stroke-miterlimit:4;stroke-dasharray:none;stroke-dashoffset:0;stroke-opacity:1"
       id="rect4594"
       width="196.49989"
       height="61.499897"
       x="702.63599"
       y="705.5564" />
    <g
       style="font-style:normal;font-weight:normal;font-size:35px;line-height:125%;font-family:sans-serif;letter-spacing:0px;word-spacing:0px;fill:#ffffff;fill-opacity:1;stroke:none;stroke-width:1px;stroke-linecap:butt;stroke-linejoin:miter;stroke-opacity:1"
       id="text4596"
       transform="translate(387.89857,-173.92898)">
      <path
         d="m 394.48761,905.33905 q -2.5293,0 -3.99902,1.98242 -1.46973,1.96533 -1.46973,5.40039 0,3.43506 1.45264,5.41748 1.46972,1.96534 4.01611,1.96534 2.51221,0 3.98193,-1.98243 1.46973,-1.98242 1.46973,-5.40039 0,-3.40088 -1.46973,-5.3833 -1.46972,-1.99951 -3.98193,-1.99951 z m 0,-2.66602 q 4.10156,0 6.44287,2.66602 2.34131,2.66602 2.34131,7.38281 0,4.69971 -2.34131,7.38282 -2.34131,2.66601 -6.44287,2.66601 -4.11865,0 -6.45996,-2.66601 -2.32422,-2.68311 -2.32422,-7.38282 0,-4.71679 2.32422,-7.38281 2.34131,-2.66602 6.45996,-2.66602 z"
         id="path4394"
         inkscape:connector-curvature="0" />
      <path
         d="m 408.1424,914.72137 0,-11.58691 3.14453,0 0,11.46729 q 0,2.71728 1.05957,4.08447 1.05957,1.3501 3.17871,1.3501 2.54638,0 4.01611,-1.62354 1.48682,-1.62353 1.48682,-4.42627 l 0,-10.85205 3.14453,0 0,19.14063 -3.14453,0 0,-2.93946 q -1.14502,1.74317 -2.66602,2.59766 -1.5039,0.8374 -3.50342,0.8374 -3.29834,0 -5.00732,-2.05078 -1.70898,-2.05078 -1.70898,-5.99854 z m 7.91259,-12.04834 0,0 z"
         id="path4396"
         inkscape:connector-curvature="0" />
      <path
         d="m 433.79425,897.69989 0,5.43457 6.47705,0 0,2.44385 -6.47705,0 0,10.39062 q 0,2.34131 0.63232,3.00782 0.64942,0.6665 2.61475,0.6665 l 3.22998,0 0,2.63184 -3.22998,0 q -3.64014,0 -5.02441,-1.3501 -1.38428,-1.36719 -1.38428,-4.95606 l 0,-10.39062 -2.30713,0 0,-2.44385 2.30713,0 0,-5.43457 3.16162,0 z"
         id="path4398"
         inkscape:connector-curvature="0" />
    </g>
    <path
       sodipodi:nodetypes="csc"
       inkscape:connector-curvature="0"
       id="path4611"
       d="m 534.60861,585.29037 c 0,64.28571 75.71428,54.28571 145.71428,54.28571 70,0 65.7108,29.4537 69.24633,39.97939"
       style="fill:none;fill-rule:evenodd;stroke:#172441;stroke-width:10;stroke-linecap:butt;stroke-linejoin:miter;stroke-miterlimit:4;stroke-dasharray:none;stroke-opacity:1;marker-end:url(#marker4613)" />
    <path
       style="fill:none;fill-rule:evenodd;stroke:#172441;stroke-width:10;stroke-linecap:butt;stroke-linejoin:miter;stroke-miterlimit:4;stroke-dasharray:none;stroke-opacity:1;marker-end:url(#marker4550-1)"
       d="m 772.20205,582.01612 27.31135,94.1016"
       id="path4548-7"
       inkscape:connector-curvature="0" />
    <path
       style="opacity:1;fill:none;fill-rule:evenodd;stroke:url(#linearGradient4654);stroke-width:10;stroke-linecap:butt;stroke-linejoin:miter;stroke-miterlimit:4;stroke-dasharray:40, 10;stroke-dashoffset:0;stroke-opacity:1;marker-start:url(#marker4644)"
       d="m 842.60861,679.29559 c 11.11168,-62.77048 75.71428,-54.28571 145.71428,-54.28571 70.00001,0 65.71081,-29.4537 69.24631,-39.97939"
       id="path4638"
       inkscape:connector-curvature="0"
       sodipodi:nodetypes="csc" />
    <g
       style="font-style:normal;font-weight:normal;font-size:30px;line-height:125%;font-family:sans-serif;letter-spacing:0px;word-spacing:0px;fill:#172441;fill-opacity:1;stroke:none;stroke-width:1px;stroke-linecap:butt;stroke-linejoin:miter;stroke-opacity:0.45882353"
       id="text4656"
       transform="translate(387.89857,-173.92898)">
      <path
         d="m 468.73166,722.57385 q 1.01074,-1.8164 2.41699,-2.68066 1.40625,-0.86426 3.31055,-0.86426 2.56347,0 3.95508,1.80176 1.3916,1.78711 1.3916,5.09765 l 0,9.90235 -2.70996,0 0,-9.81445 q 0,-2.3584 -0.83496,-3.50098 -0.83497,-1.14258 -2.54883,-1.14258 -2.09473,0 -3.31055,1.3916 -1.21582,1.3916 -1.21582,3.79395 l 0,9.27246 -2.70996,0 0,-9.81445 q 0,-2.37305 -0.83496,-3.50098 -0.83496,-1.14258 -2.57813,-1.14258 -2.06543,0 -3.28125,1.40625 -1.21582,1.3916 -1.21582,3.7793 l 0,9.27246 -2.70996,0 0,-16.40625 2.70996,0 0,2.54883 q 0.92285,-1.50879 2.21192,-2.22657 1.28906,-0.71777 3.06152,-0.71777 1.78711,0 3.03223,0.9082 1.25976,0.90821 1.86035,2.63672 z"
         style="fill:#172441;fill-opacity:1"
         id="path4356"
         inkscape:connector-curvature="0" />
      <path
         d="m 492.65256,727.58362 q -3.2666,0 -4.52637,0.74707 -1.25977,0.74707 -1.25977,2.54883 0,1.43554 0.9375,2.28515 0.95215,0.83496 2.57813,0.83496 2.24121,0 3.58887,-1.58203 1.3623,-1.59668 1.3623,-4.2334 l 0,-0.60058 -2.68066,0 z m 5.37597,-1.11328 0,9.36035 -2.69531,0 0,-2.49024 q -0.92285,1.49414 -2.2998,2.21192 -1.37696,0.70312 -3.36914,0.70312 -2.51954,0 -4.01368,-1.40625 -1.47949,-1.4209 -1.47949,-3.79394 0,-2.76856 1.84571,-4.17481 1.86035,-1.40625 5.5371,-1.40625 l 3.7793,0 0,-0.26367 q 0,-1.86035 -1.23047,-2.87109 -1.21582,-1.02539 -3.42773,-1.02539 -1.40625,0 -2.73926,0.33691 -1.33301,0.33692 -2.56348,1.01074 l 0,-2.49023 q 1.4795,-0.57129 2.8711,-0.84961 1.3916,-0.29297 2.70996,-0.29297 3.55957,0 5.31738,1.8457 1.75781,1.84571 1.75781,5.59571 z"
         style="fill:#172441;fill-opacity:1"
         id="path4358"
         inkscape:connector-curvature="0" />
      <path
         d="m 506.26096,714.76624 0,4.6582 5.55175,0 0,2.09473 -5.55175,0 0,8.90625 q 0,2.00683 0.54199,2.57812 0.55664,0.57129 2.24121,0.57129 l 2.76855,0 0,2.25586 -2.76855,0 q -3.12012,0 -4.30664,-1.15723 -1.18653,-1.17187 -1.18653,-4.24804 l 0,-8.90625 -1.97753,0 0,-2.09473 1.97753,0 0,-4.6582 2.70997,0 z"
         style="fill:#172441;fill-opacity:1"
         id="path4360"
         inkscape:connector-curvature="0" />
      <path
         d="m 527.17892,720.05432 0,2.51953 q -1.14257,-0.62988 -2.2998,-0.9375 -1.14258,-0.32226 -2.31445,-0.32226 -2.62207,0 -4.07227,1.66992 -1.45019,1.65527 -1.45019,4.6582 0,3.00293 1.45019,4.67285 1.4502,1.65528 4.07227,1.65528 1.17187,0 2.31445,-0.30762 1.15723,-0.32227 2.2998,-0.95215 l 0,2.49024 q -1.12793,0.52734 -2.34375,0.79101 -1.20117,0.26367 -2.56347,0.26367 -3.70606,0 -5.88867,-2.3291 -2.18262,-2.3291 -2.18262,-6.28418 0,-4.01367 2.19726,-6.31347 2.21192,-2.29981 6.04981,-2.29981 1.24512,0 2.43164,0.26367 1.18652,0.24903 2.2998,0.76172 z"
         style="fill:#172441;fill-opacity:1"
         id="path4362"
         inkscape:connector-curvature="0" />
      <path
         d="m 545.53342,725.92834 0,9.90235 -2.69532,0 0,-9.81445 q 0,-2.32911 -0.9082,-3.48633 -0.9082,-1.15723 -2.72461,-1.15723 -2.18262,0 -3.44238,1.3916 -1.25977,1.3916 -1.25977,3.79395 l 0,9.27246 -2.70996,0 0,-22.79297 2.70996,0 0,8.93555 q 0.9668,-1.4795 2.27051,-2.21192 1.31836,-0.73242 3.03223,-0.73242 2.82715,0 4.27734,1.75781 1.4502,1.74317 1.4502,5.1416 z"
         style="fill:#172441;fill-opacity:1"
         id="path4364"
         inkscape:connector-curvature="0" />
      <path
         d="m 564.97189,726.95374 0,1.31835 -12.39257,0 q 0.17578,2.78321 1.66992,4.24805 1.50879,1.4502 4.18945,1.4502 1.55273,0 3.00293,-0.38086 1.46484,-0.38086 2.90039,-1.14258 l 0,2.54883 q -1.45019,0.61523 -2.97363,0.9375 -1.52344,0.32226 -3.09082,0.32226 -3.92578,0 -6.22559,-2.28515 -2.28515,-2.28516 -2.28515,-6.18164 0,-4.02832 2.16796,-6.38672 2.18262,-2.37305 5.87403,-2.37305 3.31054,0 5.22949,2.13867 1.93359,2.12403 1.93359,5.78614 z m -2.69531,-0.79102 q -0.0293,-2.21191 -1.24512,-3.53027 -1.20117,-1.31836 -3.19336,-1.31836 -2.25586,0 -3.61816,1.27441 -1.34766,1.27442 -1.55273,3.58887 l 9.60937,-0.0146 z"
         style="fill:#172441;fill-opacity:1"
         id="path4366"
         inkscape:connector-curvature="0" />
      <path
         d="m 580.19162,721.91467 0,-8.87695 2.69531,0 0,22.79297 -2.69531,0 0,-2.46094 q -0.84961,1.46484 -2.15332,2.18262 -1.28906,0.70312 -3.10547,0.70312 -2.97363,0 -4.84863,-2.37304 -1.86035,-2.37305 -1.86035,-6.24024 0,-3.86719 1.86035,-6.24023 1.875,-2.37305 4.84863,-2.37305 1.81641,0 3.10547,0.71777 1.30371,0.70313 2.15332,2.16797 z m -9.18457,5.72754 q 0,2.97363 1.21582,4.67285 1.23047,1.68457 3.36914,1.68457 2.13867,0 3.36914,-1.68457 1.23047,-1.69922 1.23047,-4.67285 0,-2.97363 -1.23047,-4.6582 -1.23047,-1.69922 -3.36914,-1.69922 -2.13867,0 -3.36914,1.69922 -1.21582,1.68457 -1.21582,4.6582 z"
         style="fill:#172441;fill-opacity:1"
         id="path4368"
         inkscape:connector-curvature="0" />
      <path
         d="m 455.95822,750.53772 2.69531,0 0,22.79297 -2.69531,0 0,-22.79297 z"
         style="fill:#172441;fill-opacity:1"
         id="path4370"
         inkscape:connector-curvature="0" />
      <path
         d="m 464.27853,756.92444 2.69532,0 0,16.40625 -2.69532,0 0,-16.40625 z m 0,-6.38672 2.69532,0 0,3.41309 -2.69532,0 0,-3.41309 z"
         style="fill:#172441;fill-opacity:1"
         id="path4372"
         inkscape:connector-curvature="0" />
      <path
         d="m 486.23654,763.42834 0,9.90235 -2.69531,0 0,-9.81445 q 0,-2.32911 -0.9082,-3.48633 -0.90821,-1.15723 -2.72461,-1.15723 -2.18262,0 -3.44239,1.3916 -1.25976,1.3916 -1.25976,3.79395 l 0,9.27246 -2.70996,0 0,-16.40625 2.70996,0 0,2.54883 q 0.9668,-1.4795 2.27051,-2.21192 1.31836,-0.73242 3.03222,-0.73242 2.82715,0 4.27735,1.75781 1.45019,1.74317 1.45019,5.1416 z"
         style="fill:#172441;fill-opacity:1"
         id="path4374"
         inkscape:connector-curvature="0" />
      <path
         d="m 505.67502,764.45374 0,1.31835 -12.39258,0 q 0.17578,2.78321 1.66992,4.24805 1.50879,1.4502 4.18946,1.4502 1.55273,0 3.00292,-0.38086 1.46485,-0.38086 2.9004,-1.14258 l 0,2.54883 q -1.4502,0.61523 -2.97364,0.9375 -1.52343,0.32226 -3.09082,0.32226 -3.92578,0 -6.22558,-2.28515 -2.28516,-2.28516 -2.28516,-6.18164 0,-4.02832 2.16797,-6.38672 2.18262,-2.37305 5.87402,-2.37305 3.31055,0 5.22949,2.13867 1.9336,2.12403 1.9336,5.78614 z m -2.69531,-0.79102 q -0.0293,-2.21191 -1.24512,-3.53027 -1.20117,-1.31836 -3.19336,-1.31836 -2.25586,0 -3.61816,1.27441 -1.34766,1.27442 -1.55274,3.58887 l 9.60938,-0.0146 z"
         style="fill:#172441;fill-opacity:1"
         id="path4376"
         inkscape:connector-curvature="0" />
      <path
         d="m 520.55783,757.40784 0,2.54883 q -1.14258,-0.58594 -2.37305,-0.87891 -1.23046,-0.29297 -2.54882,-0.29297 -2.00684,0 -3.01758,0.61523 -0.9961,0.61524 -0.9961,1.84571 0,0.9375 0.71778,1.47949 0.71777,0.52734 2.88574,1.01074 l 0.92285,0.20508 q 2.87109,0.61523 4.07227,1.74316 1.21582,1.11329 1.21582,3.12012 0,2.28516 -1.81641,3.61817 -1.80176,1.333 -4.96582,1.333 -1.31836,0 -2.75391,-0.26367 -1.42089,-0.24902 -3.00293,-0.76172 l 0,-2.7832 q 1.49415,0.77637 2.94434,1.17187 1.4502,0.38086 2.87109,0.38086 1.9043,0 2.92969,-0.64453 1.02539,-0.65918 1.02539,-1.8457 0,-1.09863 -0.74707,-1.68457 -0.73242,-0.58594 -3.2373,-1.12793 l -0.9375,-0.21973 q -2.50489,-0.52734 -3.61817,-1.61133 -1.11328,-1.09863 -1.11328,-3.00292 0,-2.31446 1.64063,-3.57422 1.64062,-1.25977 4.6582,-1.25977 1.49414,0 2.8125,0.21973 1.31836,0.21972 2.43164,0.65918 z"
         style="fill:#172441;fill-opacity:1"
         id="path4378"
         inkscape:connector-curvature="0" />
    </g>
  </g>
</svg>
