<?xml version="1.0" encoding="UTF-8" standalone="no"?>
<svg
   xmlns:dc="http://purl.org/dc/elements/1.1/"
   xmlns:cc="http://creativecommons.org/ns#"
   xmlns:rdf="http://www.w3.org/1999/02/22-rdf-syntax-ns#"
   xmlns:svg="http://www.w3.org/2000/svg"
   xmlns="http://www.w3.org/2000/svg"
   xmlns:sodipodi="http://sodipodi.sourceforge.net/DTD/sodipodi-0.dtd"
   xmlns:inkscape="http://www.inkscape.org/namespaces/inkscape"
   width="185.79843mm"
   height="184.76935mm"
   viewBox="0 0 658.3409 654.69454"
   id="svg2"
   version="1.1"
   inkscape:version="1.0.2 (e86c870879, 2021-01-15)"
   sodipodi:docname="out.svg">
  <defs
     id="defs4">
    <marker
       inkscape:stockid="Arrow2Sstart"
       orient="auto"
       refY="0"
       refX="0"
       id="marker5742"
       style="overflow:visible"
       inkscape:isstock="true">
      <path
         id="path5744"
         style="fill:#172441;fill-opacity:1;fill-rule:evenodd;stroke:#172441;stroke-width:0.625;stroke-linejoin:round;stroke-opacity:1"
         d="M 8.7185878,4.0337352 -2.2072895,0.01601326 8.7185884,-4.0017078 c -1.7454984,2.3720609 -1.7354408,5.6174519 -6e-7,8.035443 z"
         transform="matrix(0.3,0,0,0.3,-0.69,0)"
         inkscape:connector-curvature="0" />
    </marker>
    <marker
       inkscape:stockid="Arrow2Send"
       orient="auto"
       refY="0"
       refX="0"
       id="marker5670"
       style="overflow:visible"
       inkscape:isstock="true">
      <path
         id="path5672"
         style="fill:#172441;fill-opacity:1;fill-rule:evenodd;stroke:#172441;stroke-width:0.625;stroke-linejoin:round;stroke-opacity:1"
         d="M 8.7185878,4.0337352 -2.2072895,0.01601326 8.7185884,-4.0017078 c -1.7454984,2.3720609 -1.7354408,5.6174519 -6e-7,8.035443 z"
         transform="matrix(-0.3,0,0,-0.3,0.69,0)"
         inkscape:connector-curvature="0" />
    </marker>
    <marker
       inkscape:stockid="Arrow1Send"
       orient="auto"
       refY="0"
       refX="0"
       id="marker5630"
       style="overflow:visible"
       inkscape:isstock="true">
      <path
         id="path5632"
         d="M 0,0 5,-5 -12.5,0 5,5 0,0 Z"
         style="fill:#000000;fill-opacity:1;fill-rule:evenodd;stroke:#000000;stroke-width:1pt;stroke-opacity:1"
         transform="matrix(-0.2,0,0,-0.2,-1.2,0)"
         inkscape:connector-curvature="0" />
    </marker>
    <marker
       inkscape:stockid="Arrow1Send"
       orient="auto"
       refY="0"
       refX="0"
       id="Arrow1Send"
       style="overflow:visible"
       inkscape:isstock="true">
      <path
         id="path4420"
         d="M 0,0 5,-5 -12.5,0 5,5 0,0 Z"
         style="fill:#000000;fill-opacity:1;fill-rule:evenodd;stroke:#000000;stroke-width:1pt;stroke-opacity:1"
         transform="matrix(-0.2,0,0,-0.2,-1.2,0)"
         inkscape:connector-curvature="0" />
    </marker>
    <marker
       inkscape:stockid="Arrow2Send"
       orient="auto"
       refY="0"
       refX="0"
       id="Arrow2Send"
       style="overflow:visible"
       inkscape:isstock="true">
      <path
         id="path4438"
         style="fill:#172441;fill-opacity:1;fill-rule:evenodd;stroke:#172441;stroke-width:0.625;stroke-linejoin:round;stroke-opacity:1"
         d="M 8.7185878,4.0337352 -2.2072895,0.01601326 8.7185884,-4.0017078 c -1.7454984,2.3720609 -1.7354408,5.6174519 -6e-7,8.035443 z"
         transform="matrix(-0.3,0,0,-0.3,0.69,0)"
         inkscape:connector-curvature="0" />
    </marker>
    <marker
       inkscape:stockid="Arrow2Sstart"
       orient="auto"
       refY="0"
       refX="0"
       id="Arrow2Sstart"
       style="overflow:visible"
       inkscape:isstock="true">
      <path
         id="path4435"
         style="fill:#000000;fill-opacity:1;fill-rule:evenodd;stroke:#000000;stroke-width:0.625;stroke-linejoin:round;stroke-opacity:1"
         d="M 8.7185878,4.0337352 -2.2072895,0.01601326 8.7185884,-4.0017078 c -1.7454984,2.3720609 -1.7354408,5.6174519 -6e-7,8.035443 z"
         transform="matrix(0.3,0,0,0.3,-0.69,0)"
         inkscape:connector-curvature="0" />
    </marker>
  </defs>
  <sodipodi:namedview
     id="base"
     pagecolor="#ffffff"
     bordercolor="#666666"
     borderopacity="1.0"
     inkscape:pageopacity="0.0"
     inkscape:pageshadow="2"
     inkscape:zoom="0.7"
     inkscape:cx="286.84224"
     inkscape:cy="351.85058"
     inkscape:document-units="px"
     inkscape:current-layer="layer1"
     showgrid="false"
     inkscape:window-width="1440"
     inkscape:window-height="746"
     inkscape:window-x="0"
     inkscape:window-y="27"
     inkscape:window-maximized="1"
     fit-margin-top="10"
     fit-margin-left="10"
     fit-margin-right="10"
     fit-margin-bottom="10"
     inkscape:document-rotation="0" />
  <metadata
     id="metadata7">
    <rdf:RDF>
      <cc:Work
         rdf:about="">
        <dc:format>image/svg+xml</dc:format>
        <dc:type
           rdf:resource="http://purl.org/dc/dcmitype/StillImage" />
        <dc:title />
      </cc:Work>
    </rdf:RDF>
  </metadata>
  <g
     inkscape:groupmode="layer"
     id="layer8"
     inkscape:label="Livello 2">
    <rect
       style="fill:#ffffff;stroke-width:0.9375"
       id="rect2421"
       width="638.23267"
       height="629.39081"
       x="10.995197"
       y="11.133998" />
  </g>
  <g
     inkscape:label="Livello 1"
     inkscape:groupmode="layer"
     id="layer1"
     transform="translate(-6.5064624,-136.45921)">
    <g
       id="g6190"
       transform="translate(0,2)">
      <circle
         style="fill:#f5404f;fill-opacity:1;fill-rule:evenodd;stroke:#172441;stroke-width:5;stroke-linecap:butt;stroke-linejoin:miter;stroke-miterlimit:4;stroke-dasharray:none;stroke-opacity:1"
         id="circle4532"
         cx="167.98988"
         cy="678.36353"
         r="72.85714" />
      <path
         style="fill:#172441;fill-opacity:1;stroke:#004445;stroke-width:0;stroke-miterlimit:4;stroke-dasharray:none;stroke-opacity:1"
         d="m 214.03342,646.83139 a 54.999996,54.999996 0 0 0 -62.87023,-21.6516 l 3.32828,0.60409 18.09205,3.28095 -7.2018,8.49958 a 39.999996,39.999996 0 0 1 36.18697,17.61149 39.999996,39.999996 0 0 1 -10.98726,55.49125 39.999996,39.999996 0 0 1 -55.49126,-10.98726 39.999996,39.999996 0 0 1 9.4726,-54.39735 l -1.96064,-5.47065 -3.25632,-9.08781 a 54.999996,54.999996 0 0 0 -1.61287,0.99985 54.999996,54.999996 0 0 0 -15.10748,76.30048 54.999996,54.999996 0 0 0 76.30048,15.10748 54.999996,54.999996 0 0 0 15.10749,-76.3005 z"
         id="path4534"
         inkscape:connector-curvature="0"
         inkscape:transform-center-x="0.70634832"
         inkscape:transform-center-y="-0.78396235" />
      <path
         sodipodi:type="star"
         style="fill:#172441;fill-opacity:1;stroke:#004445;stroke-width:0;stroke-miterlimit:4;stroke-dasharray:none;stroke-opacity:1"
         id="path4536"
         sodipodi:sides="3"
         sodipodi:cx="273.12"
         sodipodi:cy="152.82137"
         sodipodi:r1="18.985764"
         sodipodi:r2="9.4928818"
         sodipodi:arg1="0.52359878"
         sodipodi:arg2="1.5707963"
         inkscape:flatsided="false"
         inkscape:rounded="0"
         inkscape:randomized="0"
         d="m 289.56215,162.31425 -16.44215,0 -16.44216,0 8.22108,-14.23933 8.22108,-14.23932 8.22107,14.23932 z"
         inkscape:transform-center-y="-36.64934"
         transform="matrix(0.37735344,1.0527584,-1.0527584,0.37735344,204.78653,292.7851)"
         inkscape:transform-center-x="20.175869" />
      <g
         id="text4538"
         style="font-style:normal;font-weight:normal;font-size:35px;line-height:125%;font-family:sans-serif;letter-spacing:0px;word-spacing:0px;fill:#ffffff;fill-opacity:1;stroke:none;stroke-width:1px;stroke-linecap:butt;stroke-linejoin:miter;stroke-opacity:1"
         transform="translate(-197.15295,5.429884)">
        <path
           id="path4343"
           d="m 306.14871,666.84113 3.14453,0 3.93067,14.93652 3.91357,-14.93652 3.7085,0 3.93066,14.93652 3.91358,-14.93652 3.14453,0 -5.00733,19.14062 -3.70849,0 -4.11866,-15.68848 -4.13574,15.68848 -3.70849,0 -5.00733,-19.14062 z"
           inkscape:connector-curvature="0" />
        <path
           id="path4345"
           d="m 344.0369,669.04572 q -2.5293,0 -3.99903,1.98242 -1.46972,1.96533 -1.46972,5.40039 0,3.43506 1.45263,5.41748 1.46973,1.96533 4.01612,1.96533 2.5122,0 3.98193,-1.98242 1.46973,-1.98242 1.46973,-5.40039 0,-3.40088 -1.46973,-5.3833 -1.46973,-1.99951 -3.98193,-1.99951 z m 0,-2.66602 q 4.10156,0 6.44287,2.66602 2.34131,2.66601 2.34131,7.38281 0,4.6997 -2.34131,7.38281 -2.34131,2.66602 -6.44287,2.66602 -4.11866,0 -6.45997,-2.66602 -2.32421,-2.68311 -2.32421,-7.38281 0,-4.7168 2.32421,-7.38281 2.34131,-2.66602 6.45997,-2.66602 z"
           inkscape:connector-curvature="0" />
        <path
           id="path4347"
           d="m 369.1077,669.78058 q -0.52979,-0.30762 -1.16211,-0.44434 -0.61524,-0.15381 -1.36719,-0.15381 -2.66602,0 -4.10156,1.74317 -1.41846,1.72607 -1.41846,4.97314 l 0,10.08301 -3.16162,0 0,-19.14062 3.16162,0 0,2.97363 q 0.99121,-1.74317 2.58057,-2.58057 1.58935,-0.85449 3.8623,-0.85449 0.32471,0 0.71777,0.0513 0.39307,0.0342 0.87159,0.11963 l 0.0171,3.22998 z"
           inkscape:connector-curvature="0" />
        <path
           id="path4349"
           d="m 372.32059,659.38995 3.16162,0 0,15.70557 9.38232,-8.25439 4.01612,0 -10.15137,8.95507 10.57861,10.18555 -4.10156,0 -9.72412,-9.34814 0,9.34814 -3.16162,0 0,-26.5918 z"
           inkscape:connector-curvature="0" />
        <path
           id="path4351"
           d="m 407.88455,675.62531 0,1.53808 -14.45801,0 q 0.20508,3.24707 1.94825,4.95606 1.76025,1.69189 4.88769,1.69189 1.81153,0 3.50342,-0.44434 1.70898,-0.44433 3.38379,-1.333 l 0,2.97363 q -1.6919,0.71777 -3.46924,1.09375 -1.77734,0.37598 -3.60596,0.37598 -4.58007,0 -7.26318,-2.66602 -2.66602,-2.66602 -2.66602,-7.21191 0,-4.69971 2.5293,-7.45118 2.54639,-2.76855 6.85303,-2.76855 3.8623,0 6.10107,2.49512 2.25586,2.47802 2.25586,6.75049 z m -3.14453,-0.92286 q -0.0342,-2.58056 -1.45264,-4.11865 -1.40136,-1.53808 -3.72558,-1.53808 -2.63184,0 -4.22119,1.48681 -1.57227,1.48682 -1.81153,4.18701 l 11.21094,-0.0171 z"
           inkscape:connector-curvature="0" />
        <path
           id="path4353"
           d="m 424.13699,669.78058 q -0.52978,-0.30762 -1.16211,-0.44434 -0.61523,-0.15381 -1.36718,-0.15381 -2.66602,0 -4.10157,1.74317 -1.41845,1.72607 -1.41845,4.97314 l 0,10.08301 -3.16162,0 0,-19.14062 3.16162,0 0,2.97363 q 0.99121,-1.74317 2.58056,-2.58057 1.58936,-0.85449 3.86231,-0.85449 0.32471,0 0.71777,0.0513 0.39307,0.0342 0.87158,0.11963 l 0.0171,3.22998 z"
           inkscape:connector-curvature="0" />
      </g>
    </g>
    <g
       id="g4276">
      <circle
         style="fill:#f5404f;fill-opacity:1;fill-rule:evenodd;stroke:#172441;stroke-width:5;stroke-linecap:butt;stroke-linejoin:miter;stroke-miterlimit:4;stroke-dasharray:none;stroke-opacity:1"
         id="circle4532-3"
         cx="462.03784"
         cy="680.36353"
         r="72.85714" />
      <path
         style="fill:#172441;fill-opacity:1;stroke:#004445;stroke-width:0;stroke-miterlimit:4;stroke-dasharray:none;stroke-opacity:1"
         d="m 412.81584,702.18571 a 54.999996,54.999996 0 0 0 57.41914,33.53358 l -3.14575,-1.24359 -17.10051,-6.75722 8.72555,-6.9263 a 39.999996,39.999996 0 0 1 -32.04199,-24.35104 39.999996,39.999996 0 0 1 21.63169,-52.26919 39.999996,39.999996 0 0 1 52.26922,21.63166 39.999996,39.999996 0 0 1 -19.93227,51.49278 l 0.85242,5.74853 1.41538,9.54928 a 54.999996,54.999996 0 0 0 1.77732,-0.66498 54.999996,54.999996 0 0 0 29.74355,-71.87016 54.999996,54.999996 0 0 0 -71.87017,-29.74355 54.999996,54.999996 0 0 0 -29.74356,71.87017 z"
         id="path4534-6"
         inkscape:connector-curvature="0"
         inkscape:transform-center-x="-0.53899257"
         inkscape:transform-center-y="0.90674543" />
      <path
         sodipodi:type="star"
         style="fill:#172441;fill-opacity:1;stroke:#004445;stroke-width:0;stroke-miterlimit:4;stroke-dasharray:none;stroke-opacity:1"
         id="path4536-7"
         sodipodi:sides="3"
         sodipodi:cx="273.12"
         sodipodi:cy="152.82137"
         sodipodi:r1="18.985764"
         sodipodi:r2="9.4928818"
         sodipodi:arg1="0.52359878"
         sodipodi:arg2="1.5707963"
         inkscape:flatsided="false"
         inkscape:rounded="0"
         inkscape:randomized="0"
         d="m 289.56215,162.31425 -16.44215,0 -16.44216,0 8.22108,-14.23933 8.22108,-14.23932 8.22107,14.23932 z"
         inkscape:transform-center-y="42.214354"
         transform="matrix(-0.16409065,-1.1062414,1.1062414,-0.16409065,352.61556,1051.1989)"
         inkscape:transform-center-x="-9.8710115" />
      <g
         id="text4538-5"
         style="font-style:normal;font-weight:normal;font-size:35px;line-height:125%;font-family:sans-serif;letter-spacing:0px;word-spacing:0px;fill:#ffffff;fill-opacity:1;stroke:none;stroke-width:1px;stroke-linecap:butt;stroke-linejoin:miter;stroke-opacity:1"
         transform="translate(96.89498,7.4298713)">
        <path
           id="path4343-3"
           d="m 306.14871,666.84113 3.14453,0 3.93067,14.93652 3.91357,-14.93652 3.7085,0 3.93066,14.93652 3.91358,-14.93652 3.14453,0 -5.00733,19.14062 -3.70849,0 -4.11866,-15.68848 -4.13574,15.68848 -3.70849,0 -5.00733,-19.14062 z"
           inkscape:connector-curvature="0" />
        <path
           id="path4345-5"
           d="m 344.0369,669.04572 q -2.5293,0 -3.99903,1.98242 -1.46972,1.96533 -1.46972,5.40039 0,3.43506 1.45263,5.41748 1.46973,1.96533 4.01612,1.96533 2.5122,0 3.98193,-1.98242 1.46973,-1.98242 1.46973,-5.40039 0,-3.40088 -1.46973,-5.3833 -1.46973,-1.99951 -3.98193,-1.99951 z m 0,-2.66602 q 4.10156,0 6.44287,2.66602 2.34131,2.66601 2.34131,7.38281 0,4.6997 -2.34131,7.38281 -2.34131,2.66602 -6.44287,2.66602 -4.11866,0 -6.45997,-2.66602 -2.32421,-2.68311 -2.32421,-7.38281 0,-4.7168 2.32421,-7.38281 2.34131,-2.66602 6.45997,-2.66602 z"
           inkscape:connector-curvature="0" />
        <path
           id="path4347-6"
           d="m 369.1077,669.78058 q -0.52979,-0.30762 -1.16211,-0.44434 -0.61524,-0.15381 -1.36719,-0.15381 -2.66602,0 -4.10156,1.74317 -1.41846,1.72607 -1.41846,4.97314 l 0,10.08301 -3.16162,0 0,-19.14062 3.16162,0 0,2.97363 q 0.99121,-1.74317 2.58057,-2.58057 1.58935,-0.85449 3.8623,-0.85449 0.32471,0 0.71777,0.0513 0.39307,0.0342 0.87159,0.11963 l 0.0171,3.22998 z"
           inkscape:connector-curvature="0" />
        <path
           id="path4349-2"
           d="m 372.32059,659.38995 3.16162,0 0,15.70557 9.38232,-8.25439 4.01612,0 -10.15137,8.95507 10.57861,10.18555 -4.10156,0 -9.72412,-9.34814 0,9.34814 -3.16162,0 0,-26.5918 z"
           inkscape:connector-curvature="0" />
        <path
           id="path4351-9"
           d="m 407.88455,675.62531 0,1.53808 -14.45801,0 q 0.20508,3.24707 1.94825,4.95606 1.76025,1.69189 4.88769,1.69189 1.81153,0 3.50342,-0.44434 1.70898,-0.44433 3.38379,-1.333 l 0,2.97363 q -1.6919,0.71777 -3.46924,1.09375 -1.77734,0.37598 -3.60596,0.37598 -4.58007,0 -7.26318,-2.66602 -2.66602,-2.66602 -2.66602,-7.21191 0,-4.69971 2.5293,-7.45118 2.54639,-2.76855 6.85303,-2.76855 3.8623,0 6.10107,2.49512 2.25586,2.47802 2.25586,6.75049 z m -3.14453,-0.92286 q -0.0342,-2.58056 -1.45264,-4.11865 -1.40136,-1.53808 -3.72558,-1.53808 -2.63184,0 -4.22119,1.48681 -1.57227,1.48682 -1.81153,4.18701 l 11.21094,-0.0171 z"
           inkscape:connector-curvature="0" />
        <path
           id="path4353-1"
           d="m 424.13699,669.78058 q -0.52978,-0.30762 -1.16211,-0.44434 -0.61523,-0.15381 -1.36718,-0.15381 -2.66602,0 -4.10157,1.74317 -1.41845,1.72607 -1.41845,4.97314 l 0,10.08301 -3.16162,0 0,-19.14062 3.16162,0 0,2.97363 q 0.99121,-1.74317 2.58056,-2.58057 1.58936,-0.85449 3.86231,-0.85449 0.32471,0 0.71777,0.0513 0.39307,0.0342 0.87158,0.11963 l 0.0171,3.22998 z"
           inkscape:connector-curvature="0" />
      </g>
    </g>
    <g
       id="g4392"
       transform="translate(0,-28)">
      <rect
         y="231.0898"
         x="366.16989"
         height="97.189804"
         width="157.94614"
         id="rect4140-6"
         style="opacity:1;fill:#f5404f;fill-opacity:1;stroke:#172441;stroke-width:5;stroke-miterlimit:4;stroke-dasharray:none;stroke-opacity:1" />
      <g
         transform="translate(47.142858,-51.428571)"
         id="text4204"
         style="font-style:normal;font-weight:normal;font-size:40px;line-height:125%;font-family:sans-serif;letter-spacing:0px;word-spacing:0px;opacity:1;fill:#ffffff;fill-opacity:1;stroke:none;stroke-width:1px;stroke-linecap:butt;stroke-linejoin:miter;stroke-opacity:1">
        <path
           inkscape:connector-curvature="0"
           id="path4209"
           d="m 376.85748,325.51758 q -2.89062,0 -4.57031,2.26562 -1.67969,2.2461 -1.67969,6.17188 0,3.92578 1.66016,6.1914 1.67969,2.2461 4.58984,2.2461 2.8711,0 4.55078,-2.26563 1.67969,-2.26562 1.67969,-6.17187 0,-3.88672 -1.67969,-6.15235 -1.67968,-2.28515 -4.55078,-2.28515 z m 0,-3.04688 q 4.6875,0 7.36328,3.04688 2.67579,3.04687 2.67579,8.4375 0,5.37109 -2.67579,8.4375 -2.67578,3.04687 -7.36328,3.04687 -4.70703,0 -7.38281,-3.04687 -2.65625,-3.06641 -2.65625,-8.4375 0,-5.39063 2.65625,-8.4375 2.67578,-3.04688 7.38281,-3.04688 z" />
        <path
           inkscape:connector-curvature="0"
           id="path4211"
           d="m 392.46295,336.24023 0,-13.24218 3.59375,0 0,13.10547 q 0,3.10546 1.21094,4.66796 1.21094,1.54297 3.63281,1.54297 2.91016,0 4.58985,-1.85547 1.69921,-1.85546 1.69921,-5.05859 l 0,-12.40234 3.59375,0 0,21.875 -3.59375,0 0,-3.35938 q -1.30859,1.99219 -3.04687,2.96875 -1.71875,0.95703 -4.00391,0.95703 -3.76953,0 -5.72265,-2.34375 -1.95313,-2.34375 -1.95313,-6.85547 z m 9.04297,-13.76953 0,0 z" />
        <path
           inkscape:connector-curvature="0"
           id="path4213"
           d="m 421.77936,316.78711 0,6.21094 7.40234,0 0,2.79297 -7.40234,0 0,11.875 q 0,2.67578 0.72265,3.4375 0.74219,0.76171 2.98829,0.76171 l 3.6914,0 0,3.00782 -3.6914,0 q -4.16016,0 -5.74219,-1.54297 -1.58203,-1.5625 -1.58203,-5.66406 l 0,-11.875 -2.63672,0 0,-2.79297 2.63672,0 0,-6.21094 3.61328,0 z" />
      </g>
    </g>
    <rect
       style="opacity:1;fill:#f5404f;fill-opacity:1;stroke:#172441;stroke-width:4.87237215;stroke-linecap:butt;stroke-miterlimit:4;stroke-dasharray:none;stroke-dashoffset:0;stroke-opacity:1"
       id="rect4234"
       width="35.878235"
       height="22.387501"
       x="542.10242"
       y="195.50644" />
    <path
       inkscape:connector-curvature="0"
       id="path4240"
       d="m 573.16001,196.03173 c 0,-11.94491 -0.38704,-21.70326 -11.41996,-21.70326 l -3.75031,0 c -11.03293,0 -11.41996,9.75835 -11.41996,21.70326"
       style="fill:none;fill-rule:evenodd;stroke:#172441;stroke-width:4.87237215;stroke-linecap:butt;stroke-linejoin:miter;stroke-miterlimit:4;stroke-dasharray:none;stroke-opacity:1"
       sodipodi:nodetypes="cccc" />
    <rect
       style="opacity:1;fill:#172441;fill-opacity:1;stroke:none;stroke-width:5;stroke-linecap:butt;stroke-miterlimit:4;stroke-dasharray:none;stroke-dashoffset:0;stroke-opacity:1"
       id="rect4244"
       width="26.701235"
       height="4.4432588"
       x="546.12201"
       y="207.2916" />
    <rect
       y="201.2916"
       x="546.12201"
       height="4.4432588"
       width="26.701235"
       id="rect4246"
       style="opacity:1;fill:#172441;fill-opacity:1;stroke:none;stroke-width:5;stroke-linecap:butt;stroke-miterlimit:4;stroke-dasharray:none;stroke-dashoffset:0;stroke-opacity:1" />
    <g
       id="g4380"
       transform="translate(0,-24.857834)">
      <rect
         y="227.94763"
         x="59.053165"
         height="97.189804"
         width="157.94614"
         id="rect4140-6-2"
         style="opacity:1;fill:#172441;fill-opacity:1;stroke:#172441;stroke-width:5;stroke-miterlimit:4;stroke-dasharray:none;stroke-opacity:1" />
      <g
         id="text4263"
         style="font-style:normal;font-weight:normal;font-size:32.99342346px;line-height:125%;font-family:sans-serif;letter-spacing:0px;word-spacing:0px;fill:#ffffff;fill-opacity:1;stroke:none;stroke-width:1px;stroke-linecap:butt;stroke-linejoin:miter;stroke-opacity:1"
         transform="scale(0.82483557,1.2123628)">
        <path
           id="path4364"
           d="m 78.521261,200.24849 0,-2.93203 20.653109,7.49118 0,2.67427 -20.653109,7.49119 0,-2.93204 16.593372,-5.88017 -16.593372,-5.9124 z"
           inkscape:connector-curvature="0" />
        <path
           id="path4366"
           d="m 129.26798,199.1369 0,2.77093 q -1.25658,-0.69273 -2.52928,-1.03105 -1.25658,-0.35442 -2.54539,-0.35442 -2.8837,0 -4.4786,1.83655 -1.5949,1.82044 -1.5949,5.123 0,3.30257 1.5949,5.13912 1.5949,1.82043 4.4786,1.82043 1.28881,0 2.54539,-0.33831 1.2727,-0.35442 2.52928,-1.04715 l 0,2.73871 q -1.24047,0.57996 -2.57761,0.86994 -1.32102,0.28998 -2.81926,0.28998 -4.07585,0 -6.47625,-2.5615 -2.4004,-2.5615 -2.4004,-6.91122 0,-4.41416 2.41651,-6.94344 2.43262,-2.52928 6.65346,-2.52928 1.36936,0 2.67427,0.28998 1.30492,0.27387 2.52928,0.83773 z"
           inkscape:connector-curvature="0" />
        <path
           id="path4368"
           d="m 141.44719,200.52236 q -2.38429,0 -3.76975,1.86877 -1.38547,1.85266 -1.38547,5.09078 0,3.23813 1.36936,5.1069 1.38546,1.85265 3.78586,1.85265 2.36818,0 3.75365,-1.86877 1.38547,-1.86876 1.38547,-5.09078 0,-3.2059 -1.38547,-5.07467 -1.38547,-1.88488 -3.75365,-1.88488 z m 0,-2.51317 q 3.86642,0 6.0735,2.51317 2.20708,2.51317 2.20708,6.95955 0,4.43027 -2.20708,6.95955 -2.20708,2.51317 -6.0735,2.51317 -3.88252,0 -6.0896,-2.51317 -2.19097,-2.52928 -2.19097,-6.95955 0,-4.44638 2.19097,-6.95955 2.20708,-2.51317 6.0896,-2.51317 z"
           inkscape:connector-curvature="0" />
        <path
           id="path4370"
           d="m 169.62371,205.59703 0,10.89041 -2.96425,0 0,-10.79374 q 0,-2.56151 -0.99883,-3.8342 -0.99882,-1.2727 -2.99647,-1.2727 -2.4004,0 -3.78587,1.53046 -1.38546,1.53046 -1.38546,4.17251 l 0,10.19767 -2.98037,0 0,-18.04328 2.98037,0 0,2.80316 q 1.06326,-1.62712 2.49706,-2.43262 1.4499,-0.80551 3.33478,-0.80551 3.10925,0 4.70414,1.93321 1.5949,1.9171 1.5949,5.65463 z"
           inkscape:connector-curvature="0" />
        <path
           id="path4372"
           d="m 187.07091,198.9758 0,2.80315 q -1.25659,-0.6444 -2.60983,-0.96661 -1.35325,-0.3222 -2.80315,-0.3222 -2.20708,0 -3.31868,0.67663 -1.09548,0.67662 -1.09548,2.02986 0,1.03105 0.78939,1.62712 0.78939,0.57996 3.17368,1.1116 l 1.01494,0.22554 q 3.15757,0.67662 4.4786,1.9171 1.33713,1.22436 1.33713,3.43144 0,2.51317 -1.99765,3.97919 -1.98153,1.46601 -5.46131,1.46601 -1.44991,0 -3.02869,-0.28998 -1.56268,-0.27387 -3.30257,-0.83772 l 0,-3.06091 q 1.64323,0.85383 3.23813,1.2888 1.59489,0.41886 3.15757,0.41886 2.09431,0 3.22202,-0.70884 1.1277,-0.72495 1.1277,-2.02987 0,-1.20825 -0.82161,-1.85266 -0.80551,-0.6444 -3.56033,-1.24047 l -1.03104,-0.24165 q -2.75483,-0.57997 -3.97919,-1.77211 -1.22437,-1.20826 -1.22437,-3.30257 0,-2.54539 1.80433,-3.93085 1.80433,-1.38547 5.123,-1.38547 1.64323,0 3.09314,0.24165 1.4499,0.24165 2.67427,0.72496 z"
           inkscape:connector-curvature="0" />
        <path
           id="path4374"
           d="m 199.76565,200.52236 q -2.38429,0 -3.76976,1.86877 -1.38546,1.85266 -1.38546,5.09078 0,3.23813 1.36935,5.1069 1.38547,1.85265 3.78587,1.85265 2.36818,0 3.75364,-1.86877 1.38547,-1.86876 1.38547,-5.09078 0,-3.2059 -1.38547,-5.07467 -1.38546,-1.88488 -3.75364,-1.88488 z m 0,-2.51317 q 3.86642,0 6.0735,2.51317 2.20707,2.51317 2.20707,6.95955 0,4.43027 -2.20707,6.95955 -2.20708,2.51317 -6.0735,2.51317 -3.88253,0 -6.08961,-2.51317 -2.19097,-2.52928 -2.19097,-6.95955 0,-4.44638 2.19097,-6.95955 2.20708,-2.51317 6.08961,-2.51317 z"
           inkscape:connector-curvature="0" />
        <path
           id="path4376"
           d="m 212.94369,191.42017 2.96425,0 0,25.06727 -2.96425,0 0,-25.06727 z"
           inkscape:connector-curvature="0" />
        <path
           id="path4378"
           d="m 237.52765,206.72474 0,1.44991 -13.62912,0 q 0.19332,3.06091 1.83654,4.67192 1.65934,1.59489 4.60748,1.59489 1.70767,0 3.30257,-0.41886 1.61101,-0.41886 3.18979,-1.25658 l 0,2.80315 q -1.59489,0.67662 -3.27034,1.03104 -1.67545,0.35442 -3.39923,0.35442 -4.3175,0 -6.84678,-2.51317 -2.51317,-2.51317 -2.51317,-6.79845 0,-4.43027 2.38429,-7.02399 2.4004,-2.60983 6.46014,-2.60983 3.64088,0 5.7513,2.35207 2.12653,2.33596 2.12653,6.36348 z m -2.96426,-0.86994 q -0.0322,-2.43262 -1.36935,-3.88253 -1.32103,-1.44991 -3.512,-1.44991 -2.48095,0 -3.97919,1.40158 -1.48212,1.40157 -1.70766,3.94697 l 10.5682,-0.0161 z"
           inkscape:connector-curvature="0" />
      </g>
    </g>
    <path
       inkscape:connector-curvature="0"
       style="fill:#f5404f;fill-opacity:1;stroke:#172441;stroke-width:4.99754;stroke-miterlimit:4;stroke-dasharray:none;stroke-opacity:1"
       d="m 104.1032,543.42007 115.00247,0 0,30.00246 -115.00247,0 z"
       id="rect4144-7" />
    <g
       style="font-style:normal;font-weight:normal;font-size:17.5px;line-height:125%;font-family:sans-serif;letter-spacing:0px;word-spacing:0px;fill:#ffffff;fill-opacity:1;stroke:none;stroke-width:1px;stroke-linecap:butt;stroke-linejoin:miter;stroke-opacity:1"
       id="text4335"
       transform="translate(0,-22)">
      <path
         d="m 111.30003,573.64948 1.57227,0 0,13.29589 -1.57227,0 0,-13.29589 z"
         id="path6110"
         inkscape:connector-curvature="0" />
      <path
         d="m 116.15355,577.37506 1.57226,0 0,9.57031 -1.57226,0 0,-9.57031 z m 0,-3.72558 1.57226,0 0,1.99096 -1.57226,0 0,-1.99096 z"
         id="path6112"
         inkscape:connector-curvature="0" />
      <path
         d="m 128.96239,581.16901 0,5.77636 -1.57227,0 0,-5.72509 q 0,-1.35865 -0.52978,-2.0337 -0.52979,-0.67504 -1.58936,-0.67504 -1.27319,0 -2.00806,0.81176 -0.73486,0.81177 -0.73486,2.21314 l 0,5.40893 -1.58081,0 0,-9.57031 1.58081,0 0,1.48682 q 0.56397,-0.86304 1.32446,-1.29029 0.76905,-0.42724 1.7688,-0.42724 1.64917,0 2.49512,1.02539 0.84595,1.01684 0.84595,2.99927 z"
         id="path6114"
         inkscape:connector-curvature="0" />
      <path
         d="m 140.3015,581.76715 0,0.76904 -7.22901,0 q 0.10254,1.62354 0.97413,2.47803 0.88012,0.84595 2.44384,0.84595 0.90576,0 1.75171,-0.22217 0.85449,-0.22217 1.6919,-0.6665 l 0,1.48681 q -0.84595,0.35889 -1.73462,0.54688 -0.88867,0.18799 -1.80298,0.18799 -2.29004,0 -3.63159,-1.33301 -1.33301,-1.33301 -1.33301,-3.60596 0,-2.34985 1.26465,-3.72558 1.27319,-1.38428 3.42651,-1.38428 1.93115,0 3.05054,1.24756 1.12793,1.23901 1.12793,3.37524 z m -1.57227,-0.46142 q -0.0171,-1.29029 -0.72632,-2.05933 -0.70068,-0.76904 -1.86279,-0.76904 -1.31592,0 -2.11059,0.7434 -0.78614,0.74341 -0.90577,2.09351 l 5.60547,-0.009 z"
         id="path6116"
         inkscape:connector-curvature="0" />
      <path
         d="m 153.41795,575.69171 -4.35791,6.8103 4.35791,0 0,-6.8103 z m -0.45288,-1.5039 2.17041,0 0,8.3142 1.82007,0 0,1.43555 -1.82007,0 0,3.00781 -1.71753,0 0,-3.00781 -5.75927,0 0,-1.66626 5.30639,-8.08349 z"
         id="path6118"
         inkscape:connector-curvature="0" />
      <path
         d="m 160.11717,585.49274 2.81983,0 0,-9.73267 -3.06763,0.61524 0,-1.57227 3.05054,-0.61523 1.72607,0 0,11.30493 2.81983,0 0,1.45263 -7.34864,0 0,-1.45263 z"
         id="path6120"
         inkscape:connector-curvature="0" />
    </g>
    <path
       id="path4339"
       d="m 63.388917,430.56292 115.002463,0 0,30.00246 -115.002463,0 z"
       style="fill:#f5404f;fill-opacity:1;stroke:#172441;stroke-width:4.99754;stroke-miterlimit:4;stroke-dasharray:none;stroke-opacity:1"
       inkscape:connector-curvature="0" />
    <g
       style="font-style:normal;font-weight:normal;font-size:17.5px;line-height:125%;font-family:sans-serif;letter-spacing:0px;word-spacing:0px;fill:#ffffff;fill-opacity:1;stroke:none;stroke-width:1px;stroke-linecap:butt;stroke-linejoin:miter;stroke-opacity:1"
       id="text4341"
       transform="translate(0,-22)">
      <path
         d="m 70.585747,460.7923 1.572265,0 0,13.2959 -1.572265,0 0,-13.2959 z"
         id="path6099"
         inkscape:connector-curvature="0" />
      <path
         d="m 75.439262,464.51788 1.572266,0 0,9.57032 -1.572266,0 0,-9.57032 z m 0,-3.72558 1.572266,0 0,1.99096 -1.572266,0 0,-1.99096 z"
         id="path6101"
         inkscape:connector-curvature="0" />
      <path
         d="m 88.2481,468.31183 0,5.77637 -1.572265,0 0,-5.7251 q 0,-1.35864 -0.529786,-2.03369 -0.529785,-0.67505 -1.589355,-0.67505 -1.273193,0 -2.008057,0.81177 -0.734863,0.81176 -0.734863,2.21313 l 0,5.40894 -1.58081,0 0,-9.57032 1.58081,0 0,1.48682 q 0.563965,-0.86304 1.324463,-1.29028 0.769043,-0.42725 1.768799,-0.42725 1.64917,0 2.495117,1.02539 0.845947,1.01685 0.845947,2.99927 z"
         id="path6103"
         inkscape:connector-curvature="0" />
      <path
         d="m 99.587212,468.90997 0,0.76905 -7.229004,0 q 0.102539,1.62353 0.974121,2.47802 0.880127,0.84595 2.443847,0.84595 0.905762,0 1.751709,-0.22217 0.854493,-0.22217 1.691895,-0.6665 l 0,1.48682 q -0.845947,0.35888 -1.734619,0.54687 -0.888672,0.18799 -1.802979,0.18799 -2.290039,0 -3.631591,-1.33301 -1.333008,-1.33301 -1.333008,-3.60596 0,-2.34985 1.264648,-3.72558 1.273193,-1.38428 3.426514,-1.38428 1.931152,0 3.050537,1.24756 1.12793,1.23901 1.12793,3.37524 z m -1.572266,-0.46142 q -0.01709,-1.29029 -0.726318,-2.05933 -0.700684,-0.76904 -1.862793,-0.76904 -1.315918,0 -2.110596,0.74341 -0.786133,0.7434 -0.905762,2.0935 l 5.605469,-0.009 z"
         id="path6105"
         inkscape:connector-curvature="0" />
      <path
         d="m 113.19073,467.20953 q 1.23901,0.2649 1.93115,1.1023 0.70068,0.8374 0.70068,2.06787 0,1.88843 -1.29882,2.92236 -1.29883,1.03394 -3.69141,1.03394 -0.80322,0 -1.65772,-0.16235 -0.84594,-0.15381 -1.75171,-0.46998 l 0,-1.66626 q 0.71778,0.41871 1.57227,0.63233 0.85449,0.21362 1.78589,0.21362 1.62353,0 2.46948,-0.64087 0.85449,-0.64087 0.85449,-1.86279 0,-1.12793 -0.79467,-1.76025 -0.78614,-0.64087 -2.19605,-0.64087 l -1.48682,0 0,-1.41846 1.55518,0 q 1.27319,0 1.94824,-0.50415 0.67505,-0.5127 0.67505,-1.46973 0,-0.98266 -0.70068,-1.5039 -0.69214,-0.52979 -1.99097,-0.52979 -0.70923,0 -1.52099,0.15381 -0.81177,0.15381 -1.78589,0.47852 l 0,-1.53809 q 0.98266,-0.27344 1.83715,-0.41016 0.86304,-0.13672 1.62354,-0.13672 1.96533,0 3.11035,0.89722 1.14502,0.88867 1.14502,2.40967 0,1.05957 -0.60669,1.79443 -0.60669,0.72632 -1.72607,1.0083 z"
         id="path6107"
         inkscape:connector-curvature="0" />
    </g>
    <rect
       style="opacity:1;fill:#000000;fill-opacity:0;stroke:#172441;stroke-width:5;stroke-linecap:butt;stroke-miterlimit:4;stroke-dasharray:20,5;stroke-dashoffset:11.5;stroke-opacity:1"
       id="rect4347"
       width="152.90123"
       height="94.371857"
       x="44.439533"
       y="413.37823" />
    <g
       style="font-style:normal;font-weight:normal;font-size:40px;line-height:125%;font-family:sans-serif;letter-spacing:0px;word-spacing:0px;fill:#172441;fill-opacity:1;stroke:none;stroke-width:1px;stroke-linecap:butt;stroke-linejoin:miter;stroke-opacity:1"
       id="text4357"
       transform="translate(0,-22)">
      <path
         d="m 62.99062,405.71603 q -1.987305,0 -3.14209,1.55762 -1.154785,1.54419 -1.154785,4.24317 0,2.69897 1.141357,4.25659 1.154785,1.54419 3.155518,1.54419 1.973877,0 3.128662,-1.55762 1.154785,-1.55762 1.154785,-4.24316 0,-2.67212 -1.154785,-4.22974 -1.154785,-1.57105 -3.128662,-1.57105 z m 0,-2.09472 q 3.222656,0 5.062256,2.09472 1.839599,2.09473 1.839599,5.80079 0,3.69262 -1.839599,5.80078 -1.8396,2.09472 -5.062256,2.09472 -3.236084,0 -5.075684,-2.09472 -1.826172,-2.10816 -1.826172,-5.80078 0,-3.70606 1.826172,-5.80079 1.8396,-2.09472 5.075684,-2.09472 z"
         style="font-size:27.5px;fill:#172441;fill-opacity:1"
         id="path6039"
         inkscape:connector-curvature="0" />
      <path
         d="m 73.719379,413.08786 0,-9.104 2.470704,0 0,9.01001 q 0,2.13501 0.832519,3.20922 0.83252,1.0608 2.497559,1.0608 2.000732,0 3.155517,-1.27564 1.168213,-1.27563 1.168213,-3.47778 l 0,-8.52661 2.470703,0 0,15.03906 -2.470703,0 0,-2.30957 q -0.899658,1.36963 -2.094726,2.04101 -1.181641,0.65796 -2.752686,0.65796 -2.591553,0 -3.934326,-1.61133 -1.342774,-1.61132 -1.342774,-4.71313 z m 6.217041,-9.46655 0,0 z"
         style="font-size:27.5px;fill:#172441;fill-opacity:1"
         id="path6041"
         inkscape:connector-curvature="0" />
      <path
         d="m 93.874409,399.71384 0,4.27002 5.089111,0 0,1.92016 -5.089111,0 0,8.16406 q 0,1.8396 0.496826,2.36329 0.510254,0.52368 2.054443,0.52368 l 2.537842,0 0,2.06787 -2.537842,0 q -2.860107,0 -3.947754,-1.06079 -1.087646,-1.07422 -1.087646,-3.89405 l 0,-8.16406 -1.812744,0 0,-1.92016 1.812744,0 0,-4.27002 2.484131,0 z"
         style="font-size:27.5px;fill:#172441;fill-opacity:1"
         id="path6043"
         inkscape:connector-curvature="0" />
      <path
         d="m 113.02236,411.51682 q 0,-2.72583 -1.12793,-4.27002 -1.1145,-1.55762 -3.07495,-1.55762 -1.96045,0 -3.08838,1.55762 -1.1145,1.54419 -1.1145,4.27002 0,2.72583 1.1145,4.28344 1.12793,1.54419 3.08838,1.54419 1.96045,0 3.07495,-1.54419 1.12793,-1.55761 1.12793,-4.28344 z m -8.40576,-5.25025 q 0.7788,-1.34277 1.96045,-1.9873 1.19506,-0.65796 2.84668,-0.65796 2.73925,0 4.44458,2.17529 1.71875,2.17529 1.71875,5.72022 0,3.54492 -1.71875,5.72021 -1.70533,2.17529 -4.44458,2.17529 -1.65162,0 -2.84668,-0.64453 -1.18165,-0.65796 -1.96045,-2.00073 l 0,2.25586 -2.48413,0 0,-20.89356 2.48413,0 0,8.13721 z"
         style="font-size:27.5px;fill:#172441;fill-opacity:1"
         id="path6045"
         inkscape:connector-curvature="0" />
      <path
         d="m 119.42739,413.08786 0,-9.104 2.4707,0 0,9.01001 q 0,2.13501 0.83252,3.20922 0.83252,1.0608 2.49756,1.0608 2.00073,0 3.15552,-1.27564 1.16821,-1.27563 1.16821,-3.47778 l 0,-8.52661 2.4707,0 0,15.03906 -2.4707,0 0,-2.30957 q -0.89966,1.36963 -2.09473,2.04101 -1.18164,0.65796 -2.75268,0.65796 -2.59156,0 -3.93433,-1.61133 -1.34277,-1.61132 -1.34277,-4.71313 z m 6.21704,-9.46655 0,0 z"
         style="font-size:27.5px;fill:#172441;fill-opacity:1"
         id="path6047"
         inkscape:connector-curvature="0" />
      <path
         d="m 154.01723,398.12936 0,2.05445 -2.36328,0 q -1.32935,0 -1.85303,0.53711 -0.51025,0.53711 -0.51025,1.93359 l 0,1.32935 4.0686,0 0,1.92016 -4.0686,0 0,13.1189 -2.48413,0 0,-13.1189 -6.78101,0 0,13.1189 -2.48413,0 0,-13.1189 -2.36328,0 0,-1.92016 2.36328,0 0,-1.04737 q 0,-2.51098 1.16821,-3.65234 1.16822,-1.15479 3.70606,-1.15479 l 2.33642,0 0,2.05445 -2.36328,0 q -1.32934,0 -1.85302,0.53711 -0.51026,0.53711 -0.51026,1.93359 l 0,1.32935 6.78101,0 0,-1.04737 q 0,-2.51098 1.16821,-3.65234 1.16821,-1.15479 3.70606,-1.15479 l 2.33642,0 z"
         style="font-size:27.5px;fill:#172441;fill-opacity:1"
         id="path6049"
         inkscape:connector-curvature="0" />
      <path
         d="m 168.9623,410.88571 0,1.2085 -11.35986,0 q 0.16113,2.55127 1.53076,3.89404 1.38305,1.32935 3.84033,1.32935 1.42334,0 2.75269,-0.34912 1.34277,-0.34913 2.65869,-1.04737 l 0,2.33643 q -1.32935,0.56396 -2.72583,0.85937 -1.39649,0.29541 -2.83326,0.29541 -3.59863,0 -5.70678,-2.09472 -2.09473,-2.09473 -2.09473,-5.66651 0,-3.69262 1.98731,-5.85449 2.00073,-2.17529 5.38452,-2.17529 3.03467,0 4.7937,1.96045 1.77246,1.94702 1.77246,5.30395 z m -2.4707,-0.7251 q -0.0269,-2.02758 -1.14136,-3.23608 -1.10108,-1.2085 -2.92725,-1.2085 -2.06787,0 -3.31665,1.16822 -1.23535,1.16821 -1.42334,3.28979 l 8.8086,-0.0134 z"
         style="font-size:27.5px;fill:#172441;fill-opacity:1"
         id="path6051"
         inkscape:connector-curvature="0" />
      <path
         d="m 181.73207,406.29343 q -0.41626,-0.2417 -0.91308,-0.34912 -0.4834,-0.12085 -1.07422,-0.12085 -2.09473,0 -3.22266,1.36962 -1.1145,1.35621 -1.1145,3.90748 l 0,7.92236 -2.48413,0 0,-15.03906 2.48413,0 0,2.33642 q 0.77881,-1.36963 2.02759,-2.02759 1.24878,-0.67138 3.03467,-0.67138 0.25512,0 0.56396,0.0403 0.30884,0.0269 0.68482,0.094 l 0.0134,2.53785 z"
         style="font-size:27.5px;fill:#172441;fill-opacity:1"
         id="path6053"
         inkscape:connector-curvature="0" />
    </g>
    <path
       style="fill:none;fill-rule:evenodd;stroke:#172441;stroke-width:10;stroke-linecap:butt;stroke-linejoin:miter;stroke-miterlimit:4;stroke-dasharray:none;stroke-opacity:1;marker-end:url(#Arrow2Send)"
       d="M 110.61354,617.83542 C 78.848224,579.62913 81.237277,536.39874 81.237277,536.39874"
       id="path4399"
       inkscape:connector-curvature="0"
       sodipodi:nodetypes="cc" />
    <path
       inkscape:connector-curvature="0"
       style="fill:#f5404f;fill-opacity:1;stroke:#172441;stroke-width:4.99754;stroke-miterlimit:4;stroke-dasharray:none;stroke-opacity:1"
       d="m 448.21305,520.20861 115.00246,0 0,30.00247 -115.00246,0 z"
       id="rect4144-7-2" />
    <g
       style="font-style:normal;font-weight:normal;font-size:17.5px;line-height:125%;font-family:sans-serif;letter-spacing:0px;word-spacing:0px;fill:#ffffff;fill-opacity:1;stroke:none;stroke-width:1px;stroke-linecap:butt;stroke-linejoin:miter;stroke-opacity:1"
       id="text4335-9"
       transform="translate(0,-20)">
      <path
         d="m 455.40988,548.43799 1.57227,0 0,13.2959 -1.57227,0 0,-13.2959 z"
         id="path6140"
         inkscape:connector-curvature="0" />
      <path
         d="m 460.2634,552.16357 1.57226,0 0,9.57032 -1.57226,0 0,-9.57032 z m 0,-3.72558 1.57226,0 0,1.99097 -1.57226,0 0,-1.99097 z"
         id="path6142"
         inkscape:connector-curvature="0" />
      <path
         d="m 473.07224,555.95752 0,5.77637 -1.57227,0 0,-5.7251 q 0,-1.35864 -0.52979,-2.03369 -0.52978,-0.67505 -1.58935,-0.67505 -1.27319,0 -2.00806,0.81177 -0.73486,0.81176 -0.73486,2.21313 l 0,5.40894 -1.58081,0 0,-9.57032 1.58081,0 0,1.48682 q 0.56396,-0.86304 1.32446,-1.29028 0.76904,-0.42725 1.7688,-0.42725 1.64917,0 2.49512,1.02539 0.84595,1.01685 0.84595,2.99927 z"
         id="path6144"
         inkscape:connector-curvature="0" />
      <path
         d="m 484.41135,556.55566 0,0.76905 -7.22901,0 q 0.10254,1.62353 0.97412,2.47802 0.88013,0.84595 2.44385,0.84595 0.90576,0 1.75171,-0.22217 0.85449,-0.22216 1.69189,-0.6665 l 0,1.48682 q -0.84594,0.35888 -1.73461,0.54687 -0.88868,0.18799 -1.80298,0.18799 -2.29004,0 -3.63159,-1.33301 -1.33301,-1.33301 -1.33301,-3.60596 0,-2.34985 1.26465,-3.72558 1.27319,-1.38428 3.42651,-1.38428 1.93115,0 3.05054,1.24756 1.12793,1.23901 1.12793,3.37524 z m -1.57227,-0.46142 q -0.0171,-1.29028 -0.72632,-2.05933 -0.70068,-0.76904 -1.86279,-0.76904 -1.31592,0 -2.1106,0.74341 -0.78613,0.74341 -0.90576,2.0935 l 5.60547,-0.009 z"
         id="path6146"
         inkscape:connector-curvature="0" />
      <path
         d="m 498.01486,554.85522 q 1.23902,0.2649 1.93115,1.1023 0.70069,0.8374 0.70069,2.06787 0,1.88843 -1.29883,2.92236 -1.29883,1.03394 -3.69141,1.03394 -0.80322,0 -1.65771,-0.16235 -0.84595,-0.15381 -1.75171,-0.46997 l 0,-1.66626 q 0.71777,0.4187 1.57227,0.63232 0.85449,0.21362 1.78588,0.21362 1.62354,0 2.46949,-0.64087 0.85449,-0.64087 0.85449,-1.86279 0,-1.12793 -0.79468,-1.76025 -0.78613,-0.64087 -2.19604,-0.64087 l -1.48682,0 0,-1.41846 1.55518,0 q 1.27319,0 1.94824,-0.50415 0.67505,-0.5127 0.67505,-1.46973 0,-0.98266 -0.70069,-1.5039 -0.69214,-0.52979 -1.99096,-0.52979 -0.70923,0 -1.521,0.15381 -0.81177,0.15381 -1.78589,0.47852 l 0,-1.53809 q 0.98267,-0.27344 1.83716,-0.41016 0.86304,-0.13671 1.62353,-0.13671 1.96534,0 3.11036,0.89721 1.14502,0.88867 1.14502,2.40967 0,1.05957 -0.60669,1.79443 -0.60669,0.72632 -1.72608,1.0083 z"
         id="path6148"
         inkscape:connector-curvature="0" />
      <path
         d="m 503.94504,548.97632 6.77612,0 0,1.45264 -5.19531,0 0,3.12744 q 0.37597,-0.12818 0.75195,-0.18799 0.37598,-0.0684 0.75195,-0.0684 2.13624,0 3.38379,1.17065 1.24756,1.17066 1.24756,3.17017 0,2.05933 -1.28174,3.20434 -1.28173,1.13648 -3.6145,1.13648 -0.80322,0 -1.64062,-0.13672 -0.82886,-0.13672 -1.71753,-0.41016 l 0,-1.73461 q 0.76904,0.4187 1.58935,0.62377 0.82032,0.20508 1.73462,0.20508 1.47827,0 2.34131,-0.77759 0.86304,-0.77758 0.86304,-2.11059 0,-1.33301 -0.86304,-2.1106 -0.86304,-0.77758 -2.34131,-0.77758 -0.69214,0 -1.38427,0.1538 -0.6836,0.15381 -1.40137,0.47852 l 0,-6.40869 z"
         id="path6150"
         inkscape:connector-curvature="0" />
      <path
         d="m 518.76193,555.67554 q -1.23047,0 -1.93969,0.65796 -0.70069,0.65796 -0.70069,1.81152 0,1.15356 0.70069,1.81152 0.70922,0.65796 1.93969,0.65796 1.23047,0 1.9397,-0.65796 0.70923,-0.6665 0.70923,-1.81152 0,-1.15356 -0.70923,-1.81152 -0.70068,-0.65796 -1.9397,-0.65796 z m -1.72607,-0.73487 q -1.11084,-0.27343 -1.73462,-1.03393 -0.61524,-0.7605 -0.61524,-1.85425 0,-1.52954 1.08521,-2.41821 1.09375,-0.88867 2.99072,-0.88867 1.90552,0 2.99073,0.88867 1.0852,0.88867 1.0852,2.41821 0,1.09375 -0.62378,1.85425 -0.61523,0.7605 -1.71753,1.03393 1.24756,0.29053 1.9397,1.13648 0.70068,0.84595 0.70068,2.06787 0,1.85425 -1.13647,2.84546 -1.12793,0.99121 -3.23853,0.99121 -2.11059,0 -3.24707,-0.99121 -1.12793,-0.99121 -1.12793,-2.84546 0,-1.22192 0.70069,-2.06787 0.70068,-0.84595 1.94824,-1.13648 z m -0.63233,-2.72583 q 0,0.99121 0.61524,1.54663 0.62378,0.55542 1.74316,0.55542 1.11084,0 1.73462,-0.55542 0.63233,-0.55542 0.63233,-1.54663 0,-0.99121 -0.63233,-1.54663 -0.62378,-0.55542 -1.73462,-0.55542 -1.11938,0 -1.74316,0.55542 -0.61524,0.55542 -0.61524,1.54663 z"
         id="path6152"
         inkscape:connector-curvature="0" />
    </g>
    <path
       id="path4339-0"
       d="m 448.21305,490.20861 115.00246,0 0,30.00246 -115.00246,0 z"
       style="fill:#f5404f;fill-opacity:1;stroke:#172441;stroke-width:4.99754;stroke-miterlimit:4;stroke-dasharray:none;stroke-opacity:1"
       inkscape:connector-curvature="0" />
    <g
       style="font-style:normal;font-weight:normal;font-size:17.5px;line-height:125%;font-family:sans-serif;letter-spacing:0px;word-spacing:0px;fill:#ffffff;fill-opacity:1;stroke:none;stroke-width:1px;stroke-linecap:butt;stroke-linejoin:miter;stroke-opacity:1"
       id="text4341-8"
       transform="translate(0,-20)">
      <path
         d="m 455.40988,518.43799 1.57227,0 0,13.2959 -1.57227,0 0,-13.2959 z"
         id="path6155"
         inkscape:connector-curvature="0" />
      <path
         d="m 460.2634,522.16357 1.57226,0 0,9.57032 -1.57226,0 0,-9.57032 z m 0,-3.72558 1.57226,0 0,1.99097 -1.57226,0 0,-1.99097 z"
         id="path6157"
         inkscape:connector-curvature="0" />
      <path
         d="m 473.07224,525.95752 0,5.77637 -1.57227,0 0,-5.7251 q 0,-1.35864 -0.52979,-2.03369 -0.52978,-0.67505 -1.58935,-0.67505 -1.27319,0 -2.00806,0.81177 -0.73486,0.81176 -0.73486,2.21313 l 0,5.40894 -1.58081,0 0,-9.57032 1.58081,0 0,1.48682 q 0.56396,-0.86304 1.32446,-1.29028 0.76904,-0.42725 1.7688,-0.42725 1.64917,0 2.49512,1.02539 0.84595,1.01685 0.84595,2.99927 z"
         id="path6159"
         inkscape:connector-curvature="0" />
      <path
         d="m 484.41135,526.55566 0,0.76905 -7.22901,0 q 0.10254,1.62353 0.97412,2.47802 0.88013,0.84595 2.44385,0.84595 0.90576,0 1.75171,-0.22217 0.85449,-0.22216 1.69189,-0.6665 l 0,1.48682 q -0.84594,0.35888 -1.73461,0.54687 -0.88868,0.18799 -1.80298,0.18799 -2.29004,0 -3.63159,-1.33301 -1.33301,-1.33301 -1.33301,-3.60596 0,-2.34985 1.26465,-3.72558 1.27319,-1.38428 3.42651,-1.38428 1.93115,0 3.05054,1.24756 1.12793,1.23901 1.12793,3.37524 z m -1.57227,-0.46142 q -0.0171,-1.29028 -0.72632,-2.05933 -0.70068,-0.76904 -1.86279,-0.76904 -1.31592,0 -2.1106,0.74341 -0.78613,0.74341 -0.90576,2.0935 l 5.60547,-0.009 z"
         id="path6161"
         inkscape:connector-curvature="0" />
      <path
         d="m 493.08444,530.28125 2.81983,0 0,-9.73267 -3.06763,0.61524 0,-1.57227 3.05054,-0.61523 1.72607,0 0,11.30493 2.81982,0 0,1.45264 -7.34863,0 0,-1.45264 z"
         id="path6163"
         inkscape:connector-curvature="0" />
      <path
         d="m 504.22702,530.28125 2.81982,0 0,-9.73267 -3.06762,0.61524 0,-1.57227 3.05053,-0.61523 1.72608,0 0,11.30493 2.81982,0 0,1.45264 -7.34863,0 0,-1.45264 z"
         id="path6165"
         inkscape:connector-curvature="0" />
      <path
         d="m 515.08762,518.97632 6.77612,0 0,1.45264 -5.19531,0 0,3.12744 q 0.37597,-0.12818 0.75195,-0.18799 0.37598,-0.0684 0.75195,-0.0684 2.13623,0 3.38379,1.17065 1.24756,1.17066 1.24756,3.17017 0,2.05933 -1.28174,3.20434 -1.28174,1.13648 -3.6145,1.13648 -0.80322,0 -1.64062,-0.13672 -0.82886,-0.13672 -1.71753,-0.41016 l 0,-1.73461 q 0.76904,0.4187 1.58935,0.62377 0.82031,0.20508 1.73462,0.20508 1.47827,0 2.34131,-0.77759 0.86304,-0.77758 0.86304,-2.11059 0,-1.33301 -0.86304,-2.1106 -0.86304,-0.77758 -2.34131,-0.77758 -0.69214,0 -1.38428,0.1538 -0.68359,0.15381 -1.40136,0.47852 l 0,-6.40869 z"
         id="path6167"
         inkscape:connector-curvature="0" />
    </g>
    <rect
       style="opacity:1;fill:#000000;fill-opacity:0;stroke:#172441;stroke-width:5;stroke-linecap:butt;stroke-miterlimit:4;stroke-dasharray:20,5;stroke-dashoffset:11.5;stroke-opacity:1"
       id="rect4347-3"
       width="152.90123"
       height="94.371857"
       x="429.26367"
       y="473.02393" />
    <path
       style="fill:none;fill-rule:evenodd;stroke:#172441;stroke-width:10;stroke-linecap:butt;stroke-linejoin:miter;stroke-miterlimit:4;stroke-dasharray:none;stroke-opacity:1;marker-end:url(#marker5670)"
       d="M 567.14286,438.07649 C 630,382.3622 624.28571,355.21935 624.28571,340.93363 c 0,-24.28571 -21.93956,-63.80723 -55.71428,-72.85714"
       id="path5578"
       inkscape:connector-curvature="0"
       sodipodi:nodetypes="csc" />
    <path
       style="fill:none;fill-rule:evenodd;stroke:#172441;stroke-width:10;stroke-linecap:butt;stroke-linejoin:miter;stroke-miterlimit:4;stroke-dasharray:none;stroke-opacity:1;marker-start:url(#marker5742)"
       d="m 245.41631,254.30108 102.32127,0"
       id="path5740"
       inkscape:connector-curvature="0"
       sodipodi:nodetypes="cc" />
    <g
       style="font-style:normal;font-weight:normal;font-size:40px;line-height:125%;font-family:sans-serif;letter-spacing:0px;word-spacing:0px;fill:#172441;fill-opacity:1;stroke:none;stroke-width:1px;stroke-linecap:butt;stroke-linejoin:miter;stroke-opacity:1"
       id="text5996"
       transform="translate(0,-22)">
      <path
         d="m 64.776508,369.75436 0,2.05445 -2.363281,0 q -1.329346,0 -1.853027,0.53711 -0.510254,0.53711 -0.510254,1.93359 l 0,1.32935 4.068603,0 0,1.92016 -4.068603,0 0,13.1189 -2.484131,0 0,-13.1189 -2.363281,0 0,-1.92016 2.363281,0 0,-1.04737 q 0,-2.51098 1.168213,-3.65234 1.168213,-1.15479 3.706055,-1.15479 l 2.336425,0 z"
         style="font-size:27.5px;fill:#172441;fill-opacity:1"
         id="path6056"
         inkscape:connector-curvature="0" />
      <path
         d="m 72.658588,377.34103 q -1.987304,0 -3.142089,1.55762 -1.154786,1.54419 -1.154786,4.24317 0,2.69897 1.141358,4.25659 1.154785,1.54419 3.155517,1.54419 1.973877,0 3.128663,-1.55762 1.154785,-1.55762 1.154785,-4.24316 0,-2.67212 -1.154785,-4.22974 -1.154786,-1.57105 -3.128663,-1.57105 z m 0,-2.09472 q 3.222657,0 5.062256,2.09472 1.8396,2.09473 1.8396,5.80079 0,3.69262 -1.8396,5.80078 -1.839599,2.09472 -5.062256,2.09472 -3.236084,0 -5.075683,-2.09472 -1.826172,-2.10816 -1.826172,-5.80078 0,-3.70606 1.826172,-5.80079 1.839599,-2.09472 5.075683,-2.09472 z"
         style="font-size:27.5px;fill:#172441;fill-opacity:1"
         id="path6058"
         inkscape:connector-curvature="0" />
      <path
         d="m 89.470112,377.34103 q -1.987305,0 -3.14209,1.55762 -1.154785,1.54419 -1.154785,4.24317 0,2.69897 1.141357,4.25659 1.154785,1.54419 3.155518,1.54419 1.973877,0 3.128662,-1.55762 1.154785,-1.55762 1.154785,-4.24316 0,-2.67212 -1.154785,-4.22974 -1.154785,-1.57105 -3.128662,-1.57105 z m 0,-2.09472 q 3.222656,0 5.062256,2.09472 1.839599,2.09473 1.839599,5.80079 0,3.69262 -1.839599,5.80078 -1.8396,2.09472 -5.062256,2.09472 -3.236084,0 -5.075684,-2.09472 -1.826172,-2.10816 -1.826172,-5.80078 0,-3.70606 1.826172,-5.80079 1.8396,-2.09472 5.075684,-2.09472 z"
         style="font-size:27.5px;fill:#172441;fill-opacity:1"
         id="path6060"
         inkscape:connector-curvature="0" />
      <path
         d="m 100.31972,387.23727 2.83325,0 0,3.41065 -2.83325,0 0,-3.41065 z"
         style="font-size:27.5px;fill:#172441;fill-opacity:1"
         id="path6062"
         inkscape:connector-curvature="0" />
      <path
         d="m 111.16933,371.33884 0,4.27002 5.08911,0 0,1.92016 -5.08911,0 0,8.16406 q 0,1.8396 0.49683,2.36329 0.51025,0.52368 2.05444,0.52368 l 2.53784,0 0,2.06787 -2.53784,0 q -2.86011,0 -3.94775,-1.06079 -1.08765,-1.07422 -1.08765,-3.89405 l 0,-8.16406 -1.81274,0 0,-1.92016 1.81274,0 0,-4.27002 2.48413,0 z"
         style="font-size:27.5px;fill:#172441;fill-opacity:1"
         id="path6064"
         inkscape:connector-curvature="0" />
      <path
         d="m 132.0226,375.60886 -5.43823,7.31811 5.72021,7.72095 -2.91381,0 -4.37745,-5.9082 -4.37744,5.9082 -2.91382,0 5.84107,-7.86865 -5.34424,-7.17041 2.91382,0 3.98804,5.35766 3.98803,-5.35766 2.91382,0 z"
         style="font-size:27.5px;fill:#172441;fill-opacity:1"
         id="path6066"
         inkscape:connector-curvature="0" />
      <path
         d="m 138.23964,371.33884 0,4.27002 5.08911,0 0,1.92016 -5.08911,0 0,8.16406 q 0,1.8396 0.49683,2.36329 0.51025,0.52368 2.05444,0.52368 l 2.53784,0 0,2.06787 -2.53784,0 q -2.8601,0 -3.94775,-1.06079 -1.08765,-1.07422 -1.08765,-3.89405 l 0,-8.16406 -1.81274,0 0,-1.92016 1.81274,0 0,-4.27002 2.48413,0 z"
         style="font-size:27.5px;fill:#172441;fill-opacity:1"
         id="path6068"
         inkscape:connector-curvature="0" />
    </g>
    <g
       style="font-style:normal;font-weight:normal;font-size:40px;line-height:125%;font-family:sans-serif;letter-spacing:0px;word-spacing:0px;fill:#172441;fill-opacity:1;stroke:none;stroke-width:1px;stroke-linecap:butt;stroke-linejoin:miter;stroke-opacity:1"
       id="text4357-3"
       transform="translate(0,-20)">
      <path
         d="m 441.66617,464.92346 q -1.98731,0 -3.14209,1.55762 -1.15479,1.54419 -1.15479,4.24316 0,2.69898 1.14136,4.25659 1.15479,1.54419 3.15552,1.54419 1.97388,0 3.12866,-1.55761 1.15479,-1.55762 1.15479,-4.24317 0,-2.67212 -1.15479,-4.22973 -1.15478,-1.57105 -3.12866,-1.57105 z m 0,-2.09472 q 3.22265,0 5.06225,2.09472 1.8396,2.09473 1.8396,5.80078 0,3.69263 -1.8396,5.80078 -1.8396,2.09473 -5.06225,2.09473 -3.23609,0 -5.07569,-2.09473 -1.82617,-2.10815 -1.82617,-5.80078 0,-3.70605 1.82617,-5.80078 1.8396,-2.09472 5.07569,-2.09472 z"
         style="font-size:27.5px;fill:#172441;fill-opacity:1"
         id="path6071"
         inkscape:connector-curvature="0" />
      <path
         d="m 452.39493,472.29529 0,-9.10401 2.4707,0 0,9.01001 q 0,2.13501 0.83252,3.20923 0.83252,1.06079 2.49756,1.06079 2.00073,0 3.15552,-1.27563 1.16821,-1.27564 1.16821,-3.47778 l 0,-8.52662 2.4707,0 0,15.03907 -2.4707,0 0,-2.30957 q -0.89966,1.36963 -2.09473,2.04101 -1.18164,0.65796 -2.75268,0.65796 -2.59156,0 -3.93433,-1.61133 -1.34277,-1.61133 -1.34277,-4.71313 z m 6.21704,-9.46655 0,0 z"
         style="font-size:27.5px;fill:#172441;fill-opacity:1"
         id="path6073"
         inkscape:connector-curvature="0" />
      <path
         d="m 472.54996,458.92126 0,4.27002 5.08911,0 0,1.92017 -5.08911,0 0,8.16406 q 0,1.8396 0.49682,2.36328 0.51026,0.52369 2.05445,0.52369 l 2.53784,0 0,2.06787 -2.53784,0 q -2.86011,0 -3.94776,-1.06079 -1.08764,-1.07422 -1.08764,-3.89405 l 0,-8.16406 -1.81275,0 0,-1.92017 1.81275,0 0,-4.27002 2.48413,0 z"
         style="font-size:27.5px;fill:#172441;fill-opacity:1"
         id="path6075"
         inkscape:connector-curvature="0" />
      <path
         d="m 491.69791,470.72424 q 0,-2.72583 -1.12793,-4.27002 -1.11451,-1.55761 -3.07495,-1.55761 -1.96045,0 -3.08838,1.55761 -1.11451,1.54419 -1.11451,4.27002 0,2.72583 1.11451,4.28345 1.12793,1.54419 3.08838,1.54419 1.96044,0 3.07495,-1.54419 1.12793,-1.55762 1.12793,-4.28345 z m -8.40577,-5.25024 q 0.77881,-1.34277 1.96045,-1.98731 1.19507,-0.65795 2.84668,-0.65795 2.73926,0 4.44458,2.17529 1.71875,2.17529 1.71875,5.72021 0,3.54493 -1.71875,5.72022 -1.70532,2.17529 -4.44458,2.17529 -1.65161,0 -2.84668,-0.64453 -1.18164,-0.65796 -1.96045,-2.00073 l 0,2.25586 -2.48413,0 0,-20.89356 2.48413,0 0,8.13721 z"
         style="font-size:27.5px;fill:#172441;fill-opacity:1"
         id="path6077"
         inkscape:connector-curvature="0" />
      <path
         d="m 498.10294,472.29529 0,-9.10401 2.4707,0 0,9.01001 q 0,2.13501 0.83252,3.20923 0.83252,1.06079 2.49756,1.06079 2.00073,0 3.15551,-1.27563 1.16822,-1.27564 1.16822,-3.47778 l 0,-8.52662 2.4707,0 0,15.03907 -2.4707,0 0,-2.30957 q -0.89966,1.36963 -2.09473,2.04101 -1.18164,0.65796 -2.75268,0.65796 -2.59156,0 -3.93433,-1.61133 -1.34277,-1.61133 -1.34277,-4.71313 z m 6.21704,-9.46655 0,0 z"
         style="font-size:27.5px;fill:#172441;fill-opacity:1"
         id="path6079"
         inkscape:connector-curvature="0" />
      <path
         d="m 532.69278,457.33679 0,2.05445 -2.36328,0 q -1.32935,0 -1.85303,0.5371 -0.51025,0.53711 -0.51025,1.9336 l 0,1.32934 4.0686,0 0,1.92017 -4.0686,0 0,13.1189 -2.48413,0 0,-13.1189 -6.78101,0 0,13.1189 -2.48413,0 0,-13.1189 -2.36328,0 0,-1.92017 2.36328,0 0,-1.04736 q 0,-2.51099 1.16821,-3.65234 1.16822,-1.15479 3.70606,-1.15479 l 2.33642,0 0,2.05445 -2.36328,0 q -1.32934,0 -1.85303,0.5371 -0.51025,0.53711 -0.51025,1.9336 l 0,1.32934 6.78101,0 0,-1.04736 q 0,-2.51099 1.16821,-3.65234 1.16821,-1.15479 3.70605,-1.15479 l 2.33643,0 z"
         style="font-size:27.5px;fill:#172441;fill-opacity:1"
         id="path6081"
         inkscape:connector-curvature="0" />
      <path
         d="m 547.63785,470.09314 0,1.2085 -11.35987,0 q 0.16114,2.55127 1.53077,3.89404 1.38305,1.32934 3.84033,1.32934 1.42334,0 2.75268,-0.34912 1.34278,-0.34912 2.6587,-1.04736 l 0,2.33643 q -1.32935,0.56396 -2.72583,0.85937 -1.39649,0.29541 -2.83326,0.29541 -3.59863,0 -5.70678,-2.09473 -2.09473,-2.09472 -2.09473,-5.6665 0,-3.69263 1.9873,-5.85449 2.00074,-2.17529 5.38453,-2.17529 3.03466,0 4.7937,1.96044 1.77246,1.94703 1.77246,5.30396 z m -2.47071,-0.7251 q -0.0268,-2.02759 -1.14135,-3.23608 -1.10108,-1.2085 -2.92725,-1.2085 -2.06787,0 -3.31665,1.16821 -1.23535,1.16822 -1.42334,3.2898 l 8.80859,-0.0134 z"
         style="font-size:27.5px;fill:#172441;fill-opacity:1"
         id="path6083"
         inkscape:connector-curvature="0" />
      <path
         d="m 560.40762,465.50085 q -0.41626,-0.24169 -0.91308,-0.34912 -0.4834,-0.12085 -1.07422,-0.12085 -2.09473,0 -3.22266,1.36963 -1.1145,1.3562 -1.1145,3.90747 l 0,7.92237 -2.48413,0 0,-15.03907 2.48413,0 0,2.33643 q 0.77881,-1.36963 2.02759,-2.02759 1.24878,-0.67138 3.03467,-0.67138 0.25512,0 0.56396,0.0403 0.30884,0.0269 0.68482,0.094 l 0.0134,2.53784 z"
         style="font-size:27.5px;fill:#172441;fill-opacity:1"
         id="path6085"
         inkscape:connector-curvature="0" />
    </g>
    <g
       style="font-style:normal;font-weight:normal;font-size:40px;line-height:125%;font-family:sans-serif;letter-spacing:0px;word-spacing:0px;fill:#172441;fill-opacity:1;stroke:none;stroke-width:1px;stroke-linecap:butt;stroke-linejoin:miter;stroke-opacity:1"
       id="text5996-3"
       transform="translate(0,-20)">
      <path
         d="m 446.63443,442.34924 q 0,-2.72583 -1.12793,-4.27002 -1.1145,-1.55761 -3.07495,-1.55761 -1.96045,0 -3.08838,1.55761 -1.1145,1.54419 -1.1145,4.27002 0,2.72583 1.1145,4.28345 1.12793,1.54419 3.08838,1.54419 1.96045,0 3.07495,-1.54419 1.12793,-1.55762 1.12793,-4.28345 z m -8.40576,-5.25024 q 0.77881,-1.34277 1.96045,-1.98731 1.19507,-0.65795 2.84668,-0.65795 2.73925,0 4.44458,2.17529 1.71875,2.17529 1.71875,5.72021 0,3.54493 -1.71875,5.72022 -1.70533,2.17529 -4.44458,2.17529 -1.65161,0 -2.84668,-0.64453 -1.18164,-0.65796 -1.96045,-2.00073 l 0,2.25586 -2.48413,0 0,-20.89356 2.48413,0 0,8.13721 z"
         style="font-size:27.5px;fill:#172441;fill-opacity:1"
         id="path6088"
         inkscape:connector-curvature="0" />
      <path
         d="m 460.1293,442.29553 q -2.99438,0 -4.14917,0.68482 -1.15478,0.68481 -1.15478,2.33642 0,1.31592 0.85937,2.09473 0.87281,0.76538 2.36328,0.76538 2.05445,0 3.2898,-1.4502 1.24878,-1.46362 1.24878,-3.88061 l 0,-0.55054 -2.45728,0 z m 4.92798,-1.02051 0,8.58033 -2.4707,0 0,-2.28272 q -0.84595,1.36963 -2.10816,2.02759 -1.2622,0.64453 -3.08837,0.64453 -2.30958,0 -3.6792,-1.28906 -1.35621,-1.30249 -1.35621,-3.47778 0,-2.53785 1.6919,-3.82691 1.70532,-1.28906 5.07568,-1.28906 l 3.46436,0 0,-0.2417 q 0,-1.70532 -1.12793,-2.63184 -1.1145,-0.93994 -3.14209,-0.93994 -1.28906,0 -2.51099,0.30884 -1.22192,0.30884 -2.34985,0.92651 l 0,-2.28271 q 1.3562,-0.52368 2.63183,-0.77881 1.27564,-0.26855 2.48414,-0.26855 3.26294,0 4.87426,1.69189 1.61133,1.69189 1.61133,5.12939 z"
         style="font-size:27.5px;fill:#172441;fill-opacity:1"
         id="path6090"
         inkscape:connector-curvature="0" />
      <path
         d="m 478.87442,437.12585 q -0.41626,-0.24169 -0.91309,-0.34912 -0.48339,-0.12085 -1.07421,-0.12085 -2.09473,0 -3.22266,1.36963 -1.1145,1.3562 -1.1145,3.90747 l 0,7.92237 -2.48413,0 0,-15.03907 2.48413,0 0,2.33643 q 0.77881,-1.36963 2.02759,-2.02759 1.24877,-0.67138 3.03466,-0.67138 0.25513,0 0.56397,0.0403 0.30884,0.0269 0.68481,0.094 l 0.0134,2.53784 z"
         style="font-size:27.5px;fill:#172441;fill-opacity:1"
         id="path6092"
         inkscape:connector-curvature="0" />
      <path
         d="m 479.31754,446.4447 2.83325,0 0,3.41065 -2.83325,0 0,-3.41065 z"
         style="font-size:27.5px;fill:#172441;fill-opacity:1"
         id="path6094"
         inkscape:connector-curvature="0" />
      <path
         d="m 500.22452,440.7782 0,9.07715 -2.47071,0 0,-8.99659 q 0,-2.13501 -0.83251,-3.1958 -0.83252,-1.06079 -2.49756,-1.06079 -2.00074,0 -3.15552,1.27564 -1.15479,1.27563 -1.15479,3.47778 l 0,8.49976 -2.48413,0 0,-20.89356 2.48413,0 0,8.19092 q 0.88623,-1.3562 2.0813,-2.02759 1.2085,-0.67138 2.77954,-0.67138 2.59156,0 3.9209,1.61132 1.32935,1.5979 1.32935,4.71314 z"
         style="font-size:27.5px;fill:#172441;fill-opacity:1"
         id="path6096"
         inkscape:connector-curvature="0" />
    </g>
  </g>
</svg>
