<?xml version="1.0" encoding="UTF-8" standalone="no"?>
<!-- Created with Inkscape (http://www.inkscape.org/) -->

<svg
   xmlns:dc="http://purl.org/dc/elements/1.1/"
   xmlns:cc="http://creativecommons.org/ns#"
   xmlns:rdf="http://www.w3.org/1999/02/22-rdf-syntax-ns#"
   xmlns:svg="http://www.w3.org/2000/svg"
   xmlns="http://www.w3.org/2000/svg"
   xmlns:sodipodi="http://sodipodi.sourceforge.net/DTD/sodipodi-0.dtd"
   xmlns:inkscape="http://www.inkscape.org/namespaces/inkscape"
   width="202.43651mm"
   height="158.0873mm"
   viewBox="0 0 717.29471 560.15183"
   id="svg2"
   version="1.1"
   inkscape:version="0.91 r13725"
   sodipodi:docname="crates.svg">
  <defs
     id="defs4">
    <marker
       inkscape:stockid="Arrow2Send"
       orient="auto"
       refY="0"
       refX="0"
       id="marker5502"
       style="overflow:visible"
       inkscape:isstock="true">
      <path
         id="path5504"
         style="fill:#004445;fill-opacity:1;fill-rule:evenodd;stroke:#004445;stroke-width:0.625;stroke-linejoin:round;stroke-opacity:1"
         d="M 8.7185878,4.0337352 -2.2072895,0.01601326 8.7185884,-4.0017078 c -1.7454984,2.3720609 -1.7354408,5.6174519 -6e-7,8.035443 z"
         transform="matrix(-0.3,0,0,-0.3,0.69,0)"
         inkscape:connector-curvature="0" />
    </marker>
    <marker
       inkscape:stockid="Arrow2Send"
       orient="auto"
       refY="0"
       refX="0"
       id="marker5252"
       style="overflow:visible"
       inkscape:isstock="true">
      <path
         id="path5254"
         style="fill:#172441;fill-opacity:1;fill-rule:evenodd;stroke:#172441;stroke-width:0.625;stroke-linejoin:round;stroke-opacity:1"
         d="M 8.7185878,4.0337352 -2.2072895,0.01601326 8.7185884,-4.0017078 c -1.7454984,2.3720609 -1.7354408,5.6174519 -6e-7,8.035443 z"
         transform="matrix(-0.3,0,0,-0.3,0.69,0)"
         inkscape:connector-curvature="0" />
    </marker>
    <marker
       inkscape:isstock="true"
       style="overflow:visible"
       id="marker5182"
       refX="0"
       refY="0"
       orient="auto"
       inkscape:stockid="Arrow2Send">
      <path
         transform="matrix(-0.3,0,0,-0.3,0.69,0)"
         d="M 8.7185878,4.0337352 -2.2072895,0.01601326 8.7185884,-4.0017078 c -1.7454984,2.3720609 -1.7354408,5.6174519 -6e-7,8.035443 z"
         style="fill:#004445;fill-opacity:1;fill-rule:evenodd;stroke:#004445;stroke-width:0.625;stroke-linejoin:round;stroke-opacity:1"
         id="path5184"
         inkscape:connector-curvature="0" />
    </marker>
    <marker
       inkscape:stockid="Arrow2Mend"
       orient="auto"
       refY="0"
       refX="0"
       id="Arrow2Mend"
       style="overflow:visible"
       inkscape:isstock="true">
      <path
         id="path4341"
         style="fill:#004445;fill-opacity:1;fill-rule:evenodd;stroke:#004445;stroke-width:0.625;stroke-linejoin:round;stroke-opacity:1"
         d="M 8.7185878,4.0337352 -2.2072895,0.01601326 8.7185884,-4.0017078 c -1.7454984,2.3720609 -1.7354408,5.6174519 -6e-7,8.035443 z"
         transform="scale(-0.6,-0.6)"
         inkscape:connector-curvature="0" />
    </marker>
    <marker
       inkscape:stockid="Arrow2Send"
       orient="auto"
       refY="0"
       refX="0"
       id="marker4840"
       style="overflow:visible"
       inkscape:isstock="true"
       inkscape:collect="always">
      <path
         id="path4842"
         style="fill:#172441;fill-opacity:1;fill-rule:evenodd;stroke:#172441;stroke-width:0.625;stroke-linejoin:round;stroke-opacity:1"
         d="M 8.7185878,4.0337352 -2.2072895,0.01601326 8.7185884,-4.0017078 c -1.7454984,2.3720609 -1.7354408,5.6174519 -6e-7,8.035443 z"
         transform="matrix(-0.3,0,0,-0.3,0.69,0)"
         inkscape:connector-curvature="0" />
    </marker>
    <marker
       inkscape:stockid="Arrow2Send"
       orient="auto"
       refY="0"
       refX="0"
       id="marker4668"
       style="overflow:visible"
       inkscape:isstock="true">
      <path
         id="path4670"
         style="fill:#172441;fill-opacity:1;fill-rule:evenodd;stroke:#172441;stroke-width:0.625;stroke-linejoin:round;stroke-opacity:1"
         d="M 8.7185878,4.0337352 -2.2072895,0.01601326 8.7185884,-4.0017078 c -1.7454984,2.3720609 -1.7354408,5.6174519 -6e-7,8.035443 z"
         transform="matrix(-0.3,0,0,-0.3,0.69,0)"
         inkscape:connector-curvature="0" />
    </marker>
    <marker
       inkscape:stockid="Arrow2Send"
       orient="auto"
       refY="0"
       refX="0"
       id="Arrow2Send"
       style="overflow:visible"
       inkscape:isstock="true">
      <path
         id="path4347"
         style="fill:#172441;fill-opacity:1;fill-rule:evenodd;stroke:#172441;stroke-width:0.625;stroke-linejoin:round;stroke-opacity:1"
         d="M 8.7185878,4.0337352 -2.2072895,0.01601326 8.7185884,-4.0017078 c -1.7454984,2.3720609 -1.7354408,5.6174519 -6e-7,8.035443 z"
         transform="matrix(-0.3,0,0,-0.3,0.69,0)"
         inkscape:connector-curvature="0" />
    </marker>
    <marker
       inkscape:stockid="Arrow1Mend"
       orient="auto"
       refY="0"
       refX="0"
       id="Arrow1Mend"
       style="overflow:visible"
       inkscape:isstock="true">
      <path
         id="path4323"
         d="M 0,0 5,-5 -12.5,0 5,5 0,0 Z"
         style="fill:#004445;fill-opacity:1;fill-rule:evenodd;stroke:#004445;stroke-width:1pt;stroke-opacity:1"
         transform="matrix(-0.4,0,0,-0.4,-4,0)"
         inkscape:connector-curvature="0" />
    </marker>
  </defs>
  <sodipodi:namedview
     id="base"
     pagecolor="#ffffff"
     bordercolor="#666666"
     borderopacity="1.0"
     inkscape:pageopacity="0.0"
     inkscape:pageshadow="2"
     inkscape:zoom="0.49497475"
     inkscape:cx="714.49567"
     inkscape:cy="246.85259"
     inkscape:document-units="px"
     inkscape:current-layer="layer1"
     showgrid="false"
     inkscape:window-width="1366"
     inkscape:window-height="704"
     inkscape:window-x="0"
     inkscape:window-y="27"
     inkscape:window-maximized="1"
     fit-margin-top="10"
     fit-margin-left="10"
     fit-margin-right="10"
     fit-margin-bottom="10" />
  <metadata
     id="metadata7">
    <rdf:RDF>
      <cc:Work
         rdf:about="">
        <dc:format>image/svg+xml</dc:format>
        <dc:type
           rdf:resource="http://purl.org/dc/dcmitype/StillImage" />
        <dc:title />
      </cc:Work>
    </rdf:RDF>
  </metadata>
  <g
     inkscape:label="Livello 1"
     inkscape:groupmode="layer"
     id="layer1"
     transform="translate(-19.924084,-21.571984)">
    <flowRoot
       xml:space="preserve"
       id="flowRoot3338"
       style="font-style:normal;font-weight:normal;font-size:40px;line-height:125%;font-family:sans-serif;letter-spacing:0px;word-spacing:0px;fill:#000000;fill-opacity:1;stroke:none;stroke-width:1px;stroke-linecap:butt;stroke-linejoin:miter;stroke-opacity:1"><flowRegion
         id="flowRegion3340"><rect
           id="rect3342"
           width="222.85715"
           height="95.714287"
           x="95.714287"
           y="165.21935" /></flowRegion><flowPara
         id="flowPara3344" /></flowRoot>    <rect
       style="fill:#f5404f;fill-opacity:1;fill-rule:evenodd;stroke:#172441;stroke-width:5;stroke-linecap:butt;stroke-linejoin:miter;stroke-miterlimit:4;stroke-dasharray:none;stroke-opacity:1"
       id="rect3336"
       width="224.28572"
       height="94.285713"
       x="272.85715"
       y="59.505054" />
    <g
       transform="translate(205.14259,-101.69275)"
       style="font-style:normal;font-weight:normal;font-size:40px;line-height:125%;font-family:sans-serif;letter-spacing:0px;word-spacing:0px;fill:#ffffff;fill-opacity:1;stroke:none;stroke-width:1px;stroke-linecap:butt;stroke-linejoin:miter;stroke-opacity:1"
       id="flowRoot3346">
      <path
         inkscape:connector-curvature="0"
         d="m 123.58789,200.8602 q -0.60547,-0.35156 -1.32812,-0.50781 -0.70313,-0.17578 -1.5625,-0.17578 -3.04688,0 -4.6875,1.99218 -1.6211,1.97266 -1.6211,5.6836 l 0,11.52344 -3.61328,0 0,-21.875 3.61328,0 0,3.39843 q 1.13281,-1.99218 2.94922,-2.94922 1.81641,-0.97656 4.41406,-0.97656 0.3711,0 0.82032,0.0586 0.44921,0.0391 0.99609,0.13671 l 0.0195,3.69141 z"
         id="path5753" />
      <path
         inkscape:connector-curvature="0"
         d="m 127.39648,197.50083 3.59375,0 0,21.875 -3.59375,0 0,-21.875 z m 0,-8.51563 3.59375,0 0,4.55078 -3.59375,0 0,-4.55078 z"
         id="path5755" />
      <path
         inkscape:connector-curvature="0"
         d="m 141.9668,216.09458 0,11.60156 -3.61328,0 0,-30.19531 3.61328,0 0,3.32031 q 1.13281,-1.95313 2.85156,-2.89063 1.73828,-0.95703 4.14062,-0.95703 3.98438,0 6.46485,3.16406 2.5,3.16407 2.5,8.32032 0,5.15625 -2.5,8.32031 -2.48047,3.16406 -6.46485,3.16406 -2.40234,0 -4.14062,-0.9375 -1.71875,-0.95703 -2.85156,-2.91015 z m 12.22656,-7.63672 q 0,-3.96485 -1.64063,-6.21094 -1.62109,-2.26563 -4.47265,-2.26563 -2.85156,0 -4.49219,2.26563 -1.62109,2.24609 -1.62109,6.21094 0,3.96484 1.62109,6.23047 1.64063,2.24609 4.49219,2.24609 2.85156,0 4.47265,-2.24609 1.64063,-2.26563 1.64063,-6.23047 z"
         id="path5757" />
      <path
         inkscape:connector-curvature="0"
         d="m 178.27539,208.18442 q 0,-3.90625 -1.62109,-6.05469 -1.60157,-2.14844 -4.51172,-2.14844 -2.89063,0 -4.51172,2.14844 -1.60156,2.14844 -1.60156,6.05469 0,3.88672 1.60156,6.03516 1.62109,2.14843 4.51172,2.14843 2.91015,0 4.51172,-2.14843 1.62109,-2.14844 1.62109,-6.03516 z m 3.59375,8.47656 q 0,5.58594 -2.48047,8.30078 -2.48047,2.73438 -7.59765,2.73438 -1.89454,0 -3.57422,-0.29297 -1.67969,-0.27344 -3.26172,-0.85938 l 0,-3.49609 q 1.58203,0.85938 3.125,1.26953 1.54297,0.41016 3.14453,0.41016 3.53516,0 5.29297,-1.85547 1.75781,-1.83594 1.75781,-5.56641 l 0,-1.77734 q -1.11328,1.93359 -2.85156,2.89062 -1.73828,0.95704 -4.16016,0.95704 -4.02344,0 -6.48437,-3.06641 -2.46094,-3.06641 -2.46094,-8.125 0,-5.07813 2.46094,-8.14453 2.46093,-3.06641 6.48437,-3.06641 2.42188,0 4.16016,0.95703 1.73828,0.95703 2.85156,2.89063 l 0,-3.32031 3.59375,0 0,19.16015 z"
         id="path5759" />
      <path
         inkscape:connector-curvature="0"
         d="m 201.94727,200.8602 q -0.60547,-0.35156 -1.32813,-0.50781 -0.70312,-0.17578 -1.5625,-0.17578 -3.04687,0 -4.6875,1.99218 -1.62109,1.97266 -1.62109,5.6836 l 0,11.52344 -3.61328,0 0,-21.875 3.61328,0 0,3.39843 q 1.13281,-1.99218 2.94922,-2.94922 1.8164,-0.97656 4.41406,-0.97656 0.37109,0 0.82031,0.0586 0.44922,0.0391 0.99609,0.13671 l 0.0195,3.69141 z"
         id="path5761" />
      <path
         inkscape:connector-curvature="0"
         d="m 223.60742,207.53989 0,1.75781 -16.52344,0 q 0.23438,3.71094 2.22657,5.66406 2.01172,1.9336 5.58593,1.9336 2.07032,0 4.00391,-0.50782 1.95313,-0.50781 3.86719,-1.52343 l 0,3.39843 q -1.9336,0.82032 -3.96485,1.25 -2.03125,0.42969 -4.12109,0.42969 -5.23437,0 -8.30078,-3.04687 -3.04688,-3.04688 -3.04688,-8.24219 0,-5.37109 2.89063,-8.51563 2.91016,-3.16406 7.83203,-3.16406 4.41406,0 6.97266,2.85156 2.57812,2.83204 2.57812,7.71485 z m -3.59375,-1.05469 q -0.0391,-2.94922 -1.66015,-4.70703 -1.60157,-1.75781 -4.25782,-1.75781 -3.00781,0 -4.82422,1.69922 -1.79687,1.69921 -2.07031,4.78515 l 12.8125,-0.0195 z"
         id="path5763" />
      <path
         inkscape:connector-curvature="0"
         d="m 232.98242,216.09458 0,11.60156 -3.61328,0 0,-30.19531 3.61328,0 0,3.32031 q 1.13281,-1.95313 2.85156,-2.89063 1.73829,-0.95703 4.14063,-0.95703 3.98437,0 6.46484,3.16406 2.5,3.16407 2.5,8.32032 0,5.15625 -2.5,8.32031 -2.48047,3.16406 -6.46484,3.16406 -2.40234,0 -4.14063,-0.9375 -1.71875,-0.95703 -2.85156,-2.91015 z m 12.22656,-7.63672 q 0,-3.96485 -1.64062,-6.21094 -1.62109,-2.26563 -4.47266,-2.26563 -2.85156,0 -4.49218,2.26563 -1.6211,2.24609 -1.6211,6.21094 0,3.96484 1.6211,6.23047 1.64062,2.24609 4.49218,2.24609 2.85157,0 4.47266,-2.24609 1.64062,-2.26563 1.64062,-6.23047 z"
         id="path5765" />
    </g>
    <rect
       y="449.50504"
       x="274.28571"
       height="94.285713"
       width="224.28572"
       id="rect3354"
       style="fill:#f86f7c;fill-opacity:1;fill-rule:evenodd;stroke:#172441;stroke-width:5;stroke-linecap:butt;stroke-linejoin:miter;stroke-miterlimit:4;stroke-dasharray:none;stroke-opacity:1" />
    <g
       transform="translate(204.92076,288.30725)"
       style="font-style:normal;font-weight:normal;font-size:40px;line-height:125%;font-family:sans-serif;letter-spacing:0px;word-spacing:0px;fill:#ffffff;fill-opacity:1;stroke:none;stroke-width:1px;stroke-linecap:butt;stroke-linejoin:miter;stroke-opacity:1"
       id="flowRoot3356">
      <path
         inkscape:connector-curvature="0"
         d="m 125.30664,208.18442 q 0,-3.90625 -1.62109,-6.05469 -1.60157,-2.14844 -4.51172,-2.14844 -2.89063,0 -4.51172,2.14844 -1.60156,2.14844 -1.60156,6.05469 0,3.88672 1.60156,6.03516 1.62109,2.14843 4.51172,2.14843 2.91015,0 4.51172,-2.14843 1.62109,-2.14844 1.62109,-6.03516 z m 3.59375,8.47656 q 0,5.58594 -2.48047,8.30078 -2.48047,2.73438 -7.59765,2.73438 -1.89454,0 -3.57422,-0.29297 -1.67969,-0.27344 -3.26172,-0.85938 l 0,-3.49609 q 1.58203,0.85938 3.125,1.26953 1.54297,0.41016 3.14453,0.41016 3.53516,0 5.29297,-1.85547 1.75781,-1.83594 1.75781,-5.56641 l 0,-1.77734 q -1.11328,1.93359 -2.85156,2.89062 -1.73828,0.95704 -4.16016,0.95704 -4.02344,0 -6.48437,-3.06641 -2.46094,-3.06641 -2.46094,-8.125 0,-5.07813 2.46094,-8.14453 2.46093,-3.06641 6.48437,-3.06641 2.42188,0 4.16016,0.95703 1.73828,0.95703 2.85156,2.89063 l 0,-3.32031 3.59375,0 0,19.16015 z"
         id="path5801" />
      <path
         inkscape:connector-curvature="0"
         d="m 136.30273,188.9852 3.59375,0 0,30.39063 -3.59375,0 0,-30.39063 z"
         id="path5803" />
      <path
         inkscape:connector-curvature="0"
         d="m 155.87305,200.02036 q -2.89063,0 -4.57032,2.26562 -1.67968,2.2461 -1.67968,6.17188 0,3.92578 1.66015,6.1914 1.67969,2.2461 4.58985,2.2461 2.87109,0 4.55078,-2.26563 1.67969,-2.26562 1.67969,-6.17187 0,-3.88672 -1.67969,-6.15235 -1.67969,-2.28515 -4.55078,-2.28515 z m 0,-3.04688 q 4.6875,0 7.36328,3.04688 2.67578,3.04687 2.67578,8.4375 0,5.37109 -2.67578,8.4375 -2.67578,3.04687 -7.36328,3.04687 -4.70703,0 -7.38282,-3.04687 -2.65625,-3.06641 -2.65625,-8.4375 0,-5.39063 2.65625,-8.4375 2.67579,-3.04688 7.38282,-3.04688 z"
         id="path5805" />
      <path
         inkscape:connector-curvature="0"
         d="m 187.55273,208.45786 q 0,-3.96485 -1.64062,-6.21094 -1.62109,-2.26563 -4.47266,-2.26563 -2.85156,0 -4.49218,2.26563 -1.6211,2.24609 -1.6211,6.21094 0,3.96484 1.6211,6.23047 1.64062,2.24609 4.49218,2.24609 2.85157,0 4.47266,-2.24609 1.64062,-2.26563 1.64062,-6.23047 z m -12.22656,-7.63672 q 1.13281,-1.95313 2.85156,-2.89063 1.73829,-0.95703 4.14063,-0.95703 3.98437,0 6.46484,3.16406 2.5,3.16407 2.5,8.32032 0,5.15625 -2.5,8.32031 -2.48047,3.16406 -6.46484,3.16406 -2.40234,0 -4.14063,-0.9375 -1.71875,-0.95703 -2.85156,-2.91015 l 0,3.28125 -3.61328,0 0,-30.39063 3.61328,0 0,11.83594 z"
         id="path5807" />
      <path
         inkscape:connector-curvature="0"
         d="m 211.18555,198.14536 0,3.39843 q -1.52344,-0.78125 -3.16407,-1.17187 -1.64062,-0.39063 -3.39843,-0.39063 -2.67578,0 -4.02344,0.82032 -1.32813,0.82031 -1.32813,2.46093 0,1.25 0.95704,1.97266 0.95703,0.70313 3.84765,1.34766 l 1.23047,0.27343 q 3.82813,0.82032 5.42969,2.32422 1.62109,1.48438 1.62109,4.16016 0,3.04687 -2.42187,4.82422 -2.40235,1.77734 -6.6211,1.77734 -1.75781,0 -3.67187,-0.35156 -1.89453,-0.33203 -4.00391,-1.01563 l 0,-3.71093 q 1.99219,1.03515 3.92578,1.5625 1.9336,0.50781 3.82813,0.50781 2.53906,0 3.90625,-0.85938 1.36719,-0.8789 1.36719,-2.46093 0,-1.46485 -0.9961,-2.2461 -0.97656,-0.78125 -4.3164,-1.5039 l -1.25,-0.29297 q -3.33985,-0.70313 -4.82422,-2.14844 -1.48438,-1.46484 -1.48438,-4.00391 0,-3.08593 2.1875,-4.76562 2.1875,-1.67969 6.21094,-1.67969 1.99219,0 3.75,0.29297 1.75781,0.29297 3.24219,0.87891 z"
         id="path5809" />
      <path
         inkscape:connector-curvature="0"
         d="m 236.81055,207.53989 0,1.75781 -16.52344,0 q 0.23437,3.71094 2.22656,5.66406 2.01172,1.9336 5.58594,1.9336 2.07031,0 4.00391,-0.50782 1.95312,-0.50781 3.86718,-1.52343 l 0,3.39843 q -1.93359,0.82032 -3.96484,1.25 -2.03125,0.42969 -4.12109,0.42969 -5.23438,0 -8.30079,-3.04687 -3.04687,-3.04688 -3.04687,-8.24219 0,-5.37109 2.89062,-8.51563 2.91016,-3.16406 7.83204,-3.16406 4.41406,0 6.97265,2.85156 2.57813,2.83204 2.57813,7.71485 z m -3.59375,-1.05469 q -0.0391,-2.94922 -1.66016,-4.70703 -1.60156,-1.75781 -4.25781,-1.75781 -3.00781,0 -4.82422,1.69922 -1.79688,1.69921 -2.07031,4.78515 l 12.8125,-0.0195 z"
         id="path5811" />
      <path
         inkscape:connector-curvature="0"
         d="m 246.26367,191.28989 0,6.21094 7.40235,0 0,2.79296 -7.40235,0 0,11.875 q 0,2.67579 0.72266,3.4375 0.74219,0.76172 2.98828,0.76172 l 3.69141,0 0,3.00782 -3.69141,0 q -4.16016,0 -5.74219,-1.54297 -1.58203,-1.5625 -1.58203,-5.66407 l 0,-11.875 -2.63672,0 0,-2.79296 2.63672,0 0,-6.21094 3.61328,0 z"
         id="path5813" />
    </g>
    <rect
       y="232.36221"
       x="57.857155"
       height="94.285713"
       width="224.28572"
       id="rect3354-3"
       style="fill:#f86f7c;fill-opacity:1;fill-rule:evenodd;stroke:#172441;stroke-width:5;stroke-linecap:butt;stroke-linejoin:miter;stroke-miterlimit:4;stroke-dasharray:none;stroke-opacity:1" />
    <g
       transform="translate(-1.24412,71.1644)"
       style="font-style:normal;font-weight:normal;font-size:40px;line-height:125%;font-family:sans-serif;letter-spacing:0px;word-spacing:0px;fill:#ffffff;fill-opacity:1;stroke:none;stroke-width:1px;stroke-linecap:butt;stroke-linejoin:miter;stroke-opacity:1"
       id="flowRoot3356-6">
      <path
         inkscape:connector-curvature="0"
         d="m 110.91211,197.50083 3.59375,0 0,21.875 -3.59375,0 0,-21.875 z m 0,-8.51563 3.59375,0 0,4.55078 -3.59375,0 0,-4.55078 z"
         id="path5779" />
      <path
         inkscape:connector-curvature="0"
         d="m 136.40039,208.18442 q 0,-3.90625 -1.62109,-6.05469 -1.60157,-2.14844 -4.51172,-2.14844 -2.89063,0 -4.51172,2.14844 -1.60156,2.14844 -1.60156,6.05469 0,3.88672 1.60156,6.03516 1.62109,2.14843 4.51172,2.14843 2.91015,0 4.51172,-2.14843 1.62109,-2.14844 1.62109,-6.03516 z m 3.59375,8.47656 q 0,5.58594 -2.48047,8.30078 -2.48047,2.73438 -7.59765,2.73438 -1.89454,0 -3.57422,-0.29297 -1.67969,-0.27344 -3.26172,-0.85938 l 0,-3.49609 q 1.58203,0.85938 3.125,1.26953 1.54297,0.41016 3.14453,0.41016 3.53516,0 5.29297,-1.85547 1.75781,-1.83594 1.75781,-5.56641 l 0,-1.77734 q -1.11328,1.93359 -2.85156,2.89062 -1.73828,0.95704 -4.16016,0.95704 -4.02344,0 -6.48437,-3.06641 -2.46094,-3.06641 -2.46094,-8.125 0,-5.07813 2.46094,-8.14453 2.46093,-3.06641 6.48437,-3.06641 2.42188,0 4.16016,0.95703 1.73828,0.95703 2.85156,2.89063 l 0,-3.32031 3.59375,0 0,19.16015 z"
         id="path5781" />
      <path
         inkscape:connector-curvature="0"
         d="m 165.58008,206.1727 0,13.20313 -3.59375,0 0,-13.08594 q 0,-3.10547 -1.21094,-4.64844 -1.21094,-1.54297 -3.63281,-1.54297 -2.91016,0 -4.58985,1.85547 -1.67968,1.85547 -1.67968,5.05859 l 0,12.36329 -3.61328,0 0,-21.875 3.61328,0 0,3.39843 q 1.28906,-1.97265 3.02734,-2.94922 1.75781,-0.97656 4.04297,-0.97656 3.76953,0 5.70312,2.34375 1.9336,2.32422 1.9336,6.85547 z"
         id="path5783" />
      <path
         inkscape:connector-curvature="0"
         d="m 181.26367,200.02036 q -2.89062,0 -4.57031,2.26562 -1.67969,2.2461 -1.67969,6.17188 0,3.92578 1.66016,6.1914 1.67969,2.2461 4.58984,2.2461 2.8711,0 4.55078,-2.26563 1.67969,-2.26562 1.67969,-6.17187 0,-3.88672 -1.67969,-6.15235 -1.67968,-2.28515 -4.55078,-2.28515 z m 0,-3.04688 q 4.6875,0 7.36328,3.04688 2.67578,3.04687 2.67578,8.4375 0,5.37109 -2.67578,8.4375 -2.67578,3.04687 -7.36328,3.04687 -4.70703,0 -7.38281,-3.04687 -2.65625,-3.06641 -2.65625,-8.4375 0,-5.39063 2.65625,-8.4375 2.67578,-3.04688 7.38281,-3.04688 z"
         id="path5785" />
      <path
         inkscape:connector-curvature="0"
         d="m 209.91602,200.8602 q -0.60547,-0.35156 -1.32813,-0.50781 -0.70312,-0.17578 -1.5625,-0.17578 -3.04687,0 -4.6875,1.99218 -1.62109,1.97266 -1.62109,5.6836 l 0,11.52344 -3.61328,0 0,-21.875 3.61328,0 0,3.39843 q 1.13281,-1.99218 2.94922,-2.94922 1.8164,-0.97656 4.41406,-0.97656 0.37109,0 0.82031,0.0586 0.44922,0.0391 0.99609,0.13671 l 0.0195,3.69141 z"
         id="path5787" />
      <path
         inkscape:connector-curvature="0"
         d="m 231.57617,207.53989 0,1.75781 -16.52344,0 q 0.23438,3.71094 2.22657,5.66406 2.01172,1.9336 5.58593,1.9336 2.07032,0 4.00391,-0.50782 1.95313,-0.50781 3.86719,-1.52343 l 0,3.39843 q -1.9336,0.82032 -3.96485,1.25 -2.03125,0.42969 -4.12109,0.42969 -5.23437,0 -8.30078,-3.04687 -3.04688,-3.04688 -3.04688,-8.24219 0,-5.37109 2.89063,-8.51563 2.91016,-3.16406 7.83203,-3.16406 4.41406,0 6.97266,2.85156 2.57812,2.83204 2.57812,7.71485 z m -3.59375,-1.05469 q -0.0391,-2.94922 -1.66015,-4.70703 -1.60157,-1.75781 -4.25782,-1.75781 -3.00781,0 -4.82422,1.69922 -1.79687,1.69921 -2.07031,4.78515 l 12.8125,-0.0195 z"
         id="path5789" />
    </g>
    <rect
       y="278.07651"
       x="475"
       height="94.285713"
       width="224.28572"
       id="rect3354-5"
       style="fill:#f86f7c;fill-opacity:1;fill-rule:evenodd;stroke:#172441;stroke-width:5;stroke-linecap:butt;stroke-linejoin:miter;stroke-miterlimit:4;stroke-dasharray:none;stroke-opacity:1" />
    <g
       transform="translate(434.4827,112.88453)"
       style="font-style:normal;font-weight:normal;font-size:40px;line-height:125%;font-family:sans-serif;letter-spacing:0px;word-spacing:0px;fill:#ffffff;fill-opacity:1;stroke:none;stroke-width:1px;stroke-linecap:butt;stroke-linejoin:miter;stroke-opacity:1"
       id="flowRoot3356-62">
      <path
         inkscape:connector-curvature="0"
         d="m 125.30664,208.18442 q 0,-3.90625 -1.62109,-6.05469 -1.60157,-2.14844 -4.51172,-2.14844 -2.89063,0 -4.51172,2.14844 -1.60156,2.14844 -1.60156,6.05469 0,3.88672 1.60156,6.03516 1.62109,2.14843 4.51172,2.14843 2.91015,0 4.51172,-2.14843 1.62109,-2.14844 1.62109,-6.03516 z m 3.59375,8.47656 q 0,5.58594 -2.48047,8.30078 -2.48047,2.73438 -7.59765,2.73438 -1.89454,0 -3.57422,-0.29297 -1.67969,-0.27344 -3.26172,-0.85938 l 0,-3.49609 q 1.58203,0.85938 3.125,1.26953 1.54297,0.41016 3.14453,0.41016 3.53516,0 5.29297,-1.85547 1.75781,-1.83594 1.75781,-5.56641 l 0,-1.77734 q -1.11328,1.93359 -2.85156,2.89062 -1.73828,0.95704 -4.16016,0.95704 -4.02344,0 -6.48437,-3.06641 -2.46094,-3.06641 -2.46094,-8.125 0,-5.07813 2.46094,-8.14453 2.46093,-3.06641 6.48437,-3.06641 2.42188,0 4.16016,0.95703 1.73828,0.95703 2.85156,2.89063 l 0,-3.32031 3.59375,0 0,19.16015 z"
         id="path5792" />
      <path
         inkscape:connector-curvature="0"
         d="m 148.97852,200.8602 q -0.60547,-0.35156 -1.32813,-0.50781 -0.70312,-0.17578 -1.5625,-0.17578 -3.04687,0 -4.6875,1.99218 -1.62109,1.97266 -1.62109,5.6836 l 0,11.52344 -3.61328,0 0,-21.875 3.61328,0 0,3.39843 q 1.13281,-1.99218 2.94922,-2.94922 1.8164,-0.97656 4.41406,-0.97656 0.37109,0 0.82031,0.0586 0.44922,0.0391 0.99609,0.13671 l 0.0195,3.69141 z"
         id="path5794" />
      <path
         inkscape:connector-curvature="0"
         d="m 170.63867,207.53989 0,1.75781 -16.52344,0 q 0.23438,3.71094 2.22657,5.66406 2.01172,1.9336 5.58593,1.9336 2.07032,0 4.00391,-0.50782 1.95313,-0.50781 3.86719,-1.52343 l 0,3.39843 q -1.9336,0.82032 -3.96485,1.25 -2.03125,0.42969 -4.12109,0.42969 -5.23437,0 -8.30078,-3.04687 -3.04688,-3.04688 -3.04688,-8.24219 0,-5.37109 2.89063,-8.51563 2.91016,-3.16406 7.83203,-3.16406 4.41406,0 6.97266,2.85156 2.57812,2.83204 2.57812,7.71485 z m -3.59375,-1.05469 q -0.0391,-2.94922 -1.66015,-4.70703 -1.60157,-1.75781 -4.25782,-1.75781 -3.00781,0 -4.82422,1.69922 -1.79687,1.69921 -2.07031,4.78515 l 12.8125,-0.0195 z"
         id="path5796" />
      <path
         inkscape:connector-curvature="0"
         d="m 180.01367,216.09458 0,11.60156 -3.61328,0 0,-30.19531 3.61328,0 0,3.32031 q 1.13281,-1.95313 2.85156,-2.89063 1.73829,-0.95703 4.14063,-0.95703 3.98437,0 6.46484,3.16406 2.5,3.16407 2.5,8.32032 0,5.15625 -2.5,8.32031 -2.48047,3.16406 -6.46484,3.16406 -2.40234,0 -4.14063,-0.9375 -1.71875,-0.95703 -2.85156,-2.91015 z m 12.22656,-7.63672 q 0,-3.96485 -1.64062,-6.21094 -1.62109,-2.26563 -4.47266,-2.26563 -2.85156,0 -4.49218,2.26563 -1.6211,2.24609 -1.6211,6.21094 0,3.96484 1.6211,6.23047 1.64062,2.24609 4.49218,2.24609 2.85157,0 4.47266,-2.24609 1.64062,-2.26563 1.64062,-6.23047 z"
         id="path5798" />
    </g>
    <path
       style="fill:none;fill-rule:evenodd;stroke:#172441;stroke-width:10;stroke-linecap:butt;stroke-linejoin:miter;stroke-miterlimit:4;stroke-dasharray:none;stroke-opacity:1;marker-end:url(#Arrow2Send)"
       d="M 495.17857,103.79078 C 583.75,105.21935 640,174.77862 640,264.77862"
       id="path4272"
       inkscape:connector-curvature="0"
       sodipodi:nodetypes="cc" />
    <path
       style="fill:none;fill-rule:evenodd;stroke:#172441;stroke-width:10;stroke-linecap:butt;stroke-linejoin:miter;stroke-miterlimit:4;stroke-dasharray:none;stroke-opacity:1;marker-end:url(#marker4668)"
       d="m 273.39286,98.07649 c -125.71428,0 -138.17839,71.84789 -138.17839,121.84789"
       id="path4303"
       inkscape:connector-curvature="0"
       sodipodi:nodetypes="cc" />
    <path
       style="fill:none;fill-rule:evenodd;stroke:#172441;stroke-width:10;stroke-linecap:butt;stroke-linejoin:miter;stroke-miterlimit:4;stroke-dasharray:none;stroke-opacity:1;marker-end:url(#marker4840)"
       d="m 429.28571,152.71934 -40,284.64287"
       id="path4266"
       inkscape:connector-curvature="0"
       sodipodi:nodetypes="cc" />
    <path
       style="fill:none;fill-rule:evenodd;stroke:#172441;stroke-width:10;stroke-linecap:butt;stroke-linejoin:miter;stroke-miterlimit:4;stroke-dasharray:none;stroke-opacity:1;marker-end:url(#marker5252)"
       d="m 150.71428,328.07648 c 4.28572,80 6.42857,151.07144 112.14286,166.78572"
       id="path4270"
       inkscape:connector-curvature="0"
       sodipodi:nodetypes="cc" />
  </g>
</svg>
