<?xml version="1.0" encoding="UTF-8" standalone="no"?>
<svg
   xmlns:dc="http://purl.org/dc/elements/1.1/"
   xmlns:cc="http://creativecommons.org/ns#"
   xmlns:rdf="http://www.w3.org/1999/02/22-rdf-syntax-ns#"
   xmlns:svg="http://www.w3.org/2000/svg"
   xmlns="http://www.w3.org/2000/svg"
   xmlns:sodipodi="http://sodipodi.sourceforge.net/DTD/sodipodi-0.dtd"
   xmlns:inkscape="http://www.inkscape.org/namespaces/inkscape"
   width="288.00577mm"
   height="181.74915mm"
   viewBox="0 0 288.00577 181.74915"
   version="1.1"
   id="svg8"
   inkscape:version="1.0.2 (e86c870879, 2021-01-15)"
   sodipodi:docname="motion-detector.svg">
  <sodipodi:namedview
     id="base"
     pagecolor="#ffffff"
     bordercolor="#666666"
     borderopacity="1.0"
     inkscape:pageopacity="0.0"
     inkscape:pageshadow="2"
     inkscape:zoom="0.7"
     inkscape:cx="495.56037"
     inkscape:cy="361.21707"
     inkscape:document-units="mm"
     inkscape:current-layer="layer1"
     showgrid="false"
     inkscape:window-width="1440"
     inkscape:window-height="746"
     inkscape:window-x="0"
     inkscape:window-y="27"
     inkscape:window-maximized="1"
     fit-margin-top="10"
     fit-margin-left="10"
     fit-margin-right="10"
     fit-margin-bottom="10"
     inkscape:document-rotation="0" />
  <defs
     id="defs2">
    <marker
       inkscape:isstock="true"
       style="overflow:visible"
       id="marker4548"
       refX="0"
       refY="0"
       orient="auto"
       inkscape:stockid="Arrow2Send">
      <path
         transform="matrix(-0.3,0,0,-0.3,0.69,0)"
         d="M 8.7185878,4.0337352 -2.2072895,0.01601326 8.7185884,-4.0017078 c -1.7454984,2.3720609 -1.7354408,5.6174519 -6e-7,8.035443 z"
         style="fill:#000000;fill-opacity:1;fill-rule:evenodd;stroke:#000000;stroke-width:0.625;stroke-linejoin:round;stroke-opacity:1"
         id="path4546"
         inkscape:connector-curvature="0" />
    </marker>
    <marker
       inkscape:stockid="Arrow2Send"
       orient="auto"
       refY="0"
       refX="0"
       id="marker12260"
       style="overflow:visible"
       inkscape:isstock="true">
      <path
         id="path12258"
         style="fill:#000000;fill-opacity:1;fill-rule:evenodd;stroke:#000000;stroke-width:0.625;stroke-linejoin:round;stroke-opacity:1"
         d="M 8.7185878,4.0337352 -2.2072895,0.01601326 8.7185884,-4.0017078 c -1.7454984,2.3720609 -1.7354408,5.6174519 -6e-7,8.035443 z"
         transform="matrix(-0.3,0,0,-0.3,0.69,0)"
         inkscape:connector-curvature="0" />
    </marker>
    <marker
       inkscape:stockid="Arrow2Sstart"
       orient="auto"
       refY="0"
       refX="0"
       id="marker12136"
       style="overflow:visible"
       inkscape:isstock="true">
      <path
         id="path12134"
         style="fill:#000000;fill-opacity:1;fill-rule:evenodd;stroke:#000000;stroke-width:0.625;stroke-linejoin:round;stroke-opacity:1"
         d="M 8.7185878,4.0337352 -2.2072895,0.01601326 8.7185884,-4.0017078 c -1.7454984,2.3720609 -1.7354408,5.6174519 -6e-7,8.035443 z"
         transform="matrix(0.3,0,0,0.3,-0.69,0)"
         inkscape:connector-curvature="0" />
    </marker>
    <marker
       inkscape:stockid="Arrow2Send"
       orient="auto"
       refY="0"
       refX="0"
       id="marker11310"
       style="overflow:visible"
       inkscape:isstock="true">
      <path
         id="path11308"
         style="fill:#000000;fill-opacity:1;fill-rule:evenodd;stroke:#000000;stroke-width:0.625;stroke-linejoin:round;stroke-opacity:1"
         d="M 8.7185878,4.0337352 -2.2072895,0.01601326 8.7185884,-4.0017078 c -1.7454984,2.3720609 -1.7354408,5.6174519 -6e-7,8.035443 z"
         transform="matrix(-0.3,0,0,-0.3,0.69,0)"
         inkscape:connector-curvature="0" />
    </marker>
    <marker
       inkscape:isstock="true"
       style="overflow:visible"
       id="marker6708"
       refX="0"
       refY="0"
       orient="auto"
       inkscape:stockid="Arrow2Send">
      <path
         transform="matrix(-0.3,0,0,-0.3,0.69,0)"
         d="M 8.7185878,4.0337352 -2.2072895,0.01601326 8.7185884,-4.0017078 c -1.7454984,2.3720609 -1.7354408,5.6174519 -6e-7,8.035443 z"
         style="fill:#000000;fill-opacity:1;fill-rule:evenodd;stroke:#000000;stroke-width:0.625;stroke-linejoin:round;stroke-opacity:1"
         id="path6706"
         inkscape:connector-curvature="0" />
    </marker>
    <marker
       inkscape:stockid="Arrow2Sstart"
       orient="auto"
       refY="0"
       refX="0"
       id="Arrow2Sstart"
       style="overflow:visible"
       inkscape:isstock="true">
      <path
         id="path4584"
         style="fill:#000000;fill-opacity:1;fill-rule:evenodd;stroke:#000000;stroke-width:0.625;stroke-linejoin:round;stroke-opacity:1"
         d="M 8.7185878,4.0337352 -2.2072895,0.01601326 8.7185884,-4.0017078 c -1.7454984,2.3720609 -1.7354408,5.6174519 -6e-7,8.035443 z"
         transform="matrix(0.3,0,0,0.3,-0.69,0)"
         inkscape:connector-curvature="0" />
    </marker>
    <marker
       inkscape:isstock="true"
       style="overflow:visible"
       id="marker6334"
       refX="0"
       refY="0"
       orient="auto"
       inkscape:stockid="Arrow2Send">
      <path
         transform="matrix(-0.3,0,0,-0.3,0.69,0)"
         d="M 8.7185878,4.0337352 -2.2072895,0.01601326 8.7185884,-4.0017078 c -1.7454984,2.3720609 -1.7354408,5.6174519 -6e-7,8.035443 z"
         style="fill:#000000;fill-opacity:1;fill-rule:evenodd;stroke:#000000;stroke-width:0.625;stroke-linejoin:round;stroke-opacity:1"
         id="path6332"
         inkscape:connector-curvature="0" />
    </marker>
    <marker
       inkscape:isstock="true"
       style="overflow:visible"
       id="marker5056"
       refX="0"
       refY="0"
       orient="auto"
       inkscape:stockid="Arrow2Send">
      <path
         transform="matrix(-0.3,0,0,-0.3,0.69,0)"
         d="M 8.7185878,4.0337352 -2.2072895,0.01601326 8.7185884,-4.0017078 c -1.7454984,2.3720609 -1.7354408,5.6174519 -6e-7,8.035443 z"
         style="fill:#000000;fill-opacity:1;fill-rule:evenodd;stroke:#000000;stroke-width:0.625;stroke-linejoin:round;stroke-opacity:1"
         id="path5054"
         inkscape:connector-curvature="0" />
    </marker>
  </defs>
  <metadata
     id="metadata5">
    <rdf:RDF>
      <cc:Work
         rdf:about="">
        <dc:format>image/svg+xml</dc:format>
        <dc:type
           rdf:resource="http://purl.org/dc/dcmitype/StillImage" />
        <dc:title />
      </cc:Work>
    </rdf:RDF>
  </metadata>
  <g
     inkscape:groupmode="layer"
     id="layer5"
     inkscape:label="Layer 2">
    <rect
       style="fill:#ffffff;stroke-width:0.264583"
       id="rect1528"
       width="282.85007"
       height="176.35966"
       x="2.4092984"
       y="3.1125882" />
  </g>
  <g
     inkscape:label="Layer 1"
     inkscape:groupmode="layer"
     id="layer1"
     transform="translate(38.090572,-9.5701555)">
    <path
       style="color:#000000;font-style:normal;font-variant:normal;font-weight:normal;font-stretch:normal;font-size:medium;line-height:normal;font-family:sans-serif;font-variant-ligatures:normal;font-variant-position:normal;font-variant-caps:normal;font-variant-numeric:normal;font-variant-alternates:normal;font-feature-settings:normal;text-indent:0;text-align:start;text-decoration:none;text-decoration-line:none;text-decoration-style:solid;text-decoration-color:#000000;letter-spacing:normal;word-spacing:normal;text-transform:none;writing-mode:lr-tb;direction:ltr;text-orientation:mixed;dominant-baseline:auto;baseline-shift:baseline;text-anchor:start;white-space:normal;shape-padding:0;clip-rule:nonzero;display:inline;overflow:visible;visibility:visible;opacity:1;isolation:auto;mix-blend-mode:normal;color-interpolation:sRGB;color-interpolation-filters:linearRGB;solid-color:#000000;solid-opacity:1;vector-effect:none;fill:#172441;fill-opacity:1;fill-rule:nonzero;stroke:none;stroke-width:10;stroke-linecap:butt;stroke-linejoin:miter;stroke-miterlimit:4;stroke-dasharray:none;stroke-dashoffset:0;stroke-opacity:1;color-rendering:auto;image-rendering:auto;shape-rendering:auto;text-rendering:auto;enable-background:accumulate"
       d="m 100.99805,449.83984 c 14.14689,41.396 42.37247,78.30558 80.29297,107.44141 46.56725,35.77949 107.78596,60.00173 176.01953,66.96289 v -10.0625 c -66.09154,-6.93174 -125.22,-30.47737 -169.92774,-64.82812 -35.6124,-27.36245 -62.03672,-61.46449 -75.80859,-99.51368 z"
       transform="scale(0.26458333)"
       id="path4539"
       inkscape:connector-curvature="0" />
    <path
       style="color:#000000;font-style:normal;font-variant:normal;font-weight:normal;font-stretch:normal;font-size:medium;line-height:normal;font-family:sans-serif;font-variant-ligatures:normal;font-variant-position:normal;font-variant-caps:normal;font-variant-numeric:normal;font-variant-alternates:normal;font-feature-settings:normal;text-indent:0;text-align:start;text-decoration:none;text-decoration-line:none;text-decoration-style:solid;text-decoration-color:#000000;letter-spacing:normal;word-spacing:normal;text-transform:none;writing-mode:lr-tb;direction:ltr;text-orientation:mixed;dominant-baseline:auto;baseline-shift:baseline;text-anchor:start;white-space:normal;shape-padding:0;clip-rule:nonzero;display:inline;overflow:visible;visibility:visible;opacity:1;isolation:auto;mix-blend-mode:normal;color-interpolation:sRGB;color-interpolation-filters:linearRGB;solid-color:#000000;solid-opacity:1;vector-effect:none;fill:#f5404f;fill-opacity:1;fill-rule:nonzero;stroke:none;stroke-width:10;stroke-linecap:butt;stroke-linejoin:miter;stroke-miterlimit:4;stroke-dasharray:none;stroke-dashoffset:0;stroke-opacity:1;color-rendering:auto;image-rendering:auto;shape-rendering:auto;text-rendering:auto;enable-background:accumulate"
       d="m 398.00195,151.98633 c -84.4792,0 -161.05517,26.26478 -216.71093,69.02734 -50.71468,38.96612 -84.10816,91.83461 -89.638676,150.75195 h 10.039066 c 5.48698,-55.44758 37.02159,-105.42144 85.6914,-142.8164 53.70712,-41.26533 128.21615,-66.96875 210.61914,-66.96875 82.403,-1e-5 156.90613,25.70341 210.61328,66.96875 53.70713,41.26533 86.55274,97.84852 86.55274,160.20117 0,62.35264 -32.84561,118.93779 -86.55274,160.20313 -45.53331,34.98504 -106.01807,58.77091 -173.58789,65.20312 v 10.04297 c 69.70627,-6.45512 132.28589,-30.8993 179.68555,-67.31836 55.65577,-42.76256 90.45703,-102.26125 90.45703,-168.13086 4e-5,-65.86959 -34.80126,-125.37415 -90.45703,-168.13672 -55.65581,-42.76256 -132.23173,-69.02735 -216.71094,-69.02734 z"
       transform="scale(0.26458333)"
       id="path6965"
       inkscape:connector-curvature="0" />
    <circle
       r="18.970123"
       cy="104.61007"
       cx="2.8736916"
       id="circle6936"
       style="fill:none;fill-opacity:1;stroke:#172441;stroke-width:2.64583325;stroke-miterlimit:4;stroke-dasharray:none;stroke-opacity:1" />
    <circle
       style="fill:none;fill-opacity:1;stroke:#f5404f;stroke-width:2.64583325;stroke-miterlimit:4;stroke-dasharray:none;stroke-opacity:1"
       id="path6934"
       cx="209.77679"
       cy="99.318443"
       r="18.970123" />
    <path
       style="color:#000000;font-style:normal;font-variant:normal;font-weight:normal;font-stretch:normal;font-size:medium;line-height:normal;font-family:sans-serif;font-variant-ligatures:normal;font-variant-position:normal;font-variant-caps:normal;font-variant-numeric:normal;font-variant-alternates:normal;font-feature-settings:normal;text-indent:0;text-align:start;text-decoration:none;text-decoration-line:none;text-decoration-style:solid;text-decoration-color:#000000;letter-spacing:normal;word-spacing:normal;text-transform:none;writing-mode:lr-tb;direction:ltr;text-orientation:mixed;dominant-baseline:auto;baseline-shift:baseline;text-anchor:start;white-space:normal;shape-padding:0;clip-rule:nonzero;display:inline;overflow:visible;visibility:visible;opacity:1;isolation:auto;mix-blend-mode:normal;color-interpolation:sRGB;color-interpolation-filters:linearRGB;solid-color:#000000;solid-opacity:1;vector-effect:none;fill:#172441;fill-opacity:1;fill-rule:nonzero;stroke:none;stroke-width:10;stroke-linecap:butt;stroke-linejoin:miter;stroke-miterlimit:4;stroke-dasharray:none;stroke-dashoffset:0;stroke-opacity:1;color-rendering:auto;image-rendering:auto;shape-rendering:auto;text-rendering:auto;enable-background:accumulate"
       d="m 632.14258,403.49805 c -47.09218,11.54343 -89.2991,31.6066 -123.56641,57.93554 -32.62487,25.067 -58.06688,55.89021 -73.54883,90.3711 h 10.9668 c 14.8769,-31.19149 38.47891,-59.23846 68.67774,-82.44141 32.49229,-24.96514 72.60883,-44.21746 117.4707,-55.54297 z"
       transform="scale(0.26458333)"
       id="path6858"
       inkscape:connector-curvature="0" />
    <path
       style="color:#000000;font-style:normal;font-variant:normal;font-weight:normal;font-stretch:normal;font-size:medium;line-height:normal;font-family:sans-serif;font-variant-ligatures:normal;font-variant-position:normal;font-variant-caps:normal;font-variant-numeric:normal;font-variant-alternates:normal;font-feature-settings:normal;text-indent:0;text-align:start;text-decoration:none;text-decoration-line:none;text-decoration-style:solid;text-decoration-color:#000000;letter-spacing:normal;word-spacing:normal;text-transform:none;writing-mode:lr-tb;direction:ltr;text-orientation:mixed;dominant-baseline:auto;baseline-shift:baseline;text-anchor:start;white-space:normal;shape-padding:0;clip-rule:nonzero;display:inline;overflow:visible;visibility:visible;opacity:1;isolation:auto;mix-blend-mode:normal;color-interpolation:sRGB;color-interpolation-filters:linearRGB;solid-color:#000000;solid-opacity:1;vector-effect:none;fill:#172441;fill-opacity:1;fill-rule:nonzero;stroke:none;stroke-width:10;stroke-linecap:butt;stroke-linejoin:miter;stroke-miterlimit:4;stroke-dasharray:none;stroke-dashoffset:0;stroke-opacity:1;color-rendering:auto;image-rendering:auto;shape-rendering:auto;text-rendering:auto;enable-background:accumulate"
       d="m 373.93945,221.0918 c -14.23857,35.97705 -39.85897,68.24286 -73.85742,94.36523 -35.1726,27.02451 -79.26556,47.36836 -128.6543,58.19336 v 10.23633 c 51.59902,-10.98857 97.79002,-32.10216 134.75,-60.5 36.34211,-27.92309 63.78203,-62.98599 78.45508,-102.29492 z"
       transform="scale(0.26458333)"
       id="path6864"
       inkscape:connector-curvature="0" />
    <flowRoot
       xml:space="preserve"
       id="flowRoot4538"
       style="font-style:normal;font-weight:normal;font-size:40px;line-height:125%;font-family:sans-serif;letter-spacing:0px;word-spacing:0px;fill:#000000;fill-opacity:1;stroke:none;stroke-width:1px;stroke-linecap:butt;stroke-linejoin:miter;stroke-opacity:1"><flowRegion
         id="flowRegion4540"><rect
           id="rect4542"
           width="237.14285"
           height="317.14285"
           x="541.42859"
           y="142.51968" /></flowRegion><flowPara
         id="flowPara4544" /></flowRoot>
    <circle
       style="fill:#fbadb3;fill-opacity:1;fill-rule:evenodd;stroke:#172441;stroke-width:1.41111112;stroke-linecap:butt;stroke-linejoin:miter;stroke-miterlimit:4;stroke-dasharray:none;stroke-opacity:1"
       id="path3336"
       cx="29.093801"
       cy="105.62328"
       r="20.561905" />
    <g
       aria-label="IDLE"
       style="font-style:normal;font-weight:normal;font-size:10.58333302px;line-height:125%;font-family:sans-serif;letter-spacing:0px;word-spacing:0px;fill:#ffffff;fill-opacity:1;stroke:none;stroke-width:0.26458332px;stroke-linecap:butt;stroke-linejoin:miter;stroke-opacity:1"
       id="text4505"
       transform="translate(8.0019687,-118.17611)">
      <path
         inkscape:connector-curvature="0"
         d="m 10.02791,219.94174 h 1.043864 v 7.71529 H 10.02791 Z"
         style="font-size:10.58333397px;fill:#ffffff;fill-opacity:1;stroke-width:0.26458332px"
         id="path6773" />
      <path
         inkscape:connector-curvature="0"
         d="m 14.193031,220.79957 v 5.99963 h 1.260905 q 1.596802,0 2.335775,-0.72347 0.74414,-0.72347 0.74414,-2.2841 0,-1.55029 -0.74414,-2.26859 -0.738973,-0.72347 -2.335775,-0.72347 z m -1.043864,-0.85783 h 2.144572 q 2.242757,0 3.291789,0.93534 1.049032,0.93018 1.049032,2.91455 0,1.99471 -1.0542,2.93005 -1.054199,0.93535 -3.286621,0.93535 h -2.144572 z"
         style="font-size:10.58333397px;fill:#ffffff;fill-opacity:1;stroke-width:0.26458332px"
         id="path6775" />
      <path
         inkscape:connector-curvature="0"
         d="m 21.293373,219.94174 h 1.043864 v 6.83679 h 3.756877 v 0.8785 h -4.800741 z"
         style="font-size:10.58333397px;fill:#ffffff;fill-opacity:1;stroke-width:0.26458332px"
         id="path6777" />
      <path
         inkscape:connector-curvature="0"
         d="m 27.184486,219.94174 h 4.878256 v 0.8785 H 28.22835 v 2.28409 h 3.674195 v 0.8785 H 28.22835 v 2.7957 h 3.92741 v 0.8785 h -4.971274 z"
         style="font-size:10.58333397px;fill:#ffffff;fill-opacity:1;stroke-width:0.26458332px"
         id="path6779" />
    </g>
    <circle
       r="20.561905"
       cy="40.837616"
       cx="105.57803"
       id="circle4526"
       style="fill:#f75e6a;fill-opacity:1;fill-rule:evenodd;stroke:#172441;stroke-width:1.41111112;stroke-linecap:butt;stroke-linejoin:miter;stroke-miterlimit:4;stroke-dasharray:none;stroke-opacity:1" />
    <g
       aria-label="PRE"
       style="font-style:normal;font-weight:normal;font-size:10.58333302px;line-height:125%;font-family:sans-serif;letter-spacing:0px;word-spacing:0px;fill:#ffffff;fill-opacity:1;stroke:none;stroke-width:0.26458332px;stroke-linecap:butt;stroke-linejoin:miter;stroke-opacity:1"
       id="text4530"
       transform="translate(7.4728022,-122.40944)">
      <path
         inkscape:connector-curvature="0"
         d="m 89.790454,160.24723 v 2.89905 h 1.312581 q 0.728638,0 1.126546,-0.37724 0.397909,-0.37724 0.397909,-1.07487 0,-0.69247 -0.397909,-1.0697 -0.397908,-0.37724 -1.126546,-0.37724 z M 88.74659,159.3894 h 2.356445 q 1.297078,0 1.958537,0.58911 0.666626,0.58394 0.666626,1.71566 0,1.14205 -0.666626,1.72599 -0.661459,0.58394 -1.958537,0.58394 h -1.312581 v 3.10059 H 88.74659 Z"
         style="font-size:10.58333302px;fill:#ffffff;fill-opacity:1;stroke-width:0.26458332px"
         id="path6782" />
      <path
         inkscape:connector-curvature="0"
         d="m 98.792488,163.48734 q 0.335897,0.11369 0.651123,0.48576 0.320394,0.37207 0.640789,1.02319 l 1.05937,2.1084 h -1.12138 l -0.987023,-1.97921 q -0.382405,-0.77514 -0.74414,-1.02836 -0.356568,-0.25321 -0.976685,-0.25321 h -1.136881 v 3.26078 h -1.043864 v -7.71529 h 2.356445 q 1.322917,0 1.97404,0.55294 0.651118,0.55294 0.651118,1.66915 0,0.72863 -0.34106,1.20922 -0.335897,0.4806 -0.981852,0.66663 z m -2.614827,-3.24011 v 2.73885 h 1.312581 q 0.754476,0 1.136881,-0.34623 0.387574,-0.3514 0.387574,-1.02836 0,-0.67697 -0.387574,-1.01803 -0.382405,-0.34623 -1.136881,-0.34623 z"
         style="font-size:10.58333302px;fill:#ffffff;fill-opacity:1;stroke-width:0.26458332px"
         id="path6784" />
      <path
         inkscape:connector-curvature="0"
         d="m 102.49252,159.3894 h 4.87826 v 0.8785 h -3.8344 v 2.2841 h 3.6742 v 0.8785 h -3.6742 v 2.79569 h 3.92741 v 0.8785 h -4.97127 z"
         style="font-size:10.58333302px;fill:#ffffff;fill-opacity:1;stroke-width:0.26458332px"
         id="path6786" />
    </g>
    <g
       id="g6985">
      <g
         transform="translate(10.118635,-122.40944)"
         id="g6818">
        <circle
           style="fill:#f5404f;fill-opacity:1;fill-rule:evenodd;stroke:#172441;stroke-width:1.41111112;stroke-linecap:butt;stroke-linejoin:miter;stroke-miterlimit:4;stroke-dasharray:none;stroke-opacity:1"
           id="circle4546"
           cx="97.594246"
           cy="282.46127"
           r="20.561905" />
        <g
           aria-label="STILL"
           style="font-style:normal;font-weight:normal;font-size:10.58333302px;line-height:125%;font-family:sans-serif;letter-spacing:0px;word-spacing:0px;fill:#ffffff;fill-opacity:1;stroke:none;stroke-width:0.26458332px;stroke-linecap:butt;stroke-linejoin:miter;stroke-opacity:1"
           id="text4550">
          <path
             inkscape:connector-curvature="0"
             d="m 88.889353,278.85167 v 1.01803 q -0.594279,-0.28422 -1.121378,-0.42375 -0.5271,-0.13952 -1.018026,-0.13952 -0.852661,0 -1.317749,0.33073 -0.45992,0.33073 -0.45992,0.94051 0,0.51159 0.304891,0.77514 0.310058,0.25839 1.167887,0.41858 l 0.630453,0.12919 q 1.167887,0.22221 1.720825,0.78549 0.558105,0.5581 0.558105,1.49861 0,1.12138 -0.754476,1.70016 -0.749308,0.57877 -2.201416,0.57877 -0.54777,0 -1.167887,-0.12402 -0.61495,-0.12402 -1.276408,-0.3669 v -1.07487 q 0.63562,0.35656 1.245402,0.53743 0.609782,0.18087 1.198893,0.18087 0.894003,0 1.379761,-0.3514 0.485758,-0.3514 0.485758,-1.00252 0,-0.56844 -0.351399,-0.88884 -0.346232,-0.32039 -1.142049,-0.48059 L 86.135,282.76875 q -1.167888,-0.23255 -1.68982,-0.72864 -0.521932,-0.49609 -0.521932,-1.37976 0,-1.02319 0.718303,-1.6123 0.72347,-0.58912 1.989542,-0.58912 0.542603,0 1.105876,0.0982 0.563273,0.0982 1.152384,0.29455 z"
             style="font-size:10.58333302px;fill:#ffffff;fill-opacity:1;stroke-width:0.26458332px"
             id="path6800" />
          <path
             inkscape:connector-curvature="0"
             d="m 89.912547,278.59846 h 6.526733 v 0.8785 h -2.738851 v 6.83679 h -1.049032 v -6.83679 h -2.73885 z"
             style="font-size:10.58333302px;fill:#ffffff;fill-opacity:1;stroke-width:0.26458332px"
             id="path6802" />
          <path
             inkscape:connector-curvature="0"
             d="m 97.452138,278.59846 h 1.043864 v 7.71529 h -1.043864 z"
             style="font-size:10.58333302px;fill:#ffffff;fill-opacity:1;stroke-width:0.26458332px"
             id="path6804" />
          <path
             inkscape:connector-curvature="0"
             d="m 100.57339,278.59846 h 1.04387 v 6.83679 h 3.75688 v 0.8785 h -4.80075 z"
             style="font-size:10.58333302px;fill:#ffffff;fill-opacity:1;stroke-width:0.26458332px"
             id="path6806" />
          <path
             inkscape:connector-curvature="0"
             d="m 106.46451,278.59846 h 1.04386 v 6.83679 h 3.75688 v 0.8785 h -4.80074 z"
             style="font-size:10.58333302px;fill:#ffffff;fill-opacity:1;stroke-width:0.26458332px"
             id="path6808" />
        </g>
      </g>
    </g>
    <g
       id="g7003">
      <g
         id="g6952">
        <circle
           style="fill:#f5404f;fill-opacity:1;fill-rule:evenodd;stroke:#172441;stroke-width:1.41111112;stroke-linecap:butt;stroke-linejoin:miter;stroke-miterlimit:4;stroke-dasharray:none;stroke-opacity:1"
           id="circle4532"
           cx="181.49327"
           cy="100.70969"
           r="20.561905" />
        <g
           aria-label="ALARM"
           style="font-style:normal;font-weight:normal;font-size:10.58333302px;line-height:125%;font-family:sans-serif;letter-spacing:0px;word-spacing:0px;fill:#ffffff;fill-opacity:1;stroke:none;stroke-width:0.26458332px;stroke-linecap:butt;stroke-linejoin:miter;stroke-opacity:1"
           id="text4536"
           transform="translate(3.7686592,-124.52611)">
          <path
             inkscape:connector-curvature="0"
             d="m 162.73896,222.40651 -1.41593,3.83956 h 2.83703 z m -0.58911,-1.02836 h 1.18339 l 2.94039,7.71529 h -1.0852 l -0.7028,-1.9792 h -3.47783 l -0.7028,1.9792 h -1.10071 z"
             style="font-size:10.58333397px;fill:#ffffff;fill-opacity:1;stroke-width:0.26458332px"
             id="path6789" />
          <path
             inkscape:connector-curvature="0"
             d="m 167.39501,221.37815 h 1.04386 v 6.8368 h 3.75688 v 0.87849 h -4.80074 z"
             style="font-size:10.58333397px;fill:#ffffff;fill-opacity:1;stroke-width:0.26458332px"
             id="path6791" />
          <path
             inkscape:connector-curvature="0"
             d="m 176.11282,222.40651 -1.41593,3.83956 h 2.83704 z m -0.58911,-1.02836 h 1.18339 l 2.94039,7.71529 h -1.0852 l -0.7028,-1.9792 h -3.47783 l -0.7028,1.9792 h -1.1007 z"
             style="font-size:10.58333397px;fill:#ffffff;fill-opacity:1;stroke-width:0.26458332px"
             id="path6793" />
          <path
             inkscape:connector-curvature="0"
             d="m 184.42756,225.47609 q 0.3359,0.11369 0.65113,0.48576 0.32039,0.37207 0.64078,1.0232 l 1.05937,2.10839 h -1.12138 l -0.98702,-1.9792 q -0.3824,-0.77515 -0.74414,-1.02836 -0.35657,-0.25322 -0.97668,-0.25322 h -1.13688 v 3.26078 h -1.04387 v -7.71529 h 2.35645 q 1.32291,0 1.97404,0.55294 0.65112,0.55294 0.65112,1.66915 0,0.72864 -0.34106,1.20923 -0.3359,0.48059 -0.98186,0.66662 z m -2.61482,-3.24011 v 2.73885 h 1.31258 q 0.75447,0 1.13688,-0.34623 0.38757,-0.3514 0.38757,-1.02836 0,-0.67696 -0.38757,-1.01803 -0.38241,-0.34623 -1.13688,-0.34623 z"
             style="font-size:10.58333397px;fill:#ffffff;fill-opacity:1;stroke-width:0.26458332px"
             id="path6795" />
          <path
             inkscape:connector-curvature="0"
             d="m 188.1276,221.37815 h 1.55546 l 1.96887,5.25033 1.97921,-5.25033 h 1.55546 v 7.71529 h -1.01803 v -6.77478 l -1.98954,5.29167 H 191.13 l -1.98955,-5.29167 v 6.77478 h -1.01285 z"
             style="font-size:10.58333397px;fill:#ffffff;fill-opacity:1;stroke-width:0.26458332px"
             id="path6797" />
        </g>
      </g>
    </g>
    <path
       style="fill:#f5404f;fill-opacity:1;fill-rule:evenodd;stroke:none;stroke-width:0.49609372;stroke-linejoin:round;stroke-opacity:1"
       d="m 176.97476,124.32208 c 0,0 5.94796,-7.25164 5.94796,-7.25164 0,0 0.14609,9.13255 0.14609,9.13255 -1.39038,-1.87901 -3.85402,-2.63106 -6.09405,-1.88091 0,0 0,0 0,0"
       id="path6854"
       inkscape:connector-curvature="0" />
    <path
       style="fill:#172441;fill-opacity:1;fill-rule:evenodd;stroke:none;stroke-width:0.49609372;stroke-linejoin:round;stroke-opacity:1"
       d="m 30.674065,131.96604 c 0,0 -1.005202,-9.43621 -1.005202,-9.43621 0,0 6.524656,6.24159 6.524656,6.24159 -2.323296,-0.25591 -4.54852,1.04126 -5.519454,3.19462 0,0 0,0 0,0"
       id="path6852"
       inkscape:connector-curvature="0" />
    <path
       style="fill:#f5404f;fill-opacity:1;fill-rule:evenodd;stroke:none;stroke-width:0.49609372;stroke-linejoin:round;stroke-opacity:1"
       d="m 179.96736,73.673232 c 0,0 1.29395,9.430715 1.29395,9.430715 0,0 -6.6926,-6.03592 -6.6926,-6.03592 2.33112,0.170577 4.5073,-1.207288 5.39865,-3.394795 0,0 0,0 0,0"
       id="path6690"
       inkscape:connector-curvature="0" />
    <path
       style="fill:#f5404f;fill-opacity:1;fill-rule:evenodd;stroke:none;stroke-width:0.49609372;stroke-linejoin:round;stroke-opacity:1"
       d="m 79.612677,41.36722 c 0,0 9.174625,2.01218 9.174625,2.01218 0,0 -8.066684,4.26856 -8.066684,4.26856 1.037269,-2.09474 0.581928,-4.63005 -1.107941,-6.28074 0,0 0,0 0,0"
       id="path6850"
       inkscape:connector-curvature="0" />
    <path
       inkscape:connector-curvature="0"
       id="path6928"
       d="m 123.82626,139.25348 c 0,0 -7.12939,6.1151 -7.12939,6.1151 0,0 1.44705,-9.011 1.44705,-9.011 1.04836,2.08921 3.347,3.25171 5.68234,2.8959 0,0 0,0 0,0"
       style="fill:#172441;fill-opacity:1;fill-rule:evenodd;stroke:none;stroke-width:0.49609372;stroke-linejoin:round;stroke-opacity:1" />
    <path
       style="fill:#172441;fill-opacity:1;fill-rule:evenodd;stroke:none;stroke-width:0.49609372;stroke-linejoin:round;stroke-opacity:1"
       d="m 54.875989,101.04766 c 0,0 -9.519069,-0.007 -9.519069,-0.007 0,0 6.893779,-5.805075 6.893779,-5.805075 -0.487497,2.28595 0.580095,4.629988 2.62529,5.811875 0,0 0,0 0,0"
       id="path6930"
       inkscape:connector-curvature="0" />
    <path
       inkscape:connector-curvature="0"
       id="path6967"
       d="m 199.05389,119.32357 c 0,0 -4.12835,-8.42148 -4.12835,-8.42148 0,0 8.3692,3.65804 8.3692,3.65804 -2.28662,0.48495 -3.99349,2.41413 -4.24085,4.76344 0,0 0,0 0,0"
       style="fill:#f5404f;fill-opacity:1;fill-rule:evenodd;stroke:none;stroke-width:0.49609372;stroke-linejoin:round;stroke-opacity:1" />
    <path
       inkscape:connector-curvature="0"
       id="path6969"
       d="m 13.704857,84.681995 c 0,0 4.442594,8.385456 4.442594,8.385456 0,0 -8.3779752,-3.367214 -8.3779752,-3.367214 2.2518132,-0.626523 3.8349702,-2.658244 3.9353812,-5.018242 0,0 0,0 0,0"
       style="fill:#172441;fill-opacity:1;fill-rule:evenodd;stroke:none;stroke-width:0.49609372;stroke-linejoin:round;stroke-opacity:1" />
    <g
       aria-label="a"
       style="font-style:normal;font-weight:normal;font-size:10.58333302px;line-height:125%;font-family:sans-serif;letter-spacing:0px;word-spacing:0px;fill:#172441;fill-opacity:1;stroke:none;stroke-width:0.26458332px;stroke-linecap:butt;stroke-linejoin:miter;stroke-opacity:1"
       id="text7018">
      <path
         d="m -25.098507,103.59061 q -1.152384,0 -1.596802,0.26355 -0.444417,0.26355 -0.444417,0.89917 0,0.50643 0.330729,0.80615 0.335897,0.29456 0.909505,0.29456 0.79065,0 1.266073,-0.55811 0.480591,-0.56327 0.480591,-1.49345 v -0.21187 z m 1.896525,-0.39274 v 3.30212 h -0.950846 v -0.8785 q -0.325562,0.5271 -0.81132,0.78032 -0.485759,0.24804 -1.188558,0.24804 -0.888835,0 -1.415934,-0.49609 -0.521932,-0.50126 -0.521932,-1.33842 0,-0.97668 0.651123,-1.47278 0.65629,-0.49609 1.953369,-0.49609 h 1.333252 v -0.093 q 0,-0.65629 -0.434082,-1.01286 -0.428915,-0.36173 -1.209229,-0.36173 -0.496094,0 -0.966349,0.11885 -0.470256,0.11886 -0.904338,0.35657 v -0.8785 q 0.521932,-0.20154 1.012858,-0.29972 0.490926,-0.10335 0.956014,-0.10335 1.255738,0 1.875855,0.65112 0.620117,0.65112 0.620117,1.97404 z"
         style="fill:#172441;fill-opacity:1;stroke-width:0.26458332px"
         id="path7048"
         inkscape:connector-curvature="0" />
    </g>
    <g
       aria-label="b"
       style="font-style:normal;font-weight:normal;font-size:10.58333302px;line-height:125%;font-family:sans-serif;letter-spacing:0px;word-spacing:0px;fill:#172441;fill-opacity:1;stroke:none;stroke-width:0.26458332px;stroke-linecap:butt;stroke-linejoin:miter;stroke-opacity:1"
       id="text7022">
      <path
         d="m 47.107504,50.694612 q 0,-1.049032 -0.434082,-1.643311 -0.428914,-0.599446 -1.18339,-0.599446 -0.754476,0 -1.188558,0.599446 -0.428914,0.594279 -0.428914,1.643311 0,1.049031 0.428914,1.648478 0.434082,0.594279 1.188558,0.594279 0.754476,0 1.18339,-0.594279 0.434082,-0.599447 0.434082,-1.648478 z M 43.87256,48.674064 q 0.299723,-0.516765 0.754476,-0.764812 0.45992,-0.253214 1.09554,-0.253214 1.054199,0 1.71049,0.837158 0.661458,0.837158 0.661458,2.201416 0,1.364258 -0.661458,2.201416 -0.656291,0.837158 -1.71049,0.837158 -0.63562,0 -1.09554,-0.248047 -0.454753,-0.253214 -0.754476,-0.769979 v 0.868164 h -0.956014 v -8.040852 h 0.956014 z"
         style="fill:#172441;fill-opacity:1;stroke-width:0.26458332px"
         id="path7051"
         inkscape:connector-curvature="0" />
    </g>
    <g
       aria-label="c"
       style="font-style:normal;font-weight:normal;font-size:10.58333302px;line-height:125%;font-family:sans-serif;letter-spacing:0px;word-spacing:0px;fill:#172441;fill-opacity:1;stroke:none;stroke-width:0.26458332px;stroke-linecap:butt;stroke-linejoin:miter;stroke-opacity:1"
       id="text7026">
      <path
         d="m 90.585083,87.705277 v 0.888834 q -0.403076,-0.222208 -0.81132,-0.330729 -0.403076,-0.113688 -0.816488,-0.113688 -0.925008,0 -1.436604,0.589111 -0.511597,0.583944 -0.511597,1.643311 0,1.059367 0.511597,1.648478 0.511596,0.583944 1.436604,0.583944 0.413412,0 0.816488,-0.108521 0.408244,-0.113688 0.81132,-0.335897 v 0.8785 q -0.397909,0.186035 -0.826823,0.279052 -0.423747,0.09302 -0.904338,0.09302 -1.307413,0 -2.077392,-0.821655 -0.769979,-0.821656 -0.769979,-2.216919 0,-1.415934 0.775147,-2.227254 0.780314,-0.81132 2.134236,-0.81132 0.43925,0 0.857829,0.09302 0.418579,0.08785 0.81132,0.268718 z"
         style="fill:#172441;fill-opacity:1;stroke-width:0.26458332px"
         id="path7054"
         inkscape:connector-curvature="0" />
    </g>
    <g
       aria-label="d"
       style="font-style:normal;font-weight:normal;font-size:10.58333302px;line-height:125%;font-family:sans-serif;letter-spacing:0px;word-spacing:0px;fill:#172441;fill-opacity:1;stroke:none;stroke-width:0.26458332px;stroke-linecap:butt;stroke-linejoin:miter;stroke-opacity:1"
       id="text7030">
      <path
         d="M 163.93387,47.162162 V 44.03057 h 0.95084 v 8.040853 h -0.95084 v -0.868164 q -0.29973,0.516764 -0.75965,0.769978 -0.45475,0.248047 -1.09554,0.248047 -1.04903,0 -1.71049,-0.837158 -0.65629,-0.837158 -0.65629,-2.201416 0,-1.364258 0.65629,-2.201416 0.66146,-0.837158 1.71049,-0.837158 0.64079,0 1.09554,0.253214 0.45992,0.248047 0.75965,0.764812 z m -3.24011,2.020548 q 0,1.049032 0.42891,1.648478 0.43408,0.594279 1.18856,0.594279 0.75447,0 1.18856,-0.594279 0.43408,-0.599446 0.43408,-1.648478 0,-1.049031 -0.43408,-1.64331 -0.43409,-0.599447 -1.18856,-0.599447 -0.75448,0 -1.18856,0.599447 -0.42891,0.594279 -0.42891,1.64331 z"
         style="fill:#172441;fill-opacity:1;stroke-width:0.26458332px"
         id="path7060"
         inkscape:connector-curvature="0" />
    </g>
    <g
       aria-label="e"
       style="font-style:normal;font-weight:normal;font-size:10.58333302px;line-height:125%;font-family:sans-serif;letter-spacing:0px;word-spacing:0px;fill:#172441;fill-opacity:1;stroke:none;stroke-width:0.26458332px;stroke-linecap:butt;stroke-linejoin:miter;stroke-opacity:1"
       id="text7034">
      <path
         d="m 239.91521,97.698746 v 0.465088 h -4.37182 q 0.062,0.981852 0.58911,1.498616 0.53226,0.5116 1.47794,0.5116 0.54777,0 1.05937,-0.13436 0.51676,-0.134361 1.02319,-0.403078 v 0.899168 q -0.51159,0.21704 -1.04903,0.33073 -0.53743,0.11369 -1.09037,0.11369 -1.38493,0 -2.19625,-0.80615 -0.80615,-0.806155 -0.80615,-2.180749 0,-1.421101 0.76481,-2.253092 0.76998,-0.837158 2.07222,-0.837158 1.16789,0 1.84485,0.754476 0.68213,0.749308 0.68213,2.041219 z m -0.95084,-0.279053 q -0.0103,-0.780314 -0.43925,-1.245402 -0.42375,-0.465088 -1.12655,-0.465088 -0.79582,0 -1.27641,0.449585 -0.47542,0.449585 -0.54777,1.266073 z"
         style="fill:#172441;fill-opacity:1;stroke-width:0.26458332px"
         id="path7063"
         inkscape:connector-curvature="0" />
    </g>
    <g
       aria-label="f"
       style="font-style:normal;font-weight:normal;font-size:10.58333302px;line-height:125%;font-family:sans-serif;letter-spacing:0px;word-spacing:0px;fill:#172441;fill-opacity:1;stroke:none;stroke-width:0.26458332px;stroke-linecap:butt;stroke-linejoin:miter;stroke-opacity:1"
       id="text7038">
      <path
         d="m 136.97503,107.15259 v 0.79065 h -0.9095 q -0.5116,0 -0.71314,0.20671 -0.19637,0.2067 -0.19637,0.74414 v 0.51159 h 1.5658 v 0.73898 h -1.5658 v 5.04878 h -0.95601 v -5.04878 h -0.90951 v -0.73898 h 0.90951 v -0.40307 q 0,-0.96635 0.44958,-1.4056 0.44959,-0.44442 1.42627,-0.44442 z"
         style="fill:#172441;fill-opacity:1;stroke-width:0.26458332px"
         id="path7057"
         inkscape:connector-curvature="0" />
    </g>
    <g
       aria-label="g"
       style="font-style:normal;font-weight:normal;font-size:10.58333302px;line-height:125%;font-family:sans-serif;letter-spacing:0px;word-spacing:0px;fill:#172441;fill-opacity:1;stroke:none;stroke-width:0.26458332px;stroke-linecap:butt;stroke-linejoin:miter;stroke-opacity:1"
       id="text7042">
      <path
         d="m 171.49341,152.29787 q 0,-1.03353 -0.42892,-1.60197 -0.42374,-0.56844 -1.19372,-0.56844 -0.76481,0 -1.19373,0.56844 -0.42374,0.56844 -0.42374,1.60197 0,1.02836 0.42374,1.5968 0.42892,0.56844 1.19373,0.56844 0.76998,0 1.19372,-0.56844 0.42892,-0.56844 0.42892,-1.5968 z m 0.95084,2.24275 q 0,1.47795 -0.65629,2.19625 -0.65629,0.72347 -2.01021,0.72347 -0.50126,0 -0.94568,-0.0775 -0.44442,-0.0724 -0.86299,-0.22738 v -0.92501 q 0.41857,0.22738 0.82682,0.3359 0.40824,0.10852 0.83199,0.10852 0.93534,0 1.40043,-0.49093 0.46509,-0.48575 0.46509,-1.47277 v -0.47026 q -0.29456,0.5116 -0.75448,0.76481 -0.45992,0.25322 -1.10071,0.25322 -1.06453,0 -1.71565,-0.81132 -0.65113,-0.81132 -0.65113,-2.14974 0,-1.34359 0.65113,-2.15491 0.65112,-0.81132 1.71565,-0.81132 0.64079,0 1.10071,0.25321 0.45992,0.25322 0.75448,0.76482 v -0.8785 h 0.95084 z"
         style="fill:#172441;fill-opacity:1;stroke-width:0.26458332px"
         id="path7066"
         inkscape:connector-curvature="0" />
    </g>
    <g
       aria-label="h"
       style="font-style:normal;font-weight:normal;font-size:10.58333302px;line-height:125%;font-family:sans-serif;letter-spacing:0px;word-spacing:0px;fill:#172441;fill-opacity:1;stroke:none;stroke-width:0.26458332px;stroke-linecap:butt;stroke-linejoin:miter;stroke-opacity:1"
       id="text7046">
      <path
         d="m 53.433427,160.45904 v 3.49332 h -0.950846 v -3.46232 q 0,-0.82165 -0.320394,-1.2299 -0.320394,-0.40824 -0.961182,-0.40824 -0.769979,0 -1.214396,0.49092 -0.444417,0.49093 -0.444417,1.33842 v 3.27112 h -0.956014 v -8.04085 h 0.956014 v 3.15226 q 0.341064,-0.52193 0.800984,-0.78031 0.465088,-0.25838 1.069703,-0.25838 0.997355,0 1.508951,0.62011 0.511597,0.61495 0.511597,1.81385 z"
         style="fill:#172441;fill-opacity:1;stroke-width:0.26458332px"
         id="path7069"
         inkscape:connector-curvature="0" />
    </g>
  </g>
</svg>
